<svg width="157" height="176" viewBox="0 0 157 176" fill="none" xmlns="http://www.w3.org/2000/svg">
<path d="M145.737 73.8622C145.281 73.4212 144.738 73.0713 144.141 72.8324C143.543 72.5936 142.902 72.4706 142.255 72.4706C141.607 72.4706 140.966 72.5936 140.368 72.8324C139.771 73.0713 139.228 73.4212 138.772 73.8622L120.626 91.3164H36.366L18.2193 73.8622C17.2958 72.9763 16.0432 72.4786 14.7371 72.4786C13.431 72.4786 12.1784 72.9763 11.2549 73.8622C10.3313 74.7481 9.8125 75.9496 9.8125 77.2025C9.8125 78.4554 10.3313 79.6569 11.2549 80.5428L29.4506 97.95V161.886C29.4506 165.629 31.0008 169.219 33.7601 171.866C36.5195 174.513 40.2619 176 44.1642 176H112.827C116.73 176 120.472 174.513 123.231 171.866C125.991 169.219 127.541 165.629 127.541 161.886V97.95L145.737 80.5428C146.196 80.1054 146.561 79.5851 146.81 79.0118C147.059 78.4385 147.187 77.8236 147.187 77.2025C147.187 76.5814 147.059 75.9665 146.81 75.3932C146.561 74.8199 146.196 74.2996 145.737 73.8622ZM117.732 161.886C117.732 163.134 117.215 164.33 116.295 165.213C115.376 166.095 114.128 166.591 112.827 166.591H44.1642C42.8634 166.591 41.616 166.095 40.6962 165.213C39.7764 164.33 39.2597 163.134 39.2597 161.886V100.726H117.732V161.886Z" fill="black" fill-opacity="0.4"/>
<path d="M63.7812 154H53.9688C52.6675 154 51.4196 153.421 50.4995 152.389C49.5794 151.358 49.0625 149.959 49.0625 148.5C49.0625 147.041 49.5794 145.642 50.4995 144.611C51.4196 143.579 52.6675 143 53.9688 143H63.7812C65.0825 143 66.3304 143.579 67.2505 144.611C68.1706 145.642 68.6875 147.041 68.6875 148.5C68.6875 149.959 68.1706 151.358 67.2505 152.389C66.3304 153.421 65.0825 154 63.7812 154Z" fill="black" fill-opacity="0.4"/>
<path d="M44.1763 77.2382C43.5306 77.2424 42.8905 77.1036 42.2928 76.8299C41.695 76.5562 41.1513 76.153 40.6929 75.6432L30.8804 64.6432C29.9565 63.6075 29.4375 62.2029 29.4375 60.7382C29.4375 59.2735 29.9565 57.8689 30.8804 56.8332C31.8043 55.7975 33.0573 55.2157 34.3638 55.2157C35.6704 55.2157 36.9234 55.7975 37.8473 56.8332L47.6598 67.8332C48.1196 68.3445 48.4846 68.9528 48.7337 69.623C48.9828 70.2933 49.111 71.0121 49.111 71.7382C49.111 72.4643 48.9828 73.1831 48.7337 73.8534C48.4846 74.5236 48.1196 75.1319 47.6598 75.6432C47.2013 76.153 46.6576 76.5562 46.0599 76.8299C45.4621 77.1036 44.822 77.2424 44.1763 77.2382Z" fill="black" fill-opacity="0.4"/>
<path d="M112.872 77.2382C112.227 77.2424 111.586 77.1036 110.989 76.8299C110.391 76.5562 109.847 76.153 109.389 75.6432C108.929 75.1319 108.564 74.5236 108.315 73.8534C108.066 73.1831 107.938 72.4643 107.938 71.7382C107.938 71.0121 108.066 70.2933 108.315 69.623C108.564 68.9528 108.929 68.3445 109.389 67.8332L119.201 56.8332C120.125 55.7975 121.378 55.2157 122.685 55.2157C123.991 55.2157 125.244 55.7975 126.168 56.8332C127.092 57.8689 127.611 59.2735 127.611 60.7382C127.611 62.2029 127.092 63.6075 126.168 64.6432L116.356 75.6432C115.897 76.153 115.354 76.5562 114.756 76.8299C114.158 77.1036 113.518 77.2424 112.872 77.2382Z" fill="black" fill-opacity="0.4"/>
<path d="M117.75 36.0717V39.7011C117.754 42.9019 117.09 46.0594 115.81 48.9197C108.698 64.9595 97.1175 77.9571 82.8265 85.9394L78.9461 88.117L75.0657 85.9394C60.7747 77.9571 49.1943 64.9595 42.0823 48.9197C40.8023 46.0594 40.1378 42.9019 40.1421 39.7011V36.0717C40.1421 30.6235 42.0704 25.3985 45.5028 21.5461C48.9352 17.6937 53.5905 15.5294 58.4446 15.5294C63.2973 15.5337 67.9498 17.7008 71.3793 21.5542L78.9461 30.0469L86.5128 21.5542C89.9423 17.7008 94.5948 15.5337 99.4475 15.5294C104.302 15.5294 108.957 17.6937 112.389 21.5461C115.822 25.3985 117.75 30.6235 117.75 36.0717Z" fill="black" fill-opacity="0.4"/>
</svg>
