<svg width="236" height="219" viewBox="0 0 236 219" fill="none" xmlns="http://www.w3.org/2000/svg">
<path d="M225.789 115.241C224.63 113.244 222.747 111.9 220.625 111.557C218.5 111.208 216.349 111.9 214.721 113.444C214.638 113.523 206.126 121.165 200.984 116.583C196.43 112.525 193.546 107.606 192.411 101.964C189.231 86.1675 177.298 75.8458 164.027 77.4516C152.868 78.7904 144.123 87.8493 141.648 99.3027C141.584 99.302 141.521 99.2993 141.458 99.2966C141.383 99.2934 141.308 99.2902 141.232 99.2902C131.215 99.2902 122.247 104.57 116.311 112.847C110.633 104.931 102.179 99.7693 92.6884 99.3328C90.2222 87.8651 81.4719 78.792 70.3028 77.4516C57.0295 75.8525 45.0987 86.1667 41.9175 101.967C40.7839 107.606 37.9006 112.523 33.3452 116.584C28.1313 121.231 19.6631 113.494 19.6095 113.444C17.9805 111.9 15.8317 111.213 13.7049 111.557C11.5833 111.9 9.69926 113.245 8.54005 115.241C1.28533 127.732 6.03306 146.122 19.8283 158.969C27.4028 166.021 37.3146 170.768 47.5672 170.768C54.4547 170.768 61.4952 168.621 68.0787 163.594C82.1936 186.523 108.285 206.058 112.225 208.931C113.465 209.835 114.887 210.287 116.31 210.287C117.733 210.287 119.157 209.835 120.396 208.931C124.388 206.018 151.658 182.289 165.629 158.967C172.54 164.649 179.737 169 187.5 169C197.75 169 207.148 166.021 214.721 158.969C228.516 146.124 233.044 127.732 225.789 115.241ZM29.3848 146.401C24.9214 142.245 21.8103 137.237 20.5598 132.727C27.3032 135.422 35.4426 135.806 42.6566 129.374C49.7959 123.012 54.5505 114.766 56.4058 105.534C57.6578 99.3119 62.0473 92.9897 68.7031 93.7792C73.2917 94.3301 76.9195 97.9465 78.1194 102.589C66.8878 108.446 59.0493 121.484 59.0493 136.604C59.0493 140.667 59.7922 144.78 61.1022 148.873C50.118 158.525 37.6396 154.089 29.3848 146.401ZM116.31 199.287C98.4076 185.277 70.3028 153.238 70.3028 136.604C70.3028 125.086 76.517 111.557 86.1648 111.557C95.8156 111.557 112.225 117.855 112.225 129.373V129.413C112.225 133.972 112.225 144.817 116.312 144.817C120.396 144.817 120.396 133.984 120.396 129.42V129.373C120.396 117.855 137.515 111.557 147.165 111.557C156.809 111.557 164.027 125.087 164.027 136.604C164.027 153.236 134.21 185.275 116.31 199.287ZM207.5 147.623C198.907 155.625 183.183 158.884 171.891 147.623C172.962 143.942 173.565 140.253 173.565 136.604C173.565 122.178 166.429 109.646 156.021 103.44C156.979 98.393 160.763 94.3635 165.629 93.7801C172.289 92.9872 176.673 99.3136 177.924 105.533C179.781 114.768 184.537 123.012 191.674 129.373C200.984 135.5 209.5 132.5 214.721 129.373C216 135.5 211 143 207.5 147.623Z" fill="black" fill-opacity="0.4"/>
<path d="M225.789 115.241C224.63 113.244 222.747 111.9 220.625 111.557C218.5 111.208 216.349 111.9 214.721 113.444C214.638 113.523 206.126 121.165 200.984 116.583C196.43 112.525 193.546 107.606 192.411 101.964C189.231 86.1675 177.298 75.8458 164.027 77.4516C152.868 78.7904 144.123 87.8493 141.648 99.3027C141.584 99.302 141.521 99.2993 141.458 99.2966C141.383 99.2934 141.308 99.2902 141.232 99.2902C131.215 99.2902 122.247 104.57 116.311 112.847C110.633 104.931 102.179 99.7693 92.6884 99.3328C90.2222 87.8651 81.4719 78.792 70.3028 77.4516C57.0295 75.8525 45.0987 86.1667 41.9175 101.967C40.7839 107.606 37.9006 112.523 33.3452 116.584C28.1313 121.231 19.6631 113.494 19.6095 113.444C17.9805 111.9 15.8317 111.213 13.7049 111.557C11.5833 111.9 9.69926 113.245 8.54005 115.241C1.28533 127.732 6.03306 146.122 19.8283 158.969C27.4028 166.021 37.3146 170.768 47.5672 170.768C54.4547 170.768 61.4952 168.621 68.0787 163.594C82.1936 186.523 108.285 206.058 112.225 208.931C113.465 209.835 114.887 210.287 116.31 210.287C117.733 210.287 119.157 209.835 120.396 208.931C124.388 206.018 151.658 182.289 165.629 158.967C172.54 164.649 179.737 169 187.5 169C197.75 169 207.148 166.021 214.721 158.969C228.516 146.124 233.044 127.732 225.789 115.241ZM29.3848 146.401C24.9214 142.245 21.8103 137.237 20.5598 132.727C27.3032 135.422 35.4426 135.806 42.6566 129.374C49.7959 123.012 54.5505 114.766 56.4058 105.534C57.6578 99.3119 62.0473 92.9897 68.7031 93.7792C73.2917 94.3301 76.9195 97.9465 78.1194 102.589C66.8878 108.446 59.0493 121.484 59.0493 136.604C59.0493 140.667 59.7922 144.78 61.1022 148.873C50.118 158.525 37.6396 154.089 29.3848 146.401ZM116.31 199.287C98.4076 185.277 70.3028 153.238 70.3028 136.604C70.3028 125.086 76.517 111.557 86.1648 111.557C95.8156 111.557 112.225 117.855 112.225 129.373V129.413C112.225 133.972 112.225 144.817 116.312 144.817C120.396 144.817 120.396 133.984 120.396 129.42V129.373C120.396 117.855 137.515 111.557 147.165 111.557C156.809 111.557 164.027 125.087 164.027 136.604C164.027 153.236 134.21 185.275 116.31 199.287ZM207.5 147.623C198.907 155.625 183.183 158.884 171.891 147.623C172.962 143.942 173.565 140.253 173.565 136.604C173.565 122.178 166.429 109.646 156.021 103.44C156.979 98.393 160.763 94.3635 165.629 93.7801C172.289 92.9872 176.673 99.3136 177.924 105.533C179.781 114.768 184.537 123.012 191.674 129.373C200.984 135.5 209.5 132.5 214.721 129.373C216 135.5 211 143 207.5 147.623Z" stroke="black"/>
<path d="M69.2651 63.2934C81.9693 65.6837 98.743 67 116.5 67C134.257 67 151.031 65.6842 163.735 63.2934C179.173 60.3892 187 56.2531 187 50.9998C187 45.7474 179.173 41.6108 163.735 38.7066C151.031 36.3163 134.257 35 116.5 35C98.743 35 81.9693 36.3158 69.2651 38.7066C53.8271 41.6108 46 45.7474 46 50.9998C46 56.2531 53.8271 60.3892 69.2651 63.2934V63.2934ZM74.204 45.9465C85.6255 43.9286 100.646 42.8169 116.5 42.8169C132.354 42.8169 147.375 43.9281 158.796 45.9465C170.91 48.0871 174.231 50.4228 174.526 51.0002C174.231 51.5782 170.91 53.9139 158.796 56.0544C147.375 58.0724 132.354 59.1841 116.5 59.1841C100.646 59.1841 85.6255 58.0729 74.204 56.0544C62.0896 53.9139 58.7691 51.5782 58.4738 51.0002C58.7691 50.4223 62.0896 48.0866 74.204 45.9465V45.9465Z" fill="black" fill-opacity="0.4"/>
</svg>
