<svg width="159" height="193" viewBox="0 0 159 193" fill="none" xmlns="http://www.w3.org/2000/svg">
<g clip-path="url(#clip0_638_3994)">
<path d="M149.287 73.0422L93.5806 22.7762C92.1149 21.4529 89.8866 21.4529 88.4206 22.7762L68.2454 40.981V40.0237C68.2454 37.8971 66.5212 36.1724 64.3941 36.1724H48.4391C46.312 36.1724 44.5878 37.8971 44.5878 40.0237V62.3279L32.7138 73.0424C31.5307 74.1097 31.127 75.7962 31.6992 77.2839C32.271 78.7712 33.7004 79.7529 35.2938 79.7529H45.5042V132.149C45.5042 134.276 47.2284 136 49.3555 136H132.644C134.771 136 136.495 134.276 136.495 132.149V79.7524H146.706C148.3 79.7524 149.729 78.7706 150.301 77.2834C150.873 75.7962 150.47 74.1097 149.287 73.0422ZM52.2904 43.875H60.5425V47.9308L52.2904 55.3774V43.875V43.875ZM132.644 72.0501C130.518 72.0501 128.793 73.7748 128.793 75.9014V128.297H53.207V79.7386H107.42C109.547 79.7386 111.272 78.0139 111.272 75.8873C111.272 73.7607 109.547 72.036 107.42 72.036H49.1454C49.0521 72.036 48.9613 72.0434 48.8699 72.0498H45.3105L90.9998 30.8225L136.689 72.0498H132.644V72.0501Z" fill="black" fill-opacity="0.4"/>
<path d="M123.111 75.1361C123.061 74.8893 122.988 74.6466 122.892 74.4117C122.796 74.1806 122.676 73.9573 122.538 73.7493C122.395 73.5376 122.234 73.341 122.056 73.1638C121.163 72.2703 119.83 71.8578 118.583 72.1125C118.336 72.1587 118.093 72.2357 117.862 72.3319C117.628 72.4281 117.404 72.5476 117.196 72.6862C116.985 72.8249 116.788 72.9867 116.611 73.1638C116.434 73.341 116.272 73.5373 116.133 73.7493C115.995 73.9573 115.875 74.1806 115.779 74.4117C115.683 74.6466 115.609 74.8893 115.559 75.1361C115.51 75.3826 115.482 75.6368 115.482 75.8867C115.482 76.137 115.51 76.3917 115.559 76.6377C115.609 76.8836 115.683 77.1275 115.779 77.362C115.876 77.5934 115.995 77.8168 116.134 78.0248C116.272 78.2365 116.434 78.433 116.611 78.6102C116.788 78.7874 116.985 78.9491 117.197 79.0878C117.405 79.2259 117.628 79.3457 117.863 79.4421C118.094 79.5383 118.336 79.6153 118.583 79.6655C118.83 79.7155 119.084 79.7383 119.334 79.7383C120.347 79.7383 121.341 79.3266 122.057 78.6099C122.234 78.4328 122.396 78.2365 122.534 78.0245C122.673 77.8165 122.792 77.5931 122.889 77.3618C122.985 77.1272 123.062 76.8842 123.112 76.6377C123.162 76.3912 123.185 76.137 123.185 75.8867C123.184 75.6368 123.161 75.3821 123.111 75.1361Z" fill="black" fill-opacity="0.4"/>
<path d="M114.038 98.2951C113.649 90.1936 107.612 83.8478 100.293 83.8478C96.4546 83.8478 93.2086 85.4925 91.0411 86.9989C88.901 85.483 85.6734 83.8478 81.7074 83.8478C79.8777 83.8478 78.1281 84.2444 76.5272 84.9658C71.7236 87.1301 68.2551 92.2189 67.964 98.2951C67.7355 103.067 69.3893 106.467 70.6529 108.609C73.3864 113.243 84.0977 120.602 87.958 123.16C88.3575 123.425 88.6837 123.638 88.9196 123.792C89.5576 124.206 90.2878 124.414 91.018 124.414C91.748 124.414 92.4782 124.206 93.1159 123.792C95.6282 122.161 108.317 113.76 111.351 108.605C112.613 106.46 114.265 103.057 114.038 98.2951ZM106.347 99.5797C106.32 100.39 106.193 101.157 105.962 101.929C105.695 102.82 105.29 103.718 104.712 104.699C103.723 106.38 99.8987 109.541 95.8006 112.559C95.6224 112.69 95.4436 112.821 95.2648 112.952C94.9068 113.213 94.5477 113.473 94.1888 113.729C93.112 114.5 92.0399 115.246 91.017 115.94C90.452 115.557 89.8836 115.166 89.3154 114.77C83.8263 110.937 78.4134 106.606 77.2863 104.696C76.0427 102.587 75.5555 100.784 75.657 98.664C75.845 94.7416 78.5589 91.5504 81.7068 91.5504C85.2922 91.5504 88.1126 94.5819 88.1219 94.5912C88.8399 95.3987 89.8634 95.8676 90.9442 95.8832C90.9631 95.8835 90.9819 95.8835 91.0005 95.8835C91.0287 95.8835 91.056 95.8798 91.0842 95.8792C92.1159 95.8676 93.0942 95.4263 93.8031 94.6741C93.8323 94.643 96.9006 91.5501 100.294 91.5501C103.442 91.5501 106.156 94.7413 106.344 98.6633C106.357 98.9313 106.361 99.1929 106.355 99.45C106.354 99.4944 106.349 99.5361 106.347 99.5797Z" fill="black" fill-opacity="0.4"/>
<path d="M74.2113 11.5021C73.9026 5.05244 69.0531 0 63.1714 0C60.4636 0 58.1354 1.02372 56.4511 2.08356C54.7795 1.01787 52.4535 0 49.662 0C43.78 0 38.9308 5.05244 38.6216 11.5021C38.442 15.2516 39.7338 17.9105 40.7208 19.5834C42.9749 23.4042 51.7081 29.262 54.3309 30.9665C54.9689 31.3809 55.6991 31.5881 56.4293 31.5881C57.1593 31.5881 57.8889 31.3809 58.5267 30.9668C61.1412 29.2692 69.8471 23.4307 72.1139 19.5802C73.1002 17.9044 74.3906 15.2445 74.2113 11.5021ZM65.476 15.6726C64.7019 16.9885 60.5253 20.2876 56.4293 23.1038C52.3153 20.2764 48.1238 16.9731 47.3551 15.67C46.5529 14.3097 46.2514 13.209 46.3157 11.8708C46.4238 9.61109 47.9564 7.70258 49.662 7.70258C51.4066 7.70258 53.0424 9.03601 53.5494 9.57231C54.2584 10.3981 55.2574 10.8539 56.3462 10.8818C57.4488 10.9103 58.4677 10.4393 59.2189 9.64243C59.5818 9.25728 61.426 7.70205 63.1711 7.70205C64.877 7.70205 66.4096 9.61083 66.5175 11.8702C66.5812 13.2055 66.2795 14.3071 65.476 15.6726Z" fill="black" fill-opacity="0.4"/>
</g>
<path d="M136.753 140.065C132.751 134.487 128.675 134.337 118.531 139.669L98.4493 151.937C96.1693 153.145 91.3736 153.823 84.679 153.985C84.3666 153.993 84.0569 153.999 83.7472 154.005C84.7884 151.848 84.2868 149.207 82.3545 146.322C78.7385 140.924 72.4902 137.735 65.8226 137.735H56.8526C51.9827 137.735 47.3443 136.264 43.6733 133.497C40.4847 131.093 36.3364 129.358 31.4554 128.169C27.9227 127.308 24.1668 126.772 20.3699 126.496C18.798 126.381 17.36 126.32 16.1016 126.297V119.335H0.00195312V193H16.1019V186.1H46.0015C50.7188 186.1 55.4208 185.745 60.0699 185.036L89.8825 180.503C90.9585 180.49 92.0277 180.366 93.09 180.135C95.8629 179.735 98.4795 178.383 100.642 176.346L135.505 149.196C138.271 146.903 138.807 142.926 136.753 140.065ZM11.502 188.4H4.60204V123.936H11.502V126.374H11.5015V186.1H11.502V188.4ZM132.645 145.593L97.7275 172.785L97.5515 172.937C96.0284 174.393 94.2322 175.328 92.4064 175.586C91.3512 175.81 90.5264 175.904 89.7017 175.904L59.3778 180.489C54.9578 181.162 50.4876 181.5 46.0018 181.5H16.1019V130.898C17.2595 130.921 18.5856 130.978 20.0359 131.084C23.5959 131.343 27.1063 131.844 30.3671 132.638C34.6895 133.691 38.2843 135.194 40.9044 137.171C45.3951 140.555 51.0083 142.336 56.8531 142.336H65.8231C70.9868 142.336 75.7896 144.787 78.5334 148.883C79.7897 150.758 79.8832 151.688 79.4767 152.206C79.0094 152.8 77.7434 153.337 75.9303 153.644C74.3384 153.914 72.615 153.977 71.1283 153.92C71.1215 153.92 71.1145 153.93 71.1073 153.945C70.9604 153.916 70.8086 153.9 70.6531 153.9H48.3017C48.3017 153.9 48.3017 153.9 48.3014 153.9C41.4286 153.9 36.8021 156.929 36.8021 163.1C36.8021 164.37 37.8317 165.4 39.102 165.4C40.3723 165.4 41.4019 164.37 41.4019 163.1C41.4019 159.979 43.6622 158.5 48.3019 158.5H70.6528C71.6574 158.5 72.0315 158.505 75.2179 158.563C79.3864 158.638 81.9667 158.652 84.7905 158.584C92.194 158.404 97.482 157.657 100.728 155.931L120.801 143.668C129.021 139.351 130.622 139.411 133.016 142.747C133.648 143.628 133.487 144.875 132.645 145.593Z" fill="black" fill-opacity="0.4"/>
<defs>
<clipPath id="clip0_638_3994">
<rect width="136" height="136" fill="white" transform="translate(23)"/>
</clipPath>
</defs>
</svg>
