<svg width="195" height="195" viewBox="0 0 195 195" fill="none" xmlns="http://www.w3.org/2000/svg">
<g clip-path="url(#clip0_637_3902)">
<path d="M73.2672 140.091C71.0846 130.46 76.7894 120.708 86.2522 117.885L106.626 111.813C105.003 109.348 103.491 106.825 102.222 104.262C96.7084 102.429 91.8713 97.3348 89.4664 90.4571C89.0458 89.2486 88.7231 88.019 88.4873 86.7899L79.2729 84.043C72.7864 91.9623 64.4204 97.4827 54.6676 97.4827C44.9152 97.4827 36.5492 91.9623 30.0619 84.043L8.11237 90.5891C3.55177 91.9489 0.422852 96.146 0.422852 100.904V109.844C0.422852 139.803 24.7058 164.089 54.6676 164.089C62.9614 164.089 70.7883 162.173 77.8206 158.845C77.2163 156.994 76.6772 155.112 76.2368 153.18L73.2672 140.091Z" fill="black" fill-opacity="0.4"/>
<path d="M185.929 124.335L163.217 117.567C156.369 125.782 147.477 131.953 137.054 131.953C126.63 131.953 117.739 125.782 110.885 117.567L88.179 124.335C82.0737 126.156 78.4262 132.396 79.8323 138.606L82.8032 151.688C88.5597 177.022 111.075 195 137.054 195C163.033 195 185.548 177.022 191.306 151.691L194.276 138.606C195.682 132.396 192.035 126.156 185.929 124.335Z" fill="black" fill-opacity="0.4"/>
<path d="M20.6124 61.741C22.695 64.3639 25.3474 65.9427 27.8809 65.8952C33.6004 79.0147 43.6856 90.2799 55.2053 90.2799C66.7243 90.2799 76.809 79.0147 82.529 65.8952C85.0629 65.9423 87.7144 64.3635 89.797 61.741C90.8988 60.3564 91.854 58.7116 92.5141 56.8127C93.7525 53.2589 93.7336 49.7363 92.7583 47.0326C91.9922 44.913 90.6488 43.2847 88.7662 42.6233C88.4591 42.7233 88.1527 42.8334 87.8195 42.8594C87.717 42.8674 87.6153 42.8699 87.5123 42.8699C86.9017 42.8699 86.3349 42.6838 85.8033 42.4266C84.7902 41.9362 83.967 41.076 83.6316 39.9486C83.5505 39.678 81.4986 33.3046 69.3817 33.3046C68.2173 33.3046 66.9844 33.3651 65.6863 33.4832C65.6863 33.4832 64.419 33.5958 62.4654 33.5958C56.0021 33.5958 47.2969 32.4784 42.5317 27.1648C41.524 26.0395 40.7478 24.7805 40.2112 23.4089C35.7305 26.2546 29.289 31.6317 26.811 40.0797C26.4954 41.1475 25.7508 41.9526 24.8276 42.4485C24.2531 42.7577 23.6266 42.9729 22.9467 42.9729C22.7891 42.9729 22.6319 42.9649 22.4718 42.9439C22.1466 42.9048 21.8558 42.7788 21.5591 42.6657C19.7236 43.3477 18.4063 44.945 17.6516 47.033C16.6754 49.7371 16.6573 53.2593 17.8949 56.8131C18.5563 58.7116 19.511 60.3564 20.6124 61.741Z" fill="black" fill-opacity="0.4"/>
<path d="M43.41 17.1586C42.1859 28.3423 56.2413 29.5668 62.4655 29.5668C64.2119 29.5668 65.3423 29.4701 65.3423 29.4701C66.7773 29.3365 68.1229 29.276 69.3818 29.276C85.142 29.276 87.5183 38.8939 87.5183 38.8939L88.4941 31.6523C90.5481 16.4317 79.9591 2.39733 64.7624 0.191198C63.8762 0.0630323 62.9866 0 62.1033 0C57.0254 0 52.1265 2.08805 48.6005 5.84897L48.3328 6.13514C46.0011 5.07032 43.5117 4.54589 41.0341 4.54589C37.4669 4.54589 33.9233 5.6313 30.909 7.75591C25.1735 11.7975 21.9135 18.4991 22.2673 25.5045L22.9439 38.9439C27.5272 23.3324 43.41 17.1586 43.41 17.1586Z" fill="black" fill-opacity="0.4"/>
<path d="M178.81 77.067C177.973 74.6432 176.564 72.3459 174.327 72.0328C173.841 71.9652 173.256 72.132 172.885 72.132C172.324 72.132 171.036 71.4365 170.704 71.1882C163.285 65.5821 150.769 61.822 137.428 61.822C124.086 61.822 111.584 65.5821 104.166 71.1882C103.833 71.4365 102.546 72.132 101.985 72.132C101.614 72.132 101.029 71.9652 100.543 72.0328C98.3048 72.3459 96.8967 74.6432 96.0604 77.067C95.0292 80.0426 95.0326 83.8758 96.3811 87.7472C97.0916 89.7873 98.1098 91.5649 99.2814 93.0722C101.601 96.0502 104.586 97.8517 107.432 97.7979C113.699 112.17 124.845 124.717 137.434 124.717C150.024 124.717 161.171 112.171 167.437 97.7979C170.284 97.8517 173.269 96.0506 175.588 93.0722C176.76 91.5649 177.779 89.7873 178.489 87.7472C179.837 83.8758 179.84 80.0426 178.81 77.067Z" fill="black" fill-opacity="0.4"/>
<path d="M112.362 61.8418L113.886 48.2819L116.486 60.5051C122.772 58.6894 129.985 57.6435 137.674 57.6435C141.761 57.6435 145.698 57.9582 149.451 58.5066L153.101 40.5895L154.499 59.4143C162.369 61.1287 169.105 63.9753 173.897 67.595C174.466 65.0208 174.784 62.357 174.784 59.6092C174.784 46.541 168.017 35.0699 157.805 28.4595C157.841 28.046 157.949 27.6569 157.949 27.2367C157.949 25.7298 157.649 24.2881 157.221 22.8917C154.97 15.553 147.26 10.1108 138.004 10.1108C128.915 10.1108 121.331 15.3639 118.93 22.5055C118.418 24.0187 118.061 25.5857 118.061 27.2367C118.061 27.5275 118.142 27.7964 118.16 28.0818C107.609 34.6291 100.561 46.28 100.561 59.6088C100.561 62.3566 100.882 65.0203 101.451 67.5946C104.412 65.3565 108.113 63.4084 112.362 61.8418Z" fill="black" fill-opacity="0.4"/>
</g>
<defs>
<clipPath id="clip0_637_3902">
<rect width="195" height="195" fill="white"/>
</clipPath>
</defs>
</svg>
