<svg width="213" height="199" viewBox="0 0 213 199" fill="none" xmlns="http://www.w3.org/2000/svg">
<path d="M6.28092 58.9802C6.73575 59.353 7.1856 59.7358 7.62387 60.1262C9.46574 61.7667 10.9058 63.3687 11.718 64.772L6.28092 58.9802ZM6.28092 58.9802C4.79479 63.8644 4 69.0143 4 74.3369C4 115.924 36.931 136.901 65.5519 154.859C65.5521 154.859 65.5524 154.859 65.5526 154.859L65.7542 154.986C77.046 162.068 88.3023 169.127 95.7321 176.835L95.7325 176.835C98.3845 179.587 102.228 181.216 106.319 181.216H106.319H106.32H106.32H106.32H106.32H106.32H106.321H106.321H106.321H106.321H106.322H106.322H106.322H106.322H106.322H106.323H106.323H106.323H106.323H106.323H106.324H106.324H106.324H106.324H106.324H106.325H106.325H106.325H106.325H106.325H106.326H106.326H106.326H106.326H106.326H106.327H106.327H106.327H106.327H106.327H106.328H106.328H106.328H106.328H106.328H106.329H106.329H106.329H106.329H106.329H106.33H106.33H106.33H106.33H106.33H106.331H106.331H106.331H106.331H106.331H106.332H106.332H106.332H106.332H106.332H106.333H106.333H106.333H106.333H106.333H106.333H106.334H106.334H106.334H106.334H106.334H106.335H106.335H106.335H106.335H106.335H106.336H106.336H106.336H106.336H106.336H106.336H106.337H106.337H106.337H106.337H106.337H106.338H106.338H106.338H106.338H106.338H106.339H106.339H106.339H106.339H106.339H106.339H106.34H106.34H106.34H106.34H106.34H106.34H106.341H106.341H106.341H106.341H106.341H106.342H106.342H106.342H106.342H106.342H106.342H106.343H106.343H106.343H106.343H106.343H106.343H106.344H106.344H106.344H106.344H106.344H106.345H106.345H106.345H106.345H106.345H106.345H106.346H106.346H106.346H106.346H106.346H106.346H106.347H106.347H106.347H106.347H106.347H106.347H106.348H106.348H106.348H106.348H106.348H106.348H106.349H106.349H106.349H106.349H106.349H106.349H106.35H106.35H106.35H106.35H106.35H106.35H106.351H106.351H106.351H106.351H106.351H106.351H106.352H106.352H106.352H106.352H106.352H106.352H106.353H106.353H106.353H106.353H106.353H106.353H106.354H106.354L6.28092 58.9802ZM81.9149 104.695C82.0776 106.309 81.7031 108.214 80.0665 109.743L81.9149 104.695ZM81.9149 104.695C82.3116 104.837 82.7173 104.959 83.1284 105.053C84.7951 105.437 87.3243 105.51 89.3719 103.596C91.6297 101.487 91.4162 98.7367 90.8871 97.0537C90.3779 95.4339 89.3864 93.9708 88.5644 92.9134C88.2685 92.5328 87.9646 92.1672 87.6648 91.8232C88.6846 91.584 89.7146 91.094 90.6336 90.2358L90.6347 90.2346C92.3791 88.6042 92.7711 86.4938 92.5046 84.7195C92.2683 83.1463 91.5306 81.7833 90.9033 80.8241C89.6202 78.8621 87.8715 77.2158 87.2007 76.6202L87.2005 76.6201C81.4745 71.5372 75.6175 66.41 69.9611 61.4596L69.9603 61.4589C67.8848 59.6434 65.8114 57.8289 63.7435 56.014L63.7411 56.0119C63.3374 55.6582 62.9091 55.3052 62.4645 54.9387C61.8728 54.4509 61.2521 53.9393 60.6216 53.3702C61.668 53.1358 62.9144 52.9558 64.2749 52.826C67.0701 52.5594 69.7596 52.543 71.6016 52.5318C72.226 52.528 72.753 52.5247 73.1538 52.5126L73.1541 52.5126C75.3856 52.4446 78.0492 51.791 80.2279 50.2192C82.572 48.5279 84.328 45.7406 84.033 42.0416L84.0319 42.0287C83.8275 39.5667 82.0527 38.2906 81.0394 37.781C80.0502 37.2835 79.0246 37.0846 78.3171 36.9987C77.9346 36.9409 77.4794 36.9033 77.1793 36.8786L77.1318 36.8746C76.5803 36.8289 75.8511 36.7753 75.0024 36.7167C73.3012 36.5993 71.0671 36.4584 68.7011 36.316C63.9724 36.0315 58.6685 35.7382 55.9689 35.6125L55.9684 35.6124C40.9849 34.9166 31.3213 33.0646 25.3524 31.3484C35.9644 22.91 49.7397 17.7848 64.8096 17.7848C78.666 17.7848 91.6252 21.9621 102.334 29.8224C102.335 29.8227 102.335 29.823 102.336 29.8234L104.133 31.1438L106.503 32.8845L108.871 31.1425L110.663 29.825C110.663 29.825 110.663 29.8249 110.663 29.8249C121.377 21.9624 134.338 17.7848 148.197 17.7848C181.981 17.7848 209 43.4092 209 74.3377C209 98.3204 197.877 115.501 182.855 129.257C181.066 123.719 179.149 114.824 178.421 101.128L178.421 101.127C178.286 98.5987 177.972 93.6391 177.667 89.2197C177.515 87.0082 177.364 84.9181 177.238 83.3251C177.175 82.5308 177.117 81.845 177.068 81.3241L177.062 81.2653C177.038 81.0032 176.996 80.5641 176.93 80.1745C176.829 79.4649 176.598 78.4248 176.023 77.4264C175.381 76.311 174.027 74.8408 171.76 74.6821C168.165 74.4296 165.312 75.8927 163.457 78.1381C161.725 80.2337 160.975 82.8453 160.896 85.0801C160.896 85.0808 160.896 85.0815 160.896 85.0822L164.893 85.2223M81.9149 104.695L156.468 93.5321C155.838 92.9044 155.209 92.2775 154.581 91.6509C153.267 90.3416 151.955 89.0339 150.644 87.7241L150.641 87.7212L150.635 87.7157C145.34 82.4357 139.853 76.9651 134.415 71.6194C133.762 70.9749 132.013 69.3575 129.95 68.1801C128.93 67.5976 127.557 66.9605 126.024 66.7597C124.38 66.5443 122.326 66.8256 120.634 68.4067L123.365 71.3296M164.893 85.2223C164.884 85.4998 164.881 85.9123 164.877 86.4277C164.85 90.3503 164.781 100.236 161.272 102.01C159.744 102.785 156.462 99.3228 154.542 97.2979C154.192 96.9287 153.887 96.6072 153.647 96.368C153.019 95.7415 152.39 95.1151 151.761 94.4885C150.446 93.1775 149.13 91.866 147.817 90.5538C142.517 85.2692 137.037 79.8055 131.608 74.4686C130.504 73.3786 125.751 69.0992 123.365 71.3296M164.893 85.2223C165 82.1753 166.982 78.3565 171.48 78.6722C172.472 78.7413 172.86 79.8948 172.977 80.7939L164.893 85.2223ZM123.365 71.3296C122.012 72.5939 122.699 74.5496 123.828 76.2883M123.365 71.3296L120.633 68.4076M123.828 76.2883L120.633 68.4076M123.828 76.2883C123.165 75.668 122.601 75.1393 122.164 74.7296C121.843 74.4278 121.591 74.1906 121.419 74.0291L121.223 73.845L121.193 73.8169C121.188 73.8112 121.181 73.8051 121.175 73.7986C121.162 73.7862 121.148 73.7724 121.133 73.7571C121.07 73.696 120.983 73.6117 120.874 73.5083C120.656 73.3019 120.349 73.0169 119.973 72.6859C119.632 72.3857 119.225 72.0384 118.768 71.6724M123.828 76.2883L120.633 68.4076M120.633 68.4076C119.598 69.3751 119.018 70.5185 118.768 71.6724M118.768 71.6724C118.233 71.2432 117.63 70.7881 116.989 70.353C115.853 69.5824 114.341 68.6968 112.713 68.2503C111.105 67.8094 108.471 67.5897 106.333 69.5871C104.182 71.5962 104.22 74.2226 104.682 75.9732C104.744 76.2114 104.817 76.4468 104.899 76.6789C103.331 76.4944 101.388 76.7522 99.755 78.2779L118.768 71.6724ZM101.651 90.8746C101.01 90.1113 100.332 89.2303 99.739 88.3059C99.0471 87.2264 98.2647 85.774 97.9595 84.1734C97.63 82.4453 97.8153 80.0898 99.7544 78.2785L101.651 90.8746ZM101.651 90.8746C100.572 91.0913 99.5986 91.5775 98.7613 92.2947L98.672 92.3712L98.6212 92.4202L98.6121 92.4283L98.5866 92.4513L98.5627 92.4729L98.5392 92.4949C97.4393 93.523 96.7111 94.892 96.5618 96.4813C96.4219 97.9699 96.8181 99.3299 97.342 100.439C97.3423 100.44 97.3426 100.44 97.343 100.441L100.959 98.7315L101.651 90.8746ZM116.949 176.787L116.951 176.785C124.204 169.182 135.412 162.166 146.643 155.136L146.981 154.924L146.983 154.923L147.018 154.901C149.811 153.151 152.651 151.37 155.511 149.538L116.949 176.787ZM116.949 176.787C114.31 179.558 110.469 181.203 106.359 181.216L116.949 176.787ZM66.8348 106.593C66.8643 105.728 66.7153 104.909 66.4925 104.169L66.7392 107.49C66.7918 107.201 66.8243 106.901 66.8348 106.593ZM64.914 110.82C64.9578 110.778 65.0224 110.716 65.0975 110.637L11.7181 64.7721C12.8338 66.7 13.8845 68.6905 14.9659 70.7393C15.709 72.1471 16.4666 73.5824 17.2698 75.0438C19.0652 78.3103 21.1428 81.8129 23.4146 83.934C29.5663 89.6824 36.3628 95.5415 44.0468 102.166C46.5244 104.301 49.0942 106.517 51.7644 108.834C53.2226 110.1 55.046 111.122 57.0477 111.947L57.05 111.948C59.3619 112.899 62.4102 113.145 64.8347 110.893L64.849 110.88C64.8625 110.868 64.8861 110.846 64.914 110.82ZM66.4925 104.169C66.3466 103.684 66.169 103.233 65.9893 102.825L66.4925 104.169ZM119.156 75.9051C118.934 76.1407 118.687 76.4024 118.413 76.6931C118.413 76.6931 111.743 70.0073 109.063 72.5102C107.214 74.2375 109.727 77.7461 111.956 80.2494L119.156 75.9051ZM58.7485 51.3872C58.7489 51.3875 58.7523 51.3932 58.7579 51.4043C58.751 51.3926 58.7481 51.387 58.7485 51.3872Z" stroke="black" stroke-opacity="0.4" stroke-width="8"/>
</svg>
