<svg width="149" height="149" viewBox="0 0 149 149" fill="none" xmlns="http://www.w3.org/2000/svg">
<g clip-path="url(#clip0_632_3766)">
<path d="M148.592 21.9884L149 15.7405L134.056 14.7866L133.09 0L126.776 0.403516L127.842 16.7376L123.263 21.2678L122.555 10.4233L116.241 10.8268L117.307 27.1612L113.389 31.0379C101.348 20.4741 85.5187 14.0486 68.1979 14.0486C30.594 14.0486 0 44.3175 0 81.5237C0 118.73 30.594 149 68.1979 149C105.802 149 136.392 118.73 136.392 81.5237C136.392 63.7027 129.371 47.476 117.925 35.4021L121.984 31.3858L138.058 32.4118L138.465 26.1638L127.941 25.4921L132.519 20.9625L148.592 21.9884ZM130.065 81.5237C130.065 115.279 102.311 142.74 68.1979 142.74C34.0821 142.74 6.32703 115.279 6.32703 81.5237C6.32703 47.77 34.0821 20.309 68.1979 20.309C83.7733 20.309 98.0213 26.0361 108.909 35.4708L99.9623 44.3232C91.3808 37.1384 80.2924 32.7985 68.1979 32.7985C41.0425 32.7985 18.9504 54.6568 18.9504 81.5237C18.9504 108.392 41.0425 130.251 68.1979 130.251C95.3503 130.251 117.442 108.392 117.442 81.5237C117.442 68.8724 112.543 57.3331 104.524 48.6622L113.45 39.8298C123.752 50.7679 130.065 65.4289 130.065 81.5237ZM68.145 84.6566L87.1139 65.8878C90.6978 70.1255 92.8598 75.5783 92.8598 81.5234C92.8598 94.979 81.797 105.927 68.1979 105.927C54.5982 105.927 43.5323 94.979 43.5323 81.5234C43.5323 68.0678 54.5982 57.1217 68.1979 57.1217C73.5111 57.1217 78.433 58.7981 82.4636 61.637L63.672 80.2304L68.145 84.6566ZM86.9886 57.1597C81.7721 53.2115 75.2575 50.8619 68.1979 50.8619C51.1073 50.8619 37.2053 64.6173 37.2053 81.5237C37.2053 98.4318 51.1073 112.187 68.1979 112.187C85.2849 112.187 99.1869 98.4318 99.1869 81.5237C99.1869 73.8526 96.3245 66.8308 91.6015 61.4479L100.047 53.0914C106.922 60.6244 111.115 70.5983 111.115 81.5237C111.115 104.939 91.8618 123.99 68.1976 123.99C44.5297 123.99 25.2771 104.94 25.2771 81.5237C25.2771 58.1082 44.53 39.0587 68.1976 39.0587C78.5479 39.0587 88.0544 42.7031 95.4749 48.7628L86.9886 57.1597Z" fill="black" fill-opacity="0.4"/>
</g>
<defs>
<clipPath id="clip0_632_3766">
<rect width="149" height="149" fill="white"/>
</clipPath>
</defs>
</svg>
