<svg width="155" height="155" viewBox="0 0 155 155" fill="none" xmlns="http://www.w3.org/2000/svg">
<path d="M133.623 83.8547H109.767L106.713 66.0516L130.313 43.0459C131.367 42.0186 131.747 40.4814 131.292 39.0821C130.837 37.6822 129.627 36.6619 128.17 36.4505L95.5542 31.7107L80.9686 2.15594C80.317 0.835305 78.9725 0 77.5004 0C76.0283 0 74.6838 0.835305 74.0322 2.15594L59.446 31.7107L26.8304 36.4505C25.3738 36.6619 24.1633 37.6822 23.709 39.0821C23.2539 40.482 23.6335 42.0186 24.6873 43.0459L48.2879 66.0516L45.2342 83.8547H21.3771C13.7317 83.8547 7.51074 90.075 7.51074 97.721V141.134C7.51074 148.78 13.7311 155 21.3771 155H133.623C141.268 155 147.489 148.78 147.489 141.134V97.721C147.489 90.075 141.268 83.8547 133.623 83.8547ZM55.1425 61.9324L35.6965 42.977L62.57 39.0718C63.8294 38.8887 64.9186 38.0979 65.4819 36.9564L77.4998 12.605L89.5176 36.9564C90.0809 38.0979 91.1695 38.8894 92.4295 39.0718L119.303 42.977L99.8571 61.9324C98.9457 62.8206 98.53 64.1006 98.7446 65.3555L103.336 92.1201L79.2986 79.4835C78.7353 79.187 78.1172 79.0394 77.4991 79.0394C76.881 79.0394 76.2629 79.187 75.6996 79.4835L51.6627 92.1201L56.2536 65.3555C56.4695 64.1013 56.0538 62.8213 55.1425 61.9324V61.9324ZM139.754 141.134C139.754 144.515 137.004 147.266 133.622 147.266H21.3771C17.9959 147.266 15.245 144.515 15.245 141.134V97.721C15.245 94.3398 17.9959 91.589 21.3771 91.589H43.9071L42.7154 98.5357C42.4666 99.9865 43.0634 101.453 44.2545 102.318C45.4449 103.183 47.0234 103.298 48.3266 102.612L69.295 91.5884H85.7039L106.672 102.612C107.238 102.909 107.856 103.056 108.471 103.056C109.273 103.056 110.071 102.808 110.744 102.318C111.935 101.453 112.532 99.9865 112.284 98.5357L111.092 91.589H133.622C137.003 91.589 139.754 94.3398 139.754 97.721V141.134H139.754Z" fill="black" fill-opacity="0.4"/>
<path d="M121.091 108.917H33.9091C31.7738 108.917 30.042 110.648 30.042 112.784V133.793C30.042 135.929 31.7738 137.66 33.9091 137.66H121.092C123.227 137.66 124.959 135.929 124.959 133.793V112.784C124.958 110.648 123.227 108.917 121.091 108.917ZM117.224 129.926H37.7763V116.651H117.224V129.926H117.224Z" fill="black" fill-opacity="0.4"/>
<path d="M68.1503 55.9319C69.9227 57.1243 72.3261 56.6525 73.5172 54.8813L74.3796 53.5994V71.1466C74.3796 73.2819 76.1114 75.0137 78.2468 75.0137C80.3821 75.0137 82.1139 73.2819 82.1139 71.1466V40.919C82.1139 39.2174 81.0021 37.7163 79.3747 37.22C77.7498 36.7238 75.9877 37.3489 75.0377 38.7611L67.0997 50.5643C65.9073 52.3367 66.3785 54.7395 68.1503 55.9319V55.9319Z" fill="black" fill-opacity="0.4"/>
</svg>
