<svg width="128" height="128" viewBox="0 0 128 128" fill="none" xmlns="http://www.w3.org/2000/svg">
<g clip-path="url(#clip0_635_3865)">
<path d="M81.0667 123.733H76.8C76.8 125.35 77.7131 126.827 79.1585 127.549C80.6041 128.272 82.3338 128.116 83.6267 127.147L81.0667 123.733ZM98.1333 110.933L100.693 107.52C99.1761 106.383 97.0906 106.383 95.5733 107.52L98.1333 110.933ZM115.2 123.733L112.64 127.147C113.933 128.116 115.663 128.272 117.108 127.549C118.554 126.827 119.467 125.35 119.467 123.733H115.2ZM98.1333 93.8667C86.3514 93.8667 76.8 84.3154 76.8 72.5333H68.2667C68.2667 89.0283 81.6384 102.4 98.1333 102.4V93.8667ZM119.467 72.5333C119.467 84.3154 109.915 93.8667 98.1333 93.8667V102.4C114.628 102.4 128 89.0283 128 72.5333H119.467ZM98.1333 51.2C109.915 51.2 119.467 60.7513 119.467 72.5333H128C128 56.0384 114.628 42.6667 98.1333 42.6667V51.2ZM98.1333 42.6667C81.6384 42.6667 68.2667 56.0384 68.2667 72.5333H76.8C76.8 60.7513 86.3514 51.2 98.1333 51.2V42.6667ZM76.8 89.6V123.733H85.3333V89.6H76.8ZM83.6267 127.147L100.693 114.347L95.5733 107.52L78.5067 120.32L83.6267 127.147ZM95.5733 114.347L112.64 127.147L117.76 120.32L100.693 107.52L95.5733 114.347ZM119.467 123.733V89.6H110.933V123.733H119.467ZM128 42.6667V12.8H119.467V42.6667H128ZM115.2 0H12.8V8.53333H115.2V0ZM0 12.8V115.2H8.53333V12.8H0ZM12.8 128H68.2667V119.467H12.8V128ZM0 115.2C0 122.269 5.73076 128 12.8 128V119.467C10.4436 119.467 8.53333 117.556 8.53333 115.2H0ZM12.8 0C5.73077 0 0 5.73076 0 12.8H8.53333C8.53333 10.4436 10.4436 8.53333 12.8 8.53333V0ZM128 12.8C128 5.73076 122.269 0 115.2 0V8.53333C117.556 8.53333 119.467 10.4436 119.467 12.8H128ZM25.6 42.6667H68.2667V34.1333H25.6V42.6667ZM25.6 68.2667H51.2V59.7333H25.6V68.2667Z" fill="black" fill-opacity="0.4"/>
</g>
<defs>
<clipPath id="clip0_635_3865">
<rect width="128" height="128" fill="white"/>
</clipPath>
</defs>
</svg>
