<svg width="158" height="158" viewBox="0 0 158 158" fill="none" xmlns="http://www.w3.org/2000/svg">
<path d="M14.3187 113.562H59.25C59.9906 113.562 60.6695 113.192 61.0707 112.575C61.4719 111.958 61.5336 111.186 61.1941 110.507L55.0222 97.2378C54.6828 96.4663 53.9113 96.0034 53.0781 96.0034H50.0539L41.259 53.973C44.4066 52.646 46.8445 49.9921 47.8629 46.7519L66.2859 41.8144H70.7914V101.435H68.4152C67.2117 101.435 66.2551 102.391 66.2551 103.595V123.869H62.9531C62.0273 123.869 61.1941 124.456 60.9164 125.351L54.7445 143.558C54.5285 144.206 54.6211 144.946 55.0222 145.502C55.4234 146.057 56.0715 146.397 56.7812 146.397H101.743C102.453 146.397 103.101 146.057 103.502 145.502C103.903 144.946 104.027 144.206 103.78 143.558L97.6082 125.351C97.2996 124.487 96.4972 123.869 95.5715 123.869H92.2695V103.595C92.2695 102.391 91.3129 101.435 90.1094 101.435H87.7332V41.7527H93.4422C94.6457 41.7527 95.6023 40.796 95.6023 39.5925V33.8835L113.902 28.9769C115.013 29.9952 116.309 30.7976 117.728 31.3222L110.723 73.1675C110.384 73.3527 110.045 73.5378 109.705 73.723C104.366 76.8089 100.478 81.7464 98.6883 87.6097C98.0094 89.8624 97.6699 92.2077 97.6699 94.5839C97.6699 95.0468 97.6699 95.4788 97.7008 95.88C98.1637 104.922 103.626 112.853 111.896 116.556C115.013 117.944 118.315 118.654 121.74 118.654C125.166 118.654 128.498 117.944 131.584 116.556C140.225 112.668 145.811 104.058 145.811 94.5839C145.811 86.8691 142.077 79.5862 135.843 75.0499C134.855 74.3402 133.837 73.723 132.788 73.1675L125.783 31.2913C129.548 29.9027 132.387 26.6316 133.158 22.6507C133.158 22.6198 133.189 22.5581 133.189 22.5273C133.498 20.7991 133.436 19.071 133.004 17.3738C132.541 15.6765 131.739 14.1335 130.597 12.8066C127.696 9.44289 123.067 7.9925 118.747 9.1343C114.92 10.1527 111.865 13.1152 110.693 16.8491L92.2695 21.7866H87.764V18.207C87.764 13.5163 83.9683 9.72063 79.2777 9.72063C74.5871 9.72063 70.7914 13.5163 70.7914 18.207V21.8484H65.0824C63.8789 21.8484 62.9222 22.805 62.9222 24.0085V29.7175L44.6226 34.6241C41.7219 31.9702 37.6176 30.9519 33.7601 31.9702C29.4707 33.112 26.1687 36.6917 25.3355 41.0429C24.9961 42.771 25.0886 44.4991 25.5207 46.1964C25.9836 47.8937 26.7859 49.4366 27.9277 50.7636C29.1004 52.1523 30.6125 53.2323 32.3097 53.9421L23.5148 95.9726H20.4906C19.6574 95.9726 18.8859 96.4663 18.5465 97.207L12.3746 110.476C12.066 111.155 12.1277 111.927 12.498 112.544C12.8992 113.161 13.5781 113.562 14.3187 113.562ZM98.75 141.984H59.8054L64.5269 128.097H68.4152H90.1094H93.9976L98.75 141.984ZM87.9801 123.777H70.6062V105.662H72.9824H85.6347H88.0109V123.777H87.9801ZM83.4437 101.373H75.1117V41.7527H83.4437V101.373ZM95.6332 25.428L110.199 21.5398C110.261 22.1878 110.384 22.805 110.538 23.453C110.693 24.0702 110.939 24.6874 111.186 25.2738L95.6332 29.4089V25.428V25.428ZM128.128 71.3468C127.449 71.1616 126.77 71.0073 126.091 70.8839C123.191 70.3593 120.043 70.3902 117.173 70.9456C116.587 71.0691 116.031 71.1925 115.476 71.3468L121.833 33.4823L128.128 71.3468ZM133.343 78.5679C138.466 82.271 141.552 88.2577 141.552 94.5839C141.552 102.36 136.954 109.427 129.887 112.606C127.357 113.748 124.641 114.334 121.802 114.334C118.994 114.334 116.247 113.748 113.717 112.606C106.928 109.551 102.453 103.039 102.083 95.6331C102.052 95.2937 102.052 94.9542 102.052 94.5839C102.052 92.6398 102.33 90.6956 102.885 88.8749C104.336 84.0609 107.545 80.0183 111.927 77.4878C112.482 77.1792 113.069 76.8706 113.624 76.6238C115.013 75.9757 116.494 75.5128 118.006 75.2351C119.241 74.9882 120.506 74.8648 121.802 74.8648C123.005 74.8648 124.178 74.9573 125.32 75.1734C126.925 75.4511 128.498 75.9448 129.98 76.6238C131.152 77.1484 132.263 77.7964 133.343 78.5679ZM119.889 13.362C120.506 13.2077 121.123 13.1152 121.771 13.1152C123.87 13.1152 125.937 14.0409 127.326 15.6765C128.036 16.5097 128.529 17.4663 128.838 18.5464C129.116 19.5956 129.177 20.6448 128.992 21.6941C128.992 21.7249 128.992 21.7558 128.961 21.7866C128.437 24.5331 126.369 26.7859 123.684 27.4956C123.468 27.5573 123.252 27.5882 123.005 27.6499C122.203 27.7734 121.401 27.7734 120.598 27.6499C118.901 27.3722 117.389 26.5081 116.247 25.1812C115.537 24.348 115.013 23.3913 114.735 22.3113C114.457 21.2312 114.396 20.1511 114.612 19.071C115.105 16.3245 117.173 14.0718 119.889 13.362ZM75.1117 18.207C75.1117 15.9234 76.9941 14.0409 79.2777 14.0409C81.5613 14.0409 83.4437 15.9234 83.4437 18.207V21.8484H75.1117V18.207V18.207ZM67.2426 26.1687H72.9515H85.6039H91.3129V32.2171V37.4323H85.6039H72.9515H67.2426V31.3839V26.1687V26.1687ZM62.9222 34.1921V38.173L48.3566 42.0613C48.3258 41.8761 48.3258 41.6909 48.2949 41.5058C48.2949 41.4441 48.264 41.3823 48.264 41.3515C48.2332 41.1972 48.2023 41.0738 48.1715 40.9195C48.1715 40.8577 48.1406 40.796 48.1406 40.7343C48.1097 40.5491 48.048 40.364 48.0172 40.148C47.9554 39.9628 47.8937 39.7777 47.8629 39.5925C47.832 39.5308 47.832 39.4691 47.8011 39.4382C47.7394 39.3148 47.7086 39.1605 47.6469 39.037C47.616 38.9753 47.616 38.9445 47.5851 38.8827C47.5234 38.6976 47.4308 38.5433 47.3691 38.3581L62.9222 34.1921ZM31.2297 47.9554C30.5199 47.1222 30.0262 46.1656 29.7176 45.0855C29.4398 44.0054 29.3781 42.9253 29.5941 41.8452C30.1187 39.0988 32.1863 36.846 34.8711 36.1363C35.4883 35.982 36.1054 35.8894 36.7535 35.8894C38.8519 35.8894 40.9195 36.8152 42.3082 38.4507L42.339 38.4816C42.4008 38.5433 42.4316 38.605 42.4625 38.6359C42.4933 38.6976 42.5551 38.7284 42.5859 38.7902C42.6168 38.8519 42.6785 38.9136 42.7094 38.9753C42.7402 39.037 42.7711 39.0679 42.8019 39.1296C42.8328 39.1913 42.8945 39.253 42.9254 39.3148C42.9562 39.3765 42.9871 39.4073 43.0179 39.4691C43.0488 39.5308 43.0797 39.5925 43.1105 39.6542C43.1414 39.7159 43.1722 39.7468 43.2031 39.8085C43.234 39.8702 43.2648 39.932 43.2957 40.0245C43.3265 40.0863 43.3574 40.1171 43.3574 40.1788C43.3883 40.2405 43.4191 40.3331 43.45 40.3948C43.4808 40.4566 43.4808 40.4874 43.5117 40.5491C43.5426 40.6417 43.5734 40.7343 43.6043 40.796C43.6043 40.8269 43.6351 40.8886 43.6351 40.9195C43.666 41.0429 43.7277 41.1663 43.7586 41.3206C43.7894 41.4441 43.8203 41.5984 43.8512 41.7218C43.8512 41.7835 43.882 41.8144 43.882 41.8761C43.9129 41.9687 43.9129 42.0304 43.9129 42.123C43.9129 42.1847 43.9129 42.2464 43.9437 42.3081C43.9437 42.3698 43.9746 42.4624 43.9746 42.5241C43.9746 42.5859 43.9746 42.6476 43.9746 42.7093C43.9746 42.771 43.9746 42.8636 43.9746 42.9253C43.9746 42.987 43.9746 43.0488 43.9746 43.1105C43.9746 43.1722 43.9746 43.2339 43.9746 43.3265C43.9746 43.3882 43.9746 43.4499 43.9746 43.5116C43.9746 43.5734 43.9746 43.6351 43.9746 43.7277C43.9746 43.7894 43.9746 43.8511 43.9437 43.9128C43.9437 43.9745 43.9437 44.0671 43.9129 44.1288C43.9129 44.1905 43.882 44.2523 43.882 44.314C43.882 44.3757 43.8512 44.4374 43.8512 44.53C43.8512 44.5609 43.8512 44.5609 43.8512 44.5917C43.3265 47.3382 41.259 49.5909 38.5433 50.3007C38.4199 50.3316 38.2965 50.3624 38.173 50.3933C37.1855 50.6093 36.1672 50.6093 35.1797 50.3933C33.7293 50.023 32.2789 49.1589 31.2297 47.9554ZM36.5683 54.8062C36.6301 54.8062 36.7226 54.8062 36.7844 54.8062C36.8769 54.8062 36.9386 54.8062 37.0312 54.8062L45.641 95.9417H27.9277L36.5683 54.8062ZM21.8484 100.293H25.2429H48.264H51.6586L55.8246 109.242H17.7133L21.8484 100.293Z" fill="#333333" fill-opacity="0.4"/>
<path d="M121.771 79.1851C116.432 79.1851 111.526 81.9007 108.718 86.437C108.687 86.4679 108.656 86.5296 108.625 86.5604C108.409 86.8999 108.193 87.2702 108.008 87.6405C106.928 89.8007 106.372 92.1151 106.372 94.553C106.372 95.0159 106.403 95.4479 106.434 95.8183C106.835 100.663 109.551 105.107 113.717 107.668C116.124 109.15 118.901 109.952 121.771 109.952C130.257 109.952 137.139 103.039 137.139 94.5839C137.139 92.3312 136.676 90.171 135.72 88.1343C135.473 87.5788 135.195 87.0851 134.886 86.5913C134.856 86.5296 134.825 86.4987 134.794 86.4679C132.726 83.1659 129.548 80.7897 125.783 79.7405C124.518 79.3702 123.16 79.1851 121.771 79.1851ZM131.152 88.7206C131.152 88.7515 131.183 88.7823 131.214 88.8132C131.43 89.1526 131.646 89.5538 131.831 89.955C132.51 91.4054 132.85 92.9483 132.85 94.5839C132.85 100.694 127.881 105.632 121.802 105.632C119.765 105.632 117.759 105.076 116.031 103.996C113.038 102.144 111.063 98.9659 110.785 95.4479C110.754 95.1702 110.754 94.8925 110.754 94.553C110.754 92.794 111.156 91.1276 111.927 89.5847C112.081 89.3069 112.205 89.0292 112.39 88.7823C112.421 88.7515 112.421 88.7206 112.452 88.6897C114.488 85.4186 118.006 83.5054 121.833 83.5054C122.82 83.5054 123.808 83.6288 124.764 83.9065C127.388 84.6472 129.671 86.3444 131.152 88.7206Z" fill="#333333" fill-opacity="0.4"/>
<path d="M129.393 91.3129C129.301 91.1277 129.239 90.9426 129.208 90.7883C129.177 90.6031 129.177 90.418 129.177 90.2328C129.177 89.9242 129.208 89.5848 129.054 89.2762C128.931 88.9676 128.653 88.7207 128.437 88.5047C128.282 88.3812 128.159 88.227 128.066 88.1035C127.974 87.9492 127.912 87.7949 127.82 87.5789C127.696 87.2703 127.604 86.9617 127.357 86.7148C127.11 86.468 126.801 86.3445 126.493 86.252C126.307 86.1902 126.122 86.0977 125.968 86.0051C125.814 85.9125 125.69 85.7582 125.567 85.6348C125.351 85.4188 125.104 85.141 124.795 85.0176C124.487 84.8941 124.147 84.8941 123.839 84.8941C123.623 84.8941 123.438 84.8941 123.283 84.8633C123.129 84.8324 122.944 84.7398 122.759 84.6781C122.481 84.5547 122.172 84.4004 121.802 84.4004C121.463 84.4004 121.123 84.5547 120.845 84.6781C120.66 84.7707 120.475 84.8324 120.321 84.8633C120.136 84.8941 119.95 84.8941 119.765 84.8941C119.457 84.8941 119.117 84.8633 118.809 85.0176C118.5 85.141 118.253 85.4188 118.037 85.6348C117.914 85.7891 117.759 85.9125 117.636 86.0051C117.482 86.0977 117.327 86.1594 117.111 86.252C116.803 86.3754 116.494 86.468 116.247 86.7148C116 86.9617 115.877 87.2703 115.784 87.5789C115.723 87.7641 115.63 87.9492 115.538 88.1035C115.445 88.2578 115.291 88.3812 115.167 88.5047C114.951 88.7207 114.673 88.9676 114.55 89.2762C114.427 89.5848 114.427 89.9242 114.427 90.2328C114.427 90.4488 114.427 90.634 114.396 90.7883C114.365 90.9426 114.272 91.1277 114.211 91.3129C114.087 91.5906 113.933 91.8992 113.933 92.2695C113.933 92.609 114.087 92.9484 114.211 93.2262C114.303 93.4113 114.365 93.5965 114.396 93.7508C114.427 93.9051 114.427 94.1211 114.427 94.3063C114.427 94.6148 114.396 94.9543 114.55 95.2629C114.673 95.5715 114.951 95.8184 115.167 96.0344C115.322 96.1578 115.445 96.3121 115.538 96.4355C115.63 96.5898 115.692 96.7441 115.784 96.9602C115.908 97.2688 116 97.5773 116.247 97.8242C116.34 97.9168 116.432 97.9785 116.556 98.0402L115.136 101.929C115.013 102.237 115.075 102.577 115.26 102.823C115.445 103.07 115.754 103.225 116.093 103.194L118.13 103.039L119.58 104.459C119.765 104.644 120.012 104.737 120.259 104.737C120.321 104.737 120.413 104.737 120.475 104.706C120.784 104.644 121.061 104.397 121.154 104.089L121.802 102.33L122.45 104.089C122.573 104.397 122.82 104.613 123.129 104.706C123.191 104.737 123.283 104.737 123.345 104.737C123.592 104.737 123.839 104.644 124.024 104.459L125.474 103.039L127.511 103.194C127.85 103.225 128.159 103.07 128.344 102.823C128.529 102.577 128.591 102.237 128.468 101.929L127.048 98.0402C127.172 97.9785 127.264 97.8859 127.357 97.7934C127.604 97.5465 127.727 97.2379 127.82 96.9293C127.881 96.7441 127.974 96.559 128.066 96.4047C128.159 96.2504 128.313 96.127 128.437 96.0035C128.653 95.7875 128.931 95.5406 129.054 95.232C129.177 94.9234 129.177 94.584 129.177 94.2754C129.177 94.0594 129.177 93.8742 129.208 93.7199C129.239 93.5656 129.332 93.3805 129.393 93.1953C129.517 92.9176 129.671 92.609 129.671 92.2387C129.671 91.9301 129.517 91.5906 129.393 91.3129ZM120.568 103.934C120.537 104.027 120.444 104.12 120.352 104.15C120.228 104.181 120.136 104.15 120.043 104.058L118.5 102.515C118.438 102.453 118.346 102.422 118.253 102.422L116.093 102.607C115.97 102.607 115.877 102.577 115.815 102.484C115.754 102.391 115.723 102.299 115.784 102.175L117.204 98.318C117.389 98.3797 117.543 98.4414 117.698 98.534C117.852 98.6266 117.975 98.7809 118.099 98.9043C118.315 99.1203 118.562 99.398 118.87 99.5215C119.179 99.6449 119.518 99.6449 119.827 99.6449C120.043 99.6449 120.228 99.6449 120.382 99.6758C120.537 99.7066 120.722 99.7992 120.907 99.8609C121.185 99.9844 121.493 100.139 121.864 100.139C121.895 100.139 121.956 100.139 121.987 100.139L120.568 103.934ZM127.82 102.484C127.758 102.577 127.665 102.607 127.542 102.607L125.351 102.422C125.258 102.422 125.166 102.453 125.104 102.515L123.561 104.058C123.468 104.15 123.376 104.15 123.252 104.15C123.129 104.12 123.067 104.058 123.036 103.934L122.141 101.466L122.728 99.8918C122.759 99.8918 122.759 99.8609 122.789 99.8609C122.975 99.7684 123.16 99.7066 123.314 99.6758C123.499 99.6449 123.684 99.6449 123.87 99.6449C124.178 99.6449 124.518 99.6758 124.826 99.5215C125.135 99.398 125.382 99.1203 125.598 98.9043C125.721 98.75 125.875 98.6266 125.999 98.534C126.122 98.4414 126.277 98.3797 126.462 98.318L127.85 102.175C127.912 102.299 127.881 102.391 127.82 102.484ZM128.807 92.9793C128.714 93.1953 128.622 93.4113 128.56 93.6273C128.498 93.8742 128.529 94.1211 128.529 94.3371C128.529 94.6148 128.56 94.8617 128.468 95.0469C128.375 95.232 128.19 95.4172 128.005 95.6023C127.85 95.7566 127.665 95.9109 127.542 96.127C127.418 96.343 127.326 96.559 127.233 96.775C127.141 97.0219 127.048 97.2688 126.894 97.3922C126.74 97.5465 126.523 97.6391 126.277 97.7316C126.061 97.8242 125.845 97.8859 125.629 98.0402C125.443 98.1637 125.258 98.3488 125.104 98.5031C124.919 98.6883 124.765 98.8734 124.548 98.966C124.363 99.0586 124.116 99.0277 123.839 99.0277C123.592 99.0277 123.376 99.0277 123.129 99.0586C122.882 99.0895 122.697 99.2129 122.481 99.3055C122.419 99.3363 122.357 99.3672 122.296 99.3672C122.111 99.4289 121.956 99.4906 121.771 99.4906C121.555 99.4906 121.308 99.3981 121.092 99.2746C120.876 99.182 120.66 99.0895 120.444 99.0277C120.29 98.9969 120.136 98.9969 119.981 98.9969C119.889 98.9969 119.796 98.9969 119.734 98.9969C119.457 98.9969 119.21 99.0277 119.025 98.9352C118.84 98.8426 118.654 98.6574 118.469 98.4723C118.315 98.318 118.161 98.1328 117.945 98.0094C117.729 97.8859 117.513 97.7934 117.297 97.7008C117.05 97.6082 116.803 97.5156 116.679 97.3613C116.525 97.207 116.432 96.991 116.34 96.7441C116.247 96.5281 116.186 96.3121 116.031 96.0961C115.908 95.9109 115.723 95.7258 115.568 95.5715C115.383 95.3863 115.198 95.232 115.106 95.016C115.013 94.8309 115.044 94.584 115.044 94.3063C115.044 94.0594 115.044 93.8434 115.013 93.5965C114.982 93.3496 114.859 93.1645 114.766 92.9484C114.643 92.7016 114.55 92.4855 114.55 92.2695C114.55 92.0535 114.643 91.8066 114.766 91.5906C114.859 91.3746 114.951 91.1586 115.013 90.9426C115.075 90.6957 115.044 90.4488 115.044 90.2328C115.044 89.9551 115.013 89.7082 115.106 89.523C115.198 89.3379 115.383 89.1527 115.568 88.9676C115.723 88.8133 115.908 88.659 116.031 88.443C116.155 88.227 116.247 88.0109 116.34 87.7949C116.432 87.548 116.525 87.3012 116.679 87.1777C116.834 87.0234 117.05 86.9309 117.297 86.8383C117.513 86.7457 117.729 86.684 117.945 86.5297C118.13 86.4062 118.315 86.2211 118.469 86.0668C118.654 85.8816 118.809 85.6965 119.025 85.6039C119.21 85.5113 119.457 85.5422 119.734 85.5422C119.981 85.5422 120.197 85.5422 120.444 85.5113C120.691 85.4805 120.876 85.357 121.092 85.2644C121.339 85.141 121.555 85.0484 121.771 85.0484C121.987 85.0484 122.234 85.141 122.45 85.2644C122.666 85.357 122.882 85.4496 123.098 85.5113C123.345 85.573 123.592 85.5422 123.808 85.5422C124.086 85.5422 124.332 85.5113 124.518 85.6039C124.703 85.6965 124.888 85.8816 125.073 86.0668C125.227 86.2211 125.382 86.4062 125.598 86.5297C125.814 86.6531 126.03 86.7457 126.246 86.8383C126.493 86.9309 126.74 87.0234 126.863 87.1777C127.017 87.332 127.11 87.548 127.202 87.7949C127.295 88.0109 127.357 88.227 127.511 88.443C127.634 88.6281 127.82 88.8133 127.974 88.9676C128.159 89.1527 128.344 89.307 128.437 89.523C128.529 89.7082 128.498 89.9551 128.498 90.2328C128.498 90.4797 128.498 90.6957 128.529 90.9426C128.56 91.1895 128.684 91.3746 128.776 91.5906C128.9 91.8375 128.992 92.0535 128.992 92.2695C129.023 92.4855 128.931 92.7324 128.807 92.9793Z" fill="black" fill-opacity="0.4"/>
<path d="M116.988 92.2695C116.988 89.6156 119.148 87.4554 121.802 87.4554C122.543 87.4554 123.252 87.6097 123.9 87.9492C124.055 88.0109 124.24 87.9492 124.332 87.7949C124.394 87.6406 124.332 87.4554 124.178 87.3628C123.437 86.9925 122.635 86.8074 121.802 86.8074C118.809 86.8074 116.34 89.2453 116.34 92.2695C116.34 93.5039 116.772 94.7074 117.543 95.664C117.605 95.7566 117.698 95.7875 117.79 95.7875C117.852 95.7875 117.945 95.7566 117.975 95.7257C118.099 95.6023 118.13 95.4171 118.037 95.2937C117.358 94.4296 116.988 93.3804 116.988 92.2695Z" fill="#2D2B29" fill-opacity="0.4"/>
<path d="M126.277 89.739C126.122 89.8007 126.061 90.0167 126.122 90.171C126.431 90.8191 126.616 91.5288 126.616 92.2695C126.616 94.9234 124.456 97.0835 121.802 97.0835C120.691 97.0835 119.642 96.7132 118.778 96.0343C118.654 95.9109 118.438 95.9417 118.346 96.096C118.222 96.2195 118.253 96.4355 118.407 96.528C119.364 97.2995 120.568 97.7316 121.802 97.7316C124.795 97.7316 127.264 95.2937 127.264 92.2695C127.264 91.4363 127.079 90.6339 126.709 89.8933C126.647 89.739 126.431 89.6773 126.277 89.739Z" fill="#2D2B29" fill-opacity="0.4"/>
<path d="M124.98 88.6591C125.135 88.7825 125.289 88.9368 125.412 89.0911C125.474 89.1528 125.567 89.1837 125.659 89.1837C125.721 89.1837 125.814 89.1528 125.875 89.0911C125.999 88.9677 126.03 88.7825 125.906 88.6282C125.752 88.4431 125.598 88.2888 125.412 88.1345C125.289 88.0111 125.073 88.0419 124.95 88.1653C124.857 88.3505 124.857 88.5357 124.98 88.6591Z" fill="#2D2B29" fill-opacity="0.4"/>
<path d="M124.98 88.6591C125.135 88.7825 125.289 88.9368 125.412 89.0911C125.474 89.1528 125.567 89.1837 125.659 89.1837C125.721 89.1837 125.814 89.1528 125.875 89.0911C125.999 88.9677 126.03 88.7825 125.906 88.6282C125.752 88.4431 125.598 88.2888 125.412 88.1345C125.289 88.0111 125.073 88.0419 124.95 88.1653C124.857 88.3505 124.857 88.5357 124.98 88.6591Z" fill="black" fill-opacity="0.2"/>
</svg>
