<svg width="197" height="197" viewBox="0 0 197 197" fill="none" xmlns="http://www.w3.org/2000/svg">
<path fill-rule="evenodd" clip-rule="evenodd" d="M95.3635 83.6258L101.04 98.9879C101.121 99.2138 101.129 99.4639 101.04 99.6975C100.847 100.23 100.258 100.504 99.7179 100.311L84.4689 94.674C84.2753 95.3034 84.1218 95.9487 84.001 96.6016C83.8317 97.5693 83.7351 98.5774 83.7351 99.6178C83.7351 104.255 85.6139 108.464 88.6543 111.504C91.694 114.536 95.8952 116.423 100.541 116.423C105.178 116.423 109.379 114.536 112.427 111.504C115.459 108.464 117.346 104.255 117.346 99.6178C117.346 94.9806 115.459 90.7794 112.419 87.7393C109.379 84.6989 105.178 82.812 100.541 82.812C99.4593 82.812 98.4197 82.9167 97.412 83.1025C96.7179 83.2306 96.0322 83.4076 95.3635 83.6258ZM84.4285 83.6985C86.6701 81.4642 89.3881 79.6985 92.4043 78.5854C92.9364 78.3841 93.5332 78.6665 93.7263 79.1987L94.6459 81.6908C95.4204 81.4326 96.2184 81.231 97.0326 81.0779C98.1777 80.8605 99.347 80.747 100.541 80.747C105.751 80.747 110.468 82.8601 113.879 86.2791C117.298 89.6905 119.411 94.4077 119.411 99.6174C119.411 104.819 117.298 109.528 113.895 112.939L113.879 112.955C110.46 116.374 105.743 118.487 100.541 118.487C95.3392 118.487 90.6301 116.374 87.2192 112.971L87.203 112.963C83.784 109.544 81.6708 104.826 81.6708 99.617C81.6708 98.4797 81.7763 97.3508 81.9775 96.238C82.1145 95.4639 82.3084 94.6978 82.5339 93.9641L79.929 92.9964C79.3969 92.8025 79.1229 92.2061 79.3168 91.6735C80.4296 88.6574 82.1876 85.9482 84.4131 83.7139L84.4285 83.6985ZM92.1615 80.9001C89.8071 81.9163 87.6778 83.368 85.8879 85.1498L85.8636 85.1745C84.0895 86.9563 82.6385 89.0772 81.6304 91.4323L84.1787 92.3677L84.203 92.3838L84.2268 92.3919L98.3312 97.6016L93.0899 83.4003L93.0738 83.3765L93.0657 83.3518L92.1615 80.9001ZM117.193 80.6423C112.62 76.0694 106.306 73.2394 99.3304 73.2394C92.3554 73.2394 86.041 76.0694 81.4688 80.6423C76.8959 85.2145 74.0656 91.5285 74.0656 98.5043C74.0656 105.48 76.8959 111.794 81.4688 116.366C86.041 120.931 92.3554 123.761 99.3304 123.761C106.306 123.761 112.62 120.931 117.193 116.366C121.765 111.794 124.588 105.48 124.588 98.5043C124.588 91.5285 121.765 85.2145 117.193 80.6423ZM99.3304 71.2552C106.855 71.2552 113.661 74.3114 118.596 79.2387C123.523 84.166 126.571 90.9806 126.571 98.5039C126.571 106.019 123.523 112.834 118.596 117.769C113.661 122.696 106.854 125.745 99.3304 125.745C91.8071 125.745 84.9925 122.696 80.0652 117.769C75.1383 112.834 72.0821 106.027 72.0821 98.5039C72.0821 90.9806 75.1383 84.1656 80.0652 79.2387C84.9929 74.3118 91.8071 71.2552 99.3304 71.2552ZM78.0737 119.753C78.4611 120.14 78.4611 120.769 78.0737 121.156C77.6951 121.543 77.0575 121.543 76.6789 121.156C70.4215 114.898 67.2922 106.697 67.2922 98.5039C67.2922 90.3026 70.4215 82.1013 76.6789 75.8435C77.0575 75.4649 77.6951 75.4649 78.0737 75.8435C78.4611 76.2306 78.4611 76.8597 78.0737 77.2464C72.2114 83.1171 69.2764 90.8101 69.2764 98.5035C69.276 106.197 72.211 113.883 78.0737 119.753ZM120.579 77.2472C120.193 76.8601 120.193 76.231 120.579 75.8443C120.967 75.4657 121.596 75.4657 121.983 75.8443C128.241 82.1021 131.369 90.303 131.369 98.5047C131.369 106.698 128.241 114.899 121.983 121.157C121.596 121.544 120.967 121.544 120.579 121.157C120.193 120.77 120.193 120.14 120.579 119.754C126.451 113.883 129.386 106.198 129.386 98.5047C129.386 90.8109 126.451 83.1175 120.579 77.2472ZM54.0993 74.4164C54.7042 73.4083 53.204 72.336 52.3656 73.4572C52.0427 74.0455 51.7368 74.6746 51.4306 75.2875C50.8823 76.6585 52.793 77.1991 53.2205 76.1506L54.0993 74.4164ZM58.2682 67.8608C59.0347 66.8365 57.446 65.6507 56.6795 66.6749C56.2763 67.2152 55.8815 67.7638 55.4937 68.3198C54.8084 69.473 56.3567 70.473 57.1309 69.441C57.5018 68.9089 57.8816 68.3768 58.2682 67.8608ZM63.3733 62.0058C64.3083 61.0701 62.8893 59.6837 61.9778 60.5945C61.5026 61.0785 61.0343 61.5541 60.5668 62.0381C59.7038 62.9092 61.0347 64.3767 62.0182 63.401C62.4618 62.925 62.9135 62.466 63.3733 62.0058ZM69.2999 56.99C70.3807 56.1832 69.1467 54.6272 68.1386 55.3852C67.5903 55.7722 67.0582 56.1832 66.5265 56.6025C65.5022 57.369 66.695 58.9496 67.7519 58.1593C68.2602 57.7561 68.7758 57.3694 69.2999 56.99ZM75.9205 52.9176C77.026 52.2562 76.2837 50.6514 75.0098 51.1597C74.413 51.4578 73.8159 51.7887 73.2356 52.1193C72.0579 52.8211 73.1471 54.4821 74.2114 53.8372C74.7674 53.5225 75.3399 53.2081 75.9205 52.9176ZM83.0814 49.9015C84.4119 49.3693 83.5331 47.5871 82.4446 48.0227C81.8074 48.2404 81.1706 48.4659 80.5412 48.6998C79.2915 49.2 80.0733 51.0227 81.2426 50.5548C81.8559 50.3209 82.4608 50.1035 83.0814 49.9015ZM90.6136 48.0069C91.9522 47.741 91.4928 45.8137 90.2665 46.0554C89.6055 46.1685 88.9445 46.2974 88.2911 46.4343C87.0737 46.6764 87.3481 48.6037 88.6944 48.3778C89.3311 48.2408 89.9679 48.12 90.6136 48.0069ZM98.347 47.2808C99.6048 47.2808 99.6536 45.2974 98.2985 45.2974C97.6294 45.3054 96.9603 45.3374 96.2904 45.3778C95.1215 45.3778 94.9522 47.3536 96.3954 47.3536C97.0403 47.3135 97.7021 47.2885 98.347 47.2808ZM106.105 47.7164C106.209 47.7329 106.354 47.7164 106.451 47.6921C107.419 47.4982 107.556 45.9907 106.354 45.7487L104.346 45.5228C103.04 45.5228 102.838 47.232 104.169 47.4982C104.814 47.5548 105.46 47.6275 106.105 47.7164ZM113.701 49.3132C114.991 49.571 115.508 47.9099 114.249 47.4097C113.604 47.2247 112.952 47.0392 112.298 46.8776C110.919 46.6036 110.653 48.571 111.83 48.8053C112.427 48.9903 113.088 49.1435 113.701 49.3132ZM120.975 52.055C122.305 52.5867 122.894 50.6922 121.805 50.2566L119.959 49.434C118.708 48.9338 118.023 50.7964 119.192 51.2647L120.975 52.055ZM127.741 55.8611C128.958 56.5952 129.862 54.8288 128.837 54.2082C128.273 53.8372 127.708 53.4744 127.136 53.1273C125.999 52.4417 125.007 54.1516 126.104 54.8126L127.741 55.8611ZM133.861 60.6511C133.982 60.7803 134.256 60.9092 134.466 60.9092C135.434 60.9092 135.853 59.853 135.184 59.1839L133.675 57.8534C132.82 57.0066 131.409 58.3856 132.393 59.369L133.861 60.6511ZM139.184 66.3036C139.369 66.5537 139.772 66.7311 140.111 66.6588C140.877 66.506 141.192 65.683 140.724 65.0539L139.425 63.5137C138.385 62.4737 137.127 64.0054 137.934 64.8204L139.184 66.3036ZM143.594 72.6988C144.28 73.8358 145.966 72.7958 145.304 71.6907C144.966 71.1101 144.618 70.5457 144.256 69.9732C143.755 69.1428 142.433 69.5376 142.433 70.4487C142.433 70.7146 142.473 70.8523 142.586 71.037C142.934 71.5861 143.272 72.1425 143.594 72.6988ZM146.99 79.6827C147.481 80.9001 149.32 80.1583 148.837 78.9486C148.586 78.328 148.328 77.7069 148.062 77.094C147.602 75.9489 145.747 76.6588 146.24 77.8762C146.482 78.4811 146.756 79.0775 146.99 79.6827ZM147.683 115.479C147.489 115.955 147.796 116.536 148.207 116.705C148.812 116.947 149.336 116.665 149.554 116.124L150.183 114.213C150.562 113.27 149.07 112.278 148.352 113.471C148.103 114.084 147.909 114.834 147.683 115.479ZM144.555 122.584C143.95 123.592 145.473 124.648 146.264 123.6C146.602 123.011 146.917 122.334 147.223 121.721C147.772 120.342 145.86 119.802 145.441 120.85L144.555 122.584ZM140.393 129.14C139.627 130.164 141.216 131.349 141.982 130.325C142.385 129.793 142.772 129.236 143.159 128.688C143.853 127.535 142.305 126.527 141.523 127.567C141.151 128.099 140.78 128.624 140.393 129.14ZM135.289 134.994C134.353 135.93 135.764 137.317 136.675 136.406C137.151 135.93 137.628 135.454 138.087 134.962C138.958 134.091 137.619 132.623 136.644 133.607C136.2 134.083 135.74 134.535 135.289 134.994ZM129.354 140.01C128.281 140.825 129.506 142.373 130.515 141.623C131.063 141.228 131.604 140.817 132.136 140.405C132.547 140.091 132.636 139.437 132.314 139.034C131.975 138.575 131.354 138.51 130.91 138.849C130.394 139.244 129.886 139.639 129.354 140.01ZM122.741 144.083C121.636 144.744 122.378 146.357 123.644 145.849C124.241 145.55 124.846 145.22 125.427 144.889C126.596 144.179 125.515 142.526 124.45 143.163C123.886 143.478 123.313 143.8 122.741 144.083ZM115.58 147.106C114.242 147.639 115.12 149.413 116.217 148.977C116.854 148.767 117.483 148.542 118.112 148.3C119.371 147.8 118.58 145.985 117.41 146.453C116.806 146.679 116.193 146.897 115.58 147.106ZM108.048 148.993C106.709 149.259 107.161 151.187 108.386 150.945C109.056 150.832 109.709 150.711 110.37 150.566C111.588 150.324 111.314 148.405 109.959 148.631C109.322 148.759 108.685 148.881 108.048 148.993ZM100.314 149.719C99.4516 149.719 99.0165 150.792 99.6452 151.421C99.766 151.59 100.105 151.703 100.355 151.703C101.025 151.695 101.702 151.663 102.371 151.63C103.54 151.63 103.702 149.647 102.258 149.647C101.612 149.687 100.96 149.711 100.314 149.719ZM92.5566 149.292C92.4439 149.268 92.3069 149.292 92.2023 149.308C91.2346 149.502 91.1057 151.017 92.2988 151.252L94.3065 151.478C95.6213 151.478 95.8148 149.776 94.4843 149.51C93.8394 149.445 93.2019 149.373 92.5566 149.292ZM84.9521 147.687C83.6701 147.429 83.1541 149.09 84.4038 149.59C85.0495 149.775 85.7024 149.969 86.3557 150.123C87.7344 150.397 88.0002 148.437 86.8228 148.195C86.2268 148.017 85.5651 147.865 84.9521 147.687ZM77.6866 144.953C76.3561 144.421 75.7589 146.316 76.8563 146.751L78.6947 147.566C79.9444 148.066 80.6377 146.211 79.4607 145.744L77.6866 144.953ZM70.9209 141.139C69.7035 140.413 68.8004 142.179 69.8243 142.792C70.3807 143.163 70.9451 143.526 71.5176 143.88C72.6627 144.566 73.6546 142.849 72.558 142.188L70.9209 141.139ZM64.8004 136.349C64.6715 136.22 64.3968 136.099 64.1956 136.099C63.2198 136.099 62.8008 137.147 63.4699 137.817L64.9855 139.147C65.832 140.002 67.244 138.623 66.2675 137.64L64.8004 136.349ZM59.4702 130.696C59.2848 130.446 58.8896 130.277 58.5426 130.341C57.785 130.494 57.4622 131.317 57.9377 131.946L59.2363 133.494C60.2767 134.535 61.5345 132.994 60.7284 132.188L59.4702 130.696ZM55.0585 124.301C54.3813 123.164 52.688 124.204 53.349 125.309C53.6961 125.89 54.0431 126.463 54.3975 127.027C54.8977 127.857 56.2278 127.471 56.2278 126.551C56.2278 126.286 56.1878 126.156 56.0747 125.963C55.7199 125.414 55.3894 124.865 55.0585 124.301ZM51.6637 117.317C51.1797 116.108 49.3413 116.842 49.8253 118.052C50.067 118.681 50.3332 119.294 50.5999 119.914C51.0589 121.059 52.9219 120.39 52.414 119.116C52.1478 118.519 51.9054 117.923 51.6637 117.317ZM40.616 80.2795C40.2293 80.6585 39.5998 80.6508 39.2212 80.2633C38.8418 79.8759 38.8418 79.2468 39.2373 78.8682L43.8176 74.3764H10.9882C10.448 74.3764 10.0044 73.9247 10.0044 73.3845C10.0044 72.8358 10.448 72.3929 10.9882 72.3929H43.8176L39.2373 67.9008C38.8418 67.5137 38.8418 66.8846 39.2212 66.4979C39.5998 66.1109 40.2293 66.1109 40.616 66.4899L46.8815 72.6261C47.0912 72.8116 47.2285 73.0778 47.2285 73.3845C47.2285 73.6827 47.0916 73.957 46.8815 74.1344L40.616 80.2795ZM157.764 133.277C158.15 133.664 158.15 134.293 157.772 134.68C157.392 135.067 156.764 135.075 156.376 134.688L150.111 128.551C149.901 128.366 149.764 128.099 149.764 127.793C149.764 127.495 149.901 127.228 150.111 127.044L156.376 120.907C156.764 120.519 157.392 120.528 157.772 120.915C158.15 121.302 158.15 121.931 157.764 122.31L153.183 126.801H186.004C186.544 126.801 186.996 127.253 186.996 127.793C186.996 128.342 186.544 128.785 186.004 128.785H153.183L157.764 133.277ZM134.877 121.285C146.054 115.955 156.207 108.173 164.868 98.5043C156.206 88.8274 146.054 81.0536 134.877 75.715C123.886 70.4653 111.886 67.5868 99.3304 67.5868C86.7671 67.5868 74.7755 70.4653 63.7842 75.715C59.0262 77.9817 54.4621 80.6908 50.1154 83.8032C50.2036 83.7147 50.2767 83.6019 50.3328 83.4569C50.5672 82.8359 50.7522 82.1583 50.9781 81.5292C51.172 81.0452 50.8573 80.4646 50.4544 80.3033C49.8496 80.0613 49.3167 80.3437 49.0993 80.8759L48.4702 82.787C48.1239 83.6662 49.1797 84.3114 49.8819 83.9725C44.0916 88.1414 38.6964 93.0125 33.786 98.5043C42.4463 108.173 52.5995 115.955 63.7842 121.285C74.7751 126.535 86.7667 129.422 99.3304 129.422C111.886 129.422 123.886 126.535 134.877 121.285Z" fill="black" fill-opacity="0.44"/>
</svg>
