<svg width="341" height="62" viewBox="0 0 341 62" fill="none" xmlns="http://www.w3.org/2000/svg">
<path d="M75.0253 52.1952C70.511 50.3721 65.3362 49.9203 62 45.323C62.2789 45.1169 62.4221 44.9821 62.4404 45.0019C66.8923 49.1158 72.3718 48.1527 77.521 48.3469C130.804 50.3444 184.105 48.7948 237.399 49.203C263.751 49.4051 290.106 49.4091 316.454 49.1118C322.638 49.0444 328.867 48.3865 335.065 47.8396C337.319 47.6415 339.121 46.2821 341 45.0574C339.947 47.8039 337.579 48.7314 335.311 49.6746C332.992 50.6377 330.595 51.3709 328.118 52.2428C328.852 52.3696 329.483 52.3815 330.045 52.5995C330.683 52.8452 331.766 52.7263 331.792 53.6458C331.814 54.4345 330.859 54.7674 330.217 55.1241C327.938 56.3884 325.585 56.1149 323.262 55.3658C322.099 54.9933 320.855 54.6089 319.893 53.8598C317.658 52.1239 315.203 52.0248 312.6 52.0288C238.009 52.0644 163.413 52.0605 88.8213 52.0288C87.2469 52.0288 85.8706 52.3141 84.4979 53.2098C81.9655 54.8625 79.246 56.0118 76.2071 55.9643C74.6253 55.9405 73.2123 55.3975 71.9461 54.3948C71.1386 53.7528 71.2487 53.2296 72.1699 52.9403C73.0985 52.647 74.0491 52.441 75.029 52.1873L75.0253 52.1952Z" fill="#BB9E6E"/>
<path d="M259.022 44.3589C261.363 42.9082 261.606 40.8909 261.609 38.7206C261.626 31.0689 261.695 23.4173 261.698 15.7656C261.698 13.5991 261.688 11.3637 259.494 9.82109C262.523 9.82109 265.548 9.80578 268.577 9.82109C271.934 9.84023 275.305 9.59907 278.622 10.468C286.555 12.5464 291.045 19.0039 290.556 27.6316C290.025 37.0058 284.916 43.0651 276.695 44.0718C270.976 44.7723 265.25 43.9034 259.022 44.355V44.3589ZM266.048 26.2804C266.048 30.1005 266.048 33.9206 266.048 37.7407C266.048 37.867 266.048 37.9972 266.055 38.1235C266.157 40.4928 266.921 41.4039 268.998 41.7866C271.27 42.2039 273.54 42.1005 275.785 41.6871C280.911 40.7455 284.217 37.2546 285.217 31.8421C285.645 29.5225 285.751 27.1646 285.539 24.8144C285.049 19.3598 283.044 15.046 278.115 13.1283C274.765 11.823 271.284 11.9838 267.814 12.2326C266.493 12.3283 265.99 13.1206 266.02 14.6364C266.096 18.5177 266.044 22.4029 266.044 26.2842L266.048 26.2804Z" fill="#A81F1E"/>
<path d="M168.447 44.3818C165.874 44.3818 163.502 44.4813 161.144 44.3588C157.937 44.1866 155.408 42.4564 153.43 39.6851C151.048 36.3473 148.635 33.0363 146.328 29.6373C145.295 28.1177 144.039 28.5808 142.769 28.7569C142.201 28.8373 142.3 29.3808 142.307 29.8095C142.351 33.1244 142.392 36.4354 142.464 39.7502C142.502 41.5339 142.954 43.1225 144.638 44.2325H136.044C137.974 42.8201 138.203 40.8488 138.2 38.7665C138.197 30.9847 138.2 23.2028 138.2 15.421C138.2 13.4535 138.019 11.5665 135.791 10.2497C140.945 10.177 145.623 9.62197 150.267 10.4488C152.944 10.9234 155.329 12.2248 156.246 15.4172C157.212 18.7818 156.318 21.6832 154.172 24.1713C153.135 25.3732 151.934 26.3454 150.61 27.1071C150.124 27.3866 149.816 27.6162 150.209 28.221C154.241 34.3722 158.43 40.3282 165.104 43.1875C165.631 43.4134 166.192 43.5741 166.75 43.6813C167.297 43.7885 167.821 43.9033 168.454 44.3933L168.447 44.3818ZM142.516 20.4201H142.29C142.29 22.0124 142.286 23.6047 142.29 25.1971C142.29 25.7598 142.197 26.3531 142.991 26.4105C149.634 26.9004 152.578 22.3186 151.599 16.332C151.325 14.6478 150.504 13.3961 149.1 12.711C147.382 11.8689 145.568 11.8153 143.737 12.0909C142.878 12.221 142.464 12.6612 142.499 13.733C142.567 15.9607 142.519 18.1885 142.519 20.4201H142.516Z" fill="#A9211F"/>
<path d="M290.936 44.2478C292.726 42.5828 293.872 40.7148 294.786 38.6708C299.074 29.0479 302.705 19.111 306.124 9.07465C306.323 8.49666 306.538 7.92632 306.874 7C308.171 10.3531 309.331 13.4 310.522 16.4316C313.578 24.2249 316.655 32.0105 319.701 39.8077C320.43 41.6679 321.46 43.1799 323.147 44.3665C321.077 44.3665 319.006 44.3359 316.939 44.3818C316.121 44.401 316.063 43.7158 315.868 43.1531C315.057 40.8488 314.236 38.5483 313.486 36.2172C313.202 35.333 312.853 34.8928 311.919 34.912C308.157 34.977 304.396 34.977 300.635 34.912C299.704 34.8967 299.355 35.3177 299.088 36.2134C298.417 38.4411 297.609 40.6191 296.98 42.8622C296.665 43.9837 296.158 44.3435 295.145 44.2708C293.841 44.1751 292.527 44.2478 290.942 44.2478H290.936ZM306.237 16.6383C304.259 21.9703 302.401 26.9962 300.529 32.0182C300.193 32.9215 300.761 32.7991 301.199 32.7991C304.502 32.8067 307.801 32.7914 311.104 32.8105C311.857 32.8144 312.168 32.6191 311.826 31.7043C309.992 26.8048 308.185 21.8976 306.237 16.6383V16.6383Z" fill="#A81F1E"/>
<path d="M185.152 44.2477C187.856 41.7903 189.091 38.5864 190.423 35.4668C194.122 26.8123 197.333 17.9281 200.392 8.97113C200.57 8.45056 200.758 7.93764 201.073 7.04578C201.511 8.11755 201.83 8.87926 202.131 9.64864C206.094 19.7692 210.06 29.8898 214.01 40.0219C214.715 41.8362 215.827 43.1797 217.402 44.3702C215.331 44.3702 213.26 44.3319 211.193 44.3893C210.375 44.4123 210.297 43.7539 210.098 43.195C209.266 40.8295 208.418 38.4716 207.655 36.0793C207.381 35.2218 206.997 34.9118 206.176 34.9233C202.418 34.9692 198.657 34.9807 194.899 34.9195C193.996 34.9041 193.592 35.2639 193.318 36.175C192.63 38.4601 191.843 40.707 191.162 42.996C190.892 43.907 190.505 44.3319 189.591 44.2745C188.195 44.1864 186.791 44.2515 185.149 44.2515L185.152 44.2477ZM200.471 16.6458C198.486 21.9855 196.628 26.996 194.762 32.0065C194.441 32.8716 194.981 32.7989 195.44 32.8027C198.736 32.8065 202.035 32.7951 205.331 32.8142C206.063 32.818 206.416 32.6649 206.067 31.7309C204.236 26.8391 202.429 21.9319 200.471 16.6496V16.6458Z" fill="#A81F1E"/>
<path d="M109.181 44.1408C110.8 42.4833 111.074 40.3436 111.06 38.0278C111.019 30.5714 111.053 23.1149 111.04 15.6623C111.04 13.5762 110.838 11.5589 108.487 10.0738C109.643 10.0738 110.28 10.0814 110.913 10.0738C116.663 10.0125 122.419 10.2613 128.159 9.70632C129.209 9.60297 129.603 10.0393 129.534 11.2183C129.463 12.4164 129.517 13.6221 129.517 15.0805C128.097 13.1743 126.263 12.891 124.394 12.669C121.783 12.3589 119.168 12.359 116.546 12.3513C115.67 12.3513 115.167 12.5197 115.188 13.7025C115.242 17.0135 115.236 20.3283 115.188 23.6432C115.174 24.692 115.592 24.9446 116.423 24.9408C119.271 24.9293 122.118 24.9408 124.966 24.9867C126.776 25.0173 127.888 23.9379 128.699 21.9207V29.802C127.645 27.8537 126.102 27.3944 124.404 27.3561C121.731 27.2948 119.055 27.3101 116.382 27.2068C115.372 27.1685 115.167 27.5972 115.184 28.6307C115.239 31.9417 115.239 35.2566 115.191 38.5714C115.164 40.4432 116.023 41.5685 117.542 41.7331C120.944 42.1006 124.36 42.2537 127.591 40.5656C128.84 39.9149 129.955 39.1034 130.965 37.8747C130.708 39.8384 130.547 41.8211 130.164 43.7503C129.942 44.868 128.946 44.424 128.272 44.3781C121.899 43.9379 115.52 44.1905 109.14 44.1599L109.174 44.1484L109.181 44.1408Z" fill="#A81F1E"/>
<path d="M228.09 36.5426C230.071 30.8239 231.998 25.2622 233.929 19.6966C234.914 16.8526 235.941 14.0277 236.858 11.1569C237.176 10.1579 237.587 9.72152 238.569 9.79807C239.866 9.89759 241.177 9.82105 242.608 9.82105C239.158 13.6029 237.683 18.5981 235.712 23.2641C232.748 30.2765 230.311 37.5378 227.799 44.7608C227.573 45.4076 227.344 46.0507 227.008 47C225.15 42.1732 223.415 37.6067 221.639 33.0631C219.137 26.6593 216.594 20.2746 214.085 13.8746C213.394 12.11 212.35 10.7512 210.769 9.6909C212.826 9.6909 214.883 9.71769 216.936 9.67941C217.833 9.6641 217.881 10.4718 218.107 11.0651C221.094 18.9694 224.055 26.8852 227.036 34.7971C227.248 35.3598 227.323 36.0373 228.086 36.5426H228.09Z" fill="#A9211F"/>
<path d="M103.497 19.5397C101.217 14.3416 97.4116 11.7808 92.3635 11.5741C87.7878 11.3904 84.1668 13.4574 81.8293 17.9626C77.6163 26.0775 80.3235 37.4689 87.3702 41.1473C91.0904 43.0918 94.8858 42.9157 98.6334 41.1588C99.2665 40.8602 99.8381 40.688 99.7457 41.6909C99.6841 42.3645 101.265 43.2028 99.6088 43.7234C93.3903 45.6794 87.3394 45.7215 81.7095 41.622C72.4314 34.866 72.5614 18.131 83.4413 11.5932C89.4202 7.99898 95.6148 8.55784 101.779 11.1531C103.031 11.6813 103.671 12.6267 103.627 14.2076C103.575 15.976 103.938 17.7559 103.497 19.532V19.5397Z" fill="#A81F1E"/>
<path d="M173.793 9.65264H183.848C180.98 10.667 180.279 12.5579 180.333 15.3407C180.484 22.7933 180.47 30.2498 180.344 37.7024C180.292 40.7225 181.073 42.9043 183.711 44.1483C180.049 44.2364 176.442 43.9033 172.705 44.1828C176.038 43.1646 176.377 40.4545 176.333 37.2813C176.233 29.955 176.295 22.6287 176.305 15.2986C176.305 13.0325 175.758 11.0804 173.797 9.6488L173.793 9.65264Z" fill="#A71E1C"/>
<path d="M255.894 9.69083C253.494 10.6593 252.488 12.198 252.536 14.9119C252.67 22.5597 252.649 30.2114 252.55 37.8593C252.512 40.8105 253.323 42.9387 255.921 44.1215C252.276 44.2784 248.662 43.8688 245.038 44.3703C245.123 43.7578 245.53 43.7999 245.821 43.6698C247.676 42.8353 248.515 41.3157 248.508 39.0688C248.477 30.9731 248.494 22.8774 248.498 14.7817C248.498 12.6765 247.813 10.977 246.013 9.68701H255.897L255.894 9.69083Z" fill="#A71E1C"/>
<path d="M100.557 36.4202C100.557 34.8929 100.598 33.3656 100.543 31.8422C100.492 30.3914 100.18 28.9024 98.7908 28.4546C97.4116 28.0106 96.1179 28.6001 95.0091 29.6642C94.6429 30.0163 94.5196 31.1417 93.7838 30.491C93.1678 29.9436 92.8084 29.0594 93.1541 28.0948C93.6675 26.6594 94.6771 25.8938 96.0084 25.7024C97.083 25.5493 98.1748 25.557 99.2289 25.913C100.601 26.38 101.967 26.7666 103.411 26.2919C103.969 26.1082 104.4 26.357 104.698 26.9312C104.937 27.3905 104.872 27.7656 104.561 28.1369C103.661 29.2087 103.705 30.5981 103.64 31.9111C103.51 34.6441 103.456 37.3809 103.404 40.1139C103.384 41.2546 103.377 42.4642 102.015 42.4335C100.653 42.4068 100.68 41.1513 100.67 40.0412C100.659 38.8355 100.67 37.6259 100.67 36.4202H100.557V36.4202Z" fill="#A9211F"/>
<path d="M320.191 7.24884C322.983 7.30626 325.05 9.74453 324.999 12.9254C324.948 15.9991 322.696 18.4182 319.924 18.3723C317.158 18.3263 315.006 15.8421 315.029 12.7264C315.05 9.52252 317.251 7.19142 320.194 7.24884H320.191ZM319.999 8.42395C317.86 8.43926 316.09 10.4565 316.125 12.8412C316.155 15.1034 317.945 17.1244 319.951 17.1627C322.025 17.201 323.918 15.1264 323.928 12.7991C323.938 10.4297 322.121 8.40481 319.999 8.42395V8.42395Z" fill="#AC2926"/>
<path d="M317.771 12.5847C317.771 12.4584 317.771 12.3282 317.771 12.2019C317.771 9.71386 318.726 8.9866 320.861 9.82105C321.809 10.1923 322.261 11.1378 321.772 11.888C321.111 12.9062 321.693 13.4344 321.97 14.1732C322.124 14.5828 322.692 15.1033 322.138 15.4478C321.672 15.7349 321.012 15.6737 320.721 14.8775C320.594 14.5254 320.399 14.2038 320.235 13.8708C320.078 13.5531 319.821 13.4344 319.52 13.4957C319.123 13.5761 319.222 13.955 319.205 14.2497C319.167 14.8545 319.355 15.5971 318.411 15.5359C317.418 15.4708 317.846 14.644 317.781 14.112C317.72 13.6105 317.767 13.0938 317.767 12.5847H317.771Z" fill="#AC2926"/>
<path d="M45.2343 22.0725C42.3955 14.6335 33.1265 12.433 27.4335 15.8986C23.9171 18.0392 22.1589 21.4029 21.5754 25.4762C21.0341 29.2616 21.2472 32.9931 23.0015 36.4528C26.9076 44.1496 35.0728 44.7812 40.5163 42.2009C40.7179 42.105 40.9137 41.9931 41.1805 41.8531C41.3974 42.6146 41.478 43.4061 41.9348 44.0517C42.2937 44.5593 41.7544 44.4954 41.5663 44.5673C39.6008 45.3108 37.5604 45.6686 35.4817 45.8065C31.4835 46.0723 27.6312 45.5187 24.134 43.3381C18.4928 39.8185 16.0225 34.586 16.4179 27.7786C16.915 19.2164 24.1033 13.0346 31.0343 12.2891C35.092 11.8514 39.0556 12.1931 42.9079 13.7041C44.5126 14.3337 45.4358 15.2731 45.3495 17.2237C45.2823 18.7707 45.5165 20.3336 45.2305 22.0725H45.2343Z" fill="#A71E1C"/>
<path d="M42.2362 37.9298C42.2362 36.3368 42.2554 34.7439 42.2228 33.151C42.2151 32.7293 42.0942 32.2956 41.9522 31.8958C41.4358 30.4388 40.5011 29.9092 39.0346 30.199C37.8331 30.4348 36.7774 30.9305 36.1133 32.0657C35.7793 32.6353 35.5297 32.5014 35.1996 32.0597C34.4606 31.0684 34.4491 30.0391 35.2303 29.0637C36.5087 27.4648 38.2361 27.5208 39.9828 27.7167C40.4857 27.7726 40.9905 27.9025 41.4704 28.0724C42.6124 28.4801 43.7545 28.658 44.9407 28.2943C45.5453 28.1084 46.0674 28.1983 46.4263 28.8299C46.7738 29.4395 46.4398 29.7893 46.0655 30.201C45.6048 30.7066 45.5376 31.3922 45.4724 32.0557C45.1672 35.1317 45.0444 38.2156 45.0943 41.3095C45.0981 41.6093 45.1173 41.9111 45.0827 42.2069C44.9925 43.0044 44.3841 43.55 43.6432 43.484C42.8581 43.4141 42.4224 42.9424 42.4128 42.121C42.3936 40.7259 42.4071 39.3288 42.4071 37.9318H42.2362V37.9298Z" fill="#A71E1C"/>
<path d="M5.03521 36.8998C4.90711 36.2077 5.13463 35.747 5.89749 35.6332C6.05809 35.6089 6.22443 35.5679 6.26267 35.3925C6.31811 35.1333 6.06383 35.1351 5.92043 35.0344C5.691 34.874 5.42524 34.7173 5.27994 34.4934C4.81151 33.7696 4.28191 33.4805 3.50375 34.0811C3.37757 34.1782 3.19784 34.1987 3.06974 34.0737C2.92061 33.9282 2.93591 33.7416 3.00283 33.5551C3.27623 32.7772 3.80201 32.2157 4.58782 31.9415C5.87837 31.4901 7.07333 31.7009 8.14019 32.5534C8.19563 32.6224 8.24916 32.6933 8.30461 32.7623C8.38682 32.85 8.39829 33.1018 8.57993 32.9638C8.7195 32.8574 8.57228 32.7119 8.45948 32.6168C8.40021 32.5496 8.34094 32.4825 8.28167 32.4153C7.7578 31.6095 6.96817 31.0778 6.20913 30.5219C4.61841 29.356 3.26667 28.0409 3.02768 25.9759C2.99327 25.6718 2.80972 25.3248 3.0946 25.0972C3.41771 24.8398 3.7523 25.1532 4.08307 25.211C4.37942 25.2633 4.60502 25.7576 4.89946 25.4834C5.19963 25.2036 4.84784 24.8529 4.74077 24.5451C4.04291 22.5229 4.07733 20.5139 4.91093 18.5459C5.11551 18.0627 5.08301 17.8407 4.65282 17.4863C2.91679 16.0536 3.05445 13.914 4.90329 12.6735C5.68909 12.1474 6.56093 12.2015 7.15172 12.819C7.71956 13.4122 7.88016 14.0464 7.33526 14.7385C6.72153 15.5183 5.68526 15.5089 5.22831 14.6285C4.8421 13.8823 4.5687 14.246 4.30103 14.6135C3.69495 15.4436 4.51325 17.089 5.54378 17.1654C5.81145 17.186 5.93764 16.9845 6.09633 16.8483C7.11157 15.966 8.28358 15.716 9.55693 16.1283C9.9852 16.2663 10.1917 16.1283 10.4689 15.8895C11.748 14.7777 12.486 13.3525 13.0003 11.793C13.5643 10.0824 14.0041 8.33076 14.7364 6.67613C16.1665 3.44707 18.5832 1.29436 22.124 0.52394C24.5465 -0.00397644 26.6515 1.21601 27.5903 3.39484C28.2308 4.88158 27.7795 6.1053 26.5903 7.41111C31.0738 6.29931 35.3164 6.22283 39.5494 7.34208C39.559 7.43909 39.5685 7.53609 39.5781 7.63496C26.2634 4.73981 13.5777 13.5036 12.0673 26.64C10.7672 37.9407 18.8566 48.5494 30.3205 50.5771C42.9584 52.8119 54.7703 44.5649 56.7338 32.128C57.1812 29.2945 56.252 23.7187 56.252 23.7187C56.252 23.7187 56.1966 23.4892 56.2845 23.4967C57.055 25.9908 57.5885 28.7833 57.4508 31.3688C57.3131 33.9543 56.7549 36.467 55.7683 38.879C54.7817 41.291 53.4453 43.5053 51.7093 45.4752C49.9847 47.4339 47.9982 49.1109 45.6255 50.4951C48.7305 51.1517 50.0363 52.8772 49.4819 55.5728C49.0899 57.4792 47.7286 58.6321 45.9525 59.3129C42.9622 60.4602 39.9796 60.3893 37.0696 59.0275C35.4062 58.2497 33.7849 57.3897 32.1215 56.6118C30.9361 56.0578 29.68 55.7295 28.3436 55.7668C27.9956 55.7761 27.7815 55.8321 27.6304 56.2033C27.0339 57.6658 25.8466 58.3131 24.2769 58.3877C23.992 58.4008 23.5962 58.2235 23.5102 58.6992C23.3878 59.382 23.2903 60.074 23.9117 60.6001C24.2539 60.8911 24.6459 61.1224 25.1277 60.9508C25.4718 60.8277 25.3361 60.6113 25.2558 60.352C25.034 59.6245 25.3973 58.9567 26.0378 58.8018C26.9287 58.5854 27.6361 58.9455 27.8484 59.7196C28.1046 60.6598 27.7968 61.3668 26.967 61.7436C25.0952 62.5942 22.7435 61.2194 22.7703 59.2215C22.7818 58.425 22.5638 58.0613 21.799 57.7255C20.0783 56.97 18.7246 55.7593 17.8643 54.0767C17.7419 53.8361 17.6692 53.4499 17.3557 53.4667C16.9962 53.4835 17.0938 53.8846 17.0154 54.1327C16.9045 54.4796 16.8586 54.9329 16.4533 55.0393C15.9944 55.1586 15.8357 54.696 15.6005 54.4199C14.6408 53.2895 14.2679 51.9837 14.3004 50.5286C14.3291 49.2564 14.4859 47.9861 14.3406 46.712C14.3043 46.393 14.396 46.0143 13.8875 45.7587C14.1876 47.1634 13.7727 48.2715 12.6829 49.124C11.8723 49.7564 10.9698 49.8944 9.99093 49.5922C9.77871 49.5269 9.55502 49.4299 9.53781 49.1706C9.52251 48.9468 9.70988 48.8292 9.89725 48.7938C10.7251 48.6371 10.8819 48.139 10.7098 47.4152C10.6467 47.1485 10.6525 46.8537 10.6907 46.5795C10.7825 45.921 10.6391 45.7681 10.0177 46.1673C9.51104 46.4937 9.04644 46.2885 8.68126 45.852C8.64876 45.4528 8.56272 45.048 8.59331 44.6525C8.65832 43.8373 8.2224 43.3337 7.53028 43.0725C6.41562 42.6491 5.36789 42.9569 4.52472 43.7012C3.68347 44.4436 3.23991 45.4435 3.57832 46.5515C3.92438 47.6913 4.86313 48.2883 6.02368 48.5158C6.65461 48.6408 7.14216 48.3162 7.46527 47.8126C7.72339 47.4115 8.01018 46.9675 7.44807 46.4154C7.22246 47.4264 6.59152 47.391 5.92999 47.0198C5.22066 46.6206 5.49981 45.9845 5.72542 45.4621C5.92617 44.9995 6.36018 44.7999 6.9089 44.9174C7.5972 45.0648 8.11342 45.4472 8.53022 45.9807C8.73862 47.0403 8.752 48.0924 7.68515 48.721C6.58579 49.3702 5.41568 49.2751 4.34883 48.5905C3.26667 47.8984 2.63191 46.9209 2.7906 45.6132C2.95311 44.2757 3.58023 43.1546 4.86313 42.192C3.66053 42.2536 2.71986 42.0764 1.83463 41.6417C-0.167157 40.6587 -0.627932 38.0097 0.936028 36.4335C2.2132 35.1444 3.92055 35.4037 4.87843 37.0323C4.99314 37.5023 4.91858 37.9612 4.75989 38.4052C4.52472 39.0674 4.07924 39.5226 3.32977 39.2764C2.78678 39.0992 2.12143 38.8529 2.31453 38.0489C2.49617 37.2916 2.95885 36.9539 3.97026 37.4333C3.56111 36.6368 3.06974 36.4185 2.48278 36.4167C1.77919 36.4148 1.284 36.773 1.00486 37.4053C0.339505 38.9052 0.80028 40.3583 2.14819 41.0056C3.66818 41.7369 5.52658 41.2071 6.28944 39.8248C6.71962 39.0451 6.57431 38.3418 5.89749 37.7598C5.58967 37.4949 5.32391 37.1852 5.03903 36.8979L5.03521 36.8998ZM26.7509 53.0115C26.7433 52.9873 26.7395 52.9612 26.7261 52.9425C26.7184 52.9313 26.6917 52.935 26.6744 52.9313L26.7662 52.9966C27.0071 53.629 27.5922 54.0786 27.747 54.7632C27.8101 55.0374 28.0874 55.0019 28.3034 54.9945C29.5825 54.9534 30.8367 55.0448 32.0221 55.584C32.1923 55.6623 32.4695 55.7425 32.5766 55.4459C32.6454 55.2556 31.7258 53.7484 31.525 53.7353C29.9113 53.6309 28.3474 53.213 26.749 53.0115H26.7509ZM12.899 43.371C12.9583 43.4568 12.9793 43.6583 13.1189 43.5631C13.2393 43.4792 13.138 43.3505 13.0022 43.2982C12.3311 41.8675 11.3771 40.5766 10.8398 39.0805C10.4479 37.9874 10.0579 36.8924 9.60855 35.6332C9.27014 37.9202 8.67744 39.9125 6.68903 41.4552C8.55316 41.4291 10.0349 41.7872 11.4019 42.5726C11.8914 42.8543 12.3981 43.1061 12.899 43.3691V43.371ZM10.8934 20.7415C10.5875 20.8124 10.2854 20.9205 9.97564 20.9448C8.72715 21.0418 8.19754 20.6239 8.19563 19.5849C8.19563 18.6167 8.59905 18.3556 9.94887 18.4806C10.1649 18.5011 10.3274 18.4731 10.4192 18.2754C10.5702 17.9526 10.4135 17.6598 10.272 17.3912C10.1496 17.158 9.94314 17.2867 9.78253 17.3837C8.7195 18.0273 7.56852 18.3089 6.32385 18.1709C5.83631 18.1168 5.73306 18.4582 5.60879 18.7678C5.06006 20.1352 4.97212 21.5511 5.27229 22.9725C5.87072 25.8061 7.8381 28.0185 8.91069 30.6432C9.056 28.6042 9.16689 26.5915 9.70988 24.6365C10.0731 23.3288 10.4995 22.0081 10.8934 20.7098C11.0196 20.7209 10.9182 20.6967 10.8915 20.7452L10.8934 20.7415ZM23.1718 5.22855C22.8181 6.52316 23.6421 7.53982 24.6688 7.43909C26.3227 7.27679 27.5425 5.47479 27.0243 3.95633C26.5463 2.55353 25.1105 1.60029 23.7415 1.77751C22.4797 1.9398 22.1871 2.37445 22.0074 4.33128C21.9902 4.51409 21.973 4.71183 21.8889 4.87039C21.7206 5.18751 21.3918 5.52516 21.0668 5.3554C19.7093 4.64654 20.0075 5.5606 20.063 6.26946C20.0706 6.36087 20.0764 6.4616 20.0515 6.54741C19.8259 7.30291 20.0974 7.74875 20.9042 7.87373C21.1012 7.90358 21.3115 7.98379 21.3382 8.1778C21.3727 8.42776 21.149 8.53596 20.9444 8.64042C20.1299 9.05641 18.826 8.84935 17.9847 8.20764C16.9121 7.39059 16.5833 6.30491 16.7018 5.00284C16.3672 5.70051 16.2774 6.38512 16.3443 7.12756C16.5259 9.17953 17.1454 11.2632 16.0193 13.3189C18.5507 11.1643 21.2637 9.35675 24.4012 8.17407C24.1679 7.8756 23.9213 7.93343 23.7129 7.88492C22.7225 7.65548 22.1508 6.9746 22.0361 5.87399C21.952 5.07559 22.5064 4.29584 23.3897 3.93768C24.0436 3.67279 24.6478 3.76792 24.9365 4.39284C25.1449 4.84427 25.5101 5.46546 24.8103 5.88518C24.1431 6.28439 23.5389 6.3161 23.1718 5.22482V5.22855ZM34.0564 53.8361C35.519 54.3994 36.5591 55.4217 37.4711 56.5969C38.0868 57.3897 38.7502 58.1452 39.5226 58.7981C39.7501 58.9902 39.9719 59.2962 40.3945 59.0611C40.1383 58.8522 39.9069 58.6899 39.7062 58.4959C38.3124 57.1397 38.7406 54.502 40.4748 53.7111C40.7118 53.6029 40.968 53.4667 41.1841 53.6476C41.4365 53.8584 41.2453 54.1084 41.1134 54.3117C40.7539 54.8714 40.8858 55.2892 41.4384 55.6492C41.6965 55.8171 41.9623 56.0317 42.119 56.2872C42.4861 56.8898 42.6945 56.9793 42.9565 56.2145C43.184 55.5485 43.7939 55.3844 44.3923 55.7798C44.6485 55.9496 44.8779 56.1865 45.0577 56.4365C45.5223 57.0763 46.1589 57.1658 46.8281 56.9233C47.9829 56.5055 48.5871 55.597 48.7209 54.4479C48.8548 53.282 48.4016 52.2766 47.3692 51.6554C46.3807 51.0584 45.3215 51.2562 44.3751 51.8009C43.3255 52.4053 43.4058 53.7596 44.4726 54.2875C44.3961 53.4219 44.572 53.1645 45.2852 52.9183C45.9792 52.6776 46.1934 53.1869 46.4553 53.5898C46.7918 54.1047 46.7115 54.6027 46.2412 55.0075C45.4286 55.7052 44.0157 55.5243 43.3541 54.6811C42.597 53.7148 42.7461 52.7522 43.5186 51.6031C40.3371 52.9406 37.278 53.6794 34.0564 53.8398V53.8361ZM15.9237 46.8519C17.0173 49.0531 17.5431 51.439 18.6558 53.5954C19.4971 55.2277 20.7723 56.4514 22.4625 57.2461C22.6881 57.3524 22.9768 57.6322 23.2196 57.2834C23.7415 56.5297 24.47 56.0018 25.4891 55.4552C24.4031 55.4179 23.753 55.0635 23.5389 54.308C23.2655 53.3492 24.1067 52.8716 24.7377 52.2859C21.4013 51.0267 18.5296 49.1837 15.9237 46.8537V46.8519ZM11.5014 19.6632C12.247 18.3518 12.899 17.227 13.7096 16.1973C14.3176 15.425 15.2698 14.7105 14.1609 13.6416C14.1073 13.5894 14.1284 13.4626 14.1111 13.3712C14.0767 13.1846 14.0213 12.9701 13.8186 12.9421C13.5414 12.9029 13.4668 13.1622 13.3884 13.3581C12.8932 14.5949 12.096 15.6171 11.075 16.4846C10.8972 16.6357 10.6333 16.7438 10.859 17.074C11.3503 17.7941 11.3771 18.6447 11.5014 19.6632V19.6632ZM23.8238 57.5837C25.2959 57.7908 26.619 57.0502 27.0033 55.8712C25.7797 56.0876 24.6707 56.4495 23.8238 57.5837ZM9.21087 16.7028C8.23196 16.6189 7.29128 16.6953 6.42709 17.5012C7.59146 17.7232 8.42124 17.2979 9.21087 16.7028ZM27.0932 55.0504C27.0224 54.599 26.7624 54.2427 26.4488 54.2446C25.7529 54.2464 26.0072 55.1736 25.4757 55.4608C25.9862 55.3321 26.4986 55.2015 27.0932 55.0504ZM15.7669 46.5385L15.7267 46.6019L15.786 46.6094L15.765 46.5366L15.7669 46.5385Z" fill="#BCA070"/>
<path d="M29.8234 3.21018C30.9572 1.92117 32.5746 1.92117 34.1004 1.73276C35.1672 1.60032 36.2475 1.58726 37.5476 1.50704C36.9721 1.21044 36.5649 1.01271 36.1691 0.792586C35.9894 0.691853 35.6892 0.619101 35.7829 0.352344C35.8249 0.231092 36.0792 0.141551 36.2513 0.111704C37.3009 -0.0711079 38.3372 -0.0505882 39.3505 0.331825C40.7157 0.846683 41.859 1.67866 42.8513 2.70278C43.2547 3.12064 43.7155 3.40232 44.2355 3.65415C54.0074 8.38488 60.0357 15.8783 61.6666 26.4907C62.4409 31.5237 61.8807 36.467 59.835 41.194C59.5558 41.8376 59.4296 42.4793 59.4621 43.177C59.5214 44.4585 59.3761 45.7214 58.8828 46.9265C58.4679 47.9413 57.8332 48.777 56.7835 49.234C56.5732 49.3254 56.3132 49.5493 56.0895 49.3497C55.9174 49.1967 56.0455 48.9374 56.0857 48.7266C56.1316 48.4879 56.1813 48.251 56.2845 47.7454C55.1699 48.6502 54.2617 49.4243 53.3134 50.1481C52.3612 50.8756 51.3517 51.508 49.9943 51.3047C53.0859 50.3831 54.0131 47.5533 55.6115 45.3334C56.4719 44.1358 57.2711 42.899 58.3972 41.916C58.8236 41.5429 59.0186 41.0579 59.2098 40.5673C63.8844 28.5893 59.7929 15.093 49.174 7.5044C48.2773 6.86269 47.3367 6.27322 46.3807 5.71732C44.7594 4.77155 43.0922 4.00485 41.0999 4.09066C40.1994 4.12984 39.2549 3.91531 38.3793 3.65788C35.5515 2.82963 32.7314 2.15621 29.8043 3.19712L29.8215 3.21018H29.8234ZM56.3591 47.7119L56.2979 47.6428C56.2769 47.6634 56.2405 47.6839 56.2405 47.7044C56.2405 47.7249 56.2749 47.7473 56.2941 47.7697L56.3591 47.71V47.7119Z" fill="#BCA070"/>
<path d="M39.5781 7.63674C39.5685 7.53974 39.559 7.44087 39.5494 7.34387C40.9317 7.61436 42.2242 8.11429 43.4153 8.87725L39.5781 7.63488V7.63674Z" fill="#BCA070"/>
<path d="M29.8054 3.19714L29.7713 3.33507C29.6196 3.2251 29.7865 3.24561 29.8225 3.21019L29.8054 3.19714V3.19714Z" fill="#BCA070"/>
<path d="M15.7685 46.5404L15.7894 46.6109L15.7286 46.6035L15.7685 46.5404Z" fill="#FEFDFC"/>
<path d="M26.7662 52.9963L26.6744 52.9314C26.6916 52.9351 26.7184 52.9314 26.7261 52.9425C26.7394 52.9611 26.7433 52.987 26.7509 53.0112L26.7662 52.9963V52.9963Z" fill="#FDFBFA"/>
<path d="M56.3565 47.7117L56.2919 47.7712C56.2729 47.7489 56.2387 47.7266 56.2387 47.7061C56.2387 47.6856 56.2748 47.6651 56.2957 47.6447L56.3565 47.7135V47.7117Z" fill="white"/>
<path d="M57.1238 29.9698C57.1238 43.1341 46.9466 52.1516 33.1692 52.1516C19.3919 52.1516 10.4211 43.2703 10.4211 30.1041C10.4211 16.9379 19.128 6.63696 32.9073 6.63696C46.6866 6.63696 57.1238 16.8036 57.1238 29.9698Z" stroke="#BCA070" stroke-miterlimit="10"/>
</svg>
