<svg width="40" height="40" viewBox="0 0 40 40" fill="none" xmlns="http://www.w3.org/2000/svg">
<path d="M28.8387 14.2402C27.0288 9.44086 21.1194 8.02117 17.4899 10.2571C15.248 11.6381 14.1271 13.8083 13.7551 16.4362C13.41 18.8784 13.5458 21.2858 14.6643 23.5179C17.1546 28.4835 22.3603 28.891 25.8308 27.2263C25.9593 27.1644 26.0841 27.0922 26.2542 27.002C26.3925 27.4932 26.4439 28.0039 26.7351 28.4204C26.9639 28.7479 26.6201 28.7066 26.5001 28.753C25.2471 29.2327 23.9462 29.4635 22.6209 29.5525C20.0719 29.724 17.6159 29.3668 15.3863 27.96C11.7898 25.6893 10.2149 22.3135 10.4669 17.9216C10.7839 12.3976 15.3667 8.4093 19.7856 7.92833C22.3725 7.64594 24.8995 7.86644 27.3555 8.84127C28.3786 9.24745 28.9672 9.85349 28.9121 11.112C28.8693 12.11 29.0186 13.1184 28.8362 14.2402H28.8387Z" fill="#A71E1C"/>
<path d="M26.9272 24.4709C26.9272 23.4432 26.9395 22.4155 26.9187 21.3879C26.9138 21.1158 26.8367 20.836 26.7461 20.5781C26.4169 19.6381 25.821 19.2964 24.8861 19.4833C24.12 19.6355 23.447 19.9553 23.0236 20.6877C22.8106 21.0552 22.6516 20.9688 22.4411 20.6838C21.9699 20.0442 21.9626 19.3802 22.4607 18.7509C23.2757 17.7194 24.377 17.7555 25.4906 17.8818C25.8112 17.9179 26.133 18.0017 26.439 18.1113C27.1671 18.3744 27.8952 18.4892 28.6515 18.2545C29.0369 18.1346 29.3698 18.1926 29.5986 18.6001C29.8201 18.9933 29.6072 19.219 29.3686 19.4846C29.0749 19.8108 29.032 20.2531 28.9904 20.6812C28.7959 22.6657 28.7175 24.6553 28.7494 26.6514C28.7518 26.8448 28.764 27.0395 28.742 27.2304C28.6845 27.7449 28.2966 28.0969 27.8242 28.0543C27.3237 28.0092 27.0459 27.7049 27.0398 27.1749C27.0276 26.2749 27.0361 25.3736 27.0361 24.4722H26.9272V24.4709Z" fill="#A71E1C"/>
<path d="M3.21017 23.8061C3.1285 23.3596 3.27355 23.0624 3.75991 22.9889C3.8623 22.9733 3.96835 22.9468 3.99273 22.8337C4.02808 22.6664 3.86596 22.6676 3.77454 22.6026C3.62827 22.4991 3.45883 22.398 3.36619 22.2536C3.06755 21.7866 2.72991 21.6001 2.2338 21.9876C2.15335 22.0502 2.03877 22.0634 1.9571 21.9828C1.86202 21.8889 1.87177 21.7686 1.91443 21.6482C2.08874 21.1464 2.42395 20.7841 2.92494 20.6072C3.74772 20.316 4.50956 20.452 5.18973 21.002C5.22508 21.0465 5.25921 21.0922 5.29456 21.1368C5.34697 21.1933 5.35429 21.3558 5.47009 21.2667C5.55907 21.1981 5.46521 21.1043 5.39329 21.0429C5.3555 20.9996 5.31772 20.9562 5.27993 20.9129C4.94594 20.393 4.44252 20.05 3.9586 19.6913C2.94444 18.9392 2.08265 18.0907 1.93028 16.7584C1.90834 16.5622 1.79132 16.3384 1.97294 16.1916C2.17894 16.0255 2.39226 16.2277 2.60314 16.265C2.79207 16.2987 2.93591 16.6176 3.12362 16.4407C3.315 16.2602 3.09071 16.0339 3.02245 15.8353C2.57754 14.5307 2.59948 13.2345 3.13094 11.9648C3.26136 11.6531 3.24064 11.5099 2.96638 11.2813C1.85958 10.357 1.94735 8.97654 3.12606 8.17621C3.62705 7.83683 4.18288 7.87173 4.55954 8.27009C4.92156 8.6528 5.02395 9.06199 4.67655 9.50849C4.28527 10.0116 3.62461 10.0055 3.33328 9.43749C3.08706 8.95608 2.91275 9.19077 2.7421 9.42786C2.35569 9.96342 2.8774 11.0249 3.53441 11.0743C3.70506 11.0875 3.78551 10.9575 3.88668 10.8697C4.53394 10.3004 5.28115 10.1391 6.09297 10.4051C6.36601 10.4942 6.49765 10.4051 6.6744 10.2511C7.48987 9.53377 7.96038 8.61429 8.28828 7.60816C8.64787 6.50455 8.92822 5.37446 9.39508 4.30695C10.3068 2.22368 11.8476 0.834837 14.1051 0.33779C15.6495 -0.00280204 16.9915 0.78429 17.59 2.18998C17.9984 3.14918 17.7107 3.93867 16.9525 4.78113C19.8109 4.06384 22.5158 4.0145 25.2145 4.7366C25.2206 4.79918 25.2267 4.86176 25.2328 4.92555C16.7441 3.05771 8.6564 8.71177 7.69343 17.1868C6.86455 24.4777 12.0219 31.322 19.3307 32.6302C27.3879 34.072 34.9185 28.7513 36.1703 20.7276C36.4556 18.8994 35.8632 15.3022 35.8632 15.3022C35.8632 15.3022 35.8278 15.1541 35.8839 15.1589C36.3751 16.768 36.7152 18.5697 36.6274 20.2377C36.5397 21.9058 36.1837 23.5269 35.5548 25.083C34.9258 26.6392 34.0738 28.0677 32.967 29.3386C31.8675 30.6023 30.601 31.6843 29.0883 32.5773C31.0679 33.0009 31.9004 34.1141 31.5469 35.8532C31.297 37.0832 30.4291 37.827 29.2967 38.2662C27.3903 39.0064 25.4888 38.9607 23.6335 38.0821C22.5731 37.5802 21.5394 37.0254 20.4789 36.5236C19.7232 36.1661 18.9223 35.9543 18.0703 35.9784C17.8484 35.9844 17.7119 36.0205 17.6156 36.26C17.2353 37.2035 16.4783 37.6212 15.4776 37.6693C15.296 37.6777 15.0436 37.5634 14.9888 37.8703C14.9108 38.3108 14.8486 38.7573 15.2448 39.0966C15.463 39.2844 15.7129 39.4336 16.02 39.3229C16.2394 39.2435 16.1529 39.1039 16.1017 38.9366C15.9603 38.4672 16.1919 38.0364 16.6002 37.9365C17.1683 37.7969 17.6193 38.0291 17.7546 38.5286C17.9179 39.1352 17.7217 39.5913 17.1926 39.8344C15.9993 40.3832 14.5 39.4962 14.5171 38.2073C14.5244 37.6934 14.3854 37.4587 13.8978 37.2421C12.8008 36.7546 11.9378 35.9736 11.3893 34.888C11.3113 34.7327 11.2649 34.4836 11.065 34.4944C10.8359 34.5053 10.898 34.764 10.8481 34.9241C10.7774 35.148 10.7481 35.4404 10.4897 35.509C10.1971 35.586 10.096 35.2876 9.94604 35.1094C9.33413 34.3801 9.09644 33.5377 9.11716 32.5989C9.13544 31.7781 9.2354 30.9586 9.14276 30.1366C9.1196 29.9308 9.17811 29.6864 8.85387 29.5216C9.04524 30.4278 8.78073 31.1427 8.08593 31.6927C7.5691 32.1007 6.99376 32.1897 6.36966 31.9948C6.23436 31.9526 6.09175 31.8901 6.08078 31.7228C6.07102 31.5784 6.19048 31.5025 6.30994 31.4797C6.83774 31.3786 6.93769 31.0572 6.82799 30.5903C6.78776 30.4182 6.79142 30.228 6.8158 30.0511C6.87431 29.6263 6.78289 29.5276 6.38673 29.7851C6.06371 29.9957 5.76751 29.8634 5.53469 29.5817C5.51397 29.3242 5.45912 29.063 5.47862 28.8079C5.52006 28.282 5.24214 27.957 4.80089 27.7885C4.09025 27.5153 3.42227 27.7139 2.88471 28.1941C2.34838 28.6731 2.06558 29.3182 2.28134 30.0331C2.50197 30.7684 3.10046 31.1535 3.84036 31.3003C4.24261 31.381 4.55344 31.1716 4.75944 30.8466C4.924 30.5879 5.10684 30.3014 4.74847 29.9452C4.60464 30.5975 4.20239 30.5746 3.78063 30.3351C3.32841 30.0776 3.50637 29.6672 3.65021 29.3302C3.7782 29.0317 4.0549 28.903 4.40473 28.9788C4.84355 29.0739 5.17266 29.3206 5.43839 29.6648C5.57126 30.3484 5.57979 31.0272 4.89962 31.4327C4.19873 31.8516 3.45274 31.7902 2.77257 31.3485C2.08265 30.902 1.67796 30.2714 1.77913 29.4277C1.88274 28.5648 2.28255 27.8415 3.10046 27.2205C2.33375 27.2602 1.73403 27.1458 1.16966 26.8654C-0.10657 26.2312 -0.400335 24.5222 0.596759 23.5052C1.41101 22.6736 2.49953 22.8409 3.11022 23.8916C3.18335 24.1949 3.13581 24.4909 3.03464 24.7774C2.88471 25.2046 2.6007 25.4983 2.12287 25.3394C1.77669 25.2251 1.3525 25.0662 1.47562 24.5475C1.59142 24.0589 1.8864 23.841 2.53122 24.1503C2.27036 23.6364 1.9571 23.4956 1.58288 23.4944C1.13431 23.4932 0.818607 23.7243 0.640641 24.1323C0.21645 25.0999 0.510214 26.0374 1.36957 26.455C2.33863 26.9268 3.52344 26.585 4.0098 25.6932C4.28406 25.1902 4.19142 24.7364 3.75991 24.3609C3.56366 24.19 3.39423 23.9903 3.21261 23.8049L3.21017 23.8061ZM17.0549 34.2008C17.05 34.1851 17.0476 34.1683 17.0391 34.1563C17.0342 34.149 17.0171 34.1515 17.0061 34.149L17.0647 34.1912C17.2182 34.5992 17.5912 34.8892 17.69 35.3309C17.7302 35.5078 17.9069 35.4849 18.0447 35.4801C18.8602 35.4536 19.6598 35.5126 20.4155 35.8604C20.524 35.911 20.7008 35.9627 20.769 35.7714C20.8129 35.6486 20.2266 34.6762 20.0986 34.6678C19.0698 34.6004 18.0727 34.3308 17.0537 34.2008H17.0549ZM8.22367 27.9811C8.26146 28.0364 8.27487 28.1664 8.36385 28.105C8.44064 28.0509 8.37604 27.9678 8.2895 27.9341C7.86165 27.0111 7.2534 26.1782 6.91087 25.213C6.66099 24.5078 6.41233 23.8013 6.12588 22.9889C5.91012 24.4644 5.53225 25.7498 4.26455 26.7451C5.45302 26.7282 6.3977 26.9593 7.26924 27.466C7.58129 27.6477 7.90431 27.8102 8.22367 27.9799V27.9811ZM6.94501 13.3814C6.74997 13.4271 6.55738 13.4969 6.35991 13.5126C5.56395 13.5751 5.2263 13.3055 5.22508 12.6352C5.22508 12.0106 5.48228 11.8421 6.34285 11.9227C6.48059 11.936 6.5842 11.9179 6.64271 11.7903C6.739 11.5821 6.63905 11.3932 6.54885 11.2199C6.47084 11.0694 6.33919 11.1525 6.2368 11.2151C5.55907 11.6303 4.82527 11.812 4.03174 11.7229C3.72091 11.688 3.65508 11.9083 3.57585 12.1081C3.22602 12.9902 3.16995 13.9037 3.36132 14.8208C3.74285 16.6489 4.99714 18.0762 5.68096 19.7696C5.7736 18.4541 5.8443 17.1556 6.19048 15.8943C6.42208 15.0506 6.6939 14.1985 6.94501 13.3609C7.02546 13.3681 6.96085 13.3525 6.94379 13.3838L6.94501 13.3814ZM14.773 3.37303C14.5475 4.20826 15.0729 4.86417 15.7275 4.79918C16.7819 4.69448 17.5595 3.53189 17.2292 2.55224C16.9245 1.6472 16.0091 1.03221 15.1363 1.14654C14.3318 1.25125 14.1453 1.53167 14.0307 2.79414C14.0197 2.91209 14.0088 3.03966 13.9551 3.14195C13.8479 3.34655 13.6382 3.56438 13.431 3.45487C12.5655 2.99753 12.7557 3.58725 12.791 4.04458C12.7959 4.10355 12.7996 4.16854 12.7837 4.2239C12.6399 4.71132 12.813 4.99896 13.3274 5.0796C13.4529 5.09885 13.587 5.1506 13.6041 5.27577C13.626 5.43704 13.4834 5.50684 13.353 5.57424C12.8337 5.84262 12.0024 5.70903 11.4661 5.29502C10.7822 4.76789 10.5726 4.06745 10.6481 3.2274C10.4348 3.67751 10.3775 4.1192 10.4202 4.59819C10.536 5.92205 10.9309 7.26636 10.213 8.59263C11.8269 7.20258 13.5565 6.03638 15.5568 5.27336C15.4081 5.0808 15.2509 5.11811 15.118 5.08682C14.4866 4.93879 14.1221 4.49951 14.049 3.78944C13.9954 3.27434 14.3489 2.77128 14.912 2.5402C15.3289 2.36931 15.7141 2.43068 15.8981 2.83386C16.031 3.12511 16.2638 3.52587 15.8177 3.79666C15.3923 4.05421 15.0071 4.07467 14.773 3.37062V3.37303ZM21.7125 34.7327C22.645 35.0962 23.3081 35.7557 23.8895 36.5139C24.282 37.0254 24.705 37.5128 25.1974 37.9341C25.3425 38.058 25.4839 38.2554 25.7533 38.1038C25.5899 37.969 25.4424 37.8643 25.3145 37.7391C24.4258 36.8641 24.6989 35.1624 25.8045 34.6521C25.9556 34.5823 26.1189 34.4944 26.2567 34.6112C26.4176 34.7472 26.2957 34.9085 26.2116 35.0396C25.9824 35.4007 26.0665 35.6703 26.4188 35.9025C26.5834 36.0109 26.7528 36.1493 26.8528 36.3141C27.0868 36.7029 27.2197 36.7606 27.3867 36.2672C27.5317 35.8376 27.9205 35.7317 28.3021 35.9868C28.4654 36.0963 28.6117 36.2492 28.7263 36.4104C29.0225 36.8232 29.4284 36.881 29.855 36.7245C30.5912 36.455 30.9764 35.8689 31.0618 35.1275C31.1471 34.3753 30.8582 33.7266 30.2 33.3258C29.5698 32.9407 28.8945 33.0683 28.2911 33.4197C27.6219 33.8097 27.6731 34.6834 28.3533 35.024C28.3045 34.4656 28.4167 34.2995 28.8713 34.1406C29.3138 33.9854 29.4503 34.3139 29.6173 34.5739C29.8318 34.906 29.7807 35.2274 29.4808 35.4885C28.9627 35.9387 28.0619 35.8219 27.6402 35.2779C27.1575 34.6545 27.2526 34.0335 27.745 33.2921C25.7167 34.1551 23.7664 34.6316 21.7125 34.7351V34.7327ZM10.152 30.2268C10.8493 31.647 11.1845 33.1862 11.8939 34.5775C12.4302 35.6306 13.2433 36.4201 14.3208 36.9328C14.4647 37.0014 14.6487 37.1819 14.8035 36.9568C15.1363 36.4706 15.6007 36.13 16.2504 35.7774C15.558 35.7533 15.1436 35.5247 15.0071 35.0372C14.8328 34.4186 15.3691 34.1105 15.7714 33.7326C13.6443 32.9203 11.8135 31.7312 10.152 30.228V30.2268ZM7.33263 12.6857C7.80801 11.8397 8.22368 11.114 8.74051 10.4496C9.12813 9.95138 9.73516 9.49044 9.02818 8.80083C8.99405 8.76713 9.00745 8.6853 8.99648 8.62632C8.97454 8.50597 8.93919 8.36757 8.80998 8.34952C8.63324 8.32424 8.5857 8.49153 8.53572 8.6179C8.22002 9.41582 7.71172 10.0753 7.06081 10.635C6.94744 10.7325 6.77923 10.8023 6.92307 11.0153C7.23633 11.4798 7.2534 12.0286 7.33263 12.6857ZM15.1887 37.1506C16.1273 37.2842 16.9708 36.8064 17.2158 36.0458C16.4357 36.1854 15.7287 36.4189 15.1887 37.1506ZM5.87234 10.7758C5.24824 10.7216 4.64852 10.771 4.09756 11.2909C4.83989 11.4341 5.36892 11.1597 5.87234 10.7758ZM17.2731 35.5162C17.228 35.225 17.0622 34.9951 16.8623 34.9963C16.4186 34.9975 16.5807 35.5957 16.2419 35.781C16.5673 35.698 16.894 35.6137 17.2731 35.5162ZM10.0521 30.0246L10.0265 30.0656L10.0643 30.0704L10.0509 30.0234L10.0521 30.0246Z" fill="#BCA070"/>
<path d="M19.0137 2.07109C19.7365 1.23947 20.7677 1.23947 21.7404 1.11791C22.4206 1.03246 23.1093 1.02404 23.9382 0.972288C23.5713 0.780931 23.3116 0.65336 23.0593 0.511346C22.9447 0.446357 22.7534 0.39942 22.8131 0.227319C22.8399 0.149092 23.002 0.0913233 23.1117 0.0720673C23.7809 -0.0458761 24.4416 -0.0326376 25.0876 0.214081C25.958 0.546248 26.6869 1.08301 27.3195 1.74373C27.5767 2.01332 27.8705 2.19505 28.202 2.35752C34.432 5.40961 38.2754 10.2441 39.3151 17.0908C39.8088 20.3379 39.4516 23.5272 38.1474 26.5768C37.9694 26.9921 37.889 27.4061 37.9097 27.8562C37.9475 28.683 37.8548 29.4977 37.5403 30.2752C37.2758 30.9299 36.8711 31.4691 36.2019 31.7639C36.0679 31.8229 35.9021 31.9673 35.7595 31.8386C35.6498 31.7399 35.7314 31.5726 35.757 31.4366C35.7863 31.2825 35.818 31.1297 35.8838 30.8035C35.1732 31.3872 34.5942 31.8867 33.9896 32.3537C33.3825 32.823 32.7389 33.231 31.8735 33.0998C33.8445 32.5053 34.4357 30.6796 35.4547 29.2474C36.0033 28.4748 36.5128 27.6768 37.2307 27.0426C37.5026 26.8019 37.6269 26.489 37.7488 26.1725C40.7291 18.4448 38.1206 9.73741 31.3506 4.84155C30.7789 4.42755 30.1792 4.04724 29.5697 3.6886C28.536 3.07842 27.4731 2.58378 26.203 2.63914C25.6288 2.66442 25.0267 2.52601 24.4684 2.35993C22.6656 1.82557 20.8677 1.39111 19.0015 2.06266L19.0124 2.07109H19.0137ZM35.9313 30.7819L35.8923 30.7374C35.8789 30.7506 35.8558 30.7638 35.8558 30.7771C35.8558 30.7903 35.8777 30.8048 35.8899 30.8192L35.9313 30.7807V30.7819Z" fill="#BCA070"/>
<path d="M35.9191 19.3352C35.9191 27.5162 29.692 33.146 21.147 33.146C16.8659 33.146 13.3733 31.7517 10.9528 29.3634C8.53281 26.9755 7.14404 23.5539 7.14404 19.4218C7.14404 15.2827 8.49582 11.6229 10.887 9.0035C13.2737 6.38884 16.7215 4.78174 20.98 4.78174C29.4992 4.78174 35.9191 11.1273 35.9191 19.3352Z" stroke="#BCA070" stroke-miterlimit="10"/>
</svg>
