<svg width="39" height="43" viewBox="0 0 39 43" fill="none" xmlns="http://www.w3.org/2000/svg">
<rect width="39" height="43" rx="4" fill="#F2CC85"/>
<path d="M5 8.58333C5 7.15685 5.9596 6 7.14286 6H32.8571C34.0424 6 35 7.15685 35 8.58333C35 10.0122 34.0424 11.1667 32.8571 11.1667H7.14286C5.9596 11.1667 5 10.0122 5 8.58333ZM5 21.5C5 20.0711 5.9596 18.9167 7.14286 18.9167H32.8571C34.0424 18.9167 35 20.0711 35 21.5C35 22.9289 34.0424 24.0833 32.8571 24.0833H7.14286C5.9596 24.0833 5 22.9289 5 21.5ZM32.8571 37H7.14286C5.9596 37 5 35.8456 5 34.4167C5 32.9878 5.9596 31.8333 7.14286 31.8333H32.8571C34.0424 31.8333 35 32.9878 35 34.4167C35 35.8456 34.0424 37 32.8571 37Z" fill="#123B40"/>
</svg>
