<svg width="350" height="200" viewBox="0 0 350 200" fill="none" xmlns="http://www.w3.org/2000/svg">
<rect width="350" height="200" rx="25" fill="#F2F1DC"/>
<path d="M161.629 17H41.3733C29.5878 17 20 26.5879 20 38.3736V158.624C20 170.412 29.5878 180 41.3733 180H161.629C173.41 180 183 170.412 183 158.624V38.3736C183 26.5854 173.41 17 161.629 17V17ZM134.701 59.8629C136.649 59.8629 138.577 60.2466 140.376 60.992C142.175 61.7375 143.81 62.83 145.187 64.2074C146.564 65.5847 147.656 67.2198 148.4 69.0192C149.145 70.8186 149.528 72.7472 149.528 74.6947C149.528 77.6283 148.658 80.4961 147.028 82.9353C145.398 85.3745 143.081 87.2755 140.371 88.3979C137.66 89.5203 134.678 89.8138 131.801 89.2411C128.924 88.6683 126.281 87.2553 124.207 85.1805C122.133 83.1057 120.721 80.4625 120.149 77.5851C119.577 74.7076 119.872 71.7253 120.995 69.0153C122.118 66.3052 124.02 63.9892 126.46 62.36C128.9 60.7309 131.768 59.8619 134.701 59.8629V59.8629ZM142.868 93.3307C142.752 108.191 140.181 110.147 134.789 110.147C129.401 110.147 126.828 108.191 126.715 93.3307H142.868V93.3307ZM98.2599 55.3235C99.1033 55.364 99.8988 55.7275 100.481 56.3386C101.064 56.9498 101.389 57.7617 101.39 58.606C101.39 59.4504 101.065 60.2626 100.483 60.8741C99.9011 61.4857 99.1059 61.8499 98.2625 61.8911C97.8236 61.9033 97.3866 61.8275 96.9775 61.668C96.5683 61.5085 96.1953 61.2686 95.8805 60.9624C95.5657 60.6563 95.3154 60.2901 95.1445 59.8856C94.9736 59.4811 94.8856 59.0464 94.8856 58.6073C94.8856 58.1681 94.9736 57.7334 95.1445 57.3289C95.3154 56.9244 95.5657 56.5582 95.8805 56.2521C96.1953 55.9459 96.5683 55.706 96.9775 55.5465C97.3866 55.387 97.8236 55.3112 98.2625 55.3235H98.2599ZM74.7892 34.4279C75.9974 34.477 77.1398 34.9915 77.9773 35.8637C78.8148 36.7359 79.2825 37.8983 79.2825 39.1075C79.2825 40.3167 78.8148 41.4791 77.9773 42.3513C77.1398 43.2236 75.9974 43.738 74.7892 43.7871C74.1746 43.7871 73.5661 43.6661 72.9984 43.4309C72.4306 43.1957 71.9148 42.851 71.4803 42.4165C71.0457 41.9819 70.701 41.4661 70.4659 40.8983C70.2307 40.3306 70.1097 39.722 70.1097 39.1075C70.1097 38.493 70.2307 37.8845 70.4659 37.3167C70.701 36.749 71.0457 36.2331 71.4803 35.7985C71.9148 35.364 72.4306 35.0193 72.9984 34.7841C73.5661 34.549 74.1746 34.4279 74.7892 34.4279V34.4279ZM49.3854 34.3945C52.0073 34.3945 54.1382 36.5049 54.1382 39.1062C54.1382 41.7101 52.0073 43.8179 49.3854 43.8179C46.7635 43.8179 44.6352 41.7076 44.6352 39.1062C44.6376 38.4849 44.7623 37.8701 45.0023 37.297C45.2424 36.7239 45.593 36.2037 46.0341 35.7662C46.4752 35.3286 46.9983 34.9823 47.5733 34.7469C48.1483 34.5116 48.7641 34.3918 49.3854 34.3945V34.3945ZM63.8288 64.5926C63.5897 65.4358 62.6566 66.1195 61.7416 66.0424C60.8265 66.1195 60.0528 65.4358 59.806 64.5926L56.1714 51.8893H54.3952L59.6646 73.8824H55.043V89.5033C55.043 90.122 54.7972 90.7153 54.3597 91.1528C53.9223 91.5902 53.3289 91.836 52.7103 91.836C52.0916 91.836 51.4983 91.5902 51.0608 91.1528C50.6234 90.7153 50.3776 90.122 50.3776 89.5033V73.8824H48.4112V89.5033C48.4092 90.1232 48.1611 90.717 47.7215 91.1541C47.282 91.5913 46.6869 91.8361 46.0669 91.8347C45.761 91.8347 45.4581 91.7744 45.1755 91.6571C44.893 91.5399 44.6363 91.3681 44.4202 91.1515C44.2041 90.935 44.0329 90.6779 43.9163 90.3951C43.7997 90.1123 43.74 89.8092 43.7407 89.5033V73.8824H39.0419L44.3602 51.8893H42.584L38.9519 64.5926C38.6692 65.5643 37.5048 66.3046 36.4406 66.0013C35.379 65.6954 34.7827 64.5567 35.14 63.3434L38.88 50.311C40.376 45.1032 44.7329 45.2677 44.7329 45.2677H54.0276C54.0276 45.2677 58.3871 45.1032 59.8831 50.311L61.8238 57.074L63.7645 50.311C65.2579 45.1032 69.62 45.2677 69.62 45.2677H81.6317C81.6317 45.2677 85.9912 45.1032 87.4872 50.311L91.1912 63.2251L94.0727 63.5053L103.018 63.495C105.334 63.495 107.382 65.3818 107.382 67.7055V76.0056C107.382 76.7999 106.76 77.4451 105.964 77.4451C105.775 77.4448 105.588 77.4073 105.414 77.3347C105.24 77.2621 105.082 77.156 104.949 77.0223C104.816 76.8886 104.711 76.73 104.639 76.5555C104.568 76.3811 104.531 76.1942 104.532 76.0056V68.7054H103.041V90.2359C103.01 90.7271 102.793 91.1881 102.434 91.5249C102.075 91.8618 101.601 92.0493 101.109 92.0493C100.617 92.0493 100.143 91.8618 99.7845 91.5249C99.4257 91.1881 99.2087 90.7271 99.1776 90.2359V78.7175H97.6687V90.2359C97.6681 90.7458 97.4654 91.2348 97.105 91.5956C96.7447 91.9564 96.256 92.1598 95.746 92.1612C95.2338 92.1619 94.7421 91.9597 94.3785 91.599C94.0148 91.2382 93.8088 90.7481 93.8054 90.2359H93.8028V67.1914L89.0886 65.8728C88.2712 65.626 87.5052 64.9063 87.2944 64.1711L83.9168 51.8893H82.1407V89.0534C82.1188 89.768 81.8196 90.446 81.3064 90.9437C80.7932 91.4414 80.1064 91.7198 79.3916 91.7198C78.6767 91.7198 77.9899 91.4414 77.4767 90.9437C76.9635 90.446 76.6643 89.768 76.6425 89.0534V67.9086H74.6144V89.0534C74.6144 89.7836 74.3243 90.4838 73.8081 91.0001C73.2918 91.5164 72.5915 91.8064 71.8614 91.8064C71.1313 91.8064 70.4311 91.5164 69.9148 91.0001C69.3985 90.4838 69.1085 89.7836 69.1085 89.0534V51.8893H67.4711L63.8313 64.5926H63.8288ZM164.259 156.064C164.259 159.655 163.935 162.564 163.935 162.564H114.364V117.504H112.343L103.141 131.233C101.643 133.276 98.5993 134.266 96.1779 134.266H74.5758C73.7226 134.266 72.8776 134.099 72.0891 133.773C71.3006 133.447 70.584 132.969 69.9804 132.366C69.3767 131.763 68.8977 131.047 68.5708 130.259C68.2439 129.471 68.0755 128.626 68.0751 127.773C68.0751 124.195 70.9849 121.367 74.5758 121.367H94.2243L107.853 100.754C111.125 95.7701 117.178 93.3924 122.648 93.3924C122.648 107.887 126.26 114.023 132.791 114.023V138.124C131.864 138.523 131.073 139.185 130.518 140.028C129.962 140.872 129.666 141.859 129.666 142.869C129.666 145.717 131.943 147.997 134.791 147.997C137.642 147.997 139.924 145.653 139.924 142.797C139.924 140.671 138.634 138.846 136.796 138.06V113.951C143.323 113.949 146.942 107.823 146.942 93.3282C157.797 93.3282 164.259 99.7955 164.259 109.7V156.064V156.064Z" fill="#14A1CD"/>
<path d="M228.934 94.7695L233.445 105.094C233.555 105.352 233.656 105.477 233.75 105.469C233.828 105.469 233.969 105.246 234.172 104.801L234.359 104.367L236.938 98.2734C238.047 95.6562 238.602 93.9727 238.602 93.2227C238.602 92.9648 238.543 92.7852 238.426 92.6836C238.309 92.5742 238.07 92.4844 237.711 92.4141C237.273 92.3281 237.059 92.2188 237.066 92.0859C237.074 91.9375 237.203 91.8633 237.453 91.8633C237.508 91.8633 237.621 91.8672 237.793 91.875C238.371 91.9062 238.719 91.9219 238.836 91.9219H239.316L239.844 91.9102H240.137L241.133 91.8984C241.289 91.8984 241.367 91.9648 241.367 92.0977C241.367 92.207 241.285 92.2891 241.121 92.3438C240.559 92.5547 240.133 93.0078 239.844 93.7031L239.527 94.4648L233.703 108.117C233.539 108.5 233.379 108.691 233.223 108.691C233.059 108.691 232.891 108.496 232.719 108.105L226.777 94.3477C226.496 93.7148 226.242 93.2734 226.016 93.0234C225.789 92.7734 225.48 92.6133 225.09 92.543C224.684 92.4648 224.445 92.4102 224.375 92.3789C224.297 92.3398 224.258 92.2734 224.258 92.1797C224.258 92.0234 224.367 91.9453 224.586 91.9453C224.648 91.9453 224.762 91.9531 224.926 91.9688C225.059 91.9844 225.453 91.9922 226.109 91.9922L227.223 92.0039L228.008 91.9922C228.172 91.9922 228.422 91.9766 228.758 91.9453C228.914 91.9297 229.023 91.9219 229.086 91.9219C229.297 91.9219 229.402 91.9961 229.402 92.1445C229.402 92.2539 229.324 92.3398 229.168 92.4023C228.848 92.5195 228.645 92.6211 228.559 92.707C228.48 92.7852 228.441 92.9258 228.441 93.1289C228.441 93.4648 228.605 94.0117 228.934 94.7695ZM245.715 95.4258V104.191C245.715 105.285 245.781 106.008 245.914 106.359C246.07 106.758 246.262 107.039 246.488 107.203C246.723 107.367 247.086 107.484 247.578 107.555C247.969 107.609 248.164 107.707 248.164 107.848C248.164 108.035 248.043 108.129 247.801 108.129C247.684 108.129 247.535 108.117 247.355 108.094C247.113 108.062 246.699 108.047 246.113 108.047L244.414 108.023L243.031 108.105C242.805 108.129 242.617 108.141 242.469 108.141C242.258 108.141 242.152 108.059 242.152 107.895C242.152 107.754 242.273 107.664 242.516 107.625C243.109 107.523 243.492 107.32 243.664 107.016C243.836 106.703 243.922 106.051 243.922 105.059V95.0273C243.922 94.0586 243.809 93.4062 243.582 93.0703C243.363 92.7344 242.891 92.5078 242.164 92.3906C241.922 92.3438 241.797 92.25 241.789 92.1094C241.781 91.9375 241.895 91.8516 242.129 91.8516C242.191 91.8516 242.262 91.8555 242.34 91.8633C242.91 91.9258 243.668 91.957 244.613 91.957C245.191 91.957 245.688 91.9453 246.102 91.9219L246.887 91.8633C247.035 91.8555 247.133 91.8516 247.18 91.8516C247.391 91.8516 247.496 91.9258 247.496 92.0742C247.496 92.2148 247.395 92.3203 247.191 92.3906L246.582 92.625C246.004 92.8438 245.715 93.7773 245.715 95.4258ZM254.867 91.6875C255.703 91.6875 256.41 91.8086 256.988 92.0508L257.797 92.3906C257.867 92.4219 257.938 92.4375 258.008 92.4375C258.102 92.4375 258.195 92.3984 258.289 92.3203L258.453 92.1797C258.477 92.1484 258.52 92.1328 258.582 92.1328C258.777 92.125 258.875 92.3164 258.875 92.707C258.875 92.8398 258.926 93.2344 259.027 93.8906L259.215 95.0977C259.254 95.3555 259.273 95.5156 259.273 95.5781C259.273 95.8203 259.191 95.9414 259.027 95.9414C258.902 95.9414 258.777 95.7539 258.652 95.3789C258.371 94.5352 257.797 93.8398 256.93 93.293C256.07 92.7461 255.109 92.4727 254.047 92.4727C253.203 92.4727 252.496 92.7227 251.926 93.2227C251.363 93.7148 251.082 94.332 251.082 95.0742C251.082 95.7305 251.266 96.2969 251.633 96.7734C251.953 97.1797 252.301 97.4766 252.676 97.6641C253.059 97.8516 253.992 98.1914 255.477 98.6836C258.367 99.6289 259.812 101.18 259.812 103.336C259.812 104.797 259.281 105.992 258.219 106.922C257.156 107.852 255.793 108.316 254.129 108.316C253.527 108.316 252.863 108.23 252.137 108.059C251.418 107.887 250.891 107.688 250.555 107.461C250.414 107.367 250.32 107.27 250.273 107.168C250.227 107.059 250.156 106.785 250.062 106.348C250.047 106.285 249.949 105.93 249.77 105.281C249.566 104.578 249.465 104.078 249.465 103.781C249.465 103.547 249.543 103.434 249.699 103.441C249.84 103.449 249.965 103.641 250.074 104.016C250.355 104.984 250.949 105.797 251.855 106.453C252.762 107.109 253.746 107.438 254.809 107.438C255.887 107.438 256.797 107.121 257.539 106.488C258.289 105.855 258.664 105.086 258.664 104.18C258.664 103.312 258.32 102.582 257.633 101.988C257.281 101.684 256.266 101.25 254.586 100.688C252.852 100.102 251.621 99.4531 250.895 98.7422C250.176 98.0312 249.816 97.1094 249.816 95.9766C249.816 94.7109 250.285 93.6797 251.223 92.8828C252.168 92.0859 253.383 91.6875 254.867 91.6875ZM265.613 95.4258V104.191C265.613 105.285 265.68 106.008 265.812 106.359C265.969 106.758 266.16 107.039 266.387 107.203C266.621 107.367 266.984 107.484 267.477 107.555C267.867 107.609 268.062 107.707 268.062 107.848C268.062 108.035 267.941 108.129 267.699 108.129C267.582 108.129 267.434 108.117 267.254 108.094C267.012 108.062 266.598 108.047 266.012 108.047L264.312 108.023L262.93 108.105C262.703 108.129 262.516 108.141 262.367 108.141C262.156 108.141 262.051 108.059 262.051 107.895C262.051 107.754 262.172 107.664 262.414 107.625C263.008 107.523 263.391 107.32 263.562 107.016C263.734 106.703 263.82 106.051 263.82 105.059V95.0273C263.82 94.0586 263.707 93.4062 263.48 93.0703C263.262 92.7344 262.789 92.5078 262.062 92.3906C261.82 92.3438 261.695 92.25 261.688 92.1094C261.68 91.9375 261.793 91.8516 262.027 91.8516C262.09 91.8516 262.16 91.8555 262.238 91.8633C262.809 91.9258 263.566 91.957 264.512 91.957C265.09 91.957 265.586 91.9453 266 91.9219L266.785 91.8633C266.934 91.8555 267.031 91.8516 267.078 91.8516C267.289 91.8516 267.395 91.9258 267.395 92.0742C267.395 92.2148 267.293 92.3203 267.09 92.3906L266.48 92.625C265.902 92.8438 265.613 93.7773 265.613 95.4258ZM280.918 93.2344H277.625C277.281 93.2344 277.062 93.2812 276.969 93.375C276.883 93.4688 276.84 93.6992 276.84 94.0664V105.551L276.852 106.008C276.891 106.922 277.402 107.465 278.387 107.637C278.66 107.684 278.797 107.773 278.797 107.906C278.797 108.078 278.688 108.164 278.469 108.164C278.375 108.164 278.184 108.141 277.895 108.094C277.746 108.07 277.395 108.059 276.84 108.059L275.984 108.047L275.07 108.059C274.742 108.059 274.465 108.07 274.238 108.094C273.793 108.141 273.531 108.164 273.453 108.164C273.219 108.164 273.102 108.078 273.102 107.906C273.102 107.781 273.23 107.703 273.488 107.672C274.09 107.594 274.496 107.43 274.707 107.18C274.918 106.922 275.023 106.465 275.023 105.809V94.1953L275.012 93.8906C275.012 93.6094 274.969 93.4297 274.883 93.3516C274.805 93.2734 274.617 93.2344 274.32 93.2344H271.215C270.582 93.2344 270.121 93.3633 269.832 93.6211C269.551 93.8711 269.332 94.3477 269.176 95.0508C269.105 95.3555 269 95.5039 268.859 95.4961C268.719 95.4883 268.648 95.3828 268.648 95.1797C268.648 95.0156 268.695 94.7148 268.789 94.2773C268.906 93.7148 268.965 93.25 268.965 92.8828C268.965 92.5234 269.004 92.2891 269.082 92.1797C269.168 92.0625 269.344 92.0039 269.609 92.0039H282.219C282.648 92.0039 282.906 92.0508 282.992 92.1445C283.086 92.2383 283.133 92.5156 283.133 92.9766C283.133 93.4375 283.152 93.7734 283.191 93.9844C283.23 94.25 283.254 94.4414 283.262 94.5586C283.27 94.793 283.188 94.918 283.016 94.9336C282.875 94.9414 282.781 94.8203 282.734 94.5703C282.633 94.0156 282.469 93.6562 282.242 93.4922C282.016 93.3203 281.574 93.2344 280.918 93.2344ZM291.84 101.871H287.598C287.02 101.871 286.66 101.918 286.52 102.012C286.379 102.105 286.191 102.418 285.957 102.949L285.195 104.672C284.852 105.461 284.68 106.047 284.68 106.43C284.68 106.797 284.77 107.062 284.949 107.227C285.137 107.391 285.5 107.531 286.039 107.648C286.273 107.695 286.395 107.789 286.402 107.93C286.41 108.062 286.301 108.129 286.074 108.129C285.988 108.129 285.855 108.125 285.676 108.117L284.551 108.059C284.176 108.043 283.742 108.035 283.25 108.035C283.023 108.035 282.848 108.039 282.723 108.047C282.324 108.078 282.105 108.094 282.066 108.094C281.855 108.094 281.75 108.023 281.75 107.883C281.75 107.758 281.816 107.676 281.949 107.637L282.383 107.508C282.539 107.461 282.75 107.273 283.016 106.945C283.281 106.609 283.5 106.262 283.672 105.902L284.012 105.129L290.035 91.7578C290.137 91.5234 290.25 91.4062 290.375 91.4062C290.5 91.4062 290.605 91.5195 290.691 91.7461L295.73 104.637L295.988 105.27C296.355 106.215 296.66 106.805 296.902 107.039C297.145 107.266 297.637 107.445 298.379 107.578C298.621 107.625 298.738 107.723 298.73 107.871C298.723 108.004 298.613 108.07 298.402 108.07C298.332 108.07 298.184 108.062 297.957 108.047C297.551 108.008 296.828 107.988 295.789 107.988C294.703 107.988 294.023 108.012 293.75 108.059C293.586 108.09 293.465 108.105 293.387 108.105C293.184 108.105 293.082 108.023 293.082 107.859C293.082 107.734 293.18 107.652 293.375 107.613L293.738 107.531C294.129 107.453 294.324 107.188 294.324 106.734C294.324 106.32 294.086 105.496 293.609 104.262L293.023 102.715C292.859 102.285 292.73 102.039 292.637 101.977C292.543 101.906 292.277 101.871 291.84 101.871ZM291.98 99.9961L290.141 95.3555L290.047 95.1094C289.953 94.8594 289.852 94.7305 289.742 94.7227C289.688 94.7148 289.625 94.7891 289.555 94.9453L287.27 100.02C287.168 100.238 287.117 100.383 287.117 100.453C287.117 100.656 287.297 100.758 287.656 100.758L287.973 100.77H291.512C291.902 100.77 292.098 100.672 292.098 100.477C292.098 100.422 292.078 100.332 292.039 100.207L291.98 99.9961ZM304.367 91.6875C305.203 91.6875 305.91 91.8086 306.488 92.0508L307.297 92.3906C307.367 92.4219 307.438 92.4375 307.508 92.4375C307.602 92.4375 307.695 92.3984 307.789 92.3203L307.953 92.1797C307.977 92.1484 308.02 92.1328 308.082 92.1328C308.277 92.125 308.375 92.3164 308.375 92.707C308.375 92.8398 308.426 93.2344 308.527 93.8906L308.715 95.0977C308.754 95.3555 308.773 95.5156 308.773 95.5781C308.773 95.8203 308.691 95.9414 308.527 95.9414C308.402 95.9414 308.277 95.7539 308.152 95.3789C307.871 94.5352 307.297 93.8398 306.43 93.293C305.57 92.7461 304.609 92.4727 303.547 92.4727C302.703 92.4727 301.996 92.7227 301.426 93.2227C300.863 93.7148 300.582 94.332 300.582 95.0742C300.582 95.7305 300.766 96.2969 301.133 96.7734C301.453 97.1797 301.801 97.4766 302.176 97.6641C302.559 97.8516 303.492 98.1914 304.977 98.6836C307.867 99.6289 309.312 101.18 309.312 103.336C309.312 104.797 308.781 105.992 307.719 106.922C306.656 107.852 305.293 108.316 303.629 108.316C303.027 108.316 302.363 108.23 301.637 108.059C300.918 107.887 300.391 107.688 300.055 107.461C299.914 107.367 299.82 107.27 299.773 107.168C299.727 107.059 299.656 106.785 299.562 106.348C299.547 106.285 299.449 105.93 299.27 105.281C299.066 104.578 298.965 104.078 298.965 103.781C298.965 103.547 299.043 103.434 299.199 103.441C299.34 103.449 299.465 103.641 299.574 104.016C299.855 104.984 300.449 105.797 301.355 106.453C302.262 107.109 303.246 107.438 304.309 107.438C305.387 107.438 306.297 107.121 307.039 106.488C307.789 105.855 308.164 105.086 308.164 104.18C308.164 103.312 307.82 102.582 307.133 101.988C306.781 101.684 305.766 101.25 304.086 100.688C302.352 100.102 301.121 99.4531 300.395 98.7422C299.676 98.0312 299.316 97.1094 299.316 95.9766C299.316 94.7109 299.785 93.6797 300.723 92.8828C301.668 92.0859 302.883 91.6875 304.367 91.6875Z" fill="#244061"/>
</svg>
