<svg width="350" height="200" viewBox="0 0 350 200" fill="none" xmlns="http://www.w3.org/2000/svg">
<rect width="350" height="200" fill="#F2F1DC"/>
<path d="M78.7 16.3444L24.2556 40.5828C18.6556 43.0768 15 48.6883 15 54.8453V91.4756C15 134.731 44.8667 175.18 85 185C125.133 175.18 155 134.731 155 91.4756V54.8453C155 48.6883 151.344 43.0768 145.744 40.5828L91.3 16.3444C87.3333 14.5519 82.6667 14.5519 78.7 16.3444V16.3444ZM85 99.1914H139.444C135.322 131.301 113.933 159.904 85 168.867V99.2693H30.5556V54.8453L85 30.6069V99.1914Z" fill="#14A1CD"/>
<path d="M183.256 61.4062C183.952 61.4062 184.542 61.5072 185.023 61.709L185.697 61.9922C185.756 62.0182 185.814 62.0312 185.873 62.0312C185.951 62.0312 186.029 61.9987 186.107 61.9336L186.244 61.8164C186.264 61.7904 186.299 61.7773 186.352 61.7773C186.514 61.7708 186.596 61.9303 186.596 62.2559C186.596 62.3665 186.638 62.6953 186.723 63.2422L186.879 64.248C186.911 64.4629 186.928 64.5964 186.928 64.6484C186.928 64.8503 186.859 64.9512 186.723 64.9512C186.618 64.9512 186.514 64.7949 186.41 64.4824C186.176 63.7793 185.697 63.1999 184.975 62.7441C184.258 62.2884 183.458 62.0605 182.572 62.0605C181.869 62.0605 181.28 62.2689 180.805 62.6855C180.336 63.0957 180.102 63.61 180.102 64.2285C180.102 64.7754 180.255 65.2474 180.561 65.6445C180.827 65.9831 181.117 66.2305 181.43 66.3867C181.749 66.543 182.527 66.8262 183.764 67.2363C186.173 68.0241 187.377 69.3164 187.377 71.1133C187.377 72.3307 186.934 73.3268 186.049 74.1016C185.163 74.8763 184.027 75.2637 182.641 75.2637C182.139 75.2637 181.586 75.1921 180.98 75.0488C180.382 74.9056 179.942 74.7396 179.662 74.5508C179.545 74.4727 179.467 74.3913 179.428 74.3066C179.389 74.2155 179.33 73.9876 179.252 73.623C179.239 73.571 179.158 73.2747 179.008 72.7344C178.839 72.1484 178.754 71.7318 178.754 71.4844C178.754 71.2891 178.819 71.1947 178.949 71.2012C179.066 71.2077 179.171 71.3672 179.262 71.6797C179.496 72.487 179.991 73.1641 180.746 73.7109C181.501 74.2578 182.322 74.5312 183.207 74.5312C184.105 74.5312 184.864 74.2676 185.482 73.7402C186.107 73.2129 186.42 72.5716 186.42 71.8164C186.42 71.0938 186.133 70.485 185.561 69.9902C185.268 69.7363 184.421 69.375 183.021 68.9062C181.576 68.418 180.551 67.8776 179.945 67.2852C179.346 66.6927 179.047 65.9245 179.047 64.9805C179.047 63.9258 179.438 63.0664 180.219 62.4023C181.007 61.7383 182.019 61.4062 183.256 61.4062ZM192.201 63.2031V67.1289C192.201 67.4284 192.227 67.6107 192.279 67.6758C192.338 67.7344 192.507 67.7637 192.787 67.7637H194.291C194.975 67.7637 195.515 67.7246 195.912 67.6465C196.264 67.5749 196.492 67.4805 196.596 67.3633C196.7 67.2461 196.794 66.9727 196.879 66.543C196.911 66.3802 196.993 66.3021 197.123 66.3086C197.247 66.3151 197.309 66.403 197.309 66.5723C197.309 66.6178 197.305 66.6895 197.299 66.7871C197.247 67.4186 197.221 67.9948 197.221 68.5156C197.221 68.9128 197.24 69.3066 197.279 69.6973C197.292 69.8275 197.299 69.9219 197.299 69.9805C197.299 70.1432 197.237 70.2246 197.113 70.2246C196.977 70.2246 196.895 70.153 196.869 70.0098L196.811 69.7363C196.732 69.3001 196.576 69.0039 196.342 68.8477C196.107 68.6914 195.71 68.6133 195.15 68.6133H192.992C192.673 68.6133 192.458 68.6458 192.348 68.7109C192.243 68.776 192.191 68.9062 192.191 69.1016L192.201 69.4238V73.0176C192.201 73.571 192.299 73.916 192.494 74.0527C192.696 74.1895 193.201 74.2578 194.008 74.2578C196.566 74.2578 198.21 73.6816 198.939 72.5293C199.011 72.4186 199.083 72.36 199.154 72.3535C199.271 72.347 199.33 72.4316 199.33 72.6074C199.33 73.0306 199.092 73.5352 198.617 74.1211C198.044 74.8242 197.322 75.1758 196.449 75.1758C196.26 75.1758 196.007 75.1628 195.688 75.1367C194.444 75.0195 193.415 74.9609 192.602 74.9609C191.462 74.9609 190.658 75 190.189 75.0781C189.942 75.1237 189.773 75.1465 189.682 75.1465C189.473 75.1465 189.369 75.0749 189.369 74.9316C189.369 74.821 189.454 74.7428 189.623 74.6973L189.994 74.5898C190.463 74.4596 190.697 74.0039 190.697 73.2227L190.707 72.5879V64.3359C190.707 63.4049 190.603 62.7799 190.395 62.4609C190.193 62.1354 189.796 61.9727 189.203 61.9727C189.014 61.9727 188.92 61.9108 188.92 61.7871C188.92 61.6048 189.066 61.5137 189.359 61.5137C189.522 61.5137 189.74 61.5299 190.014 61.5625C190.945 61.6667 192.064 61.7188 193.373 61.7188C194.167 61.7188 194.87 61.7057 195.482 61.6797L196.869 61.6113C197.253 61.5983 197.488 61.5853 197.572 61.5723C197.748 61.5462 197.878 61.5332 197.963 61.5332C198.178 61.5332 198.285 61.6276 198.285 61.8164C198.285 61.875 198.275 61.9499 198.256 62.041C198.236 62.1322 198.21 62.3926 198.178 62.8223L198.139 63.3984C198.106 63.776 198.074 64.0137 198.041 64.1113C198.008 64.2025 197.937 64.2513 197.826 64.2578C197.702 64.2643 197.641 64.1667 197.641 63.9648V63.7109C197.641 63.5026 197.602 63.304 197.523 63.1152C197.4 62.8223 197.149 62.627 196.771 62.5293C196.394 62.4316 195.701 62.3828 194.691 62.3828H193.158C192.755 62.3828 192.494 62.4349 192.377 62.5391C192.26 62.6367 192.201 62.8581 192.201 63.2031ZM211.732 71.7285V69.5312C211.732 69.1341 211.645 68.8639 211.469 68.7207C211.299 68.5775 210.954 68.4863 210.434 68.4473C210.18 68.4212 210.049 68.3366 210.043 68.1934C210.036 68.0697 210.147 68.0078 210.375 68.0078L210.766 68.0176L211.498 68.0273C212.501 68.0273 213.083 68.0208 213.246 68.0078C213.695 67.9753 213.956 67.959 214.027 67.959C214.177 67.959 214.252 68.0208 214.252 68.1445C214.252 68.2552 214.154 68.3366 213.959 68.3887C213.464 68.5059 213.217 68.8639 213.217 69.4629L213.227 69.7754V72.9004L213.246 73.2129L213.188 73.3594C213.148 73.3919 213.054 73.418 212.904 73.4375C212.729 73.4635 212.458 73.5807 212.094 73.7891L211.449 74.1699C210.18 74.9056 208.816 75.2734 207.357 75.2734C205.404 75.2734 203.803 74.6484 202.553 73.3984C201.303 72.1419 200.678 70.5371 200.678 68.584C200.678 66.5332 201.339 64.8242 202.66 63.457C203.988 62.0898 205.648 61.4062 207.641 61.4062C208.409 61.4062 209.223 61.5169 210.082 61.7383C210.948 61.9596 211.638 62.2363 212.152 62.5684C212.23 62.6204 212.286 62.6465 212.318 62.6465C212.364 62.6465 212.426 62.6204 212.504 62.5684L212.738 62.3926C212.784 62.3535 212.829 62.334 212.875 62.334C212.992 62.334 213.051 62.487 213.051 62.793C213.051 62.9362 213.07 63.1576 213.109 63.457L213.207 64.375C213.24 64.6224 213.285 64.8698 213.344 65.1172C213.376 65.2344 213.393 65.3288 213.393 65.4004C213.393 65.5566 213.327 65.638 213.197 65.6445C213.113 65.651 213.041 65.5957 212.982 65.4785C212.475 64.4368 211.693 63.5905 210.639 62.9395C209.584 62.2884 208.467 61.9629 207.289 61.9629C205.818 61.9629 204.617 62.5228 203.686 63.6426C202.755 64.7624 202.289 66.2077 202.289 67.9785C202.289 69.8796 202.823 71.4714 203.891 72.7539C204.965 74.0299 206.293 74.668 207.875 74.668C209.385 74.668 210.567 74.1341 211.42 73.0664C211.628 72.806 211.732 72.36 211.732 71.7285ZM227.689 69.3848V64.3262C227.689 63.5124 227.572 62.9232 227.338 62.5586C227.104 62.1875 226.706 61.9759 226.146 61.9238C225.958 61.9043 225.863 61.8327 225.863 61.709C225.863 61.5658 225.928 61.4974 226.059 61.5039C226.202 61.5104 226.41 61.5365 226.684 61.582C226.931 61.6211 227.227 61.6406 227.572 61.6406C228.301 61.6406 228.751 61.6309 228.92 61.6113C229.148 61.5918 229.291 61.582 229.35 61.582C229.473 61.582 229.535 61.6406 229.535 61.7578C229.535 61.8555 229.467 61.9336 229.33 61.9922C228.933 62.1549 228.676 62.3828 228.559 62.6758C228.441 62.9688 228.383 63.5221 228.383 64.3359V69.1699C228.383 70.9473 228.028 72.3145 227.318 73.2715C226.869 73.877 226.225 74.362 225.385 74.7266C224.551 75.0846 223.66 75.2637 222.709 75.2637C221.602 75.2637 220.606 75.0488 219.721 74.6191C218.835 74.1895 218.188 73.6068 217.777 72.8711C217.315 72.0247 217.084 70.9212 217.084 69.5605V64.5996L217.064 64.043C217.064 63.3464 216.967 62.8678 216.771 62.6074C216.583 62.3405 216.199 62.1647 215.619 62.0801C215.443 62.054 215.355 61.9857 215.355 61.875C215.355 61.7188 215.479 61.6406 215.727 61.6406C215.889 61.6406 216.114 61.6471 216.4 61.6602C216.7 61.6797 216.918 61.6895 217.055 61.6895L217.807 61.6797H218.549C218.627 61.6797 218.809 61.6667 219.096 61.6406C219.337 61.6211 219.503 61.6113 219.594 61.6113C219.743 61.6113 219.818 61.6634 219.818 61.7676C219.818 61.8913 219.714 61.9727 219.506 62.0117C219.128 62.0964 218.874 62.2624 218.744 62.5098C218.62 62.7507 218.559 63.1868 218.559 63.8184L218.578 64.4629V69.3848C218.578 71.0645 218.839 72.2624 219.359 72.9785C220.095 73.9941 221.329 74.502 223.061 74.502C224.61 74.502 225.769 74.0788 226.537 73.2324C227.305 72.3796 227.689 71.097 227.689 69.3848ZM238.051 68.3008L240.746 72.2852L241.059 72.7539C241.892 73.9779 242.66 74.6126 243.363 74.6582L243.676 74.6777C243.793 74.6842 243.848 74.7298 243.842 74.8145C243.835 74.9121 243.689 75 243.402 75.0781C243.122 75.1562 242.803 75.1953 242.445 75.1953C241.859 75.1953 241.332 75.0358 240.863 74.7168C240.401 74.3913 239.929 73.8639 239.447 73.1348L237.016 69.4238L236.879 69.209C236.723 68.9421 236.469 68.8086 236.117 68.8086H234.818L234.604 68.8477C234.525 68.8932 234.486 68.9974 234.486 69.1602V72.207L234.496 72.5977C234.496 73.1576 234.522 73.5417 234.574 73.75C234.633 73.9518 234.766 74.1341 234.975 74.2969C235.255 74.5182 235.688 74.6582 236.273 74.7168C236.508 74.7428 236.628 74.8177 236.635 74.9414C236.648 75.0716 236.54 75.1367 236.312 75.1367C236.221 75.1367 236.029 75.1237 235.736 75.0977C235.469 75.0716 235.056 75.0586 234.496 75.0586L233.559 75.0488L233.051 75.0586C232.829 75.0586 232.562 75.0749 232.25 75.1074C231.996 75.1335 231.82 75.1465 231.723 75.1465C231.56 75.1465 231.479 75.0781 231.479 74.9414C231.479 74.8438 231.56 74.7786 231.723 74.7461C232.243 74.6484 232.585 74.4141 232.748 74.043C232.911 73.6654 232.992 72.9264 232.992 71.8262V64.8145L232.973 63.7988C232.973 62.7832 232.618 62.2168 231.908 62.0996L231.449 62.0312C231.241 61.9922 231.137 61.9141 231.137 61.7969C231.137 61.6602 231.247 61.5918 231.469 61.5918C231.521 61.5918 231.749 61.6048 232.152 61.6309C232.387 61.6504 232.676 61.6602 233.021 61.6602C233.321 61.6602 233.832 61.6374 234.555 61.5918C235.076 61.5592 235.535 61.543 235.932 61.543C237.429 61.543 238.559 61.8262 239.32 62.3926C240.082 62.9525 240.463 63.7891 240.463 64.9023C240.463 66.3672 239.659 67.5 238.051 68.3008ZM235.18 68.0859H236.283C237.136 68.0859 237.807 67.8516 238.295 67.3828C238.783 66.9141 239.027 66.2728 239.027 65.459C239.027 64.515 238.695 63.7402 238.031 63.1348C237.367 62.5228 236.521 62.2168 235.492 62.2168C235.108 62.2168 234.841 62.2819 234.691 62.4121C234.548 62.5358 234.477 62.7637 234.477 63.0957L234.486 63.418V67.3828C234.486 67.6888 234.525 67.8841 234.604 67.9688C234.688 68.0469 234.88 68.0859 235.18 68.0859ZM247.621 64.5215V71.8262C247.621 72.7376 247.676 73.3398 247.787 73.6328C247.917 73.9648 248.077 74.1992 248.266 74.3359C248.461 74.4727 248.764 74.5703 249.174 74.6289C249.499 74.6745 249.662 74.7559 249.662 74.873C249.662 75.0293 249.561 75.1074 249.359 75.1074C249.262 75.1074 249.138 75.0977 248.988 75.0781C248.786 75.0521 248.441 75.0391 247.953 75.0391L246.537 75.0195L245.385 75.0879C245.196 75.1074 245.04 75.1172 244.916 75.1172C244.74 75.1172 244.652 75.0488 244.652 74.9121C244.652 74.7949 244.753 74.7201 244.955 74.6875C245.45 74.6029 245.769 74.4336 245.912 74.1797C246.055 73.9193 246.127 73.3757 246.127 72.5488V64.1895C246.127 63.3822 246.033 62.8385 245.844 62.5586C245.661 62.2786 245.268 62.0898 244.662 61.9922C244.46 61.9531 244.356 61.875 244.35 61.7578C244.343 61.6146 244.438 61.543 244.633 61.543C244.685 61.543 244.743 61.5462 244.809 61.5527C245.284 61.6048 245.915 61.6309 246.703 61.6309C247.185 61.6309 247.598 61.6211 247.943 61.6016L248.598 61.5527C248.721 61.5462 248.803 61.543 248.842 61.543C249.018 61.543 249.105 61.6048 249.105 61.7285C249.105 61.8457 249.021 61.9336 248.852 61.9922L248.344 62.1875C247.862 62.3698 247.621 63.1478 247.621 64.5215ZM252.689 64.0039C252.689 63.3464 252.579 62.8646 252.357 62.5586C252.136 62.2526 251.768 62.0736 251.254 62.0215C251.039 62.002 250.932 61.9336 250.932 61.8164C250.932 61.6862 251.016 61.6211 251.186 61.6211L251.957 61.6602C252.035 61.6667 252.263 61.6699 252.641 61.6699C253.298 61.6699 253.809 61.6536 254.174 61.6211L255.082 61.5332C255.473 61.5007 255.902 61.4844 256.371 61.4844C259.04 61.4844 261.042 62.1549 262.377 63.4961C263.594 64.7201 264.203 66.2858 264.203 68.1934C264.203 69.4238 263.936 70.5534 263.402 71.582C262.868 72.6107 262.126 73.4212 261.176 74.0137C259.978 74.7624 258.669 75.1367 257.25 75.1367C257.081 75.1367 256.781 75.1204 256.352 75.0879C255.479 75.0293 254.721 75 254.076 75C253.38 75 252.774 75.0358 252.26 75.1074C252.025 75.14 251.84 75.1595 251.703 75.166C251.475 75.179 251.361 75.1042 251.361 74.9414C251.361 74.8307 251.452 74.7559 251.635 74.7168C252.077 74.6257 252.364 74.4629 252.494 74.2285C252.624 73.9941 252.689 73.5156 252.689 72.793V64.0039ZM254.184 63.2129V73.2812C254.184 73.6784 254.382 73.9518 254.779 74.1016C255.124 74.2318 255.564 74.3457 256.098 74.4434C256.638 74.541 257.094 74.5898 257.465 74.5898C258.578 74.5898 259.581 74.3099 260.473 73.75C261.983 72.8125 262.738 71.2174 262.738 68.9648C262.738 67.7409 262.501 66.6146 262.025 65.5859C261.557 64.5573 260.909 63.75 260.082 63.1641C259.073 62.4414 257.846 62.0801 256.4 62.0801C255.372 62.0801 254.717 62.1908 254.438 62.4121C254.268 62.5423 254.184 62.8092 254.184 63.2129ZM272.113 69.8926H268.578C268.096 69.8926 267.797 69.9316 267.68 70.0098C267.562 70.0879 267.406 70.3483 267.211 70.791L266.576 72.2266C266.29 72.8841 266.146 73.3724 266.146 73.6914C266.146 73.9974 266.221 74.2188 266.371 74.3555C266.527 74.4922 266.83 74.6094 267.279 74.707C267.475 74.7461 267.576 74.8242 267.582 74.9414C267.589 75.0521 267.497 75.1074 267.309 75.1074C267.237 75.1074 267.126 75.1042 266.977 75.0977L266.039 75.0488C265.727 75.0358 265.365 75.0293 264.955 75.0293C264.766 75.0293 264.62 75.0326 264.516 75.0391C264.184 75.0651 264.001 75.0781 263.969 75.0781C263.793 75.0781 263.705 75.0195 263.705 74.9023C263.705 74.7982 263.76 74.7298 263.871 74.6973L264.232 74.5898C264.363 74.5508 264.538 74.3945 264.76 74.1211C264.981 73.8411 265.163 73.5514 265.307 73.252L265.59 72.6074L270.609 61.4648C270.694 61.2695 270.788 61.1719 270.893 61.1719C270.997 61.1719 271.085 61.2663 271.156 61.4551L275.355 72.1973L275.57 72.7246C275.876 73.5124 276.13 74.0039 276.332 74.1992C276.534 74.388 276.944 74.5378 277.562 74.6484C277.764 74.6875 277.862 74.7689 277.855 74.8926C277.849 75.0033 277.758 75.0586 277.582 75.0586C277.523 75.0586 277.4 75.0521 277.211 75.0391C276.872 75.0065 276.27 74.9902 275.404 74.9902C274.499 74.9902 273.933 75.0098 273.705 75.0488C273.568 75.0749 273.467 75.0879 273.402 75.0879C273.233 75.0879 273.148 75.0195 273.148 74.8828C273.148 74.7786 273.23 74.7103 273.393 74.6777L273.695 74.6094C274.021 74.5443 274.184 74.3229 274.184 73.9453C274.184 73.6003 273.985 72.9134 273.588 71.8848L273.1 70.5957C272.963 70.2376 272.855 70.0326 272.777 69.9805C272.699 69.9219 272.478 69.8926 272.113 69.8926ZM272.23 68.3301L270.697 64.4629L270.619 64.2578C270.541 64.0495 270.456 63.9421 270.365 63.9355C270.32 63.929 270.268 63.9909 270.209 64.1211L268.305 68.3496C268.22 68.5319 268.178 68.6523 268.178 68.7109C268.178 68.8802 268.327 68.9648 268.627 68.9648L268.891 68.9746H271.84C272.165 68.9746 272.328 68.8932 272.328 68.7305C272.328 68.6849 272.312 68.61 272.279 68.5059L272.23 68.3301ZM279.994 64.0039C279.994 63.3464 279.883 62.8646 279.662 62.5586C279.441 62.2526 279.073 62.0736 278.559 62.0215C278.344 62.002 278.236 61.9336 278.236 61.8164C278.236 61.6862 278.321 61.6211 278.49 61.6211L279.262 61.6602C279.34 61.6667 279.568 61.6699 279.945 61.6699C280.603 61.6699 281.114 61.6536 281.479 61.6211L282.387 61.5332C282.777 61.5007 283.207 61.4844 283.676 61.4844C286.345 61.4844 288.347 62.1549 289.682 63.4961C290.899 64.7201 291.508 66.2858 291.508 68.1934C291.508 69.4238 291.241 70.5534 290.707 71.582C290.173 72.6107 289.431 73.4212 288.48 74.0137C287.283 74.7624 285.974 75.1367 284.555 75.1367C284.385 75.1367 284.086 75.1204 283.656 75.0879C282.784 75.0293 282.025 75 281.381 75C280.684 75 280.079 75.0358 279.564 75.1074C279.33 75.14 279.145 75.1595 279.008 75.166C278.78 75.179 278.666 75.1042 278.666 74.9414C278.666 74.8307 278.757 74.7559 278.939 74.7168C279.382 74.6257 279.669 74.4629 279.799 74.2285C279.929 73.9941 279.994 73.5156 279.994 72.793V64.0039ZM281.488 63.2129V73.2812C281.488 73.6784 281.687 73.9518 282.084 74.1016C282.429 74.2318 282.868 74.3457 283.402 74.4434C283.943 74.541 284.398 74.5898 284.77 74.5898C285.883 74.5898 286.885 74.3099 287.777 73.75C289.288 72.8125 290.043 71.2174 290.043 68.9648C290.043 67.7409 289.805 66.6146 289.33 65.5859C288.861 64.5573 288.214 63.75 287.387 63.1641C286.378 62.4414 285.15 62.0801 283.705 62.0801C282.676 62.0801 282.022 62.1908 281.742 62.4121C281.573 62.5423 281.488 62.8092 281.488 63.2129ZM299.838 64.0039C299.838 63.3464 299.727 62.8646 299.506 62.5586C299.285 62.2526 298.917 62.0736 298.402 62.0215C298.188 62.002 298.08 61.9336 298.08 61.8164C298.08 61.6862 298.165 61.6211 298.334 61.6211L299.105 61.6602C299.184 61.6667 299.411 61.6699 299.789 61.6699C300.447 61.6699 300.958 61.6536 301.322 61.6211L302.23 61.5332C302.621 61.5007 303.051 61.4844 303.52 61.4844C306.189 61.4844 308.191 62.1549 309.525 63.4961C310.743 64.7201 311.352 66.2858 311.352 68.1934C311.352 69.4238 311.085 70.5534 310.551 71.582C310.017 72.6107 309.275 73.4212 308.324 74.0137C307.126 74.7624 305.818 75.1367 304.398 75.1367C304.229 75.1367 303.93 75.1204 303.5 75.0879C302.628 75.0293 301.869 75 301.225 75C300.528 75 299.923 75.0358 299.408 75.1074C299.174 75.14 298.988 75.1595 298.852 75.166C298.624 75.179 298.51 75.1042 298.51 74.9414C298.51 74.8307 298.601 74.7559 298.783 74.7168C299.226 74.6257 299.512 74.4629 299.643 74.2285C299.773 73.9941 299.838 73.5156 299.838 72.793V64.0039ZM301.332 63.2129V73.2812C301.332 73.6784 301.531 73.9518 301.928 74.1016C302.273 74.2318 302.712 74.3457 303.246 74.4434C303.786 74.541 304.242 74.5898 304.613 74.5898C305.727 74.5898 306.729 74.3099 307.621 73.75C309.132 72.8125 309.887 71.2174 309.887 68.9648C309.887 67.7409 309.649 66.6146 309.174 65.5859C308.705 64.5573 308.057 63.75 307.23 63.1641C306.221 62.4414 304.994 62.0801 303.549 62.0801C302.52 62.0801 301.866 62.1908 301.586 62.4121C301.417 62.5423 301.332 62.8092 301.332 63.2129ZM316.166 63.2031V67.1289C316.166 67.4284 316.192 67.6107 316.244 67.6758C316.303 67.7344 316.472 67.7637 316.752 67.7637H318.256C318.939 67.7637 319.48 67.7246 319.877 67.6465C320.229 67.5749 320.456 67.4805 320.561 67.3633C320.665 67.2461 320.759 66.9727 320.844 66.543C320.876 66.3802 320.958 66.3021 321.088 66.3086C321.212 66.3151 321.273 66.403 321.273 66.5723C321.273 66.6178 321.27 66.6895 321.264 66.7871C321.212 67.4186 321.186 67.9948 321.186 68.5156C321.186 68.9128 321.205 69.3066 321.244 69.6973C321.257 69.8275 321.264 69.9219 321.264 69.9805C321.264 70.1432 321.202 70.2246 321.078 70.2246C320.941 70.2246 320.86 70.153 320.834 70.0098L320.775 69.7363C320.697 69.3001 320.541 69.0039 320.307 68.8477C320.072 68.6914 319.675 68.6133 319.115 68.6133H316.957C316.638 68.6133 316.423 68.6458 316.312 68.7109C316.208 68.776 316.156 68.9062 316.156 69.1016L316.166 69.4238V73.0176C316.166 73.571 316.264 73.916 316.459 74.0527C316.661 74.1895 317.165 74.2578 317.973 74.2578C320.531 74.2578 322.175 73.6816 322.904 72.5293C322.976 72.4186 323.048 72.36 323.119 72.3535C323.236 72.347 323.295 72.4316 323.295 72.6074C323.295 73.0306 323.057 73.5352 322.582 74.1211C322.009 74.8242 321.286 75.1758 320.414 75.1758C320.225 75.1758 319.971 75.1628 319.652 75.1367C318.409 75.0195 317.38 74.9609 316.566 74.9609C315.427 74.9609 314.623 75 314.154 75.0781C313.907 75.1237 313.738 75.1465 313.646 75.1465C313.438 75.1465 313.334 75.0749 313.334 74.9316C313.334 74.821 313.419 74.7428 313.588 74.6973L313.959 74.5898C314.428 74.4596 314.662 74.0039 314.662 73.2227L314.672 72.5879V64.3359C314.672 63.4049 314.568 62.7799 314.359 62.4609C314.158 62.1354 313.76 61.9727 313.168 61.9727C312.979 61.9727 312.885 61.9108 312.885 61.7871C312.885 61.6048 313.031 61.5137 313.324 61.5137C313.487 61.5137 313.705 61.5299 313.979 61.5625C314.91 61.6667 316.029 61.7188 317.338 61.7188C318.132 61.7188 318.835 61.7057 319.447 61.6797L320.834 61.6113C321.218 61.5983 321.452 61.5853 321.537 61.5723C321.713 61.5462 321.843 61.5332 321.928 61.5332C322.143 61.5332 322.25 61.6276 322.25 61.8164C322.25 61.875 322.24 61.9499 322.221 62.041C322.201 62.1322 322.175 62.3926 322.143 62.8223L322.104 63.3984C322.071 63.776 322.038 64.0137 322.006 64.1113C321.973 64.2025 321.902 64.2513 321.791 64.2578C321.667 64.2643 321.605 64.1667 321.605 63.9648V63.7109C321.605 63.5026 321.566 63.304 321.488 63.1152C321.365 62.8223 321.114 62.627 320.736 62.5293C320.359 62.4316 319.665 62.3828 318.656 62.3828H317.123C316.719 62.3828 316.459 62.4349 316.342 62.5391C316.225 62.6367 316.166 62.8581 316.166 63.2031ZM213.236 97.4102V105.594C213.236 106.329 213.22 106.779 213.188 106.941C213.155 107.098 213.064 107.173 212.914 107.166C212.816 107.16 212.742 107.13 212.689 107.078L212.475 106.824L204.242 97.4102L204.145 97.3027C204.105 97.2637 204.06 97.2441 204.008 97.2441C203.884 97.2441 203.822 97.3906 203.822 97.6836V104.305L203.812 104.715L203.842 105.408C203.887 105.838 203.998 106.134 204.174 106.297C204.35 106.46 204.695 106.58 205.209 106.658C205.424 106.684 205.531 106.769 205.531 106.912C205.531 107.042 205.463 107.107 205.326 107.107C205.235 107.107 205.137 107.101 205.033 107.088C204.962 107.075 204.678 107.055 204.184 107.029L203.188 106.98L202.719 107C202.465 107 202.224 107.016 201.996 107.049C201.827 107.075 201.706 107.088 201.635 107.088C201.465 107.088 201.374 107.026 201.361 106.902C201.355 106.805 201.446 106.723 201.635 106.658C202.182 106.469 202.549 106.219 202.738 105.906C202.934 105.587 203.031 105.076 203.031 104.373V97.7324C203.031 96.6061 202.852 95.7207 202.494 95.0762C202.136 94.4251 201.618 94.054 200.941 93.9629C200.766 93.9368 200.678 93.862 200.678 93.7383C200.678 93.6146 200.749 93.5527 200.893 93.5527C200.925 93.5527 200.977 93.556 201.049 93.5625L201.449 93.5723L202.104 93.5918L202.26 93.582C202.416 93.5755 202.536 93.5723 202.621 93.5723C202.784 93.5723 202.947 93.6667 203.109 93.8555L212.094 104.031C212.237 104.194 212.328 104.272 212.367 104.266C212.432 104.259 212.468 104.197 212.475 104.08V99.2461L212.484 97.9277L212.367 95.6816C212.302 95.1283 212.139 94.7376 211.879 94.5098C211.625 94.2754 211.163 94.1029 210.492 93.9922C210.303 93.9596 210.209 93.8783 210.209 93.748C210.209 93.6243 210.303 93.5625 210.492 93.5625C210.577 93.5625 210.714 93.5723 210.902 93.5918C211.352 93.6439 211.954 93.6699 212.709 93.6699C213.113 93.6699 213.435 93.6504 213.676 93.6113C213.884 93.5723 214.044 93.5527 214.154 93.5527C214.324 93.5527 214.415 93.6211 214.428 93.7578C214.434 93.8424 214.369 93.9043 214.232 93.9434C213.835 94.041 213.572 94.2038 213.441 94.4316C213.318 94.6595 213.256 95.0859 213.256 95.7109V96.7656L213.236 97.4102ZM228.109 101.385V96.3262C228.109 95.5124 227.992 94.9232 227.758 94.5586C227.523 94.1875 227.126 93.9759 226.566 93.9238C226.378 93.9043 226.283 93.8327 226.283 93.709C226.283 93.5658 226.348 93.4974 226.479 93.5039C226.622 93.5104 226.83 93.5365 227.104 93.582C227.351 93.6211 227.647 93.6406 227.992 93.6406C228.721 93.6406 229.171 93.6309 229.34 93.6113C229.568 93.5918 229.711 93.582 229.77 93.582C229.893 93.582 229.955 93.6406 229.955 93.7578C229.955 93.8555 229.887 93.9336 229.75 93.9922C229.353 94.1549 229.096 94.3828 228.979 94.6758C228.861 94.9688 228.803 95.5221 228.803 96.3359V101.17C228.803 102.947 228.448 104.314 227.738 105.271C227.289 105.877 226.645 106.362 225.805 106.727C224.971 107.085 224.079 107.264 223.129 107.264C222.022 107.264 221.026 107.049 220.141 106.619C219.255 106.189 218.607 105.607 218.197 104.871C217.735 104.025 217.504 102.921 217.504 101.561V96.5996L217.484 96.043C217.484 95.3464 217.387 94.8678 217.191 94.6074C217.003 94.3405 216.618 94.1647 216.039 94.0801C215.863 94.054 215.775 93.9857 215.775 93.875C215.775 93.7188 215.899 93.6406 216.146 93.6406C216.309 93.6406 216.534 93.6471 216.82 93.6602C217.12 93.6797 217.338 93.6895 217.475 93.6895L218.227 93.6797H218.969C219.047 93.6797 219.229 93.6667 219.516 93.6406C219.757 93.6211 219.923 93.6113 220.014 93.6113C220.163 93.6113 220.238 93.6634 220.238 93.7676C220.238 93.8913 220.134 93.9727 219.926 94.0117C219.548 94.0964 219.294 94.2624 219.164 94.5098C219.04 94.7507 218.979 95.1868 218.979 95.8184L218.998 96.4629V101.385C218.998 103.064 219.258 104.262 219.779 104.979C220.515 105.994 221.749 106.502 223.48 106.502C225.03 106.502 226.189 106.079 226.957 105.232C227.725 104.38 228.109 103.097 228.109 101.385ZM234.906 95.2031V99.1289C234.906 99.4284 234.932 99.6107 234.984 99.6758C235.043 99.7344 235.212 99.7637 235.492 99.7637H236.996C237.68 99.7637 238.22 99.7246 238.617 99.6465C238.969 99.5749 239.197 99.4805 239.301 99.3633C239.405 99.2461 239.499 98.9727 239.584 98.543C239.617 98.3802 239.698 98.3021 239.828 98.3086C239.952 98.3151 240.014 98.403 240.014 98.5723C240.014 98.6178 240.01 98.6895 240.004 98.7871C239.952 99.4186 239.926 99.9948 239.926 100.516C239.926 100.913 239.945 101.307 239.984 101.697C239.997 101.827 240.004 101.922 240.004 101.98C240.004 102.143 239.942 102.225 239.818 102.225C239.682 102.225 239.6 102.153 239.574 102.01L239.516 101.736C239.438 101.3 239.281 101.004 239.047 100.848C238.812 100.691 238.415 100.613 237.855 100.613H235.697C235.378 100.613 235.163 100.646 235.053 100.711C234.949 100.776 234.896 100.906 234.896 101.102L234.906 101.424V105.018C234.906 105.571 235.004 105.916 235.199 106.053C235.401 106.189 235.906 106.258 236.713 106.258C239.271 106.258 240.915 105.682 241.645 104.529C241.716 104.419 241.788 104.36 241.859 104.354C241.977 104.347 242.035 104.432 242.035 104.607C242.035 105.031 241.798 105.535 241.322 106.121C240.749 106.824 240.027 107.176 239.154 107.176C238.965 107.176 238.712 107.163 238.393 107.137C237.149 107.02 236.12 106.961 235.307 106.961C234.167 106.961 233.363 107 232.895 107.078C232.647 107.124 232.478 107.146 232.387 107.146C232.178 107.146 232.074 107.075 232.074 106.932C232.074 106.821 232.159 106.743 232.328 106.697L232.699 106.59C233.168 106.46 233.402 106.004 233.402 105.223L233.412 104.588V96.3359C233.412 95.4049 233.308 94.7799 233.1 94.4609C232.898 94.1354 232.501 93.9727 231.908 93.9727C231.719 93.9727 231.625 93.9108 231.625 93.7871C231.625 93.6048 231.771 93.5137 232.064 93.5137C232.227 93.5137 232.445 93.5299 232.719 93.5625C233.65 93.6667 234.77 93.7188 236.078 93.7188C236.872 93.7188 237.576 93.7057 238.188 93.6797L239.574 93.6113C239.958 93.5983 240.193 93.5853 240.277 93.5723C240.453 93.5462 240.583 93.5332 240.668 93.5332C240.883 93.5332 240.99 93.6276 240.99 93.8164C240.99 93.875 240.98 93.9499 240.961 94.041C240.941 94.1322 240.915 94.3926 240.883 94.8223L240.844 95.3984C240.811 95.776 240.779 96.0137 240.746 96.1113C240.714 96.2025 240.642 96.2513 240.531 96.2578C240.408 96.2643 240.346 96.1667 240.346 95.9648V95.7109C240.346 95.5026 240.307 95.304 240.229 95.1152C240.105 94.8223 239.854 94.627 239.477 94.5293C239.099 94.4316 238.406 94.3828 237.396 94.3828H235.863C235.46 94.3828 235.199 94.4349 235.082 94.5391C234.965 94.6367 234.906 94.8581 234.906 95.2031ZM247.68 93.4062C248.376 93.4062 248.965 93.5072 249.447 93.709L250.121 93.9922C250.18 94.0182 250.238 94.0312 250.297 94.0312C250.375 94.0312 250.453 93.9987 250.531 93.9336L250.668 93.8164C250.688 93.7904 250.723 93.7773 250.775 93.7773C250.938 93.7708 251.02 93.9303 251.02 94.2559C251.02 94.3665 251.062 94.6953 251.146 95.2422L251.303 96.248C251.335 96.4629 251.352 96.5964 251.352 96.6484C251.352 96.8503 251.283 96.9512 251.146 96.9512C251.042 96.9512 250.938 96.7949 250.834 96.4824C250.6 95.7793 250.121 95.1999 249.398 94.7441C248.682 94.2884 247.882 94.0605 246.996 94.0605C246.293 94.0605 245.704 94.2689 245.229 94.6855C244.76 95.0957 244.525 95.61 244.525 96.2285C244.525 96.7754 244.678 97.2474 244.984 97.6445C245.251 97.9831 245.541 98.2305 245.854 98.3867C246.173 98.543 246.951 98.8262 248.188 99.2363C250.596 100.024 251.801 101.316 251.801 103.113C251.801 104.331 251.358 105.327 250.473 106.102C249.587 106.876 248.451 107.264 247.064 107.264C246.563 107.264 246.01 107.192 245.404 107.049C244.805 106.906 244.366 106.74 244.086 106.551C243.969 106.473 243.891 106.391 243.852 106.307C243.812 106.215 243.754 105.988 243.676 105.623C243.663 105.571 243.581 105.275 243.432 104.734C243.262 104.148 243.178 103.732 243.178 103.484C243.178 103.289 243.243 103.195 243.373 103.201C243.49 103.208 243.594 103.367 243.686 103.68C243.92 104.487 244.415 105.164 245.17 105.711C245.925 106.258 246.745 106.531 247.631 106.531C248.529 106.531 249.288 106.268 249.906 105.74C250.531 105.213 250.844 104.572 250.844 103.816C250.844 103.094 250.557 102.485 249.984 101.99C249.691 101.736 248.845 101.375 247.445 100.906C246 100.418 244.975 99.8776 244.369 99.2852C243.77 98.6927 243.471 97.9245 243.471 96.9805C243.471 95.9258 243.861 95.0664 244.643 94.4023C245.43 93.7383 246.443 93.4062 247.68 93.4062ZM262.982 94.6953H260.238C259.952 94.6953 259.77 94.7344 259.691 94.8125C259.62 94.8906 259.584 95.0827 259.584 95.3887V104.959L259.594 105.34C259.626 106.102 260.053 106.554 260.873 106.697C261.101 106.736 261.215 106.811 261.215 106.922C261.215 107.065 261.124 107.137 260.941 107.137C260.863 107.137 260.704 107.117 260.463 107.078C260.339 107.059 260.046 107.049 259.584 107.049L258.871 107.039L258.109 107.049C257.836 107.049 257.605 107.059 257.416 107.078C257.045 107.117 256.827 107.137 256.762 107.137C256.566 107.137 256.469 107.065 256.469 106.922C256.469 106.818 256.576 106.753 256.791 106.727C257.292 106.661 257.631 106.525 257.807 106.316C257.982 106.102 258.07 105.721 258.07 105.174V95.4961L258.061 95.2422C258.061 95.0078 258.025 94.8581 257.953 94.793C257.888 94.7279 257.732 94.6953 257.484 94.6953H254.896C254.369 94.6953 253.985 94.8027 253.744 95.0176C253.51 95.2259 253.327 95.623 253.197 96.209C253.139 96.4629 253.051 96.5866 252.934 96.5801C252.816 96.5736 252.758 96.4857 252.758 96.3164C252.758 96.1797 252.797 95.929 252.875 95.5645C252.973 95.0957 253.021 94.7083 253.021 94.4023C253.021 94.1029 253.054 93.9076 253.119 93.8164C253.191 93.7188 253.337 93.6699 253.559 93.6699H264.066C264.424 93.6699 264.639 93.709 264.711 93.7871C264.789 93.8652 264.828 94.0964 264.828 94.4805C264.828 94.8646 264.844 95.1445 264.877 95.3203C264.91 95.5417 264.929 95.7012 264.936 95.7988C264.942 95.9941 264.874 96.0983 264.73 96.1113C264.613 96.1178 264.535 96.0169 264.496 95.8086C264.411 95.3464 264.275 95.0469 264.086 94.9102C263.897 94.7669 263.529 94.6953 262.982 94.6953ZM272.514 100.301L275.209 104.285L275.521 104.754C276.355 105.978 277.123 106.613 277.826 106.658L278.139 106.678C278.256 106.684 278.311 106.73 278.305 106.814C278.298 106.912 278.152 107 277.865 107.078C277.585 107.156 277.266 107.195 276.908 107.195C276.322 107.195 275.795 107.036 275.326 106.717C274.864 106.391 274.392 105.864 273.91 105.135L271.479 101.424L271.342 101.209C271.186 100.942 270.932 100.809 270.58 100.809H269.281L269.066 100.848C268.988 100.893 268.949 100.997 268.949 101.16V104.207L268.959 104.598C268.959 105.158 268.985 105.542 269.037 105.75C269.096 105.952 269.229 106.134 269.438 106.297C269.717 106.518 270.15 106.658 270.736 106.717C270.971 106.743 271.091 106.818 271.098 106.941C271.111 107.072 271.003 107.137 270.775 107.137C270.684 107.137 270.492 107.124 270.199 107.098C269.932 107.072 269.519 107.059 268.959 107.059L268.021 107.049L267.514 107.059C267.292 107.059 267.025 107.075 266.713 107.107C266.459 107.133 266.283 107.146 266.186 107.146C266.023 107.146 265.941 107.078 265.941 106.941C265.941 106.844 266.023 106.779 266.186 106.746C266.706 106.648 267.048 106.414 267.211 106.043C267.374 105.665 267.455 104.926 267.455 103.826V96.8145L267.436 95.7988C267.436 94.7832 267.081 94.2168 266.371 94.0996L265.912 94.0312C265.704 93.9922 265.6 93.9141 265.6 93.7969C265.6 93.6602 265.71 93.5918 265.932 93.5918C265.984 93.5918 266.212 93.6048 266.615 93.6309C266.85 93.6504 267.139 93.6602 267.484 93.6602C267.784 93.6602 268.295 93.6374 269.018 93.5918C269.538 93.5592 269.997 93.543 270.395 93.543C271.892 93.543 273.021 93.8262 273.783 94.3926C274.545 94.9525 274.926 95.7891 274.926 96.9023C274.926 98.3672 274.122 99.5 272.514 100.301ZM269.643 100.086H270.746C271.599 100.086 272.27 99.8516 272.758 99.3828C273.246 98.9141 273.49 98.2728 273.49 97.459C273.49 96.515 273.158 95.7402 272.494 95.1348C271.83 94.5228 270.984 94.2168 269.955 94.2168C269.571 94.2168 269.304 94.2819 269.154 94.4121C269.011 94.5358 268.939 94.7637 268.939 95.0957L268.949 95.418V99.3828C268.949 99.6888 268.988 99.8841 269.066 99.9688C269.151 100.047 269.343 100.086 269.643 100.086ZM286.068 101.893H282.533C282.051 101.893 281.752 101.932 281.635 102.01C281.518 102.088 281.361 102.348 281.166 102.791L280.531 104.227C280.245 104.884 280.102 105.372 280.102 105.691C280.102 105.997 280.176 106.219 280.326 106.355C280.482 106.492 280.785 106.609 281.234 106.707C281.43 106.746 281.531 106.824 281.537 106.941C281.544 107.052 281.452 107.107 281.264 107.107C281.192 107.107 281.081 107.104 280.932 107.098L279.994 107.049C279.682 107.036 279.32 107.029 278.91 107.029C278.721 107.029 278.575 107.033 278.471 107.039C278.139 107.065 277.956 107.078 277.924 107.078C277.748 107.078 277.66 107.02 277.66 106.902C277.66 106.798 277.715 106.73 277.826 106.697L278.188 106.59C278.318 106.551 278.493 106.395 278.715 106.121C278.936 105.841 279.118 105.551 279.262 105.252L279.545 104.607L284.564 93.4648C284.649 93.2695 284.743 93.1719 284.848 93.1719C284.952 93.1719 285.04 93.2663 285.111 93.4551L289.311 104.197L289.525 104.725C289.831 105.512 290.085 106.004 290.287 106.199C290.489 106.388 290.899 106.538 291.518 106.648C291.719 106.688 291.817 106.769 291.811 106.893C291.804 107.003 291.713 107.059 291.537 107.059C291.479 107.059 291.355 107.052 291.166 107.039C290.827 107.007 290.225 106.99 289.359 106.99C288.454 106.99 287.888 107.01 287.66 107.049C287.523 107.075 287.423 107.088 287.357 107.088C287.188 107.088 287.104 107.02 287.104 106.883C287.104 106.779 287.185 106.71 287.348 106.678L287.65 106.609C287.976 106.544 288.139 106.323 288.139 105.945C288.139 105.6 287.94 104.913 287.543 103.885L287.055 102.596C286.918 102.238 286.811 102.033 286.732 101.98C286.654 101.922 286.433 101.893 286.068 101.893ZM286.186 100.33L284.652 96.4629L284.574 96.2578C284.496 96.0495 284.411 95.9421 284.32 95.9355C284.275 95.929 284.223 95.9909 284.164 96.1211L282.26 100.35C282.175 100.532 282.133 100.652 282.133 100.711C282.133 100.88 282.283 100.965 282.582 100.965L282.846 100.975H285.795C286.12 100.975 286.283 100.893 286.283 100.73C286.283 100.685 286.267 100.61 286.234 100.506L286.186 100.33ZM296.508 93.4062C297.204 93.4062 297.794 93.5072 298.275 93.709L298.949 93.9922C299.008 94.0182 299.066 94.0312 299.125 94.0312C299.203 94.0312 299.281 93.9987 299.359 93.9336L299.496 93.8164C299.516 93.7904 299.551 93.7773 299.604 93.7773C299.766 93.7708 299.848 93.9303 299.848 94.2559C299.848 94.3665 299.89 94.6953 299.975 95.2422L300.131 96.248C300.163 96.4629 300.18 96.5964 300.18 96.6484C300.18 96.8503 300.111 96.9512 299.975 96.9512C299.87 96.9512 299.766 96.7949 299.662 96.4824C299.428 95.7793 298.949 95.1999 298.227 94.7441C297.51 94.2884 296.71 94.0605 295.824 94.0605C295.121 94.0605 294.532 94.2689 294.057 94.6855C293.588 95.0957 293.354 95.61 293.354 96.2285C293.354 96.7754 293.507 97.2474 293.812 97.6445C294.079 97.9831 294.369 98.2305 294.682 98.3867C295.001 98.543 295.779 98.8262 297.016 99.2363C299.424 100.024 300.629 101.316 300.629 103.113C300.629 104.331 300.186 105.327 299.301 106.102C298.415 106.876 297.279 107.264 295.893 107.264C295.391 107.264 294.838 107.192 294.232 107.049C293.633 106.906 293.194 106.74 292.914 106.551C292.797 106.473 292.719 106.391 292.68 106.307C292.641 106.215 292.582 105.988 292.504 105.623C292.491 105.571 292.41 105.275 292.26 104.734C292.09 104.148 292.006 103.732 292.006 103.484C292.006 103.289 292.071 103.195 292.201 103.201C292.318 103.208 292.423 103.367 292.514 103.68C292.748 104.487 293.243 105.164 293.998 105.711C294.753 106.258 295.574 106.531 296.459 106.531C297.357 106.531 298.116 106.268 298.734 105.74C299.359 105.213 299.672 104.572 299.672 103.816C299.672 103.094 299.385 102.485 298.812 101.99C298.52 101.736 297.673 101.375 296.273 100.906C294.828 100.418 293.803 99.8776 293.197 99.2852C292.598 98.6927 292.299 97.9245 292.299 96.9805C292.299 95.9258 292.689 95.0664 293.471 94.4023C294.258 93.7383 295.271 93.4062 296.508 93.4062ZM178.773 128.521V135.826C178.773 136.738 178.829 137.34 178.939 137.633C179.07 137.965 179.229 138.199 179.418 138.336C179.613 138.473 179.916 138.57 180.326 138.629C180.652 138.674 180.814 138.756 180.814 138.873C180.814 139.029 180.714 139.107 180.512 139.107C180.414 139.107 180.29 139.098 180.141 139.078C179.939 139.052 179.594 139.039 179.105 139.039L177.689 139.02L176.537 139.088C176.348 139.107 176.192 139.117 176.068 139.117C175.893 139.117 175.805 139.049 175.805 138.912C175.805 138.795 175.906 138.72 176.107 138.688C176.602 138.603 176.921 138.434 177.064 138.18C177.208 137.919 177.279 137.376 177.279 136.549V128.189C177.279 127.382 177.185 126.839 176.996 126.559C176.814 126.279 176.42 126.09 175.814 125.992C175.613 125.953 175.508 125.875 175.502 125.758C175.495 125.615 175.59 125.543 175.785 125.543C175.837 125.543 175.896 125.546 175.961 125.553C176.436 125.605 177.068 125.631 177.855 125.631C178.337 125.631 178.751 125.621 179.096 125.602L179.75 125.553C179.874 125.546 179.955 125.543 179.994 125.543C180.17 125.543 180.258 125.605 180.258 125.729C180.258 125.846 180.173 125.934 180.004 125.992L179.496 126.188C179.014 126.37 178.773 127.148 178.773 128.521ZM193.969 129.41V137.594C193.969 138.329 193.952 138.779 193.92 138.941C193.887 139.098 193.796 139.173 193.646 139.166C193.549 139.16 193.474 139.13 193.422 139.078L193.207 138.824L184.975 129.41L184.877 129.303C184.838 129.264 184.792 129.244 184.74 129.244C184.617 129.244 184.555 129.391 184.555 129.684V136.305L184.545 136.715L184.574 137.408C184.62 137.838 184.73 138.134 184.906 138.297C185.082 138.46 185.427 138.58 185.941 138.658C186.156 138.684 186.264 138.769 186.264 138.912C186.264 139.042 186.195 139.107 186.059 139.107C185.967 139.107 185.87 139.101 185.766 139.088C185.694 139.075 185.411 139.055 184.916 139.029L183.92 138.98L183.451 139C183.197 139 182.956 139.016 182.729 139.049C182.559 139.075 182.439 139.088 182.367 139.088C182.198 139.088 182.107 139.026 182.094 138.902C182.087 138.805 182.178 138.723 182.367 138.658C182.914 138.469 183.282 138.219 183.471 137.906C183.666 137.587 183.764 137.076 183.764 136.373V129.732C183.764 128.606 183.585 127.721 183.227 127.076C182.868 126.425 182.351 126.054 181.674 125.963C181.498 125.937 181.41 125.862 181.41 125.738C181.41 125.615 181.482 125.553 181.625 125.553C181.658 125.553 181.71 125.556 181.781 125.562L182.182 125.572L182.836 125.592L182.992 125.582C183.148 125.576 183.269 125.572 183.354 125.572C183.516 125.572 183.679 125.667 183.842 125.855L192.826 136.031C192.969 136.194 193.061 136.272 193.1 136.266C193.165 136.259 193.201 136.197 193.207 136.08V131.246L193.217 129.928L193.1 127.682C193.035 127.128 192.872 126.738 192.611 126.51C192.357 126.275 191.895 126.103 191.225 125.992C191.036 125.96 190.941 125.878 190.941 125.748C190.941 125.624 191.036 125.562 191.225 125.562C191.309 125.562 191.446 125.572 191.635 125.592C192.084 125.644 192.686 125.67 193.441 125.67C193.845 125.67 194.167 125.65 194.408 125.611C194.617 125.572 194.776 125.553 194.887 125.553C195.056 125.553 195.147 125.621 195.16 125.758C195.167 125.842 195.102 125.904 194.965 125.943C194.568 126.041 194.304 126.204 194.174 126.432C194.05 126.66 193.988 127.086 193.988 127.711V128.766L193.969 129.41ZM201.205 125.406C201.902 125.406 202.491 125.507 202.973 125.709L203.646 125.992C203.705 126.018 203.764 126.031 203.822 126.031C203.9 126.031 203.979 125.999 204.057 125.934L204.193 125.816C204.213 125.79 204.249 125.777 204.301 125.777C204.464 125.771 204.545 125.93 204.545 126.256C204.545 126.367 204.587 126.695 204.672 127.242L204.828 128.248C204.861 128.463 204.877 128.596 204.877 128.648C204.877 128.85 204.809 128.951 204.672 128.951C204.568 128.951 204.464 128.795 204.359 128.482C204.125 127.779 203.646 127.2 202.924 126.744C202.208 126.288 201.407 126.061 200.521 126.061C199.818 126.061 199.229 126.269 198.754 126.686C198.285 127.096 198.051 127.61 198.051 128.229C198.051 128.775 198.204 129.247 198.51 129.645C198.777 129.983 199.066 130.23 199.379 130.387C199.698 130.543 200.476 130.826 201.713 131.236C204.122 132.024 205.326 133.316 205.326 135.113C205.326 136.331 204.883 137.327 203.998 138.102C203.113 138.876 201.977 139.264 200.59 139.264C200.089 139.264 199.535 139.192 198.93 139.049C198.331 138.906 197.891 138.74 197.611 138.551C197.494 138.473 197.416 138.391 197.377 138.307C197.338 138.215 197.279 137.988 197.201 137.623C197.188 137.571 197.107 137.275 196.957 136.734C196.788 136.148 196.703 135.732 196.703 135.484C196.703 135.289 196.768 135.195 196.898 135.201C197.016 135.208 197.12 135.367 197.211 135.68C197.445 136.487 197.94 137.164 198.695 137.711C199.451 138.258 200.271 138.531 201.156 138.531C202.055 138.531 202.813 138.268 203.432 137.74C204.057 137.213 204.369 136.572 204.369 135.816C204.369 135.094 204.083 134.485 203.51 133.99C203.217 133.736 202.37 133.375 200.971 132.906C199.525 132.418 198.5 131.878 197.895 131.285C197.296 130.693 196.996 129.924 196.996 128.98C196.996 127.926 197.387 127.066 198.168 126.402C198.956 125.738 199.968 125.406 201.205 125.406ZM216.508 126.695H213.764C213.477 126.695 213.295 126.734 213.217 126.812C213.145 126.891 213.109 127.083 213.109 127.389V136.959L213.119 137.34C213.152 138.102 213.578 138.554 214.398 138.697C214.626 138.736 214.74 138.811 214.74 138.922C214.74 139.065 214.649 139.137 214.467 139.137C214.389 139.137 214.229 139.117 213.988 139.078C213.865 139.059 213.572 139.049 213.109 139.049L212.396 139.039L211.635 139.049C211.361 139.049 211.13 139.059 210.941 139.078C210.57 139.117 210.352 139.137 210.287 139.137C210.092 139.137 209.994 139.065 209.994 138.922C209.994 138.818 210.102 138.753 210.316 138.727C210.818 138.661 211.156 138.525 211.332 138.316C211.508 138.102 211.596 137.721 211.596 137.174V127.496L211.586 127.242C211.586 127.008 211.55 126.858 211.479 126.793C211.413 126.728 211.257 126.695 211.01 126.695H208.422C207.895 126.695 207.51 126.803 207.27 127.018C207.035 127.226 206.853 127.623 206.723 128.209C206.664 128.463 206.576 128.587 206.459 128.58C206.342 128.574 206.283 128.486 206.283 128.316C206.283 128.18 206.322 127.929 206.4 127.564C206.498 127.096 206.547 126.708 206.547 126.402C206.547 126.103 206.579 125.908 206.645 125.816C206.716 125.719 206.863 125.67 207.084 125.67H217.592C217.95 125.67 218.165 125.709 218.236 125.787C218.314 125.865 218.354 126.096 218.354 126.48C218.354 126.865 218.37 127.145 218.402 127.32C218.435 127.542 218.454 127.701 218.461 127.799C218.467 127.994 218.399 128.098 218.256 128.111C218.139 128.118 218.061 128.017 218.021 127.809C217.937 127.346 217.8 127.047 217.611 126.91C217.423 126.767 217.055 126.695 216.508 126.695ZM225.609 133.893H222.074C221.592 133.893 221.293 133.932 221.176 134.01C221.059 134.088 220.902 134.348 220.707 134.791L220.072 136.227C219.786 136.884 219.643 137.372 219.643 137.691C219.643 137.997 219.717 138.219 219.867 138.355C220.023 138.492 220.326 138.609 220.775 138.707C220.971 138.746 221.072 138.824 221.078 138.941C221.085 139.052 220.993 139.107 220.805 139.107C220.733 139.107 220.622 139.104 220.473 139.098L219.535 139.049C219.223 139.036 218.861 139.029 218.451 139.029C218.262 139.029 218.116 139.033 218.012 139.039C217.68 139.065 217.497 139.078 217.465 139.078C217.289 139.078 217.201 139.02 217.201 138.902C217.201 138.798 217.257 138.73 217.367 138.697L217.729 138.59C217.859 138.551 218.035 138.395 218.256 138.121C218.477 137.841 218.66 137.551 218.803 137.252L219.086 136.607L224.105 125.465C224.19 125.27 224.285 125.172 224.389 125.172C224.493 125.172 224.581 125.266 224.652 125.455L228.852 136.197L229.066 136.725C229.372 137.512 229.626 138.004 229.828 138.199C230.03 138.388 230.44 138.538 231.059 138.648C231.26 138.688 231.358 138.769 231.352 138.893C231.345 139.003 231.254 139.059 231.078 139.059C231.02 139.059 230.896 139.052 230.707 139.039C230.368 139.007 229.766 138.99 228.9 138.99C227.995 138.99 227.429 139.01 227.201 139.049C227.064 139.075 226.964 139.088 226.898 139.088C226.729 139.088 226.645 139.02 226.645 138.883C226.645 138.779 226.726 138.71 226.889 138.678L227.191 138.609C227.517 138.544 227.68 138.323 227.68 137.945C227.68 137.6 227.481 136.913 227.084 135.885L226.596 134.596C226.459 134.238 226.352 134.033 226.273 133.98C226.195 133.922 225.974 133.893 225.609 133.893ZM225.727 132.33L224.193 128.463L224.115 128.258C224.037 128.049 223.952 127.942 223.861 127.936C223.816 127.929 223.764 127.991 223.705 128.121L221.801 132.35C221.716 132.532 221.674 132.652 221.674 132.711C221.674 132.88 221.824 132.965 222.123 132.965L222.387 132.975H225.336C225.661 132.975 225.824 132.893 225.824 132.73C225.824 132.685 225.808 132.61 225.775 132.506L225.727 132.33ZM234.975 136.363L234.984 136.705C234.984 137.486 235.059 137.949 235.209 138.092C235.359 138.235 235.847 138.307 236.674 138.307C237.891 138.307 238.946 138.163 239.838 137.877C240.736 137.584 241.309 137.2 241.557 136.725C241.648 136.549 241.739 136.461 241.83 136.461C241.934 136.461 241.983 136.526 241.977 136.656C241.951 137.086 241.739 137.558 241.342 138.072C240.782 138.782 239.874 139.137 238.617 139.137C238.409 139.137 238.168 139.127 237.895 139.107L236.84 139.029C236.221 138.984 235.567 138.961 234.877 138.961C234.076 138.961 233.406 139 232.865 139.078C232.637 139.111 232.455 139.13 232.318 139.137C232.156 139.143 232.074 139.085 232.074 138.961C232.074 138.857 232.162 138.779 232.338 138.727C232.787 138.59 233.087 138.391 233.236 138.131C233.393 137.864 233.471 137.418 233.471 136.793L233.48 136.344V127.613C233.48 126.747 233.129 126.243 232.426 126.1L231.986 126.012C231.83 125.979 231.752 125.914 231.752 125.816C231.752 125.667 231.863 125.592 232.084 125.592C232.234 125.592 232.439 125.605 232.699 125.631C233.142 125.67 233.64 125.689 234.193 125.689C234.792 125.689 235.336 125.673 235.824 125.641C236.072 125.628 236.212 125.621 236.244 125.621C236.4 125.621 236.479 125.67 236.479 125.768C236.479 125.911 236.384 126.005 236.195 126.051L235.854 126.129C235.268 126.272 234.975 126.855 234.975 127.877V136.363ZM249.867 133.893H246.332C245.85 133.893 245.551 133.932 245.434 134.01C245.316 134.088 245.16 134.348 244.965 134.791L244.33 136.227C244.044 136.884 243.9 137.372 243.9 137.691C243.9 137.997 243.975 138.219 244.125 138.355C244.281 138.492 244.584 138.609 245.033 138.707C245.229 138.746 245.329 138.824 245.336 138.941C245.342 139.052 245.251 139.107 245.062 139.107C244.991 139.107 244.88 139.104 244.73 139.098L243.793 139.049C243.48 139.036 243.119 139.029 242.709 139.029C242.52 139.029 242.374 139.033 242.27 139.039C241.938 139.065 241.755 139.078 241.723 139.078C241.547 139.078 241.459 139.02 241.459 138.902C241.459 138.798 241.514 138.73 241.625 138.697L241.986 138.59C242.117 138.551 242.292 138.395 242.514 138.121C242.735 137.841 242.917 137.551 243.061 137.252L243.344 136.607L248.363 125.465C248.448 125.27 248.542 125.172 248.646 125.172C248.751 125.172 248.839 125.266 248.91 125.455L253.109 136.197L253.324 136.725C253.63 137.512 253.884 138.004 254.086 138.199C254.288 138.388 254.698 138.538 255.316 138.648C255.518 138.688 255.616 138.769 255.609 138.893C255.603 139.003 255.512 139.059 255.336 139.059C255.277 139.059 255.154 139.052 254.965 139.039C254.626 139.007 254.024 138.99 253.158 138.99C252.253 138.99 251.687 139.01 251.459 139.049C251.322 139.075 251.221 139.088 251.156 139.088C250.987 139.088 250.902 139.02 250.902 138.883C250.902 138.779 250.984 138.71 251.146 138.678L251.449 138.609C251.775 138.544 251.938 138.323 251.938 137.945C251.938 137.6 251.739 136.913 251.342 135.885L250.854 134.596C250.717 134.238 250.609 134.033 250.531 133.98C250.453 133.922 250.232 133.893 249.867 133.893ZM249.984 132.33L248.451 128.463L248.373 128.258C248.295 128.049 248.21 127.942 248.119 127.936C248.074 127.929 248.021 127.991 247.963 128.121L246.059 132.35C245.974 132.532 245.932 132.652 245.932 132.711C245.932 132.88 246.081 132.965 246.381 132.965L246.645 132.975H249.594C249.919 132.975 250.082 132.893 250.082 132.73C250.082 132.685 250.066 132.61 250.033 132.506L249.984 132.33ZM267.23 126.803L267.543 129.146L267.572 129.391L267.543 129.488C267.51 129.547 267.462 129.579 267.396 129.586C267.318 129.592 267.201 129.456 267.045 129.176C265.827 127.04 264.177 125.973 262.094 125.973C260.434 125.973 259.125 126.484 258.168 127.506C257.211 128.528 256.732 129.924 256.732 131.695C256.732 133.733 257.263 135.4 258.324 136.695C259.392 137.984 260.762 138.629 262.436 138.629C263.412 138.629 264.372 138.368 265.316 137.848C266.26 137.327 266.915 136.695 267.279 135.953C267.449 135.608 267.579 135.432 267.67 135.426C267.774 135.419 267.826 135.481 267.826 135.611L267.816 135.719L267.777 135.934L267.553 137.125L267.514 137.301C267.488 137.47 267.335 137.646 267.055 137.828C265.551 138.785 263.894 139.264 262.084 139.264C259.988 139.264 258.298 138.642 257.016 137.398C255.733 136.155 255.092 134.518 255.092 132.486C255.092 130.455 255.756 128.769 257.084 127.428C258.412 126.08 260.079 125.406 262.084 125.406C263.458 125.406 264.721 125.715 265.873 126.334L266.264 126.539L266.42 126.607L266.586 126.666C266.618 126.666 266.667 126.64 266.732 126.588C266.876 126.484 266.973 126.432 267.025 126.432C267.13 126.432 267.198 126.555 267.23 126.803ZM272.523 128.521V135.826C272.523 136.738 272.579 137.34 272.689 137.633C272.82 137.965 272.979 138.199 273.168 138.336C273.363 138.473 273.666 138.57 274.076 138.629C274.402 138.674 274.564 138.756 274.564 138.873C274.564 139.029 274.464 139.107 274.262 139.107C274.164 139.107 274.04 139.098 273.891 139.078C273.689 139.052 273.344 139.039 272.855 139.039L271.439 139.02L270.287 139.088C270.098 139.107 269.942 139.117 269.818 139.117C269.643 139.117 269.555 139.049 269.555 138.912C269.555 138.795 269.656 138.72 269.857 138.688C270.352 138.603 270.671 138.434 270.814 138.18C270.958 137.919 271.029 137.376 271.029 136.549V128.189C271.029 127.382 270.935 126.839 270.746 126.559C270.564 126.279 270.17 126.09 269.564 125.992C269.363 125.953 269.258 125.875 269.252 125.758C269.245 125.615 269.34 125.543 269.535 125.543C269.587 125.543 269.646 125.546 269.711 125.553C270.186 125.605 270.818 125.631 271.605 125.631C272.087 125.631 272.501 125.621 272.846 125.602L273.5 125.553C273.624 125.546 273.705 125.543 273.744 125.543C273.92 125.543 274.008 125.605 274.008 125.729C274.008 125.846 273.923 125.934 273.754 125.992L273.246 126.188C272.764 126.37 272.523 127.148 272.523 128.521ZM282.953 125.406C284.991 125.406 286.661 126.038 287.963 127.301C289.271 128.557 289.926 130.169 289.926 132.135C289.926 134.218 289.268 135.927 287.953 137.262C286.638 138.596 284.955 139.264 282.904 139.264C280.801 139.264 279.099 138.626 277.797 137.35C276.501 136.074 275.854 134.4 275.854 132.33C275.854 131.432 276.023 130.543 276.361 129.664C276.706 128.779 277.169 128.04 277.748 127.447C278.36 126.822 279.135 126.327 280.072 125.963C281.01 125.592 281.97 125.406 282.953 125.406ZM282.318 126.041C280.808 126.041 279.607 126.552 278.715 127.574C277.829 128.59 277.387 129.96 277.387 131.686C277.387 133.658 277.953 135.322 279.086 136.676C280.225 138.03 281.622 138.707 283.275 138.707C284.786 138.707 286.033 138.157 287.016 137.057C287.999 135.95 288.49 134.55 288.49 132.857C288.49 130.911 287.901 129.29 286.723 127.994C285.544 126.692 284.076 126.041 282.318 126.041ZM303.402 129.41V137.594C303.402 138.329 303.386 138.779 303.354 138.941C303.321 139.098 303.23 139.173 303.08 139.166C302.982 139.16 302.908 139.13 302.855 139.078L302.641 138.824L294.408 129.41L294.311 129.303C294.271 129.264 294.226 129.244 294.174 129.244C294.05 129.244 293.988 129.391 293.988 129.684V136.305L293.979 136.715L294.008 137.408C294.053 137.838 294.164 138.134 294.34 138.297C294.516 138.46 294.861 138.58 295.375 138.658C295.59 138.684 295.697 138.769 295.697 138.912C295.697 139.042 295.629 139.107 295.492 139.107C295.401 139.107 295.303 139.101 295.199 139.088C295.128 139.075 294.844 139.055 294.35 139.029L293.354 138.98L292.885 139C292.631 139 292.39 139.016 292.162 139.049C291.993 139.075 291.872 139.088 291.801 139.088C291.632 139.088 291.54 139.026 291.527 138.902C291.521 138.805 291.612 138.723 291.801 138.658C292.348 138.469 292.715 138.219 292.904 137.906C293.1 137.587 293.197 137.076 293.197 136.373V129.732C293.197 128.606 293.018 127.721 292.66 127.076C292.302 126.425 291.785 126.054 291.107 125.963C290.932 125.937 290.844 125.862 290.844 125.738C290.844 125.615 290.915 125.553 291.059 125.553C291.091 125.553 291.143 125.556 291.215 125.562L291.615 125.572L292.27 125.592L292.426 125.582C292.582 125.576 292.702 125.572 292.787 125.572C292.95 125.572 293.113 125.667 293.275 125.855L302.26 136.031C302.403 136.194 302.494 136.272 302.533 136.266C302.598 136.259 302.634 136.197 302.641 136.08V131.246L302.65 129.928L302.533 127.682C302.468 127.128 302.305 126.738 302.045 126.51C301.791 126.275 301.329 126.103 300.658 125.992C300.469 125.96 300.375 125.878 300.375 125.748C300.375 125.624 300.469 125.562 300.658 125.562C300.743 125.562 300.88 125.572 301.068 125.592C301.518 125.644 302.12 125.67 302.875 125.67C303.279 125.67 303.601 125.65 303.842 125.611C304.05 125.572 304.21 125.553 304.32 125.553C304.49 125.553 304.581 125.621 304.594 125.758C304.6 125.842 304.535 125.904 304.398 125.943C304.001 126.041 303.738 126.204 303.607 126.432C303.484 126.66 303.422 127.086 303.422 127.711V128.766L303.402 129.41ZM309.564 127.203V131.129C309.564 131.428 309.59 131.611 309.643 131.676C309.701 131.734 309.87 131.764 310.15 131.764H311.654C312.338 131.764 312.878 131.725 313.275 131.646C313.627 131.575 313.855 131.48 313.959 131.363C314.063 131.246 314.158 130.973 314.242 130.543C314.275 130.38 314.356 130.302 314.486 130.309C314.61 130.315 314.672 130.403 314.672 130.572C314.672 130.618 314.669 130.689 314.662 130.787C314.61 131.419 314.584 131.995 314.584 132.516C314.584 132.913 314.604 133.307 314.643 133.697C314.656 133.827 314.662 133.922 314.662 133.98C314.662 134.143 314.6 134.225 314.477 134.225C314.34 134.225 314.258 134.153 314.232 134.01L314.174 133.736C314.096 133.3 313.939 133.004 313.705 132.848C313.471 132.691 313.074 132.613 312.514 132.613H310.355C310.036 132.613 309.822 132.646 309.711 132.711C309.607 132.776 309.555 132.906 309.555 133.102L309.564 133.424V137.018C309.564 137.571 309.662 137.916 309.857 138.053C310.059 138.189 310.564 138.258 311.371 138.258C313.93 138.258 315.574 137.682 316.303 136.529C316.374 136.419 316.446 136.36 316.518 136.354C316.635 136.347 316.693 136.432 316.693 136.607C316.693 137.031 316.456 137.535 315.98 138.121C315.408 138.824 314.685 139.176 313.812 139.176C313.624 139.176 313.37 139.163 313.051 139.137C311.807 139.02 310.779 138.961 309.965 138.961C308.826 138.961 308.021 139 307.553 139.078C307.305 139.124 307.136 139.146 307.045 139.146C306.837 139.146 306.732 139.075 306.732 138.932C306.732 138.821 306.817 138.743 306.986 138.697L307.357 138.59C307.826 138.46 308.061 138.004 308.061 137.223L308.07 136.588V128.336C308.07 127.405 307.966 126.78 307.758 126.461C307.556 126.135 307.159 125.973 306.566 125.973C306.378 125.973 306.283 125.911 306.283 125.787C306.283 125.605 306.43 125.514 306.723 125.514C306.885 125.514 307.104 125.53 307.377 125.562C308.308 125.667 309.428 125.719 310.736 125.719C311.531 125.719 312.234 125.706 312.846 125.68L314.232 125.611C314.617 125.598 314.851 125.585 314.936 125.572C315.111 125.546 315.242 125.533 315.326 125.533C315.541 125.533 315.648 125.628 315.648 125.816C315.648 125.875 315.639 125.95 315.619 126.041C315.6 126.132 315.574 126.393 315.541 126.822L315.502 127.398C315.469 127.776 315.437 128.014 315.404 128.111C315.372 128.202 315.3 128.251 315.189 128.258C315.066 128.264 315.004 128.167 315.004 127.965V127.711C315.004 127.503 314.965 127.304 314.887 127.115C314.763 126.822 314.512 126.627 314.135 126.529C313.757 126.432 313.064 126.383 312.055 126.383H310.521C310.118 126.383 309.857 126.435 309.74 126.539C309.623 126.637 309.564 126.858 309.564 127.203ZM322.338 125.406C323.035 125.406 323.624 125.507 324.105 125.709L324.779 125.992C324.838 126.018 324.896 126.031 324.955 126.031C325.033 126.031 325.111 125.999 325.189 125.934L325.326 125.816C325.346 125.79 325.382 125.777 325.434 125.777C325.596 125.771 325.678 125.93 325.678 126.256C325.678 126.367 325.72 126.695 325.805 127.242L325.961 128.248C325.993 128.463 326.01 128.596 326.01 128.648C326.01 128.85 325.941 128.951 325.805 128.951C325.701 128.951 325.596 128.795 325.492 128.482C325.258 127.779 324.779 127.2 324.057 126.744C323.34 126.288 322.54 126.061 321.654 126.061C320.951 126.061 320.362 126.269 319.887 126.686C319.418 127.096 319.184 127.61 319.184 128.229C319.184 128.775 319.337 129.247 319.643 129.645C319.91 129.983 320.199 130.23 320.512 130.387C320.831 130.543 321.609 130.826 322.846 131.236C325.255 132.024 326.459 133.316 326.459 135.113C326.459 136.331 326.016 137.327 325.131 138.102C324.245 138.876 323.109 139.264 321.723 139.264C321.221 139.264 320.668 139.192 320.062 139.049C319.464 138.906 319.024 138.74 318.744 138.551C318.627 138.473 318.549 138.391 318.51 138.307C318.471 138.215 318.412 137.988 318.334 137.623C318.321 137.571 318.24 137.275 318.09 136.734C317.921 136.148 317.836 135.732 317.836 135.484C317.836 135.289 317.901 135.195 318.031 135.201C318.148 135.208 318.253 135.367 318.344 135.68C318.578 136.487 319.073 137.164 319.828 137.711C320.583 138.258 321.404 138.531 322.289 138.531C323.188 138.531 323.946 138.268 324.564 137.74C325.189 137.213 325.502 136.572 325.502 135.816C325.502 135.094 325.215 134.485 324.643 133.99C324.35 133.736 323.503 133.375 322.104 132.906C320.658 132.418 319.633 131.878 319.027 131.285C318.428 130.693 318.129 129.924 318.129 128.98C318.129 127.926 318.52 127.066 319.301 126.402C320.089 125.738 321.101 125.406 322.338 125.406Z" fill="#244061"/>
</svg>
