<svg width="350" height="200" viewBox="0 0 350 200" fill="none" xmlns="http://www.w3.org/2000/svg">
<rect width="350" height="200" fill="#F2F1DC"/>
<path d="M179.061 51.2227V59.3672L179.051 60.3145L179.08 61.1348C179.152 61.9225 179.445 62.3815 179.959 62.5117C180.317 62.6094 180.587 62.6582 180.77 62.6582C180.965 62.6582 181.066 62.7168 181.072 62.834C181.085 63.0033 180.971 63.0879 180.73 63.0879C180.62 63.0879 180.402 63.0749 180.076 63.0488C179.868 63.0358 179.529 63.0293 179.061 63.0293L178.367 63.0098L177.605 63.0195C177.221 63.0195 176.932 63.0326 176.736 63.0586C176.482 63.0911 176.297 63.1074 176.18 63.1074C176.01 63.1074 175.926 63.0423 175.926 62.9121C175.926 62.7884 176.033 62.7103 176.248 62.6777C176.756 62.5996 177.101 62.3132 177.283 61.8184C177.472 61.3236 177.566 60.4316 177.566 59.1426V53.2148C177.566 51.8477 177.485 50.985 177.322 50.627C177.16 50.2624 176.753 50.0443 176.102 49.9727C175.926 49.9596 175.841 49.8945 175.848 49.7773C175.854 49.6276 175.981 49.5527 176.229 49.5527C176.352 49.5527 176.518 49.569 176.727 49.6016C177.137 49.6602 177.475 49.6895 177.742 49.6895C178.159 49.6895 178.764 49.6536 179.559 49.582C179.969 49.5495 180.304 49.5332 180.564 49.5332C181.925 49.5332 183.029 49.862 183.875 50.5195C184.728 51.1706 185.154 52.0234 185.154 53.0781C185.154 54.3542 184.633 55.36 183.592 56.0957C182.811 56.6426 181.984 56.916 181.111 56.916C180.701 56.916 180.324 56.8704 179.979 56.7793C179.64 56.6882 179.477 56.5905 179.49 56.4863C179.503 56.4082 179.565 56.3691 179.676 56.3691C179.728 56.3691 179.793 56.3789 179.871 56.3984C180.021 56.444 180.262 56.4668 180.594 56.4668C181.531 56.4668 182.28 56.2096 182.84 55.6953C183.406 55.181 183.689 54.4974 183.689 53.6445C183.689 52.6615 183.318 51.8477 182.576 51.2031C181.834 50.5586 180.893 50.2363 179.754 50.2363C179.493 50.2363 179.314 50.2852 179.217 50.3828C179.119 50.4805 179.07 50.666 179.07 50.9395L179.061 51.2227ZM193.201 56.3008L195.896 60.2852L196.209 60.7539C197.042 61.9779 197.811 62.6126 198.514 62.6582L198.826 62.6777C198.943 62.6842 198.999 62.7298 198.992 62.8145C198.986 62.9121 198.839 63 198.553 63.0781C198.273 63.1562 197.954 63.1953 197.596 63.1953C197.01 63.1953 196.482 63.0358 196.014 62.7168C195.551 62.3913 195.079 61.8639 194.598 61.1348L192.166 57.4238L192.029 57.209C191.873 56.9421 191.619 56.8086 191.268 56.8086H189.969L189.754 56.8477C189.676 56.8932 189.637 56.9974 189.637 57.1602V60.207L189.646 60.5977C189.646 61.1576 189.673 61.5417 189.725 61.75C189.783 61.9518 189.917 62.1341 190.125 62.2969C190.405 62.5182 190.838 62.6582 191.424 62.7168C191.658 62.7428 191.779 62.8177 191.785 62.9414C191.798 63.0716 191.691 63.1367 191.463 63.1367C191.372 63.1367 191.18 63.1237 190.887 63.0977C190.62 63.0716 190.206 63.0586 189.646 63.0586L188.709 63.0488L188.201 63.0586C187.98 63.0586 187.713 63.0749 187.4 63.1074C187.146 63.1335 186.971 63.1465 186.873 63.1465C186.71 63.1465 186.629 63.0781 186.629 62.9414C186.629 62.8438 186.71 62.7786 186.873 62.7461C187.394 62.6484 187.736 62.4141 187.898 62.043C188.061 61.6654 188.143 60.9264 188.143 59.8262V52.8145L188.123 51.7988C188.123 50.7832 187.768 50.2168 187.059 50.0996L186.6 50.0312C186.391 49.9922 186.287 49.9141 186.287 49.7969C186.287 49.6602 186.398 49.5918 186.619 49.5918C186.671 49.5918 186.899 49.6048 187.303 49.6309C187.537 49.6504 187.827 49.6602 188.172 49.6602C188.471 49.6602 188.982 49.6374 189.705 49.5918C190.226 49.5592 190.685 49.543 191.082 49.543C192.579 49.543 193.709 49.8262 194.471 50.3926C195.232 50.9525 195.613 51.7891 195.613 52.9023C195.613 54.3672 194.809 55.5 193.201 56.3008ZM190.33 56.0859H191.434C192.286 56.0859 192.957 55.8516 193.445 55.3828C193.934 54.9141 194.178 54.2728 194.178 53.459C194.178 52.515 193.846 51.7402 193.182 51.1348C192.518 50.5228 191.671 50.2168 190.643 50.2168C190.258 50.2168 189.992 50.2819 189.842 50.4121C189.699 50.5358 189.627 50.7637 189.627 51.0957L189.637 51.418V55.3828C189.637 55.6888 189.676 55.8841 189.754 55.9688C189.839 56.0469 190.031 56.0859 190.33 56.0859ZM205.721 49.4062C207.758 49.4062 209.428 50.0378 210.73 51.3008C212.039 52.5573 212.693 54.1686 212.693 56.1348C212.693 58.2181 212.036 59.9271 210.721 61.2617C209.406 62.5964 207.723 63.2637 205.672 63.2637C203.569 63.2637 201.867 62.6257 200.564 61.3496C199.269 60.0736 198.621 58.4004 198.621 56.3301C198.621 55.4316 198.79 54.543 199.129 53.6641C199.474 52.7786 199.936 52.0397 200.516 51.4473C201.128 50.8223 201.902 50.3275 202.84 49.9629C203.777 49.5918 204.738 49.4062 205.721 49.4062ZM205.086 50.041C203.576 50.041 202.374 50.5521 201.482 51.5742C200.597 52.5898 200.154 53.9603 200.154 55.6855C200.154 57.6582 200.721 59.3216 201.854 60.6758C202.993 62.0299 204.389 62.707 206.043 62.707C207.553 62.707 208.8 62.1569 209.783 61.0566C210.766 59.9499 211.258 58.5501 211.258 56.8574C211.258 54.9108 210.669 53.2897 209.49 51.9941C208.312 50.6921 206.844 50.041 205.086 50.041ZM223.65 50.6953H220.906C220.62 50.6953 220.438 50.7344 220.359 50.8125C220.288 50.8906 220.252 51.0827 220.252 51.3887V60.959L220.262 61.3398C220.294 62.1016 220.721 62.554 221.541 62.6973C221.769 62.7363 221.883 62.8112 221.883 62.9219C221.883 63.0651 221.792 63.1367 221.609 63.1367C221.531 63.1367 221.372 63.1172 221.131 63.0781C221.007 63.0586 220.714 63.0488 220.252 63.0488L219.539 63.0391L218.777 63.0488C218.504 63.0488 218.273 63.0586 218.084 63.0781C217.713 63.1172 217.495 63.1367 217.43 63.1367C217.234 63.1367 217.137 63.0651 217.137 62.9219C217.137 62.8177 217.244 62.7526 217.459 62.7266C217.96 62.6615 218.299 62.5247 218.475 62.3164C218.65 62.1016 218.738 61.7207 218.738 61.1738V51.4961L218.729 51.2422C218.729 51.0078 218.693 50.8581 218.621 50.793C218.556 50.7279 218.4 50.6953 218.152 50.6953H215.564C215.037 50.6953 214.653 50.8027 214.412 51.0176C214.178 51.2259 213.995 51.623 213.865 52.209C213.807 52.4629 213.719 52.5866 213.602 52.5801C213.484 52.5736 213.426 52.4857 213.426 52.3164C213.426 52.1797 213.465 51.929 213.543 51.5645C213.641 51.0957 213.689 50.7083 213.689 50.4023C213.689 50.1029 213.722 49.9076 213.787 49.8164C213.859 49.7188 214.005 49.6699 214.227 49.6699H224.734C225.092 49.6699 225.307 49.709 225.379 49.7871C225.457 49.8652 225.496 50.0964 225.496 50.4805C225.496 50.8646 225.512 51.1445 225.545 51.3203C225.577 51.5417 225.597 51.7012 225.604 51.7988C225.61 51.9941 225.542 52.0983 225.398 52.1113C225.281 52.1178 225.203 52.0169 225.164 51.8086C225.079 51.3464 224.943 51.0469 224.754 50.9102C224.565 50.7669 224.197 50.6953 223.65 50.6953ZM233.24 49.4062C235.278 49.4062 236.948 50.0378 238.25 51.3008C239.559 52.5573 240.213 54.1686 240.213 56.1348C240.213 58.2181 239.555 59.9271 238.24 61.2617C236.925 62.5964 235.242 63.2637 233.191 63.2637C231.089 63.2637 229.386 62.6257 228.084 61.3496C226.788 60.0736 226.141 58.4004 226.141 56.3301C226.141 55.4316 226.31 54.543 226.648 53.6641C226.993 52.7786 227.456 52.0397 228.035 51.4473C228.647 50.8223 229.422 50.3275 230.359 49.9629C231.297 49.5918 232.257 49.4062 233.24 49.4062ZM232.605 50.041C231.095 50.041 229.894 50.5521 229.002 51.5742C228.117 52.5898 227.674 53.9603 227.674 55.6855C227.674 57.6582 228.24 59.3216 229.373 60.6758C230.512 62.0299 231.909 62.707 233.562 62.707C235.073 62.707 236.32 62.1569 237.303 61.0566C238.286 59.9499 238.777 58.5501 238.777 56.8574C238.777 54.9108 238.188 53.2897 237.01 51.9941C235.831 50.6921 234.363 50.041 232.605 50.041ZM253.963 50.8027L254.275 53.1465L254.305 53.3906L254.275 53.4883C254.243 53.5469 254.194 53.5794 254.129 53.5859C254.051 53.5924 253.934 53.4557 253.777 53.1758C252.56 51.0404 250.91 49.9727 248.826 49.9727C247.166 49.9727 245.857 50.4837 244.9 51.5059C243.943 52.528 243.465 53.9245 243.465 55.6953C243.465 57.7331 243.995 59.3997 245.057 60.6953C246.124 61.9844 247.495 62.6289 249.168 62.6289C250.145 62.6289 251.105 62.3685 252.049 61.8477C252.993 61.3268 253.647 60.6953 254.012 59.9531C254.181 59.6081 254.311 59.4323 254.402 59.4258C254.507 59.4193 254.559 59.4811 254.559 59.6113L254.549 59.7188L254.51 59.9336L254.285 61.125L254.246 61.3008C254.22 61.4701 254.067 61.6458 253.787 61.8281C252.283 62.7852 250.626 63.2637 248.816 63.2637C246.72 63.2637 245.031 62.6419 243.748 61.3984C242.465 60.1549 241.824 58.5176 241.824 56.4863C241.824 54.4551 242.488 52.7689 243.816 51.4277C245.145 50.0801 246.811 49.4062 248.816 49.4062C250.19 49.4062 251.453 49.7155 252.605 50.334L252.996 50.5391L253.152 50.6074L253.318 50.666C253.351 50.666 253.4 50.64 253.465 50.5879C253.608 50.4837 253.706 50.4316 253.758 50.4316C253.862 50.4316 253.93 50.5553 253.963 50.8027ZM263.123 49.4062C265.161 49.4062 266.831 50.0378 268.133 51.3008C269.441 52.5573 270.096 54.1686 270.096 56.1348C270.096 58.2181 269.438 59.9271 268.123 61.2617C266.808 62.5964 265.125 63.2637 263.074 63.2637C260.971 63.2637 259.269 62.6257 257.967 61.3496C256.671 60.0736 256.023 58.4004 256.023 56.3301C256.023 55.4316 256.193 54.543 256.531 53.6641C256.876 52.7786 257.339 52.0397 257.918 51.4473C258.53 50.8223 259.305 50.3275 260.242 49.9629C261.18 49.5918 262.14 49.4062 263.123 49.4062ZM262.488 50.041C260.978 50.041 259.777 50.5521 258.885 51.5742C257.999 52.5898 257.557 53.9603 257.557 55.6855C257.557 57.6582 258.123 59.3216 259.256 60.6758C260.395 62.0299 261.792 62.707 263.445 62.707C264.956 62.707 266.202 62.1569 267.186 61.0566C268.169 59.9499 268.66 58.5501 268.66 56.8574C268.66 54.9108 268.071 53.2897 266.893 51.9941C265.714 50.6921 264.246 50.041 262.488 50.041ZM274.93 60.3633L274.939 60.7051C274.939 61.4863 275.014 61.9486 275.164 62.0918C275.314 62.235 275.802 62.3066 276.629 62.3066C277.846 62.3066 278.901 62.1634 279.793 61.877C280.691 61.584 281.264 61.1999 281.512 60.7246C281.603 60.5488 281.694 60.4609 281.785 60.4609C281.889 60.4609 281.938 60.526 281.932 60.6562C281.906 61.0859 281.694 61.5579 281.297 62.0723C280.737 62.7819 279.829 63.1367 278.572 63.1367C278.364 63.1367 278.123 63.127 277.85 63.1074L276.795 63.0293C276.176 62.9837 275.522 62.9609 274.832 62.9609C274.031 62.9609 273.361 63 272.82 63.0781C272.592 63.1107 272.41 63.1302 272.273 63.1367C272.111 63.1432 272.029 63.0846 272.029 62.9609C272.029 62.8568 272.117 62.7786 272.293 62.7266C272.742 62.5898 273.042 62.3913 273.191 62.1309C273.348 61.8639 273.426 61.418 273.426 60.793L273.436 60.3438V51.6133C273.436 50.7474 273.084 50.2428 272.381 50.0996L271.941 50.0117C271.785 49.9792 271.707 49.9141 271.707 49.8164C271.707 49.6667 271.818 49.5918 272.039 49.5918C272.189 49.5918 272.394 49.6048 272.654 49.6309C273.097 49.6699 273.595 49.6895 274.148 49.6895C274.747 49.6895 275.291 49.6732 275.779 49.6406C276.027 49.6276 276.167 49.6211 276.199 49.6211C276.355 49.6211 276.434 49.6699 276.434 49.7676C276.434 49.9108 276.339 50.0052 276.15 50.0508L275.809 50.1289C275.223 50.2721 274.93 50.8548 274.93 51.877V60.3633ZM289.627 49.4062C291.665 49.4062 293.335 50.0378 294.637 51.3008C295.945 52.5573 296.6 54.1686 296.6 56.1348C296.6 58.2181 295.942 59.9271 294.627 61.2617C293.312 62.5964 291.629 63.2637 289.578 63.2637C287.475 63.2637 285.773 62.6257 284.471 61.3496C283.175 60.0736 282.527 58.4004 282.527 56.3301C282.527 55.4316 282.697 54.543 283.035 53.6641C283.38 52.7786 283.842 52.0397 284.422 51.4473C285.034 50.8223 285.809 50.3275 286.746 49.9629C287.684 49.5918 288.644 49.4062 289.627 49.4062ZM288.992 50.041C287.482 50.041 286.281 50.5521 285.389 51.5742C284.503 52.5898 284.061 53.9603 284.061 55.6855C284.061 57.6582 284.627 59.3216 285.76 60.6758C286.899 62.0299 288.296 62.707 289.949 62.707C291.46 62.707 292.706 62.1569 293.689 61.0566C294.673 59.9499 295.164 58.5501 295.164 56.8574C295.164 54.9108 294.575 53.2897 293.396 51.9941C292.218 50.6921 290.75 50.041 288.992 50.041ZM302.508 49.4062C303.204 49.4062 303.794 49.5072 304.275 49.709L304.949 49.9922C305.008 50.0182 305.066 50.0312 305.125 50.0312C305.203 50.0312 305.281 49.9987 305.359 49.9336L305.496 49.8164C305.516 49.7904 305.551 49.7773 305.604 49.7773C305.766 49.7708 305.848 49.9303 305.848 50.2559C305.848 50.3665 305.89 50.6953 305.975 51.2422L306.131 52.248C306.163 52.4629 306.18 52.5964 306.18 52.6484C306.18 52.8503 306.111 52.9512 305.975 52.9512C305.87 52.9512 305.766 52.7949 305.662 52.4824C305.428 51.7793 304.949 51.1999 304.227 50.7441C303.51 50.2884 302.71 50.0605 301.824 50.0605C301.121 50.0605 300.532 50.2689 300.057 50.6855C299.588 51.0957 299.354 51.61 299.354 52.2285C299.354 52.7754 299.507 53.2474 299.812 53.6445C300.079 53.9831 300.369 54.2305 300.682 54.3867C301.001 54.543 301.779 54.8262 303.016 55.2363C305.424 56.0241 306.629 57.3164 306.629 59.1133C306.629 60.3307 306.186 61.3268 305.301 62.1016C304.415 62.8763 303.279 63.2637 301.893 63.2637C301.391 63.2637 300.838 63.1921 300.232 63.0488C299.633 62.9056 299.194 62.7396 298.914 62.5508C298.797 62.4727 298.719 62.3913 298.68 62.3066C298.641 62.2155 298.582 61.9876 298.504 61.623C298.491 61.571 298.41 61.2747 298.26 60.7344C298.09 60.1484 298.006 59.7318 298.006 59.4844C298.006 59.2891 298.071 59.1947 298.201 59.2012C298.318 59.2077 298.423 59.3672 298.514 59.6797C298.748 60.487 299.243 61.1641 299.998 61.7109C300.753 62.2578 301.574 62.5312 302.459 62.5312C303.357 62.5312 304.116 62.2676 304.734 61.7402C305.359 61.2129 305.672 60.5716 305.672 59.8164C305.672 59.0938 305.385 58.485 304.812 57.9902C304.52 57.7363 303.673 57.375 302.273 56.9062C300.828 56.418 299.803 55.8776 299.197 55.2852C298.598 54.6927 298.299 53.9245 298.299 52.9805C298.299 51.9258 298.689 51.0664 299.471 50.4023C300.258 49.7383 301.271 49.4062 302.508 49.4062ZM314.969 52.0039C314.969 51.3464 314.858 50.8646 314.637 50.5586C314.415 50.2526 314.048 50.0736 313.533 50.0215C313.318 50.002 313.211 49.9336 313.211 49.8164C313.211 49.6862 313.296 49.6211 313.465 49.6211L314.236 49.6602C314.314 49.6667 314.542 49.6699 314.92 49.6699C315.577 49.6699 316.089 49.6536 316.453 49.6211L317.361 49.5332C317.752 49.5007 318.182 49.4844 318.65 49.4844C321.32 49.4844 323.322 50.1549 324.656 51.4961C325.874 52.7201 326.482 54.2858 326.482 56.1934C326.482 57.4238 326.215 58.5534 325.682 59.582C325.148 60.6107 324.406 61.4212 323.455 62.0137C322.257 62.7624 320.949 63.1367 319.529 63.1367C319.36 63.1367 319.061 63.1204 318.631 63.0879C317.758 63.0293 317 63 316.355 63C315.659 63 315.053 63.0358 314.539 63.1074C314.305 63.14 314.119 63.1595 313.982 63.166C313.755 63.179 313.641 63.1042 313.641 62.9414C313.641 62.8307 313.732 62.7559 313.914 62.7168C314.357 62.6257 314.643 62.4629 314.773 62.2285C314.904 61.9941 314.969 61.5156 314.969 60.793V52.0039ZM316.463 51.2129V61.2812C316.463 61.6784 316.661 61.9518 317.059 62.1016C317.404 62.2318 317.843 62.3457 318.377 62.4434C318.917 62.541 319.373 62.5898 319.744 62.5898C320.857 62.5898 321.86 62.3099 322.752 61.75C324.262 60.8125 325.018 59.2174 325.018 56.9648C325.018 55.7409 324.78 54.6146 324.305 53.5859C323.836 52.5573 323.188 51.75 322.361 51.1641C321.352 50.4414 320.125 50.0801 318.68 50.0801C317.651 50.0801 316.997 50.1908 316.717 50.4121C316.548 50.5423 316.463 50.8092 316.463 51.2129ZM331.297 51.2031V55.1289C331.297 55.4284 331.323 55.6107 331.375 55.6758C331.434 55.7344 331.603 55.7637 331.883 55.7637H333.387C334.07 55.7637 334.611 55.7246 335.008 55.6465C335.359 55.5749 335.587 55.4805 335.691 55.3633C335.796 55.2461 335.89 54.9727 335.975 54.543C336.007 54.3802 336.089 54.3021 336.219 54.3086C336.342 54.3151 336.404 54.403 336.404 54.5723C336.404 54.6178 336.401 54.6895 336.395 54.7871C336.342 55.4186 336.316 55.9948 336.316 56.5156C336.316 56.9128 336.336 57.3066 336.375 57.6973C336.388 57.8275 336.395 57.9219 336.395 57.9805C336.395 58.1432 336.333 58.2246 336.209 58.2246C336.072 58.2246 335.991 58.153 335.965 58.0098L335.906 57.7363C335.828 57.3001 335.672 57.0039 335.438 56.8477C335.203 56.6914 334.806 56.6133 334.246 56.6133H332.088C331.769 56.6133 331.554 56.6458 331.443 56.7109C331.339 56.776 331.287 56.9062 331.287 57.1016L331.297 57.4238V61.0176C331.297 61.571 331.395 61.916 331.59 62.0527C331.792 62.1895 332.296 62.2578 333.104 62.2578C335.662 62.2578 337.306 61.6816 338.035 60.5293C338.107 60.4186 338.178 60.36 338.25 60.3535C338.367 60.347 338.426 60.4316 338.426 60.6074C338.426 61.0306 338.188 61.5352 337.713 62.1211C337.14 62.8242 336.417 63.1758 335.545 63.1758C335.356 63.1758 335.102 63.1628 334.783 63.1367C333.54 63.0195 332.511 62.9609 331.697 62.9609C330.558 62.9609 329.754 63 329.285 63.0781C329.038 63.1237 328.868 63.1465 328.777 63.1465C328.569 63.1465 328.465 63.0749 328.465 62.9316C328.465 62.821 328.549 62.7428 328.719 62.6973L329.09 62.5898C329.559 62.4596 329.793 62.0039 329.793 61.2227L329.803 60.5879V52.3359C329.803 51.4049 329.699 50.7799 329.49 50.4609C329.288 50.1354 328.891 49.9727 328.299 49.9727C328.11 49.9727 328.016 49.9108 328.016 49.7871C328.016 49.6048 328.162 49.5137 328.455 49.5137C328.618 49.5137 328.836 49.5299 329.109 49.5625C330.04 49.6667 331.16 49.7188 332.469 49.7188C333.263 49.7188 333.966 49.7057 334.578 49.6797L335.965 49.6113C336.349 49.5983 336.583 49.5853 336.668 49.5723C336.844 49.5462 336.974 49.5332 337.059 49.5332C337.273 49.5332 337.381 49.6276 337.381 49.8164C337.381 49.875 337.371 49.9499 337.352 50.041C337.332 50.1322 337.306 50.3926 337.273 50.8223L337.234 51.3984C337.202 51.776 337.169 52.0137 337.137 52.1113C337.104 52.2025 337.033 52.2513 336.922 52.2578C336.798 52.2643 336.736 52.1667 336.736 51.9648V51.7109C336.736 51.5026 336.697 51.304 336.619 51.1152C336.495 50.8223 336.245 50.627 335.867 50.5293C335.49 50.4316 334.796 50.3828 333.787 50.3828H332.254C331.85 50.3828 331.59 50.4349 331.473 50.5391C331.355 50.6367 331.297 50.8581 331.297 51.2031ZM185.301 92.0508V84.5117C185.301 83.6523 185.174 83.0208 184.92 82.6172C184.666 82.207 184.272 82.002 183.738 82.002C183.471 82.002 183.338 81.9303 183.338 81.7871C183.338 81.6374 183.468 81.5625 183.729 81.5625C183.781 81.5625 183.947 81.569 184.227 81.582C184.422 81.5951 184.692 81.6016 185.037 81.6016C185.519 81.6016 185.89 81.5951 186.15 81.582L187.244 81.5137C187.589 81.4941 187.915 81.4844 188.221 81.4844C189.66 81.4844 190.789 81.7708 191.609 82.3438C192.436 82.9167 192.85 83.7044 192.85 84.707C192.85 85.7422 192.42 86.5462 191.561 87.1191L191.141 87.4121C191.043 87.4707 190.997 87.5195 191.004 87.5586C191.01 87.6237 191.18 87.6921 191.512 87.7637C192.228 87.9264 192.817 88.3171 193.279 88.9355C193.742 89.554 193.973 90.2637 193.973 91.0645C193.973 92.2624 193.53 93.252 192.645 94.0332C191.766 94.8079 190.646 95.1953 189.285 95.1953L188.533 95.166L187.625 95.127L186.834 95.0781C186.313 95.0456 185.9 95.0293 185.594 95.0293C185.288 95.0293 185.027 95.0423 184.812 95.0684C184.5 95.1074 184.279 95.127 184.148 95.127C183.966 95.127 183.875 95.0553 183.875 94.9121C183.875 94.8014 183.973 94.7331 184.168 94.707C184.721 94.6289 185.05 94.3229 185.154 93.7891C185.252 93.3203 185.301 92.7409 185.301 92.0508ZM187.459 87.4707H189.07C190.704 87.4707 191.521 86.735 191.521 85.2637C191.521 84.3587 191.173 83.597 190.477 82.9785C189.78 82.36 188.921 82.0508 187.898 82.0508C187.449 82.0508 187.153 82.1159 187.01 82.2461C186.867 82.3698 186.795 82.6335 186.795 83.0371V86.9531C186.795 87.181 186.831 87.3242 186.902 87.3828C186.98 87.4414 187.166 87.4707 187.459 87.4707ZM187.332 88.1641C187.098 88.1641 186.948 88.1868 186.883 88.2324C186.824 88.2715 186.795 88.3724 186.795 88.5352V93.0469L186.775 93.4961L186.834 93.877C186.925 94.1569 187.16 94.3587 187.537 94.4824C187.921 94.5996 188.51 94.6582 189.305 94.6582C190.327 94.6582 191.121 94.3913 191.688 93.8574C192.254 93.3171 192.537 92.5651 192.537 91.6016C192.537 90.612 192.225 89.7917 191.6 89.1406C190.981 88.4896 190.2 88.1641 189.256 88.1641H187.332ZM198.875 84.5215V91.8262C198.875 92.7376 198.93 93.3398 199.041 93.6328C199.171 93.9648 199.331 94.1992 199.52 94.3359C199.715 94.4727 200.018 94.5703 200.428 94.6289C200.753 94.6745 200.916 94.7559 200.916 94.873C200.916 95.0293 200.815 95.1074 200.613 95.1074C200.516 95.1074 200.392 95.0977 200.242 95.0781C200.04 95.0521 199.695 95.0391 199.207 95.0391L197.791 95.0195L196.639 95.0879C196.45 95.1074 196.294 95.1172 196.17 95.1172C195.994 95.1172 195.906 95.0488 195.906 94.9121C195.906 94.7949 196.007 94.7201 196.209 94.6875C196.704 94.6029 197.023 94.4336 197.166 94.1797C197.309 93.9193 197.381 93.3757 197.381 92.5488V84.1895C197.381 83.3822 197.286 82.8385 197.098 82.5586C196.915 82.2786 196.521 82.0898 195.916 81.9922C195.714 81.9531 195.61 81.875 195.604 81.7578C195.597 81.6146 195.691 81.543 195.887 81.543C195.939 81.543 195.997 81.5462 196.062 81.5527C196.538 81.6048 197.169 81.6309 197.957 81.6309C198.439 81.6309 198.852 81.6211 199.197 81.6016L199.852 81.5527C199.975 81.5462 200.057 81.543 200.096 81.543C200.271 81.543 200.359 81.6048 200.359 81.7285C200.359 81.8457 200.275 81.9336 200.105 81.9922L199.598 82.1875C199.116 82.3698 198.875 83.1478 198.875 84.5215ZM209.305 81.4062C211.342 81.4062 213.012 82.0378 214.314 83.3008C215.623 84.5573 216.277 86.1686 216.277 88.1348C216.277 90.2181 215.62 91.9271 214.305 93.2617C212.99 94.5964 211.307 95.2637 209.256 95.2637C207.153 95.2637 205.451 94.6257 204.148 93.3496C202.853 92.0736 202.205 90.4004 202.205 88.3301C202.205 87.4316 202.374 86.543 202.713 85.6641C203.058 84.7786 203.52 84.0397 204.1 83.4473C204.712 82.8223 205.486 82.3275 206.424 81.9629C207.361 81.5918 208.322 81.4062 209.305 81.4062ZM208.67 82.041C207.16 82.041 205.958 82.5521 205.066 83.5742C204.181 84.5898 203.738 85.9603 203.738 87.6855C203.738 89.6582 204.305 91.3216 205.438 92.6758C206.577 94.0299 207.973 94.707 209.627 94.707C211.137 94.707 212.384 94.1569 213.367 93.0566C214.35 91.9499 214.842 90.5501 214.842 88.8574C214.842 86.9108 214.253 85.2897 213.074 83.9941C211.896 82.6921 210.428 82.041 208.67 82.041ZM222.186 81.4062C222.882 81.4062 223.471 81.5072 223.953 81.709L224.627 81.9922C224.686 82.0182 224.744 82.0312 224.803 82.0312C224.881 82.0312 224.959 81.9987 225.037 81.9336L225.174 81.8164C225.193 81.7904 225.229 81.7773 225.281 81.7773C225.444 81.7708 225.525 81.9303 225.525 82.2559C225.525 82.3665 225.568 82.6953 225.652 83.2422L225.809 84.248C225.841 84.4629 225.857 84.5964 225.857 84.6484C225.857 84.8503 225.789 84.9512 225.652 84.9512C225.548 84.9512 225.444 84.7949 225.34 84.4824C225.105 83.7793 224.627 83.1999 223.904 82.7441C223.188 82.2884 222.387 82.0605 221.502 82.0605C220.799 82.0605 220.21 82.2689 219.734 82.6855C219.266 83.0957 219.031 83.61 219.031 84.2285C219.031 84.7754 219.184 85.2474 219.49 85.6445C219.757 85.9831 220.047 86.2305 220.359 86.3867C220.678 86.543 221.456 86.8262 222.693 87.2363C225.102 88.0241 226.307 89.3164 226.307 91.1133C226.307 92.3307 225.864 93.3268 224.979 94.1016C224.093 94.8763 222.957 95.2637 221.57 95.2637C221.069 95.2637 220.516 95.1921 219.91 95.0488C219.311 94.9056 218.872 94.7396 218.592 94.5508C218.475 94.4727 218.396 94.3913 218.357 94.3066C218.318 94.2155 218.26 93.9876 218.182 93.623C218.169 93.571 218.087 93.2747 217.938 92.7344C217.768 92.1484 217.684 91.7318 217.684 91.4844C217.684 91.2891 217.749 91.1947 217.879 91.2012C217.996 91.2077 218.1 91.3672 218.191 91.6797C218.426 92.487 218.921 93.1641 219.676 93.7109C220.431 94.2578 221.251 94.5312 222.137 94.5312C223.035 94.5312 223.794 94.2676 224.412 93.7402C225.037 93.2129 225.35 92.5716 225.35 91.8164C225.35 91.0938 225.063 90.485 224.49 89.9902C224.197 89.7363 223.351 89.375 221.951 88.9062C220.506 88.418 219.48 87.8776 218.875 87.2852C218.276 86.6927 217.977 85.9245 217.977 84.9805C217.977 83.9258 218.367 83.0664 219.148 82.4023C219.936 81.7383 220.949 81.4062 222.186 81.4062ZM231.131 83.2031V87.1289C231.131 87.4284 231.157 87.6107 231.209 87.6758C231.268 87.7344 231.437 87.7637 231.717 87.7637H233.221C233.904 87.7637 234.445 87.7246 234.842 87.6465C235.193 87.5749 235.421 87.4805 235.525 87.3633C235.63 87.2461 235.724 86.9727 235.809 86.543C235.841 86.3802 235.923 86.3021 236.053 86.3086C236.176 86.3151 236.238 86.403 236.238 86.5723C236.238 86.6178 236.235 86.6895 236.229 86.7871C236.176 87.4186 236.15 87.9948 236.15 88.5156C236.15 88.9128 236.17 89.3066 236.209 89.6973C236.222 89.8275 236.229 89.9219 236.229 89.9805C236.229 90.1432 236.167 90.2246 236.043 90.2246C235.906 90.2246 235.825 90.153 235.799 90.0098L235.74 89.7363C235.662 89.3001 235.506 89.0039 235.271 88.8477C235.037 88.6914 234.64 88.6133 234.08 88.6133H231.922C231.603 88.6133 231.388 88.6458 231.277 88.7109C231.173 88.776 231.121 88.9062 231.121 89.1016L231.131 89.4238V93.0176C231.131 93.571 231.229 93.916 231.424 94.0527C231.626 94.1895 232.13 94.2578 232.938 94.2578C235.496 94.2578 237.14 93.6816 237.869 92.5293C237.941 92.4186 238.012 92.36 238.084 92.3535C238.201 92.347 238.26 92.4316 238.26 92.6074C238.26 93.0306 238.022 93.5352 237.547 94.1211C236.974 94.8242 236.251 95.1758 235.379 95.1758C235.19 95.1758 234.936 95.1628 234.617 95.1367C233.374 95.0195 232.345 94.9609 231.531 94.9609C230.392 94.9609 229.588 95 229.119 95.0781C228.872 95.1237 228.702 95.1465 228.611 95.1465C228.403 95.1465 228.299 95.0749 228.299 94.9316C228.299 94.821 228.383 94.7428 228.553 94.6973L228.924 94.5898C229.393 94.4596 229.627 94.0039 229.627 93.2227L229.637 92.5879V84.3359C229.637 83.4049 229.533 82.7799 229.324 82.4609C229.122 82.1354 228.725 81.9727 228.133 81.9727C227.944 81.9727 227.85 81.9108 227.85 81.7871C227.85 81.6048 227.996 81.5137 228.289 81.5137C228.452 81.5137 228.67 81.5299 228.943 81.5625C229.874 81.6667 230.994 81.7188 232.303 81.7188C233.097 81.7188 233.8 81.7057 234.412 81.6797L235.799 81.6113C236.183 81.5983 236.417 81.5853 236.502 81.5723C236.678 81.5462 236.808 81.5332 236.893 81.5332C237.107 81.5332 237.215 81.6276 237.215 81.8164C237.215 81.875 237.205 81.9499 237.186 82.041C237.166 82.1322 237.14 82.3926 237.107 82.8223L237.068 83.3984C237.036 83.776 237.003 84.0137 236.971 84.1113C236.938 84.2025 236.867 84.2513 236.756 84.2578C236.632 84.2643 236.57 84.1667 236.57 83.9648V83.7109C236.57 83.5026 236.531 83.304 236.453 83.1152C236.329 82.8223 236.079 82.627 235.701 82.5293C235.324 82.4316 234.63 82.3828 233.621 82.3828H232.088C231.684 82.3828 231.424 82.4349 231.307 82.5391C231.189 82.6367 231.131 82.8581 231.131 83.2031ZM250.662 91.7285V89.5312C250.662 89.1341 250.574 88.8639 250.398 88.7207C250.229 88.5775 249.884 88.4863 249.363 88.4473C249.109 88.4212 248.979 88.3366 248.973 88.1934C248.966 88.0697 249.077 88.0078 249.305 88.0078L249.695 88.0176L250.428 88.0273C251.43 88.0273 252.013 88.0208 252.176 88.0078C252.625 87.9753 252.885 87.959 252.957 87.959C253.107 87.959 253.182 88.0208 253.182 88.1445C253.182 88.2552 253.084 88.3366 252.889 88.3887C252.394 88.5059 252.146 88.8639 252.146 89.4629L252.156 89.7754V92.9004L252.176 93.2129L252.117 93.3594C252.078 93.3919 251.984 93.418 251.834 93.4375C251.658 93.4635 251.388 93.5807 251.023 93.7891L250.379 94.1699C249.109 94.9056 247.745 95.2734 246.287 95.2734C244.334 95.2734 242.732 94.6484 241.482 93.3984C240.232 92.1419 239.607 90.5371 239.607 88.584C239.607 86.5332 240.268 84.8242 241.59 83.457C242.918 82.0898 244.578 81.4062 246.57 81.4062C247.339 81.4062 248.152 81.5169 249.012 81.7383C249.878 81.9596 250.568 82.2363 251.082 82.5684C251.16 82.6204 251.215 82.6465 251.248 82.6465C251.294 82.6465 251.355 82.6204 251.434 82.5684L251.668 82.3926C251.714 82.3535 251.759 82.334 251.805 82.334C251.922 82.334 251.98 82.487 251.98 82.793C251.98 82.9362 252 83.1576 252.039 83.457L252.137 84.375C252.169 84.6224 252.215 84.8698 252.273 85.1172C252.306 85.2344 252.322 85.3288 252.322 85.4004C252.322 85.5566 252.257 85.638 252.127 85.6445C252.042 85.651 251.971 85.5957 251.912 85.4785C251.404 84.4368 250.623 83.5905 249.568 82.9395C248.514 82.2884 247.397 81.9629 246.219 81.9629C244.747 81.9629 243.546 82.5228 242.615 83.6426C241.684 84.7624 241.219 86.2077 241.219 87.9785C241.219 89.8796 241.753 91.4714 242.82 92.7539C243.895 94.0299 245.223 94.668 246.805 94.668C248.315 94.668 249.497 94.1341 250.35 93.0664C250.558 92.806 250.662 92.36 250.662 91.7285ZM266.619 89.3848V84.3262C266.619 83.5124 266.502 82.9232 266.268 82.5586C266.033 82.1875 265.636 81.9759 265.076 81.9238C264.887 81.9043 264.793 81.8327 264.793 81.709C264.793 81.5658 264.858 81.4974 264.988 81.5039C265.132 81.5104 265.34 81.5365 265.613 81.582C265.861 81.6211 266.157 81.6406 266.502 81.6406C267.231 81.6406 267.68 81.6309 267.85 81.6113C268.077 81.5918 268.221 81.582 268.279 81.582C268.403 81.582 268.465 81.6406 268.465 81.7578C268.465 81.8555 268.396 81.9336 268.26 81.9922C267.863 82.1549 267.605 82.3828 267.488 82.6758C267.371 82.9688 267.312 83.5221 267.312 84.3359V89.1699C267.312 90.9473 266.958 92.3145 266.248 93.2715C265.799 93.877 265.154 94.362 264.314 94.7266C263.481 95.0846 262.589 95.2637 261.639 95.2637C260.532 95.2637 259.536 95.0488 258.65 94.6191C257.765 94.1895 257.117 93.6068 256.707 92.8711C256.245 92.0247 256.014 90.9212 256.014 89.5605V84.5996L255.994 84.043C255.994 83.3464 255.896 82.8678 255.701 82.6074C255.512 82.3405 255.128 82.1647 254.549 82.0801C254.373 82.054 254.285 81.9857 254.285 81.875C254.285 81.7188 254.409 81.6406 254.656 81.6406C254.819 81.6406 255.044 81.6471 255.33 81.6602C255.63 81.6797 255.848 81.6895 255.984 81.6895L256.736 81.6797H257.479C257.557 81.6797 257.739 81.6667 258.025 81.6406C258.266 81.6211 258.432 81.6113 258.523 81.6113C258.673 81.6113 258.748 81.6634 258.748 81.7676C258.748 81.8913 258.644 81.9727 258.436 82.0117C258.058 82.0964 257.804 82.2624 257.674 82.5098C257.55 82.7507 257.488 83.1868 257.488 83.8184L257.508 84.4629V89.3848C257.508 91.0645 257.768 92.2624 258.289 92.9785C259.025 93.9941 260.258 94.502 261.99 94.502C263.54 94.502 264.699 94.0788 265.467 93.2324C266.235 92.3796 266.619 91.097 266.619 89.3848ZM276.98 88.3008L279.676 92.2852L279.988 92.7539C280.822 93.9779 281.59 94.6126 282.293 94.6582L282.605 94.6777C282.723 94.6842 282.778 94.7298 282.771 94.8145C282.765 94.9121 282.618 95 282.332 95.0781C282.052 95.1562 281.733 95.1953 281.375 95.1953C280.789 95.1953 280.262 95.0358 279.793 94.7168C279.331 94.3913 278.859 93.8639 278.377 93.1348L275.945 89.4238L275.809 89.209C275.652 88.9421 275.398 88.8086 275.047 88.8086H273.748L273.533 88.8477C273.455 88.8932 273.416 88.9974 273.416 89.1602V92.207L273.426 92.5977C273.426 93.1576 273.452 93.5417 273.504 93.75C273.562 93.9518 273.696 94.1341 273.904 94.2969C274.184 94.5182 274.617 94.6582 275.203 94.7168C275.438 94.7428 275.558 94.8177 275.564 94.9414C275.577 95.0716 275.47 95.1367 275.242 95.1367C275.151 95.1367 274.959 95.1237 274.666 95.0977C274.399 95.0716 273.986 95.0586 273.426 95.0586L272.488 95.0488L271.98 95.0586C271.759 95.0586 271.492 95.0749 271.18 95.1074C270.926 95.1335 270.75 95.1465 270.652 95.1465C270.49 95.1465 270.408 95.0781 270.408 94.9414C270.408 94.8438 270.49 94.7786 270.652 94.7461C271.173 94.6484 271.515 94.4141 271.678 94.043C271.84 93.6654 271.922 92.9264 271.922 91.8262V84.8145L271.902 83.7988C271.902 82.7832 271.548 82.2168 270.838 82.0996L270.379 82.0312C270.171 81.9922 270.066 81.9141 270.066 81.7969C270.066 81.6602 270.177 81.5918 270.398 81.5918C270.451 81.5918 270.678 81.6048 271.082 81.6309C271.316 81.6504 271.606 81.6602 271.951 81.6602C272.251 81.6602 272.762 81.6374 273.484 81.5918C274.005 81.5592 274.464 81.543 274.861 81.543C276.359 81.543 277.488 81.8262 278.25 82.3926C279.012 82.9525 279.393 83.7891 279.393 84.9023C279.393 86.3672 278.589 87.5 276.98 88.3008ZM274.109 88.0859H275.213C276.066 88.0859 276.736 87.8516 277.225 87.3828C277.713 86.9141 277.957 86.2728 277.957 85.459C277.957 84.515 277.625 83.7402 276.961 83.1348C276.297 82.5228 275.451 82.2168 274.422 82.2168C274.038 82.2168 273.771 82.2819 273.621 82.4121C273.478 82.5358 273.406 82.7637 273.406 83.0957L273.416 83.418V87.3828C273.416 87.6888 273.455 87.8841 273.533 87.9688C273.618 88.0469 273.81 88.0859 274.109 88.0859ZM286.551 84.5215V91.8262C286.551 92.7376 286.606 93.3398 286.717 93.6328C286.847 93.9648 287.007 94.1992 287.195 94.3359C287.391 94.4727 287.693 94.5703 288.104 94.6289C288.429 94.6745 288.592 94.7559 288.592 94.873C288.592 95.0293 288.491 95.1074 288.289 95.1074C288.191 95.1074 288.068 95.0977 287.918 95.0781C287.716 95.0521 287.371 95.0391 286.883 95.0391L285.467 95.0195L284.314 95.0879C284.126 95.1074 283.969 95.1172 283.846 95.1172C283.67 95.1172 283.582 95.0488 283.582 94.9121C283.582 94.7949 283.683 94.7201 283.885 94.6875C284.38 94.6029 284.699 94.4336 284.842 94.1797C284.985 93.9193 285.057 93.3757 285.057 92.5488V84.1895C285.057 83.3822 284.962 82.8385 284.773 82.5586C284.591 82.2786 284.197 82.0898 283.592 81.9922C283.39 81.9531 283.286 81.875 283.279 81.7578C283.273 81.6146 283.367 81.543 283.562 81.543C283.615 81.543 283.673 81.5462 283.738 81.5527C284.214 81.6048 284.845 81.6309 285.633 81.6309C286.115 81.6309 286.528 81.6211 286.873 81.6016L287.527 81.5527C287.651 81.5462 287.732 81.543 287.771 81.543C287.947 81.543 288.035 81.6048 288.035 81.7285C288.035 81.8457 287.951 81.9336 287.781 81.9922L287.273 82.1875C286.792 82.3698 286.551 83.1478 286.551 84.5215ZM291.619 84.0039C291.619 83.3464 291.508 82.8646 291.287 82.5586C291.066 82.2526 290.698 82.0736 290.184 82.0215C289.969 82.002 289.861 81.9336 289.861 81.8164C289.861 81.6862 289.946 81.6211 290.115 81.6211L290.887 81.6602C290.965 81.6667 291.193 81.6699 291.57 81.6699C292.228 81.6699 292.739 81.6536 293.104 81.6211L294.012 81.5332C294.402 81.5007 294.832 81.4844 295.301 81.4844C297.97 81.4844 299.972 82.1549 301.307 83.4961C302.524 84.7201 303.133 86.2858 303.133 88.1934C303.133 89.4238 302.866 90.5534 302.332 91.582C301.798 92.6107 301.056 93.4212 300.105 94.0137C298.908 94.7624 297.599 95.1367 296.18 95.1367C296.01 95.1367 295.711 95.1204 295.281 95.0879C294.409 95.0293 293.65 95 293.006 95C292.309 95 291.704 95.0358 291.189 95.1074C290.955 95.14 290.77 95.1595 290.633 95.166C290.405 95.179 290.291 95.1042 290.291 94.9414C290.291 94.8307 290.382 94.7559 290.564 94.7168C291.007 94.6257 291.294 94.4629 291.424 94.2285C291.554 93.9941 291.619 93.5156 291.619 92.793V84.0039ZM293.113 83.2129V93.2812C293.113 93.6784 293.312 93.9518 293.709 94.1016C294.054 94.2318 294.493 94.3457 295.027 94.4434C295.568 94.541 296.023 94.5898 296.395 94.5898C297.508 94.5898 298.51 94.3099 299.402 93.75C300.913 92.8125 301.668 91.2174 301.668 88.9648C301.668 87.7409 301.43 86.6146 300.955 85.5859C300.486 84.5573 299.839 83.75 299.012 83.1641C298.003 82.4414 296.775 82.0801 295.33 82.0801C294.301 82.0801 293.647 82.1908 293.367 82.4121C293.198 82.5423 293.113 82.8092 293.113 83.2129ZM311.043 89.8926H307.508C307.026 89.8926 306.727 89.9316 306.609 90.0098C306.492 90.0879 306.336 90.3483 306.141 90.791L305.506 92.2266C305.219 92.8841 305.076 93.3724 305.076 93.6914C305.076 93.9974 305.151 94.2188 305.301 94.3555C305.457 94.4922 305.76 94.6094 306.209 94.707C306.404 94.7461 306.505 94.8242 306.512 94.9414C306.518 95.0521 306.427 95.1074 306.238 95.1074C306.167 95.1074 306.056 95.1042 305.906 95.0977L304.969 95.0488C304.656 95.0358 304.295 95.0293 303.885 95.0293C303.696 95.0293 303.549 95.0326 303.445 95.0391C303.113 95.0651 302.931 95.0781 302.898 95.0781C302.723 95.0781 302.635 95.0195 302.635 94.9023C302.635 94.7982 302.69 94.7298 302.801 94.6973L303.162 94.5898C303.292 94.5508 303.468 94.3945 303.689 94.1211C303.911 93.8411 304.093 93.5514 304.236 93.252L304.52 92.6074L309.539 81.4648C309.624 81.2695 309.718 81.1719 309.822 81.1719C309.926 81.1719 310.014 81.2663 310.086 81.4551L314.285 92.1973L314.5 92.7246C314.806 93.5124 315.06 94.0039 315.262 94.1992C315.464 94.388 315.874 94.5378 316.492 94.6484C316.694 94.6875 316.792 94.7689 316.785 94.8926C316.779 95.0033 316.688 95.0586 316.512 95.0586C316.453 95.0586 316.329 95.0521 316.141 95.0391C315.802 95.0065 315.2 94.9902 314.334 94.9902C313.429 94.9902 312.863 95.0098 312.635 95.0488C312.498 95.0749 312.397 95.0879 312.332 95.0879C312.163 95.0879 312.078 95.0195 312.078 94.8828C312.078 94.7786 312.16 94.7103 312.322 94.6777L312.625 94.6094C312.951 94.5443 313.113 94.3229 313.113 93.9453C313.113 93.6003 312.915 92.9134 312.518 91.8848L312.029 90.5957C311.893 90.2376 311.785 90.0326 311.707 89.9805C311.629 89.9219 311.408 89.8926 311.043 89.8926ZM311.16 88.3301L309.627 84.4629L309.549 84.2578C309.471 84.0495 309.386 83.9421 309.295 83.9355C309.249 83.929 309.197 83.9909 309.139 84.1211L307.234 88.3496C307.15 88.5319 307.107 88.6523 307.107 88.7109C307.107 88.8802 307.257 88.9648 307.557 88.9648L307.82 88.9746H310.77C311.095 88.9746 311.258 88.8932 311.258 88.7305C311.258 88.6849 311.242 88.61 311.209 88.5059L311.16 88.3301ZM318.924 84.0039C318.924 83.3464 318.813 82.8646 318.592 82.5586C318.37 82.2526 318.003 82.0736 317.488 82.0215C317.273 82.002 317.166 81.9336 317.166 81.8164C317.166 81.6862 317.251 81.6211 317.42 81.6211L318.191 81.6602C318.27 81.6667 318.497 81.6699 318.875 81.6699C319.533 81.6699 320.044 81.6536 320.408 81.6211L321.316 81.5332C321.707 81.5007 322.137 81.4844 322.605 81.4844C325.275 81.4844 327.277 82.1549 328.611 83.4961C329.829 84.7201 330.438 86.2858 330.438 88.1934C330.438 89.4238 330.171 90.5534 329.637 91.582C329.103 92.6107 328.361 93.4212 327.41 94.0137C326.212 94.7624 324.904 95.1367 323.484 95.1367C323.315 95.1367 323.016 95.1204 322.586 95.0879C321.714 95.0293 320.955 95 320.311 95C319.614 95 319.008 95.0358 318.494 95.1074C318.26 95.14 318.074 95.1595 317.938 95.166C317.71 95.179 317.596 95.1042 317.596 94.9414C317.596 94.8307 317.687 94.7559 317.869 94.7168C318.312 94.6257 318.598 94.4629 318.729 94.2285C318.859 93.9941 318.924 93.5156 318.924 92.793V84.0039ZM320.418 83.2129V93.2812C320.418 93.6784 320.617 93.9518 321.014 94.1016C321.359 94.2318 321.798 94.3457 322.332 94.4434C322.872 94.541 323.328 94.5898 323.699 94.5898C324.812 94.5898 325.815 94.3099 326.707 93.75C328.217 92.8125 328.973 91.2174 328.973 88.9648C328.973 87.7409 328.735 86.6146 328.26 85.5859C327.791 84.5573 327.143 83.75 326.316 83.1641C325.307 82.4414 324.08 82.0801 322.635 82.0801C321.606 82.0801 320.952 82.1908 320.672 82.4121C320.503 82.5423 320.418 82.8092 320.418 83.2129Z" fill="#244061"/>
<mask id="path-3-inside-1_111_639" fill="white">
<path d="M21.4585 24.1666C33.1918 18.2833 62.3668 18.1541 74.0752 24.1666C74.0668 42.6875 74.0543 67.35 47.7668 79.4166C21.5168 67.125 21.4585 42.675 21.4585 24.1666ZM122.483 168.867H58.2918C55.598 168.581 53.0836 167.381 51.1681 165.465C49.2527 163.55 48.0521 161.035 47.7668 158.342V79.4166M74.0752 32.0625H142.475C145.169 32.3478 147.683 33.5483 149.599 35.4638C151.514 37.3792 152.715 39.8937 153 42.5875V113.617"/>
</mask>
<path d="M74.0752 24.1666L78.0752 24.1684C78.0758 22.6682 77.237 21.2937 75.9024 20.6084L74.0752 24.1666ZM47.7668 79.4166L46.0706 83.0392C47.1358 83.538 48.3666 83.5426 49.4355 83.0519L47.7668 79.4166ZM122.483 172.867C124.693 172.867 126.483 171.076 126.483 168.867C126.483 166.658 124.693 164.867 122.483 164.867V172.867ZM58.2918 168.867L57.8706 172.844C58.0105 172.859 58.1511 172.867 58.2918 172.867V168.867ZM47.7668 158.342H43.7668C43.7668 158.482 43.7743 158.623 43.7891 158.763L47.7668 158.342ZM51.7668 79.4166C51.7668 77.2075 49.976 75.4166 47.7668 75.4166C45.5577 75.4166 43.7668 77.2075 43.7668 79.4166H51.7668ZM74.0752 28.0625C71.866 28.0625 70.0752 29.8533 70.0752 32.0625C70.0752 34.2716 71.866 36.0625 74.0752 36.0625V28.0625ZM142.475 32.0625L142.896 28.0847C142.756 28.0699 142.616 28.0625 142.475 28.0625V32.0625ZM149.599 35.4638L146.77 38.2922L149.599 35.4638ZM153 42.5875H157C157 42.4468 156.993 42.3061 156.978 42.1662L153 42.5875ZM149 113.617C149 115.826 150.791 117.617 153 117.617C155.209 117.617 157 115.826 157 113.617H149ZM23.2514 27.7423C28.267 25.2274 37.7288 23.7216 47.7825 23.7057C57.8465 23.6898 67.2715 25.1694 72.2479 27.7249L75.9024 20.6084C69.1704 17.1514 58.1539 15.6893 47.7699 15.7057C37.3757 15.7221 26.3834 17.2225 19.6656 20.591L23.2514 27.7423ZM70.0752 24.1648C70.0709 33.5287 70.0337 43.6787 66.9765 52.9606C63.9992 61.9999 58.1336 70.2567 46.0981 75.7813L49.4355 83.0519C63.6876 76.5099 70.972 66.4021 74.5749 55.4633C78.0979 44.7671 78.071 33.3254 78.0752 24.1684L70.0752 24.1648ZM49.4631 75.7941C37.4226 70.1561 31.5489 61.8817 28.5665 52.8666C25.5051 43.6128 25.4585 33.5186 25.4585 24.1666H17.4585C17.4585 33.323 17.441 44.708 20.9713 55.3792C24.5806 66.2891 31.861 76.3855 46.0706 83.0392L49.4631 75.7941ZM122.483 164.867H58.2918V172.867H122.483V164.867ZM58.7131 164.889C56.9296 164.7 55.2648 163.905 53.9965 162.637L48.3397 168.294C50.9024 170.856 54.2665 172.463 57.8706 172.844L58.7131 164.889ZM53.9965 162.637C52.7283 161.369 51.9335 159.704 51.7446 157.92L43.7891 158.763C44.1708 162.367 45.777 165.731 48.3397 168.294L53.9965 162.637ZM51.7668 158.342V79.4166H43.7668V158.342H51.7668ZM74.0752 36.0625H142.475V28.0625H74.0752V36.0625ZM142.054 36.0402C143.837 36.2291 145.502 37.024 146.77 38.2922L152.427 32.6353C149.865 30.0726 146.5 28.4664 142.896 28.0847L142.054 36.0402ZM146.77 38.2922C148.039 39.5604 148.834 41.2252 149.022 43.0087L156.978 42.1662C156.596 38.5622 154.99 35.198 152.427 32.6353L146.77 38.2922ZM149 42.5875V113.617H157V42.5875H149Z" fill="#244061" mask="url(#path-3-inside-1_111_639)"/>
<path d="M144.054 176.758C161.49 176.758 175.625 162.624 175.625 145.188C175.625 127.751 161.49 113.617 144.054 113.617C126.618 113.617 112.483 127.751 112.483 145.188C112.483 162.624 126.618 176.758 144.054 176.758Z" stroke="#244061" stroke-width="5" stroke-linecap="round" stroke-linejoin="round"/>
<path d="M125.829 146.792L137.288 158.271L162.138 132.5M74.0751 126.25H113.225M74.0751 143.608H108M95.1251 53.1083V74.1541H74.0751M47.7667 31.0083V62.5791M31.9834 46.2708H63.5501M126.692 105.725H105.646V84.6833H126.692V105.725ZM105.646 53.1083H126.692V74.1541H105.646V53.1083ZM74.0751 84.6791H95.1209V105.725H74.0751V84.6791Z" stroke="#14A1CD" stroke-width="4" stroke-linecap="round" stroke-linejoin="round"/>
<path d="M114.25 88.6562C114.25 88.2939 114.543 88 114.906 88H117.094C117.457 88 117.75 88.2939 117.75 88.6562C117.75 89.0186 117.457 89.3125 117.094 89.3125H116.656V90.2318C117.496 90.3461 118.264 90.6764 118.907 91.1637L119.557 90.5143L119.248 90.205C118.991 89.9485 118.991 89.5332 119.248 89.277C119.505 89.0205 119.921 89.0205 120.175 89.277L121.723 90.8246C121.98 91.0789 121.98 91.4945 121.723 91.7516C121.466 92.0086 121.05 92.0086 120.796 91.7516L120.484 91.4426L119.836 92.0934C120.323 92.7359 120.654 93.5043 120.769 94.3438H121.688V93.9062C121.688 93.5426 121.98 93.25 122.344 93.25C122.707 93.25 123 93.5426 123 93.9062V96.0938C123 96.4574 122.707 96.75 122.344 96.75C121.98 96.75 121.688 96.4574 121.688 96.0938V95.6562H120.769C120.654 96.4957 120.323 97.2641 119.836 97.9066L120.484 98.5574L120.796 98.2484C121.05 97.9914 121.466 97.9914 121.723 98.2484C121.98 98.5055 121.98 98.9211 121.723 99.1754L120.175 100.723C119.921 100.98 119.505 100.98 119.248 100.723C118.991 100.466 118.991 100.05 119.248 99.7961L119.557 99.4844L118.907 98.8363C118.264 99.323 117.496 99.6539 116.656 99.7687V100.688H117.094C117.457 100.688 117.75 100.98 117.75 101.344C117.75 101.707 117.457 102 117.094 102H114.906C114.543 102 114.25 101.707 114.25 101.344C114.25 100.98 114.543 100.688 114.906 100.688H115.344V99.7687C114.504 99.6539 113.736 99.323 113.093 98.8363L112.443 99.4871L112.752 99.7961C113.009 100.05 113.009 100.466 112.752 100.723C112.495 100.98 112.079 100.98 111.825 100.723L110.277 99.1754C110.02 98.9211 110.02 98.5055 110.277 98.2484C110.533 97.9914 110.949 97.9914 111.205 98.2484L111.514 98.5574L112.164 97.9066C111.676 97.2641 111.346 96.4957 111.232 95.6562H110.312V96.0938C110.312 96.4574 110.019 96.75 109.656 96.75C109.294 96.75 109 96.4574 109 96.0938V93.9062C109 93.5426 109.294 93.25 109.656 93.25C110.019 93.25 110.312 93.5426 110.312 93.9062V94.3438H111.232C111.346 93.5043 111.676 92.7359 112.164 92.0934L111.514 91.4426L111.205 91.7516C110.949 92.0086 110.533 92.0086 110.277 91.7516C110.02 91.4945 110.02 91.0789 110.277 90.8246L111.825 89.277C112.079 89.0207 112.495 89.0207 112.752 89.277C113.009 89.5332 113.009 89.9488 112.752 90.205L112.443 90.5143L113.093 91.1637C113.736 90.6764 114.504 90.3461 115.344 90.2318V89.3125H114.906C114.543 89.3125 114.25 89.0188 114.25 88.6562ZM114.25 92.8125C113.525 92.8125 112.938 93.4004 112.938 94.125C112.938 94.8496 113.525 95.4375 114.25 95.4375C114.975 95.4375 115.562 94.8496 115.562 94.125C115.562 93.4004 114.975 92.8125 114.25 92.8125ZM117.312 96.9688C117.676 96.9688 117.969 96.6762 117.969 96.3125C117.969 95.9488 117.676 95.6562 117.312 95.6562C116.949 95.6562 116.656 95.9488 116.656 96.3125C116.656 96.6762 116.949 96.9688 117.312 96.9688Z" fill="#244061"/>
</svg>
