<svg width="40" height="40" viewBox="0 0 40 40" fill="none" xmlns="http://www.w3.org/2000/svg">
<path d="M34.2857 0H5.71429C2.55625 0 0 2.55625 0 5.71429V34.2857C0 37.4446 2.55536 40 5.71429 40H34.2857C37.4446 40 40 37.4446 40 34.2857V5.71429C40 2.55625 37.4464 0 34.2857 0ZM34.2857 27.1429C34.2857 28.7205 33.0062 30 31.4286 30H8.57143C6.99375 30 5.71429 28.7205 5.71429 27.1429V17.3125L18.0804 23.4973C18.6875 23.7946 19.3393 23.9464 20 23.9464C20.6607 23.9464 21.317 23.7957 21.917 23.4958L34.2857 17.3125V27.1429ZM34.2857 14.1161L20.6429 20.9393C20.2411 21.1402 19.7668 21.1402 19.3652 20.9393L5.71429 14.1161V12.8571C5.71429 11.2795 6.99375 10 8.57143 10H31.4286C33.0062 10 34.2857 11.2795 34.2857 12.8571V14.1161Z" fill="url(#paint0_radial_50_203)"/>
<defs>
<radialGradient id="paint0_radial_50_203" cx="0" cy="0" r="1" gradientUnits="userSpaceOnUse" gradientTransform="translate(20 20) rotate(90) scale(20)">
<stop stop-color="#123B40" stop-opacity="0"/>
<stop offset="0.0001" stop-color="#123B40"/>
</radialGradient>
</defs>
</svg>
