<svg width="926" height="40" viewBox="0 0 926 40" fill="none" xmlns="http://www.w3.org/2000/svg">
<path d="M912.117 10.0097C907.38 12.3141 903.595 12.8902 889.473 13.5383C867.781 14.5225 859.857 13.8743 847.284 17.3069H77.7381C65.1876 13.8743 57.2633 14.5225 35.5488 13.5383C21.4267 12.9142 17.6416 12.3141 12.9047 10.0097C6.88399 7.1052 2.6562 3.02451 0 0C0.39843 1.15219 1.19529 3.26455 2.61193 5.61695C4.91397 9.40959 10.2042 15.9627 36.4785 23.956C39.5995 24.9162 44.3143 26.2844 50.1579 27.6767C47.5017 27.2446 43.451 26.9806 38.7141 28.1328C35.6374 28.8769 33.1361 30.0531 31.2546 31.1093C33.0254 33.2216 34.8626 34.7339 36.6777 35.8621C51.9951 45.4637 73.621 31.7574 80.992 26.4525H844.03C851.401 31.7574 873.005 45.4397 888.344 35.8621C890.137 34.7339 891.997 33.1976 893.767 31.1093C891.886 30.0531 889.385 28.9009 886.308 28.1328C881.571 26.9806 877.52 27.2446 874.864 27.6767C880.708 26.2604 885.4 24.9162 888.544 23.956C914.818 15.9387 920.108 9.38559 922.41 5.61695C923.827 3.28856 924.624 1.1762 925.022 0C922.366 3.02451 918.138 7.1052 912.117 10.0097Z" fill="#A68053"/>
</svg>
