<svg width="90" height="90" viewBox="0 0 90 90" fill="none" xmlns="http://www.w3.org/2000/svg">
<g clip-path="url(#clip0_156_19406)">
<path d="M45.0782 89.0662C69.4391 89.0662 89.1875 69.2923 89.1875 44.9C89.1875 20.5077 69.4391 0.733887 45.0782 0.733887C20.7172 0.733887 0.96875 20.5077 0.96875 44.9C0.96875 69.2923 20.7172 89.0662 45.0782 89.0662Z" fill="url(#paint0_linear_156_19406)" stroke="#B47D1C" stroke-width="0.25" stroke-miterlimit="10"/>
<path d="M45.0775 88.3302C69.0326 88.3302 88.4519 68.8858 88.4519 44.9C88.4519 20.9141 69.0326 1.46973 45.0775 1.46973C21.1225 1.46973 1.70312 20.9141 1.70312 44.9C1.70312 68.8858 21.1225 88.3302 45.0775 88.3302Z" fill="url(#paint1_linear_156_19406)"/>
<path d="M45.4001 82.6424C66.1069 82.6424 82.8931 65.8346 82.8931 45.1012C82.8931 24.3678 66.1069 7.56006 45.4001 7.56006C24.6934 7.56006 7.90723 24.3678 7.90723 45.1012C7.90723 65.8346 24.6934 82.6424 45.4001 82.6424Z" fill="url(#paint2_linear_156_19406)"/>
<path d="M45.3995 81.9063C65.7004 81.9063 82.1574 65.4281 82.1574 45.1011C82.1574 24.7742 65.7004 8.2959 45.3995 8.2959C25.0987 8.2959 8.6416 24.7742 8.6416 45.1011C8.6416 65.4281 25.0987 81.9063 45.3995 81.9063Z" fill="#12151A"/>
<path d="M70.179 24.2826C81.6625 37.9855 79.8776 58.4146 66.1923 69.9123C52.5071 81.41 32.1041 79.6234 20.6213 65.9205C9.13836 52.2176 10.9227 31.7884 24.608 20.2907C38.2932 8.79306 58.6956 10.5802 70.179 24.2826Z" fill="url(#paint3_linear_156_19406)"/>
<path d="M68.2727 22.199C71.5955 25.5203 73.4763 28.8473 74.4312 30.7887C75.3415 32.6382 77.268 37.0029 77.6731 42.9013C77.7586 44.1478 77.948 47.9584 77.0304 51.9112C76.5931 53.796 75.8893 55.7763 75.6341 56.4936C75.2596 57.5474 74.9375 58.3378 74.5552 59.147C74.1838 59.9328 73.8648 60.5062 73.6469 60.8952C72.6344 62.7047 71.5753 64.1339 71.5753 64.1339C71.028 64.8652 70.526 65.4858 70.1032 65.987C69.2816 66.9608 68.6374 67.6313 68.4807 67.7934C67.8178 68.4795 67.629 68.6503 67.5393 68.7236C67.2789 68.9365 66.6985 69.4039 65.8432 69.7389C65.5501 69.8537 64.536 70.223 63.1937 70.116C61.6915 69.9965 60.6189 69.3478 60.1276 69.0035C59.5472 68.5262 58.86 67.8495 58.2437 66.9255C56.8111 64.7764 56.6285 62.5831 56.615 61.5221C56.6773 58.3462 56.7027 57.1532 56.7126 56.7933C56.7131 56.7772 56.7302 56.1259 56.7302 56.1259C56.7302 56.1259 57.0238 46.5374 52.1859 37.5659C52.1859 37.5659 46.9439 27.845 34.9507 23.326C32.0122 22.2187 28.4965 21.7897 26.7309 21.8619C25.3527 21.9185 24.4564 22.1221 24.4564 22.1221C23.0284 22.4467 21.935 23.0159 21.866 22.8804C21.8562 22.8606 21.8655 22.8212 22.5066 22.2192C22.8308 21.9149 22.962 21.7965 22.962 21.7965C23.5165 21.2968 23.8163 21.0055 24.0648 20.7775C24.6302 20.2586 25.5202 19.5268 26.4731 18.833C26.8351 18.5691 27.7818 17.8919 29.0863 17.1274C29.8954 16.6532 30.8208 16.1582 31.8597 15.6778C36.8397 13.3745 42.369 12.853 42.369 12.853C48.5348 12.2713 53.3903 13.6191 55.615 14.3607C61.7693 16.4117 65.9412 19.8686 68.2727 22.199Z" fill="url(#paint4_linear_156_19406)"/>
<path d="M45.3958 35.2292C40.5947 35.2292 36.72 39.1088 36.72 43.916C36.72 48.7233 40.5947 52.6029 45.3958 52.6029C50.1968 52.6029 54.0715 48.7233 54.0715 43.916C54.0715 39.1088 50.1968 35.2292 45.3958 35.2292ZM45.3958 49.562C42.2908 49.562 39.757 47.025 39.757 43.916C39.757 40.8071 42.2908 38.27 45.3958 38.27C48.5007 38.27 51.0345 40.8071 51.0345 43.916C51.034 47.025 48.5007 49.562 45.3958 49.562ZM54.4268 32.8489C53.3059 32.8489 52.4007 33.7552 52.4007 34.8776C52.4007 35.9999 53.3059 36.9062 54.4268 36.9062C55.5477 36.9062 56.4528 36.0041 56.4528 34.8776C56.4533 34.6111 56.4009 34.3473 56.2993 34.1006C56.1976 33.8544 56.0482 33.6306 55.8599 33.442C55.6716 33.2535 55.4481 33.1039 55.2022 33.0021C54.9564 32.9009 54.6929 32.8484 54.4268 32.8489ZM62.3073 43.916C62.3073 41.5779 62.3286 39.2615 62.1974 36.9275C62.0661 34.2169 61.4489 31.8112 59.469 29.8288C57.485 27.8423 55.0866 27.2284 52.3795 27.097C50.0443 26.9656 47.7309 26.9869 45.3999 26.9869C43.0647 26.9869 40.7513 26.9656 38.4203 27.097C35.7133 27.2284 33.3107 27.8464 31.3308 29.8288C29.3468 31.8154 28.7337 34.2169 28.6024 36.9275C28.4712 39.2657 28.4925 41.582 28.4925 43.916C28.4925 46.2495 28.4712 48.5711 28.6024 50.9046C28.7337 53.6152 29.3509 56.0209 31.3308 58.0033C33.3148 59.9898 35.7133 60.6037 38.4203 60.7351C40.7555 60.8665 43.0689 60.8452 45.3999 60.8452C47.7346 60.8452 50.0485 60.8665 52.3795 60.7351C55.0866 60.6037 57.4892 59.9857 59.469 58.0033C61.453 56.0167 62.0661 53.6152 62.1974 50.9046C62.3322 48.5711 62.3073 46.2542 62.3073 43.916ZM58.0685 53.1976C57.7718 53.9268 57.4145 54.4721 56.8418 55.033C56.2692 55.5981 55.7209 55.9507 54.9818 56.2437C52.8453 57.0814 47.7719 56.8929 45.4035 56.8929C43.0352 56.8929 37.9582 57.0814 35.8211 56.2478C35.082 55.9549 34.5296 55.6022 33.9606 55.0372C33.3879 54.4721 33.0306 53.9309 32.7339 53.2017C31.8889 51.0895 32.0798 46.0839 32.0798 43.7467C32.0798 41.4101 31.8889 36.4003 32.7339 34.2917C33.0306 33.5625 33.3879 33.0172 33.9606 32.4563C34.5332 31.8954 35.0815 31.5386 35.8211 31.2457C37.9577 30.4121 43.0352 30.6006 45.4035 30.6006C47.7719 30.6006 52.8489 30.4121 54.9859 31.2457C55.7251 31.5381 56.2775 31.8907 56.846 32.4563C57.4186 33.0214 57.776 33.5625 58.0727 34.2917C58.9176 36.3998 58.7268 41.4096 58.7268 43.7467C58.7268 46.0839 58.9176 51.0895 58.0685 53.1976Z" fill="url(#paint5_linear_156_19406)"/>
</g>
<defs>
<linearGradient id="paint0_linear_156_19406" x1="7.73454" y1="23.3966" x2="82.505" y2="66.3407" gradientUnits="userSpaceOnUse">
<stop offset="0.0213" stop-color="#FAEBAB"/>
<stop offset="0.0236" stop-color="#F9EAA9"/>
<stop offset="0.1046" stop-color="#DCBB6D"/>
<stop offset="0.1736" stop-color="#C69941"/>
<stop offset="0.2269" stop-color="#B98526"/>
<stop offset="0.2582" stop-color="#B47D1C"/>
<stop offset="0.3301" stop-color="#C79B43"/>
<stop offset="0.4901" stop-color="#F6E5A4"/>
<stop offset="0.5018" stop-color="#FAEBAB"/>
<stop offset="0.5844" stop-color="#E0C377"/>
<stop offset="0.7338" stop-color="#B47D1C"/>
<stop offset="0.7697" stop-color="#BB882A"/>
<stop offset="0.8377" stop-color="#CDA44F"/>
<stop offset="0.9297" stop-color="#EAD28A"/>
<stop offset="0.9768" stop-color="#FAEBAB"/>
</linearGradient>
<linearGradient id="paint1_linear_156_19406" x1="7.51437" y1="23.1838" x2="82.6872" y2="66.5303" gradientUnits="userSpaceOnUse">
<stop offset="0.0221" stop-color="#B47D1C"/>
<stop offset="0.0597" stop-color="#B98627"/>
<stop offset="0.1261" stop-color="#C89C45"/>
<stop offset="0.2128" stop-color="#DFC175"/>
<stop offset="0.2993" stop-color="#FAEBAB"/>
<stop offset="0.3148" stop-color="#F1DD99"/>
<stop offset="0.3572" stop-color="#DBBB6C"/>
<stop offset="0.3981" stop-color="#CAA049"/>
<stop offset="0.4365" stop-color="#BE8D30"/>
<stop offset="0.4714" stop-color="#B78121"/>
<stop offset="0.4997" stop-color="#B47D1C"/>
<stop offset="0.5326" stop-color="#B98526"/>
<stop offset="0.5891" stop-color="#C79A42"/>
<stop offset="0.6624" stop-color="#DDBD6F"/>
<stop offset="0.7469" stop-color="#FAEBAB"/>
<stop offset="0.8084" stop-color="#E3C87D"/>
<stop offset="0.8863" stop-color="#CA9F49"/>
<stop offset="0.945" stop-color="#BA8628"/>
<stop offset="0.9773" stop-color="#B47D1C"/>
</linearGradient>
<linearGradient id="paint2_linear_156_19406" x1="13.0986" y1="26.3617" x2="78.0228" y2="63.9262" gradientUnits="userSpaceOnUse">
<stop offset="0.0331" stop-color="#FAEBAB"/>
<stop offset="0.2483" stop-color="#B47D1C"/>
<stop offset="0.2646" stop-color="#B98627"/>
<stop offset="0.3743" stop-color="#DCBC6E"/>
<stop offset="0.4533" stop-color="#F2DE9A"/>
<stop offset="0.4932" stop-color="#FAEBAB"/>
<stop offset="0.5146" stop-color="#F3E09C"/>
<stop offset="0.6533" stop-color="#C69940"/>
<stop offset="0.7159" stop-color="#B47D1C"/>
<stop offset="0.7467" stop-color="#B88425"/>
<stop offset="0.7973" stop-color="#C5973E"/>
<stop offset="0.8615" stop-color="#D8B666"/>
<stop offset="0.936" stop-color="#F3E19E"/>
<stop offset="0.9525" stop-color="#FAEBAB"/>
</linearGradient>
<linearGradient id="paint3_linear_156_19406" x1="20.6189" y1="65.9186" x2="70.2275" y2="24.3461" gradientUnits="userSpaceOnUse">
<stop offset="0.0854" stop-color="#181D21"/>
<stop offset="0.1043" stop-color="#1C2125" stop-opacity="0.9313"/>
<stop offset="0.1236" stop-color="#282D31" stop-opacity="0.8616"/>
<stop offset="0.1429" stop-color="#3D4144" stop-opacity="0.7913"/>
<stop offset="0.1624" stop-color="#595D5F" stop-opacity="0.7206"/>
<stop offset="0.182" stop-color="#7E8183" stop-opacity="0.6497"/>
<stop offset="0.2016" stop-color="#ABACAE" stop-opacity="0.5784"/>
<stop offset="0.221" stop-color="#DFE0E0" stop-opacity="0.5082"/>
<stop offset="0.2233" stop-color="#E6E6E6" stop-opacity="0.5"/>
<stop offset="0.2321" stop-color="#C7C8C9" stop-opacity="0.5223"/>
<stop offset="0.2458" stop-color="#9EA0A2" stop-opacity="0.5571"/>
<stop offset="0.2607" stop-color="#7A7D7F" stop-opacity="0.5951"/>
<stop offset="0.2767" stop-color="#5C5F62" stop-opacity="0.6359"/>
<stop offset="0.2943" stop-color="#43474A" stop-opacity="0.6804"/>
<stop offset="0.3138" stop-color="#303438" stop-opacity="0.73"/>
<stop offset="0.3365" stop-color="#22272B" stop-opacity="0.7877"/>
<stop offset="0.3652" stop-color="#1A1F23" stop-opacity="0.8607"/>
<stop offset="0.4201" stop-color="#181D21"/>
</linearGradient>
<linearGradient id="paint4_linear_156_19406" x1="34.8151" y1="52.9705" x2="79.5035" y2="19.3705" gradientUnits="userSpaceOnUse">
<stop offset="0.146" stop-color="#4D565F"/>
<stop offset="0.3652" stop-color="#333A41" stop-opacity="0.9619"/>
<stop offset="0.5844" stop-color="#1F252A" stop-opacity="0.9238"/>
<stop offset="0.721" stop-color="#181D21" stop-opacity="0.9"/>
</linearGradient>
<linearGradient id="paint5_linear_156_19406" x1="28.5413" y1="60.8161" x2="64.826" y2="24.5361" gradientUnits="userSpaceOnUse">
<stop offset="0.122" stop-color="#FAEBAB"/>
<stop offset="0.4613" stop-color="#B47D1C"/>
<stop offset="0.815" stop-color="#FAEBAB"/>
</linearGradient>
<clipPath id="clip0_156_19406">
<rect width="90" height="90" fill="white"/>
</clipPath>
</defs>
</svg>
