<?xml version="1.0" encoding="UTF-8"?><svg id="Capa_2" xmlns="http://www.w3.org/2000/svg" viewBox="0 0 760.19 562.7"><defs><style>.cls-1{fill:#bfa375;}.cls-2{fill:#fff;}.cls-3{fill:#bca070;}.cls-4{fill:#a81f1e;}.cls-5{fill:#ac2926;}.cls-6{fill:#a9211f;}.cls-7{fill:#bb9e6e;}.cls-8{fill:#fdfbfa;}.cls-9{fill:#fefdfc;}.cls-10{fill:#a71e1c;}.cls-11{fill:none;stroke:#bca070;stroke-miterlimit:10;}.cls-12{fill:#c5ac83;}.cls-13{fill:#c0a578;}.cls-14{fill:#c0a477;}</style></defs><g id="Capa_1-2"><path class="cls-7" d="M35.49,500.56c-12.3-4.6-26.4-5.74-35.49-17.34,.76-.52,1.15-.86,1.2-.81,12.13,10.38,27.06,7.95,41.09,8.44,145.18,5.04,290.41,1.13,435.62,2.16,71.8,.51,143.61,.52,215.4-.23,16.85-.17,33.82-1.83,50.71-3.21,6.14-.5,11.05-3.93,16.17-7.02-2.87,6.93-9.32,9.27-15.5,11.65-6.32,2.43-12.85,4.28-19.6,6.48,2,.32,3.72,.35,5.25,.9,1.74,.62,4.69,.32,4.76,2.64,.06,1.99-2.54,2.83-4.29,3.73-6.21,3.19-12.62,2.5-18.95,.61-3.17-.94-6.56-1.91-9.18-3.8-6.09-4.38-12.78-4.63-19.87-4.62-203.24,.09-406.49,.08-609.73,0-4.29,0-8.04,.72-11.78,2.98-6.9,4.17-14.31,7.07-22.59,6.95-4.31-.06-8.16-1.43-11.61-3.96-2.2-1.62-1.9-2.94,.61-3.67,2.53-.74,5.12-1.26,7.79-1.9Z"/><g><path class="cls-1" d="M76.67,550.09c-3.22,1.24-5.52,.91-7.57-1.78-2.72-3.56-5.7-6.92-8.6-10.34-.63-.75-1.49-1.65-2.49-1.04-.47,.29-.6,1.43-.59,2.19,.08,3.82-1.21,8.06,3.92,10.78-4.62,1.4-8.41,.95-12.5,.52,5.25-6.32,5.16-24.36,.17-28.8,6.35-.24,12.83-1.9,18.96,1.19,4.4,2.22,4.84,8.5,.51,11.14-3.89,2.37-2.55,3.89-.44,6.2,2.86,3.14,5.58,6.42,8.63,9.94Zm-19.61-21.32c1.41,1.7-1.74,5.71,3.23,5.6,3.78-.09,5.98-2.24,5.93-5.82-.05-3.7-2.65-5.55-6.26-5.51-4.44,.06-1.69,3.71-2.9,5.73Z"/><path class="cls-1" d="M288.23,529.02c-2.55-.36-2.61-2.21-3.51-3.29-4.47-5.38-12.91-4.3-15.54,2.12-2.19,5.35-1.87,10.77,.51,15.94,2,4.34,5.7,5.61,10.34,5.04,4.36-.54,3.22-3.68,3.42-6.34,.24-3.32-1.92-3.31-4.21-3.25-.83,.02-1.66-.01-2.49-.02-1.37-.02-2.22-.57-2.09-2.1,.11-1.25,.92-1.68,2.03-1.68,3.16-.02,6.31-.01,9.47,0,.33,0,.82-.05,.96,.14,2.91,3.64,.65,7.88,1.34,11.8,.36,2.04-.68,3.21-2.65,3.37-3.28,.27-6.47,1.14-9.87,.65-6.61-.96-11.32-4.45-13.05-10.71-1.73-6.25-.45-12.26,4.91-16.7,5.41-4.48,11.5-4.79,17.82-2.41,3.52,1.33,2.61,4.44,2.59,7.44Z"/><path class="cls-1" d="M487.13,528.89c-2.24-.02-2.28-1.69-3.01-2.67-2.33-3.1-5.46-4.21-9.2-3.69-3.68,.51-6.1,2.69-7.03,6.21-1.3,4.92-1.3,9.88,.63,14.69,1.37,3.41,4.06,5.22,7.65,5.56,5.36,.51,8.03-3.1,6.15-8.13-.93-2.49-3.07-1.26-4.7-1.6-1.43-.29-3.82,.82-3.67-1.94,.13-2.49,2.35-1.83,3.89-1.89,9.65-.37,9.42-.35,9.73,9.65,.14,4.3-1.17,6.14-5.43,6.08-2.46-.03-4.85,.66-7.41,.19-6.51-1.19-11.15-4.61-12.83-11.02-1.69-6.44-.06-12.31,5.29-16.57,5.45-4.35,11.63-4.63,17.88-1.97,3.45,1.47,2.07,4.46,2.07,7.1Z"/><path class="cls-14" d="M655.92,549.21c-10.2,3.28-16.23-1.63-14.55-11.49,.86-5.03,4.86-8.1,9.9-7.8,2.38,.14,4.44,2.16,7.26,.5,1.45-.86,1.74,1.39,1.74,2.7,0,6.47,.27,12.97-.14,19.41-.5,7.96-7.02,11.96-14.58,9.36-1.25-.43-2.69-.89-2.12-2.72,.55-1.74,1.75-.82,2.83-.61,7.73,1.47,10.23-.86,9.65-9.36Zm-10.65-7.68c.08,2.45,.99,5.53,5.36,5.79,3.68,.21,5.66-2.4,5.61-7.16-.04-3.64-.92-6.77-5.25-7.09-3.41-.25-5.74,2.86-5.72,8.46Z"/><path class="cls-1" d="M147.35,549.33c-5.58,2.01-10.03,.71-14.42,1.33-4.16,.59-6.88-4.3-6.58-9.93,.31-5.78,4.35-10.19,9.4-10.54,1.3-.09,3.18,1.78,3.81-.39,.51-1.76,.97-3.96-.72-5.61-.7-.69-1.86-1.4-.46-2.22,1.24-.73,2.76-1.27,4.18-1.33,1.35-.05,1.05,1.43,1.06,2.34,.04,6.48,.06,12.96,0,19.44-.02,2.68-.16,5.33,3.72,6.92Zm-7.19-8.7c-.19-3.52,.59-8.13-4.58-8.33-4.52-.17-5.25,3.73-5.21,7.45,.04,3.87,.75,7.8,5.44,8.02,4.86,.23,4.54-3.71,4.34-7.14Z"/><path class="cls-1" d="M177.01,550.13c-3.57,.94-6.31,.78-9.81,.21,4.01-3.69,3.12-8.17,3.09-12.47,0-.96-.29-1.93-.54-2.87-.28-1.07-3.19-1.12-1.46-2.82,1.24-1.22,3.87-2.43,4.92-1.52,1.96,1.71,3.21,.56,4.82,.06,4.49-1.38,7.2,.4,7.54,5.01,.15,1.99,.05,3.99,.06,5.99q.02,4.76,2.84,8.32c-2.94,1.24-5.8,.74-9.39,.32,4.1-4.23,2.41-9.09,2.65-13.67,.09-1.64-.58-3.08-2.49-3.04-1.97,.04-4.75,.09-4.8,2.49-.1,4.58-2.01,9.58,2.56,13.98Z"/><path class="cls-1" d="M569.45,550.32c-3.14,.76-5.86,.42-9.67,.27,5.45-4.63,3.29-9.93,3.41-14.8,.04-1.68-1.53-2.72-3.19-2.35-1.67,.38-4.42,.46-4.33,2.6,.19,4.69-2.49,10,3.23,14.08-3.79,1.11-6.79,.48-10.85,.63,5.25-5.03,3.17-10.39,3.17-15.43,0-1.18-3.25-1.67-.92-3.37,1.28-.94,3.65-2.2,4.45-1.18,1.68,2.15,2.81,.68,4.2,.19,5.09-1.79,8.03,.16,8.32,5.67,.15,2.99,.21,6,0,8.99-.14,1.95,1.86,2.6,2.19,4.7Z"/><path class="cls-14" d="M429.38,530.21c4.57-.02,6.34,1.65,6.82,5.34,.54,4.19-1.61,8.59,1.8,12.72,1.07,1.3-2.03,3.48-3.98,2.14-1.93-1.32-3.17-.89-4.89-.08-2.85,1.35-5.34,.6-6.77-2.18-1.4-2.7,.07-4.89,2.2-6.45,1.45-1.06,3.17-1.89,4.9-2.37,2.17-.6,3.18-1.68,2.66-3.92-.4-1.72-1.14-3.23-3.21-3.23-2.27,0-2.62,1.42-2.49,3.38,.1,1.66-1.06,2.56-2.56,1.95-1.43-.58-1.63-2.16-1.04-3.45,1.47-3.19,4.49-3.62,6.56-3.86Zm-.48,17.72c2.09-.5,3.54-1.6,3.41-4-.06-1.18,.43-3.07-1.66-2.73-2.09,.34-4.21,1.19-4.42,3.81-.14,1.75,.94,2.66,2.67,2.91Z"/><path class="cls-13" d="M230.39,530.22c4.28-.08,6.03,1.62,6.55,5.26,.6,4.18-1.61,8.6,1.84,12.7,1.04,1.23-2.04,3.63-3.89,2.24-2.15-1.62-3.56-.71-5.34,.03-2.72,1.13-4.92,.35-6.34-2.16-1.41-2.48-.29-4.59,1.65-6.11,1.54-1.2,3.33-2.26,5.18-2.81,2.55-.75,2.95-2.33,2.6-4.53-.24-1.45-1.01-2.51-2.55-2.61-2.54-.16-3.01,1.32-2.76,3.52,.17,1.52-1.19,2.14-2.28,2-1.73-.22-1.87-1.86-1.5-3.13,1.09-3.75,4.35-4.06,6.84-4.4Zm2.82,13.48c-.08-1.31,.04-3-2-2.52-2.14,.5-4.27,1.54-4.38,4.06-.07,1.61,1.34,2.79,3.01,2.6,2.28-.26,3.43-1.79,3.36-4.15Z"/><path class="cls-14" d="M349.43,530.19c4.08,.04,6.13,1.59,6.05,5.43-.06,2.99,.61,6.16-.18,8.93-.73,2.57,4.69,2.66,1.6,5.45-2.3,2.07-3.87-.41-5.79-.7-.83-.13-1.8,.72-2.71,1.11-2.71,1.15-5.03,.44-6.44-2.02-1.35-2.35-.32-4.51,1.51-6.25,1.61-1.53,3.64-2.38,5.72-2.91,2.48-.63,2.5-2.35,2.26-4.24-.26-1.97-1.56-2.95-3.47-2.75-2.19,.22-2.58,1.45-1.92,3.54,.47,1.5-1.1,2.01-2.19,1.98-1.57-.05-1.69-1.51-1.51-2.63,.7-4.35,4.3-4.41,7.07-4.91Zm2.19,14.14c-.37-1.11,.8-3.35-1.71-3.08-1.93,.21-3.85,1.16-4.34,3.38-.37,1.68,.54,3.03,2.23,3.16,2.21,.17,3.74-.9,3.82-3.46Z"/><path class="cls-14" d="M596.2,530.21c4.98,.06,9.14,4.91,9.08,10.58-.06,5.77-4.28,10.33-9.4,10.18-5.02-.15-9.29-5.08-9.16-10.56,.14-5.73,4.34-10.25,9.48-10.19Zm4.54,12.12c-.14-3.41-.23-6.09-1.98-8.32-2.16-2.75-5.5-2.57-6.68,.65-1.54,4.19-1.31,8.49,1.02,12.46,.79,1.35,2.03,2.21,3.72,2.01,1.87-.22,3.04-1.37,3.46-3.11,.35-1.44,.37-2.95,.45-3.7Z"/><path class="cls-14" d="M629.6,530.21c5.03-.04,9.35,4.64,9.47,10.26,.12,5.6-4.03,10.35-9.17,10.5-4.98,.14-9.36-4.64-9.4-10.26-.04-5.79,4-10.46,9.09-10.5Zm4.87,13.12c.11-4.19-.22-7.01-2-9.37-2.04-2.71-5.71-2.43-6.7,.75-1.31,4.2-1.24,8.54,1.17,12.5,.82,1.35,2.08,2.14,3.77,1.93,1.9-.23,2.97-1.49,3.43-3.17,.35-1.26,.32-2.62,.32-2.63Z"/><path class="cls-13" d="M93.22,545.45c.51,2.31-.91,3.09-2.07,3.93-4.06,2.93-9.45,1.7-12.07-2.7-3.01-5.04-1.18-12.84,3.63-15.46,4.08-2.22,8.77-.48,10.78,3.95,1.09,2.4,.9,3.85-2.24,3.63-1.49-.1-3.06-.29-4.48,.05-1.74,.42-5.12-1.76-4.91,2,.18,3.23,1.96,6.01,5.9,6.32,1.97,.16,3.38-1.23,5.48-1.73Zm-7.64-8.39c1.26-.56,3.76,1.08,3.58-1.82-.11-1.72-1.46-2.99-3.34-3.09-2.46-.12-3.89,1.64-3.83,3.64,.07,2.21,2.38,.71,3.59,1.27Z"/><path class="cls-13" d="M309.25,545.42c.34,2.38-1.03,3.18-2.22,4.01-3.94,2.78-9.08,1.71-11.78-2.4-3.2-4.85-1.66-12.74,3.05-15.6,3.88-2.36,8.33-1.15,10.7,2.95,1.56,2.7,1.9,4.81-2.39,4.43-1.16-.1-2.4-.26-3.48,.04-1.87,.51-5.16-1.86-5.39,2.11-.2,3.5,3.7,6.71,7.04,6.09,1.41-.26,2.74-.98,4.48-1.64Zm-7.38-8.25c.75-1.1,3.59,1.21,3.25-1.97-.18-1.72-1.49-2.96-3.39-3.05-2.21-.11-3.6,1.38-3.71,3.22-.16,2.72,2.31,1.15,3.85,1.8Z"/><path class="cls-13" d="M508.94,544.75c-2.95,5.86-6.84,7.44-11.08,5.41-4.14-1.99-5.59-5.62-5.27-9.91,.32-4.39,2-8.14,6.6-9.67,3.98-1.33,8.63,1.57,9.65,5.71,.46,1.85-.15,2.49-1.88,2.49-2.17,0-4.33-.03-6.5,.02-4.18,.08-4.95,1.43-2.8,5.08,2.69,4.56,6.41,3.76,11.28,.87Zm-8.36-7.71c1.26-.43,3.44,.82,3.52-1.45,.06-1.95-1.38-3.35-3.49-3.44-2.21-.09-3.59,1.47-3.64,3.3-.09,2.75,2.41,1.01,3.62,1.59Z"/><path class="cls-14" d="M545.57,540.76c-.02,6-3.91,10.31-9.2,10.21-5.12-.1-9.05-4.71-8.98-10.53,.07-5.92,4.04-10.3,9.26-10.22,5.11,.08,8.94,4.61,8.92,10.54Zm-4.18,.79c.17-2.02-.42-4.12-1.29-6.1-.83-1.88-2.09-3.56-4.51-3.21-2.08,.3-2.91,1.88-3.48,3.77-1.19,3.94-.43,7.67,1.48,11.06,1.79,3.18,5.42,2.83,7.05-.43,.77-1.55,.77-3.22,.75-5.09Z"/><path class="cls-12" d="M607.78,549.49c2.76-1.27,2.92-3.66,2.87-6.25-.08-4.97,0-9.94-.04-14.9,0-1.14-.14-2.3-.37-3.42-.21-1.08-3-1.43-1.19-2.95,1.17-.98,3.09-1.68,4.56-1.52,2.05,.22,1.25,2.37,1.27,3.7,.09,6.13,.03,12.25,.04,18.38,0,1.16-.38,2.58,.15,3.43,4.87,7.86-2.43,3.98-4.68,4.83-.66,.25-1.66,.22-2.62-1.31Z"/><path class="cls-14" d="M695.23,540.09c.17-5.71,3.98-9.87,9.04-9.87,5.29,0,9.29,4.77,9.13,10.89-.16,5.88-4.34,10.17-9.6,9.86-5.1-.3-8.75-4.93-8.57-10.87Zm4.17-.44c-.05,2.7,.42,5.31,1.95,7.55,1.91,2.8,5.24,2.66,6.86-.16,1.86-3.24,1.11-10.43-1.38-13.21-2.35-2.62-5.15-2.21-6.69,.96-.75,1.54-.75,3.2-.73,4.85Z"/><path class="cls-1" d="M164.11,545.81c.34,1.89-1.09,2.64-2.2,3.48-3.87,2.91-9,1.93-11.76-2.17-3.15-4.67-1.94-12.21,2.45-15.31,3.72-2.63,8.39-1.76,10.89,2.04,.75,1.13,1.46,2.41,1.02,3.73-.55,1.65-2.2,1.09-3.45,1.18-.99,.07-2.01-.11-2.99,.04-1.84,.28-4.31-1.07-5.37,1.17-.81,1.71,.35,3.58,1.48,5.03,1.45,1.86,3.41,2.46,5.78,2.03,1.42-.26,2.43-1.83,4.16-1.24Zm-7.74-8.73c1.2-.62,3.72,1.15,3.5-1.81-.13-1.73-1.34-3.03-3.27-3.12-2.16-.11-3.65,1.27-3.81,3.12-.26,2.87,2.31,1.24,3.58,1.81Z"/><path class="cls-13" d="M97.07,543.66c2.17,.54,1.85,2.51,2.88,3.49,1.67,1.57,3.64,2.2,5.25,.45,1.63-1.76,.34-3.38-1.29-4.52-1.76-1.23-3.7-2.23-5.37-3.57-1.99-1.6-2.91-3.83-1.48-6.16,1.9-3.1,4.83-3.59,8.26-2.72,2.89,.74,3.84,2.28,2.88,5.06-1.66,.3-1.62-1.38-2.42-2.06-1.48-1.25-3.21-2.42-4.77-.65-1.72,1.95,0,3.26,1.58,4.34,1.77,1.21,3.7,2.24,5.29,3.66,2.28,2.02,2.72,4.63,.79,7.1-2.65,3.39-6.14,3.53-9.83,1.84-3.03-1.39-2.38-3.71-1.78-6.24Z"/><path class="cls-13" d="M692.89,545.99c-2.96,4.51-6.29,5.9-10.59,4.33-3.86-1.4-6.11-5.95-5.54-10.68,.62-5.1,4.2-8.93,8.79-9.4,2.26-.23,4.32,.31,5.99,1.85,1.13,1.04,2.23,2.43,.61,3.76-1.29,1.06-2.46,.29-3.2-1.09-.93-1.74-2.2-2.95-4.37-2.46-2.46,.56-3.41,2.49-3.93,4.66-1.73,7.17,3.01,11.05,12.24,9.02Z"/><path class="cls-14" d="M207.6,545.83c-3.94,4.99-7.65,6.25-11.4,4.28-4-2.11-5.93-8.12-4.23-13.17,1.53-4.55,6.03-7.41,10.44-6.64,1.69,.3,3.15,1.05,4.22,2.43,.88,1.15,1.37,2.41-.12,3.43-1.29,.89-2.27,.12-2.81-1.01-1.06-2.2-2.49-3.6-5.08-2.68-2.57,.92-3.22,3.14-3.42,5.57-.6,7.46,3,9.89,12.4,7.81Z"/><path class="cls-13" d="M419.51,546.04c-1.89,3.83-4.9,5.08-8.31,4.83-3.4-.25-5.69-2.4-6.86-5.72-2.32-6.62,.79-13.31,6.99-14.71,2.76-.63,5.34-.15,7.34,2,.97,1.04,1.44,2.44,.19,3.53-1.43,1.25-2.5,.3-3.1-1.06-.94-2.13-2.43-3.21-4.73-2.53-2.14,.64-3.07,2.45-3.53,4.48-1.61,7.15,2.78,11.38,9.72,9.42,.58-.16,1.22-.14,2.28-.24Z"/><path class="cls-12" d="M372.57,548.82c-2.64,2.05-4.89,2.76-7.34,1.84-2.73-1.02-2.23-3.64-2.6-5.91-.65-4.04,1.67-8.36-1.59-12.23-1.08-1.28,1.22-2,2.18-2.67,.95-.66,2.63-2.7,3.04-1.37,.95,3.07,3.69,2.09,5.55,3.19-4.62,2.59-5.78,6.66-4.89,13.78,.43,3.46,3.07,2.18,5.65,3.36Z"/><path class="cls-1" d="M373.11,531.87c3.43,.71,5.62-4.18,7.85,.65,.98-.54,2-1.03,2.95-1.63,1.53-.97,2.88-.65,4.01,.59,.72,.79,.85,1.86,.34,2.79-.97,1.76-2.07,.78-3.28,.14-2.38-1.24-3.35,.58-4.03,2.29-1.6,4.03-.04,10.52,3.54,13.72-3.61,.46-6.73,.68-10.03-.17,3.4-5.39,3.22-14.01-1.34-18.4Z"/><path class="cls-1" d="M522.09,550.42h-10.53c2.47-5.65,4.08-11.21,.26-16.78-.42-.61-.41-1.31,.34-1.65,1.6-.74,4.08-2.41,4.84-1.08,1.26,2.21,1.86,1.4,3.12,.47,1.41-1.04,2.92-1.63,4.48-.18,1,.92,1.23,2.1,.59,3.15-1.26,2.07-2.49,.25-3.74-.2-1.35-.49-2.18,.33-2.9,1.31-2.4,3.26-.93,11.67,3.55,14.96Z"/><path class="cls-1" d="M323.07,550.41c-4.22,.44-7.35,.71-10.65-.14,3.12-5.56,3.57-10.91,.79-16.3-.42-.81-1.02-1.49-.03-1.94,1.46-.67,4.3-1.67,4.43-1.42,1.72,3.28,3.25,.72,4.79,.03,1.69-.75,2.93-.09,3.79,1.31,.54,.89,.48,1.92-.25,2.77-.65,.76-1.42,.75-2.17,.18-2.62-1.98-4.52-.42-4.74,1.86-.44,4.62-2.4,9.85,4.03,13.65Z"/><path class="cls-12" d="M673.89,550.01c-3.35,.97-6.34,1.18-9.48,.3,3.3-5.56,3.64-10.93,.87-16.37-.41-.8-1.02-1.49,.03-1.96,1.5-.68,3.08-1.3,4.69-1.54,.87-.13,1.13,1.04,1.13,1.9,.02,3.49,.1,6.99,0,10.48-.08,2.73-.03,5.31,2.77,7.19Z"/><path class="cls-12" d="M220,549.95c-3.32,1.08-6.3,1.2-9.41,.39,2.89-5.71,3.81-11.03,.62-16.76-1.32-2.38,1.65-2.07,2.89-2.66,1.45-.7,3.05-1.16,3.1,1.34,.08,3.66,.1,7.32,.02,10.98-.06,2.58,.07,5.01,2.78,6.72Z"/><path class="cls-13" d="M584.76,549.13c-2.46,1.6-4.63,2.47-7.09,1.35-2.18-.99-1.92-3.18-2.19-5.16-.6-4.38,1.47-8.96-1.55-13.27-.78-1.11,2.34-2.33,3.68-3.42,1.66-1.36,1.57,.46,1.99,1.44,.87,2.02,3.45,.11,4.86,2.1-8.74,1.34-4.06,7.9-4.86,12.22-.55,2.99,.04,3.1,5.17,4.74Z"/><path class="cls-1" d="M399.99,550.39h-9.22c4.08-5.43,3.52-10.85,1.51-16.31-.27-.73-1.22-1.4-.22-1.97,1.27-.73,2.72-1.36,4.16-1.55,1.45-.19,1.21,1.26,1.23,2.17,.05,3.49,.12,6.99,0,10.48-.09,2.64,.23,4.97,2.55,7.19Z"/><path class="cls-1" d="M122.05,550.39h-9.22c4.07-5.43,3.51-10.85,1.5-16.31-.27-.73-1.22-1.4-.23-1.97,1.27-.73,2.72-1.36,4.16-1.55,1.47-.2,1.22,1.25,1.23,2.15,.05,3.5,.11,7,0,10.49-.09,2.63,.2,4.98,2.56,7.2Z"/><path class="cls-1" d="M338.68,549.95c-3.74,.87-6.64,1.07-9.68,.48,3.59-5.51,3.69-10.98,1.07-16.54-.42-.89-.73-1.55,.24-1.97,1.35-.58,2.77-1.18,4.21-1.32,1.09-.11,.92,1.17,.93,1.92,.05,3.16-.02,6.32,.04,9.49,.05,2.89-.89,6.15,3.19,7.94Z"/><path class="cls-13" d="M626.7,526.47c1.73-1.3,3.46-2.59,5.19-3.9,1-.76,2.02-2.34,3.26-.72,.91,1.19-.29,2.13-1.29,2.77-1.91,1.21-3.86,2.35-5.79,3.52l-1.36-1.67Z"/><path class="cls-13" d="M671.36,523.14c-.14,1.32-.95,2.02-2.27,2.02-1.56,0-2.51-.9-2.43-2.44,.06-1.28,1.01-2.17,2.28-2.15,1.49,.02,2.38,.95,2.42,2.57Z"/><path class="cls-13" d="M215.16,520.52c1.43,.31,2.37,1.11,2.24,2.69-.11,1.37-1.05,2.02-2.35,1.95-1.54-.08-2.46-.97-2.29-2.55,.14-1.29,1.09-1.94,2.4-2.09Z"/><path class="cls-1" d="M119.96,523.31c-.4,1.41-1.3,1.97-2.63,1.83-1.42-.15-2.03-1.07-1.88-2.4,.18-1.59,1.12-2.4,2.74-1.98,1.29,.33,1.83,1.31,1.77,2.55Z"/><path class="cls-1" d="M395.35,525.16c-1.41-.15-2.03-1-1.97-2.35,.06-1.37,.88-2.24,2.21-2.16,1.52,.09,2.46,1.08,2.27,2.66-.17,1.36-1.17,1.91-2.51,1.84Z"/><path class="cls-1" d="M333.53,520.62c1.32,.14,2.25,.85,2.35,2.15,.12,1.62-.85,2.43-2.45,2.39-1.43-.04-2.08-.92-2.05-2.27,.03-1.36,.8-2.11,2.15-2.26Z"/><path class="cls-13" d="M347.34,526.99c1.56-1.68,3.09-3.38,4.69-5.03,.57-.58,1.37-1.15,2.13-.41,.9,.89,.51,1.92-.37,2.52-1.89,1.29-3.64,2.86-5.97,3.38-.16-.16-.32-.31-.48-.46Z"/><path class="cls-13" d="M347.82,527.45c-.34,.41-.7,.77-1.14,.14-.02-.03,.43-.39,.67-.6,.16,.15,.32,.31,.48,.46Z"/></g><g><path class="cls-4" d="M554.7,469.87c6.84-3.79,7.55-9.06,7.56-14.73,.05-19.99,.25-39.98,.26-59.97,0-5.66-.03-11.5-6.44-15.53,8.85,0,17.69-.04,26.54,0,9.81,.05,19.66-.58,29.35,1.69,23.18,5.43,36.3,22.3,34.87,44.84-1.55,24.49-16.48,40.32-40.5,42.95-16.71,1.83-33.44-.44-51.64,.74Zm20.53-47.23c0,9.98,0,19.96,0,29.94,0,.33,0,.67,.02,1,.3,6.19,2.53,8.57,8.6,9.57,6.64,1.09,13.27,.82,19.83-.26,14.98-2.46,24.64-11.58,27.56-25.72,1.25-6.06,1.56-12.22,.94-18.36-1.43-14.25-7.29-25.52-21.69-30.53-9.79-3.41-19.96-2.99-30.1-2.34-3.86,.25-5.33,2.32-5.24,6.28,.22,10.14,.07,20.29,.07,30.43Z"/><path class="cls-6" d="M290.05,469.93c-7.52,0-14.45,.26-21.34-.06-9.37-.45-16.76-4.97-22.54-12.21-6.96-8.72-14.01-17.37-20.75-26.25-3.02-3.97-6.69-2.76-10.4-2.3-1.66,.21-1.37,1.63-1.35,2.75,.13,8.66,.25,17.31,.46,25.97,.11,4.66,1.43,8.81,6.35,11.71h-25.11c5.64-3.69,6.31-8.84,6.3-14.28-.01-20.33,0-40.66,0-60.99,0-5.14-.53-10.07-7.04-13.51,15.06-.19,28.73-1.64,42.3,.52,7.82,1.24,14.79,4.64,17.47,12.98,2.82,8.79,.21,16.37-6.06,22.87-3.03,3.14-6.54,5.68-10.41,7.67-1.42,.73-2.32,1.33-1.17,2.91,11.78,16.07,24.02,31.63,43.52,39.1,1.54,.59,3.18,1.01,4.81,1.29,1.6,.28,3.13,.58,4.98,1.86Zm-75.77-62.6h-.66c0,4.16-.01,8.32,0,12.48,0,1.47-.27,3.02,2.05,3.17,19.41,1.28,28.01-10.69,25.15-26.33-.8-4.4-3.2-7.67-7.3-9.46-5.02-2.2-10.32-2.34-15.67-1.62-2.51,.34-3.72,1.49-3.62,4.29,.2,5.82,.06,11.64,.06,17.47Z"/><path class="cls-4" d="M647.95,469.58c5.23-4.35,8.58-9.23,11.25-14.57,12.53-25.14,23.14-51.1,33.13-77.32,.58-1.51,1.21-3,2.19-5.42,3.79,8.76,7.18,16.72,10.66,24.64,8.93,20.36,17.92,40.7,26.82,61.07,2.13,4.86,5.14,8.81,10.07,11.91-6.05,0-12.1-.08-18.14,.04-2.39,.05-2.56-1.74-3.13-3.21-2.37-6.02-4.77-12.03-6.96-18.12-.83-2.31-1.85-3.46-4.58-3.41-10.99,.17-21.98,.17-32.97,0-2.72-.04-3.74,1.06-4.52,3.4-1.96,5.82-4.32,11.51-6.16,17.37-.92,2.93-2.4,3.87-5.36,3.68-3.81-.25-7.65-.06-12.28-.06Zm44.71-72.13c-5.78,13.93-11.21,27.06-16.68,40.18-.98,2.36,.68,2.04,1.96,2.04,9.65,.02,19.29-.02,28.94,.03,2.2,.01,3.11-.5,2.11-2.89-5.36-12.8-10.64-25.62-16.33-39.36Z"/><path class="cls-4" d="M338.86,469.58c7.9-6.42,11.51-14.79,15.4-22.94,10.81-22.61,20.19-45.82,29.13-69.22,.52-1.36,1.07-2.7,1.99-5.03,1.28,2.8,2.21,4.79,3.09,6.8,11.58,26.44,23.17,52.88,34.71,79.35,2.06,4.74,5.31,8.25,9.91,11.36-6.05,0-12.1-.1-18.14,.05-2.39,.06-2.62-1.66-3.2-3.12-2.43-6.18-4.91-12.34-7.14-18.59-.8-2.24-1.92-3.05-4.32-3.02-10.98,.12-21.97,.15-32.95-.01-2.64-.04-3.82,.9-4.62,3.28-2.01,5.97-4.31,11.84-6.3,17.82-.79,2.38-1.92,3.49-4.59,3.34-4.08-.23-8.18-.06-12.98-.06Zm44.76-72.11c-5.8,13.95-11.23,27.04-16.68,40.13-.94,2.26,.64,2.07,1.98,2.08,9.63,.01,19.27-.02,28.9,.03,2.14,.01,3.17-.39,2.15-2.83-5.35-12.78-10.63-25.6-16.35-39.4Z"/><path class="cls-4" d="M116.88,469.3c4.73-4.33,5.53-9.92,5.49-15.97-.12-19.48-.02-38.96-.06-58.43,0-5.45-.59-10.72-7.46-14.6,3.38,0,5.24,.02,7.09,0,16.8-.16,33.62,.49,50.39-.96,3.07-.27,4.22,.87,4.02,3.95-.21,3.13-.05,6.28-.05,10.09-4.15-4.98-9.51-5.72-14.97-6.3-7.63-.81-15.27-.81-22.93-.83-2.56,0-4.03,.44-3.97,3.53,.16,8.65,.14,17.31,0,25.97-.04,2.74,1.18,3.4,3.61,3.39,8.32-.03,16.64,0,24.96,.12,5.29,.08,8.54-2.74,10.91-8.01v20.59c-3.08-5.09-7.59-6.29-12.55-6.39-7.81-.16-15.63-.12-23.44-.39-2.95-.1-3.55,1.02-3.5,3.72,.16,8.65,.16,17.31,.02,25.97-.08,4.89,2.43,7.83,6.87,8.26,9.94,.96,19.92,1.36,29.36-3.05,3.65-1.7,6.91-3.82,9.86-7.03-.75,5.13-1.22,10.31-2.34,15.35-.65,2.92-3.56,1.76-5.53,1.64-18.62-1.15-37.26-.49-55.9-.57l.1-.03Z"/><path class="cls-6" d="M464.32,449.45c5.79-14.94,11.42-29.47,17.06-44.01,2.88-7.43,5.88-14.81,8.56-22.31,.93-2.61,2.13-3.75,5-3.55,3.79,.26,7.62,.06,11.8,.06-10.08,9.88-14.39,22.93-20.15,35.12-8.66,18.32-15.78,37.29-23.12,56.16-.66,1.69-1.33,3.37-2.31,5.85-5.43-12.61-10.5-24.54-15.69-36.41-7.31-16.73-14.74-33.41-22.07-50.13-2.02-4.61-5.07-8.16-9.69-10.93,6.01,0,12.02,.07,18.02-.03,2.62-.04,2.76,2.07,3.42,3.62,8.73,20.65,17.38,41.33,26.09,62,.62,1.47,.84,3.24,3.07,4.56Z"/><path class="cls-4" d="M100.27,405.03c-6.66-13.58-17.78-20.27-32.53-20.81-13.37-.48-23.95,4.92-30.78,16.69-12.31,21.2-4.4,50.96,16.19,60.57,10.87,5.08,21.96,4.62,32.91,.03,1.85-.78,3.52-1.23,3.25,1.39-.18,1.76,4.44,3.95-.4,5.31-18.17,5.11-35.85,5.22-52.3-5.49-27.11-17.65-26.73-61.37,5.06-78.45,17.47-9.39,35.57-7.93,53.58-1.15,3.66,1.38,5.53,3.85,5.4,7.98-.15,4.62,.91,9.27-.38,13.91Z"/><path class="cls-10" d="M305.67,379.2h29.38c-8.38,2.65-10.43,7.59-10.27,14.86,.44,19.47,.4,38.95,.03,58.42-.15,7.89,2.13,13.59,9.84,16.84-10.7,.23-21.24-.64-32.16,.09,9.74-2.66,10.73-9.74,10.6-18.03-.29-19.14-.11-38.28-.08-57.43,0-5.92-1.6-11.02-7.33-14.76Z"/><path class="cls-10" d="M545.56,379.3c-7.01,2.53-9.95,6.55-9.81,13.64,.39,19.98,.33,39.97,.04,59.95-.11,7.71,2.26,13.27,9.85,16.36-10.65,.41-21.21-.66-31.8,.65,.25-1.6,1.44-1.49,2.29-1.83,5.42-2.18,7.87-6.15,7.85-12.02-.09-21.15-.04-42.3-.03-63.45,0-5.5-2-9.94-7.26-13.31h28.88Z"/><path class="cls-6" d="M91.68,449.13c0-3.99,.12-7.98-.04-11.96-.15-3.79-1.06-7.68-5.12-8.85-4.03-1.16-7.81,.38-11.05,3.16-1.07,.92-1.43,3.86-3.58,2.16-1.8-1.43-2.85-3.74-1.84-6.26,1.5-3.75,4.45-5.75,8.34-6.25,3.14-.4,6.33-.38,9.41,.55,4.01,1.22,8,2.23,12.22,.99,1.63-.48,2.89,.17,3.76,1.67,.7,1.2,.51,2.18-.4,3.15-2.63,2.8-2.5,6.43-2.69,9.86-.38,7.14-.54,14.29-.69,21.43-.06,2.98-.08,6.14-4.06,6.06-3.98-.07-3.9-3.35-3.93-6.25-.03-3.15,0-6.31,0-9.46h-.33Z"/><path class="cls-5" d="M733.43,372.92c8.16,.15,14.2,6.52,14.05,14.83-.15,8.03-6.73,14.35-14.83,14.23-8.08-.12-14.37-6.61-14.3-14.75,.06-8.37,6.49-14.46,15.09-14.31Zm-.56,3.07c-6.25,.04-11.42,5.31-11.32,11.54,.09,5.91,5.32,11.19,11.18,11.29,6.06,.1,11.59-5.32,11.62-11.4,.03-6.19-5.28-11.48-11.48-11.43Z"/><path class="cls-5" d="M726.36,386.86c0-.33,0-.67,0-1,0-6.5,2.79-8.4,9.03-6.22,2.77,.97,4.09,3.44,2.66,5.4-1.93,2.66-.23,4.04,.58,5.97,.45,1.07,2.11,2.43,.49,3.33-1.36,.75-3.29,.59-4.14-1.49-.37-.92-.94-1.76-1.42-2.63-.46-.83-1.21-1.14-2.09-.98-1.16,.21-.87,1.2-.92,1.97-.11,1.58,.44,3.52-2.32,3.36-2.9-.17-1.65-2.33-1.84-3.72-.18-1.31-.04-2.66-.04-3.99Z"/></g><g><path class="cls-10" d="M460.16,124.01c-14.79-37.22-63.08-48.23-92.74-30.89-18.32,10.71-27.48,27.54-30.52,47.92-2.82,18.94-1.71,37.61,7.43,54.92,20.35,38.51,62.89,41.67,91.25,28.76,1.05-.48,2.07-1.04,3.46-1.74,1.13,3.81,1.55,7.77,3.93,11,1.87,2.54-.94,2.22-1.92,2.58-10.24,3.72-20.87,5.51-31.7,6.2-20.83,1.33-40.9-1.44-59.12-12.35-29.39-17.61-42.26-43.79-40.2-77.85,2.59-42.84,40.04-73.77,76.15-77.5,21.14-2.19,41.79-.48,61.86,7.08,8.36,3.15,13.17,7.85,12.72,17.61-.35,7.74,.87,15.56-.62,24.26Z"/><path class="cls-10" d="M444.54,203.35c0-7.97,.1-15.94-.07-23.91-.04-2.11-.67-4.28-1.41-6.28-2.69-7.29-7.56-9.94-15.2-8.49-6.26,1.18-11.76,3.66-15.22,9.34-1.74,2.85-3.04,2.18-4.76-.03-3.85-4.96-3.91-10.11,.16-14.99,6.66-8,15.66-7.72,24.76-6.74,2.62,.28,5.25,.93,7.75,1.78,5.95,2.04,11.9,2.93,18.08,1.11,3.15-.93,5.87-.48,7.74,2.68,1.81,3.05,.07,4.8-1.88,6.86-2.4,2.53-2.75,5.96-3.09,9.28-1.59,15.39-2.23,30.82-1.97,46.3,.02,1.5,.12,3.01-.06,4.49-.47,3.99-3.64,6.72-7.5,6.39-4.09-.35-6.36-2.71-6.41-6.82-.1-6.98-.03-13.97-.03-20.96h-.89Z"/></g><g><path class="cls-3" d="M250.83,197.81c-.67-3.71,.52-6.18,4.51-6.79,.84-.13,1.71-.35,1.91-1.29,.29-1.39-1.04-1.38-1.79-1.92-1.2-.86-2.59-1.7-3.35-2.9-2.45-3.88-5.22-5.43-9.29-2.21-.66,.52-1.6,.63-2.27-.04-.78-.78-.7-1.78-.35-2.78,1.43-4.17,4.18-7.18,8.29-8.65,6.75-2.42,13-1.29,18.58,3.28,.29,.37,.57,.75,.86,1.12,.43,.47,.49,1.82,1.44,1.08,.73-.57-.04-1.35-.63-1.86-.31-.36-.62-.72-.93-1.08-2.74-4.32-6.87-7.17-10.84-10.15-8.32-6.25-15.39-13.3-16.64-24.37-.18-1.63-1.14-3.49,.35-4.71,1.69-1.38,3.44,.3,5.17,.61,1.55,.28,2.73,2.93,4.27,1.46,1.57-1.5-.27-3.38-.83-5.03-3.65-10.84-3.47-21.61,.89-32.16,1.07-2.59,.9-3.78-1.35-5.68-9.08-7.68-8.36-19.15,1.31-25.8,4.11-2.82,8.67-2.53,11.76,.78,2.97,3.18,3.81,6.58,.96,10.29-3.21,4.18-8.63,4.13-11.02-.59-2.02-4-3.45-2.05-4.85-.08-3.17,4.45,1.11,13.27,6.5,13.68,1.4,.11,2.06-.97,2.89-1.7,5.31-4.73,11.44-6.07,18.1-3.86,2.24,.74,3.32,0,4.77-1.28,6.69-5.96,10.55-13.6,13.24-21.96,2.95-9.17,5.25-18.56,9.08-27.43,7.48-17.31,20.12-28.85,38.64-32.98,12.67-2.83,23.68,3.71,28.59,15.39,3.35,7.97,.99,14.53-5.23,21.53,23.45-5.96,45.64-6.37,67.78-.37,.05,.52,.1,1.04,.15,1.57-69.64-15.52-135.99,31.46-143.89,101.88-6.8,60.58,35.51,117.45,95.47,128.32,66.1,11.98,127.88-32.23,138.15-98.9,2.34-15.19-2.52-45.08-2.52-45.08,0,0-.29-1.23,.17-1.19,4.03,13.37,6.82,28.34,6.1,42.2-.72,13.86-3.64,27.33-8.8,40.26-5.16,12.93-12.15,24.8-21.23,35.36-9.02,10.5-19.41,19.49-31.82,26.91,16.24,3.52,23.07,12.77,20.17,27.22-2.05,10.22-9.17,16.4-18.46,20.05-15.64,6.15-31.24,5.77-46.46-1.53-8.7-4.17-17.18-8.78-25.88-12.95-6.2-2.97-12.77-4.73-19.76-4.53-1.82,.05-2.94,.35-3.73,2.34-3.12,7.84-9.33,11.31-17.54,11.71-1.49,.07-3.56-.88-4.01,1.67-.64,3.66-1.15,7.37,2.1,10.19,1.79,1.56,3.84,2.8,6.36,1.88,1.8-.66,1.09-1.82,.67-3.21-1.16-3.9,.74-7.48,4.09-8.31,4.66-1.16,8.36,.77,9.47,4.92,1.34,5.04-.27,8.83-4.61,10.85-9.79,4.56-22.09-2.81-21.95-13.52,.06-4.27-1.08-6.22-5.08-8.02-9-4.05-16.08-10.54-20.58-19.56-.64-1.29-1.02-3.36-2.66-3.27-1.88,.09-1.37,2.24-1.78,3.57-.58,1.86-.82,4.29-2.94,4.86-2.4,.64-3.23-1.84-4.46-3.32-5.02-6.06-6.97-13.06-6.8-20.86,.15-6.82,.97-13.63,.21-20.46-.19-1.71,.29-3.74-2.37-5.11,1.57,7.53-.6,13.47-6.3,18.04-4.24,3.39-8.96,4.13-14.08,2.51-1.11-.35-2.28-.87-2.37-2.26-.08-1.2,.9-1.83,1.88-2.02,4.33-.84,5.15-3.51,4.25-7.39-.33-1.43-.3-3.01-.1-4.48,.48-3.53-.27-4.35-3.52-2.21-2.65,1.75-5.08,.65-6.99-1.69-.17-2.14-.62-4.31-.46-6.43,.34-4.37-1.94-7.07-5.56-8.47-5.83-2.27-11.31-.62-15.72,3.37-4.4,3.98-6.72,9.34-4.95,15.28,1.81,6.11,6.72,9.31,12.79,10.53,3.3,.67,5.85-1.07,7.54-3.77,1.35-2.15,2.85-4.53-.09-7.49-1.18,5.42-4.48,5.23-7.94,3.24-3.71-2.14-2.25-5.55-1.07-8.35,1.05-2.48,3.32-3.55,6.19-2.92,3.6,.79,6.3,2.84,8.48,5.7,1.09,5.68,1.16,11.32-4.42,14.69-5.75,3.48-11.87,2.97-17.45-.7-5.66-3.71-8.98-8.95-8.15-15.96,.85-7.17,4.13-13.18,10.84-18.34-6.29,.33-11.21-.62-15.84-2.95-10.47-5.27-12.88-19.47-4.7-27.92,6.68-6.91,15.61-5.52,20.62,3.21,.6,2.52,.21,4.98-.62,7.36-1.23,3.55-3.56,5.99-7.48,4.67-2.84-.95-6.32-2.27-5.31-6.58,.95-4.06,3.37-5.87,8.66-3.3-2.14-4.27-4.71-5.44-7.78-5.45-3.68-.01-6.27,1.91-7.73,5.3-3.48,8.04-1.07,15.83,5.98,19.3,7.95,3.92,17.67,1.08,21.66-6.33,2.25-4.18,1.49-7.95-2.05-11.07-1.61-1.42-3-3.08-4.49-4.62Zm113.58,86.37c-.04-.13-.06-.27-.13-.37-.04-.06-.18-.04-.27-.06l.48,.35c1.26,3.39,4.32,5.8,5.13,9.47,.33,1.47,1.78,1.28,2.91,1.24,6.69-.22,13.25,.27,19.45,3.16,.89,.42,2.34,.85,2.9-.74,.36-1.02-4.45-9.1-5.5-9.17-8.44-.56-16.62-2.8-24.98-3.88Zm-72.45-51.68c.31,.46,.42,1.54,1.15,1.03,.63-.45,.1-1.14-.61-1.42-3.51-7.67-8.5-14.59-11.31-22.61-2.05-5.86-4.09-11.73-6.44-18.48-1.77,12.26-4.87,22.94-15.27,31.21,9.75-.14,17.5,1.78,24.65,5.99,2.56,1.51,5.21,2.86,7.83,4.27Zm-10.49-121.31c-1.6,.38-3.18,.96-4.8,1.09-6.53,.52-9.3-1.72-9.31-7.29,0-5.19,2.11-6.59,9.17-5.92,1.13,.11,1.98-.04,2.46-1.1,.79-1.73-.03-3.3-.77-4.74-.64-1.25-1.72-.56-2.56-.04-5.56,3.45-11.58,4.96-18.09,4.22-2.55-.29-3.09,1.54-3.74,3.2-2.87,7.33-3.33,14.92-1.76,22.54,3.13,15.19,13.42,27.05,19.03,41.12,.76-10.93,1.34-21.72,4.18-32.2,1.9-7.01,4.13-14.09,6.19-21.05,.66,.06,.13-.07-.01,.19ZM345.69,28.03c-1.85,6.94,2.46,12.39,7.83,11.85,8.65-.87,15.03-10.53,12.32-18.67-2.5-7.52-10.01-12.63-17.17-11.68-6.6,.87-8.13,3.2-9.07,13.69-.09,.98-.18,2.04-.62,2.89-.88,1.7-2.6,3.51-4.3,2.6-7.1-3.8-5.54,1.1-5.25,4.9,.04,.49,.07,1.03-.06,1.49-1.18,4.05,.24,6.44,4.46,7.11,1.03,.16,2.13,.59,2.27,1.63,.18,1.34-.99,1.92-2.06,2.48-4.26,2.23-11.08,1.12-15.48-2.32-5.61-4.38-7.33-10.2-6.71-17.18-1.75,3.74-2.22,7.41-1.87,11.39,.95,11,4.19,22.17-1.7,33.19,13.24-11.55,27.43-21.24,43.84-27.58-1.22-1.6-2.51-1.29-3.6-1.55-5.18-1.23-8.17-4.88-8.77-10.78-.44-4.28,2.46-8.46,7.08-10.38,3.42-1.42,6.58-.91,8.09,2.44,1.09,2.42,3,5.75-.66,8-3.49,2.14-6.65,2.31-8.57-3.54Zm56.93,260.57c7.65,3.02,13.09,8.5,17.86,14.8,3.22,4.25,6.69,8.3,10.73,11.8,1.19,1.03,2.35,2.67,4.56,1.41-1.34-1.12-2.55-1.99-3.6-3.03-7.29-7.27-5.05-21.41,4.02-25.65,1.24-.58,2.58-1.31,3.71-.34,1.32,1.13,.32,2.47-.37,3.56-1.88,3-1.19,5.24,1.7,7.17,1.35,.9,2.74,2.05,3.56,3.42,1.92,3.23,3.01,3.71,4.38-.39,1.19-3.57,4.38-4.45,7.51-2.33,1.34,.91,2.54,2.18,3.48,3.52,2.43,3.43,5.76,3.91,9.26,2.61,6.04-2.24,9.2-7.11,9.9-13.27,.7-6.25-1.67-11.64-7.07-14.97-5.17-3.2-10.71-2.14-15.66,.78-5.49,3.24-5.07,10.5,.51,13.33-.4-4.64,.52-6.02,4.25-7.34,3.63-1.29,4.75,1.44,6.12,3.6,1.76,2.76,1.34,5.43-1.12,7.6-4.25,3.74-11.64,2.77-15.1-1.75-3.96-5.18-3.18-10.34,.86-16.5-16.64,7.17-32.64,11.13-49.49,11.99Zm-94.84-37.44c5.72,11.8,8.47,24.59,14.29,36.15,4.4,8.75,11.07,15.31,19.91,19.57,1.18,.57,2.69,2.07,3.96,.2,2.73-4.04,6.54-6.87,11.87-9.8-5.68-.2-9.08-2.1-10.2-6.15-1.43-5.14,2.97-7.7,6.27-10.84-17.45-6.75-32.47-16.63-46.1-29.12Zm-23.13-145.75c3.9-7.03,7.31-13.06,11.55-18.58,3.18-4.14,8.16-7.97,2.36-13.7-.28-.28-.17-.96-.26-1.45-.18-1-.47-2.15-1.53-2.3-1.45-.21-1.84,1.18-2.25,2.23-2.59,6.63-6.76,12.11-12.1,16.76-.93,.81-2.31,1.39-1.13,3.16,2.57,3.86,2.71,8.42,3.36,13.88Zm64.45,203.28c7.7,1.11,14.62-2.86,16.63-9.18-6.4,1.16-12.2,3.1-16.63,9.18Zm-76.43-219.15c-5.12-.45-10.04-.04-14.56,4.28,6.09,1.19,10.43-1.09,14.56-4.28Zm93.53,205.57c-.37-2.42-1.73-4.33-3.37-4.32-3.64,.01-2.31,4.98-5.09,6.52,2.67-.69,5.35-1.39,8.46-2.2Zm-59.24-45.63l-.21,.34,.31,.04-.11-.39Z"/><path class="cls-3" d="M380.48,17.21c5.93-6.91,14.39-6.91,22.37-7.92,5.58-.71,11.23-.78,18.03-1.21-3.01-1.59-5.14-2.65-7.21-3.83-.94-.54-2.51-.93-2.02-2.36,.22-.65,1.55-1.13,2.45-1.29,5.49-.98,10.91-.87,16.21,1.18,7.14,2.76,13.12,7.22,18.31,12.71,2.11,2.24,4.52,3.75,7.24,5.1,51.11,25.36,82.64,65.53,91.17,122.42,4.05,26.98,1.12,53.48-9.58,78.82-1.46,3.45-2.12,6.89-1.95,10.63,.31,6.87-.45,13.64-3.03,20.1-2.17,5.44-5.49,9.92-10.98,12.37-1.1,.49-2.46,1.69-3.63,.62-.9-.82-.23-2.21-.02-3.34,.24-1.28,.5-2.55,1.04-5.26-5.83,4.85-10.58,9-15.54,12.88-4.98,3.9-10.26,7.29-17.36,6.2,16.17-4.94,21.02-20.11,29.38-32.01,4.5-6.42,8.68-13.05,14.57-18.32,2.23-2,3.25-4.6,4.25-7.23,24.45-64.21,3.05-136.56-52.49-177.24-4.69-3.44-9.61-6.6-14.61-9.58-8.48-5.07-17.2-9.18-27.62-8.72-4.71,.21-9.65-.94-14.23-2.32-14.79-4.44-29.54-8.05-44.85-2.47l.09,.07Zm138.79,238.56l-.32-.37c-.11,.11-.3,.22-.3,.33,0,.11,.18,.23,.28,.35l.34-.32Z"/><path class="cls-3" d="M431.5,40.94c-.05-.52-.1-1.05-.15-1.57,7.23,1.45,13.99,4.13,20.22,8.22l-20.07-6.66Z"/><path class="cls-3" d="M380.39,17.14l-.18,.74c-.8-.59,.08-.48,.27-.67l-.09-.07Z"/><polygon class="cls-9" points="306.97 249.49 307.08 249.87 306.76 249.83 306.97 249.49"/><path class="cls-8" d="M364.49,284.1l-.48-.35c.09,.02,.23,0,.27,.06,.07,.1,.09,.24,.13,.37l.08-.08Z"/><path class="cls-2" d="M519.26,255.77l-.34,.32c-.1-.12-.28-.24-.28-.35,0-.11,.19-.22,.3-.33l.32,.37Z"/><path class="cls-11" d="M523.27,160.66c0,70.57-53.23,118.91-125.29,118.91s-118.98-47.61-118.98-118.19,45.54-125.8,117.61-125.8,126.66,54.5,126.66,125.08Z"/></g></g></svg>