<?xml version="1.0" encoding="UTF-8"?><svg id="Capa_2" xmlns="http://www.w3.org/2000/svg" viewBox="0 0 324.31 332.37"><defs><style>.cls-1{fill:#fff;}.cls-2{fill:#bca070;}.cls-3{fill:#fdfbfa;}.cls-4{fill:#fefdfc;}.cls-5{fill:#a71e1c;}.cls-6{fill:none;stroke:#bca070;stroke-miterlimit:10;}</style></defs><g id="Capa_1-2"><g><path class="cls-5" d="M235.68,124.01c-14.79-37.22-63.08-48.23-92.74-30.89-18.32,10.71-27.48,27.54-30.52,47.92-2.82,18.94-1.71,37.61,7.43,54.92,20.35,38.51,62.89,41.67,91.25,28.76,1.05-.48,2.07-1.04,3.46-1.74,1.13,3.81,1.55,7.77,3.93,11,1.87,2.54-.94,2.22-1.92,2.58-10.24,3.72-20.87,5.51-31.7,6.2-20.83,1.33-40.9-1.44-59.12-12.35-29.39-17.61-42.26-43.79-40.2-77.85,2.59-42.84,40.04-73.77,76.15-77.5,21.14-2.19,41.79-.48,61.86,7.08,8.36,3.15,13.17,7.85,12.72,17.61-.35,7.74,.87,15.56-.62,24.26Z"/><path class="cls-5" d="M220.06,203.35c0-7.97,.1-15.94-.07-23.91-.04-2.11-.67-4.28-1.41-6.28-2.69-7.29-7.56-9.94-15.2-8.49-6.26,1.18-11.76,3.66-15.22,9.34-1.74,2.85-3.04,2.18-4.76-.03-3.85-4.96-3.91-10.11,.16-14.99,6.66-8,15.66-7.72,24.76-6.74,2.62,.28,5.25,.93,7.75,1.78,5.95,2.04,11.9,2.93,18.08,1.11,3.15-.93,5.87-.48,7.74,2.68,1.81,3.05,.07,4.8-1.88,6.86-2.4,2.53-2.75,5.96-3.09,9.28-1.59,15.39-2.23,30.82-1.97,46.3,.02,1.5,.12,3.01-.06,4.49-.47,3.99-3.64,6.72-7.5,6.39-4.09-.35-6.36-2.71-6.41-6.82-.1-6.98-.03-13.97-.03-20.96h-.89Z"/></g><g><path class="cls-2" d="M26.36,197.81c-.67-3.71,.52-6.18,4.51-6.79,.84-.13,1.71-.35,1.91-1.29,.29-1.39-1.04-1.38-1.79-1.92-1.2-.86-2.59-1.7-3.35-2.9-2.45-3.88-5.22-5.43-9.29-2.21-.66,.52-1.6,.63-2.27-.04-.78-.78-.7-1.78-.35-2.78,1.43-4.17,4.18-7.18,8.29-8.65,6.75-2.42,13-1.29,18.58,3.28,.29,.37,.57,.75,.86,1.12,.43,.47,.49,1.82,1.44,1.08,.73-.57-.04-1.35-.63-1.86-.31-.36-.62-.72-.93-1.08-2.74-4.32-6.87-7.17-10.84-10.15-8.32-6.25-15.39-13.3-16.64-24.37-.18-1.63-1.14-3.49,.35-4.71,1.69-1.38,3.44,.3,5.17,.61,1.55,.28,2.73,2.93,4.27,1.46,1.57-1.5-.27-3.38-.83-5.03-3.65-10.84-3.47-21.61,.89-32.16,1.07-2.59,.9-3.78-1.35-5.68-9.08-7.68-8.36-19.15,1.31-25.8,4.11-2.82,8.67-2.53,11.76,.78,2.97,3.18,3.81,6.58,.96,10.29-3.21,4.18-8.63,4.13-11.02-.59-2.02-4-3.45-2.05-4.85-.08-3.17,4.45,1.11,13.27,6.5,13.68,1.4,.11,2.06-.97,2.89-1.7,5.31-4.73,11.44-6.07,18.1-3.86,2.24,.74,3.32,0,4.77-1.28,6.69-5.96,10.55-13.6,13.24-21.96,2.95-9.17,5.25-18.56,9.08-27.43,7.48-17.31,20.12-28.85,38.64-32.98,12.67-2.83,23.68,3.71,28.59,15.39,3.35,7.97,.99,14.53-5.23,21.53,23.45-5.96,45.64-6.37,67.78-.37,.05,.52,.1,1.04,.15,1.57-69.64-15.52-135.99,31.46-143.89,101.88-6.8,60.58,35.51,117.45,95.47,128.32,66.1,11.98,127.88-32.23,138.15-98.9,2.34-15.19-2.52-45.08-2.52-45.08,0,0-.29-1.23,.17-1.19,4.03,13.37,6.82,28.34,6.1,42.2-.72,13.86-3.64,27.33-8.8,40.26-5.16,12.93-12.15,24.8-21.23,35.36-9.02,10.5-19.41,19.49-31.82,26.91,16.24,3.52,23.07,12.77,20.17,27.22-2.05,10.22-9.17,16.4-18.46,20.05-15.64,6.15-31.24,5.77-46.46-1.53-8.7-4.17-17.18-8.78-25.88-12.95-6.2-2.97-12.77-4.73-19.76-4.53-1.82,.05-2.94,.35-3.73,2.34-3.12,7.84-9.33,11.31-17.54,11.71-1.49,.07-3.56-.88-4.01,1.67-.64,3.66-1.15,7.37,2.1,10.19,1.79,1.56,3.84,2.8,6.36,1.88,1.8-.66,1.09-1.82,.67-3.21-1.16-3.9,.74-7.48,4.09-8.31,4.66-1.16,8.36,.77,9.47,4.92,1.34,5.04-.27,8.83-4.61,10.85-9.79,4.56-22.09-2.81-21.95-13.52,.06-4.27-1.08-6.22-5.08-8.02-9-4.05-16.08-10.54-20.58-19.56-.64-1.29-1.02-3.36-2.66-3.27-1.88,.09-1.37,2.24-1.78,3.57-.58,1.86-.82,4.29-2.94,4.86-2.4,.64-3.23-1.84-4.46-3.32-5.02-6.06-6.97-13.06-6.8-20.86,.15-6.82,.97-13.63,.21-20.46-.19-1.71,.29-3.74-2.37-5.11,1.57,7.53-.6,13.47-6.3,18.04-4.24,3.39-8.96,4.13-14.08,2.51-1.11-.35-2.28-.87-2.37-2.26-.08-1.2,.9-1.83,1.88-2.02,4.33-.84,5.15-3.51,4.25-7.39-.33-1.43-.3-3.01-.1-4.48,.48-3.53-.27-4.35-3.52-2.21-2.65,1.75-5.08,.65-6.99-1.69-.17-2.14-.62-4.31-.46-6.43,.34-4.37-1.94-7.07-5.56-8.47-5.83-2.27-11.31-.62-15.72,3.37-4.4,3.98-6.72,9.34-4.95,15.28,1.81,6.11,6.72,9.31,12.79,10.53,3.3,.67,5.85-1.07,7.54-3.77,1.35-2.15,2.85-4.53-.09-7.49-1.18,5.42-4.48,5.23-7.94,3.24-3.71-2.14-2.25-5.55-1.07-8.35,1.05-2.48,3.32-3.55,6.19-2.92,3.6,.79,6.3,2.84,8.48,5.7,1.09,5.68,1.16,11.32-4.42,14.69-5.75,3.48-11.87,2.97-17.45-.7-5.66-3.71-8.98-8.95-8.15-15.96,.85-7.17,4.13-13.18,10.84-18.34-6.29,.33-11.21-.62-15.84-2.95-10.47-5.27-12.88-19.47-4.7-27.92,6.68-6.91,15.61-5.52,20.62,3.21,.6,2.52,.21,4.98-.62,7.36-1.23,3.55-3.56,5.99-7.48,4.67-2.84-.95-6.32-2.27-5.31-6.58,.95-4.06,3.37-5.87,8.66-3.3-2.14-4.27-4.71-5.44-7.78-5.45-3.68-.01-6.27,1.91-7.73,5.3-3.48,8.04-1.07,15.83,5.98,19.3,7.95,3.92,17.67,1.08,21.66-6.33,2.25-4.18,1.49-7.95-2.05-11.07-1.61-1.42-3-3.08-4.49-4.62Zm113.58,86.37c-.04-.13-.06-.27-.13-.37-.04-.06-.18-.04-.27-.06l.48,.35c1.26,3.39,4.32,5.8,5.13,9.47,.33,1.47,1.78,1.28,2.91,1.24,6.69-.22,13.25,.27,19.45,3.16,.89,.42,2.34,.85,2.9-.74,.36-1.02-4.45-9.1-5.5-9.17-8.44-.56-16.62-2.8-24.98-3.88Zm-72.45-51.68c.31,.46,.42,1.54,1.15,1.03,.63-.45,.1-1.14-.61-1.42-3.51-7.67-8.5-14.59-11.31-22.61-2.05-5.86-4.09-11.73-6.44-18.48-1.77,12.26-4.87,22.94-15.27,31.21,9.75-.14,17.5,1.78,24.65,5.99,2.56,1.51,5.21,2.86,7.83,4.27Zm-10.49-121.31c-1.6,.38-3.18,.96-4.8,1.09-6.53,.52-9.3-1.72-9.31-7.29,0-5.19,2.11-6.59,9.17-5.92,1.13,.11,1.98-.04,2.46-1.1,.79-1.73-.03-3.3-.77-4.74-.64-1.25-1.72-.56-2.56-.04-5.56,3.45-11.58,4.96-18.09,4.22-2.55-.29-3.09,1.54-3.74,3.2-2.87,7.33-3.33,14.92-1.76,22.54,3.13,15.19,13.42,27.05,19.03,41.12,.76-10.93,1.34-21.72,4.18-32.2,1.9-7.01,4.13-14.09,6.19-21.05,.66,.06,.13-.07-.01,.19ZM121.22,28.03c-1.85,6.94,2.46,12.39,7.83,11.85,8.65-.87,15.03-10.53,12.32-18.67-2.5-7.52-10.01-12.63-17.17-11.68-6.6,.87-8.13,3.2-9.07,13.69-.09,.98-.18,2.04-.62,2.89-.88,1.7-2.6,3.51-4.3,2.6-7.1-3.8-5.54,1.1-5.25,4.9,.04,.49,.07,1.03-.06,1.49-1.18,4.05,.24,6.44,4.46,7.11,1.03,.16,2.13,.59,2.27,1.63,.18,1.34-.99,1.92-2.06,2.48-4.26,2.23-11.08,1.12-15.48-2.32-5.61-4.38-7.33-10.2-6.71-17.18-1.75,3.74-2.22,7.41-1.87,11.39,.95,11,4.19,22.17-1.7,33.19,13.24-11.55,27.43-21.24,43.84-27.58-1.22-1.6-2.51-1.29-3.6-1.55-5.18-1.23-8.17-4.88-8.77-10.78-.44-4.28,2.46-8.46,7.08-10.38,3.42-1.42,6.58-.91,8.09,2.44,1.09,2.42,3,5.75-.66,8-3.49,2.14-6.65,2.31-8.57-3.54Zm56.93,260.57c7.65,3.02,13.09,8.5,17.86,14.8,3.22,4.25,6.69,8.3,10.73,11.8,1.19,1.03,2.35,2.67,4.56,1.41-1.34-1.12-2.55-1.99-3.6-3.03-7.29-7.27-5.05-21.41,4.02-25.65,1.24-.58,2.58-1.31,3.71-.34,1.32,1.13,.32,2.47-.37,3.56-1.88,3-1.19,5.24,1.7,7.17,1.35,.9,2.74,2.05,3.56,3.42,1.92,3.23,3.01,3.71,4.38-.39,1.19-3.57,4.38-4.45,7.51-2.33,1.34,.91,2.54,2.18,3.48,3.52,2.43,3.43,5.76,3.91,9.26,2.61,6.04-2.24,9.2-7.11,9.9-13.27,.7-6.25-1.67-11.64-7.07-14.97-5.17-3.2-10.71-2.14-15.66,.78-5.49,3.24-5.07,10.5,.51,13.33-.4-4.64,.52-6.02,4.25-7.34,3.63-1.29,4.75,1.44,6.12,3.6,1.76,2.76,1.34,5.43-1.12,7.6-4.25,3.74-11.64,2.77-15.1-1.75-3.96-5.18-3.18-10.34,.86-16.5-16.64,7.17-32.64,11.13-49.49,11.99Zm-94.84-37.44c5.72,11.8,8.47,24.59,14.29,36.15,4.4,8.75,11.07,15.31,19.91,19.57,1.18,.57,2.69,2.07,3.96,.2,2.73-4.04,6.54-6.87,11.87-9.8-5.68-.2-9.08-2.1-10.2-6.15-1.43-5.14,2.97-7.7,6.27-10.84-17.45-6.75-32.47-16.63-46.1-29.12ZM60.18,105.41c3.9-7.03,7.31-13.06,11.55-18.58,3.18-4.14,8.16-7.97,2.36-13.7-.28-.28-.17-.96-.26-1.45-.18-1-.47-2.15-1.53-2.3-1.45-.21-1.84,1.18-2.25,2.23-2.59,6.63-6.76,12.11-12.1,16.76-.93,.81-2.31,1.39-1.13,3.16,2.57,3.86,2.71,8.42,3.36,13.88Zm64.45,203.28c7.7,1.11,14.62-2.86,16.63-9.18-6.4,1.16-12.2,3.1-16.63,9.18ZM48.21,89.55c-5.12-.45-10.04-.04-14.56,4.28,6.09,1.19,10.43-1.09,14.56-4.28Zm93.53,205.57c-.37-2.42-1.73-4.33-3.37-4.32-3.64,.01-2.31,4.98-5.09,6.52,2.67-.69,5.35-1.39,8.46-2.2Zm-59.24-45.63l-.21,.34,.31,.04-.11-.39Z"/><path class="cls-2" d="M156.01,17.21c5.93-6.91,14.39-6.91,22.37-7.92,5.58-.71,11.23-.78,18.03-1.21-3.01-1.59-5.14-2.65-7.21-3.83-.94-.54-2.51-.93-2.02-2.36,.22-.65,1.55-1.13,2.45-1.29,5.49-.98,10.91-.87,16.21,1.18,7.14,2.76,13.12,7.22,18.31,12.71,2.11,2.24,4.52,3.75,7.24,5.1,51.11,25.36,82.64,65.53,91.17,122.42,4.05,26.98,1.12,53.48-9.58,78.82-1.46,3.45-2.12,6.89-1.95,10.63,.31,6.87-.45,13.64-3.03,20.1-2.17,5.44-5.49,9.92-10.98,12.37-1.1,.49-2.46,1.69-3.63,.62-.9-.82-.23-2.21-.02-3.34,.24-1.28,.5-2.55,1.04-5.26-5.83,4.85-10.58,9-15.54,12.88-4.98,3.9-10.26,7.29-17.36,6.2,16.17-4.94,21.02-20.11,29.38-32.01,4.5-6.42,8.68-13.05,14.57-18.32,2.23-2,3.25-4.6,4.25-7.23,24.45-64.21,3.05-136.56-52.49-177.24-4.69-3.44-9.61-6.6-14.61-9.58-8.48-5.07-17.2-9.18-27.62-8.72-4.71,.21-9.65-.94-14.23-2.32-14.79-4.44-29.54-8.05-44.85-2.47l.09,.07Zm138.79,238.56l-.32-.37c-.11,.11-.3,.22-.3,.33,0,.11,.18,.23,.28,.35l.34-.32Z"/><path class="cls-2" d="M207.03,40.94c-.05-.52-.1-1.05-.15-1.57,7.23,1.45,13.99,4.13,20.22,8.22l-20.07-6.66Z"/><path class="cls-2" d="M155.92,17.14l-.18,.74c-.8-.59,.08-.48,.27-.67l-.09-.07Z"/><polygon class="cls-4" points="82.5 249.49 82.61 249.87 82.29 249.83 82.5 249.49"/><path class="cls-3" d="M140.02,284.1l-.48-.35c.09,.02,.23,0,.27,.06,.07,.1,.09,.24,.13,.37l.08-.08Z"/><path class="cls-1" d="M294.79,255.77l-.34,.32c-.1-.12-.28-.24-.28-.35,0-.11,.19-.22,.3-.33l.32,.37Z"/><path class="cls-6" d="M298.8,160.66c0,70.57-53.23,118.91-125.29,118.91s-118.98-47.61-118.98-118.19S100.07,35.59,172.13,35.59s126.66,54.5,126.66,125.08Z"/></g></g></svg>