<?xml version="1.0" encoding="UTF-8"?><svg id="Capa_2" xmlns="http://www.w3.org/2000/svg" viewBox="0 0 623.37 848.85"><defs><style>.cls-1{fill:#f9d6a3;}.cls-2{fill:#d97a2e;}.cls-3{fill:#faca89;}.cls-4{fill:#d98a37;}.cls-5{fill:#e18a32;}.cls-6{fill:#f9c68e;}.cls-7{fill:#f0c477;}.cls-8{fill:#da8232;}.cls-9{fill:#eec879;}.cls-10{fill:#edc97d;}.cls-11{fill:#e28e34;}.cls-12{fill:#d87f32;}.cls-13{fill:#de8e32;}.cls-14{fill:#d97a32;}.cls-15{fill:#f3c072;}.cls-16{fill:#df712e;}.cls-17{fill:#d87a31;}.cls-18{fill:#d89238;}.cls-19{fill:#dd9539;}.cls-20{fill:#da8f36;}.cls-21{fill:#f3bf6f;}.cls-22{fill:#d48032;}.cls-23{fill:#fadca6;}.cls-24{fill:#d88838;}.cls-25{fill:#d88e39;}.cls-26{fill:#dc903b;}.cls-27{fill:#fbd8a7;}.cls-28{fill:#da7f29;}.cls-29{fill:#d78836;}.cls-30{fill:#fbddb4;}.cls-31{fill:#dc7e2c;}.cls-32{fill:#d98735;}.cls-33{fill:#db7630;}.cls-34{fill:#f9d9a4;}.cls-35{fill:#dd6e2c;}.cls-36{fill:#da8b39;}.cls-37{fill:#de9039;}.cls-38{fill:#f3c480;}.cls-39{fill:#f9e1b4;}.cls-40{fill:#db7331;}.cls-41{fill:#f8cf93;}.cls-42{fill:#dd8f3a;}.cls-43{fill:#d8782e;}.cls-44{fill:#fae3b2;}.cls-45{fill:#f3bc6f;}.cls-46{fill:#e4af4b;}.cls-47{fill:#f8d8a9;}.cls-48{fill:#e18734;}.cls-49{fill:#da8b31;}.cls-50{fill:#f4ba90;}.cls-51{fill:#da8032;}.cls-52{fill:#fadeb1;}.cls-53{fill:#db8338;}.cls-54{fill:#eec676;}.cls-55{fill:#df6c2d;}.cls-56{fill:#d79739;}.cls-57{fill:#f7c88b;}.cls-58{fill:#f9c686;}.cls-59{fill:#f9c98f;}.cls-60{fill:#f5c680;}.cls-61{fill:#f1cb8c;}.cls-62{fill:#d78233;}.cls-63{fill:#db8c38;}.cls-64{fill:#f8deac;}.cls-65{fill:#dc7e33;}.cls-66{fill:#d9742c;}.cls-67{fill:#d78435;}.cls-68{fill:#f1ca83;}.cls-69{fill:#f7d096;}.cls-70{fill:#f8d4a7;}.cls-71{fill:#d7963a;}.cls-72{fill:#f1c27f;}.cls-73{fill:#df8a37;}.cls-74{fill:#db8837;}.cls-75{fill:#e08230;}.cls-76{fill:#f0be6f;}.cls-77{fill:#d78d37;}.cls-78{fill:#ecc16d;}.cls-79{fill:#d89132;}.cls-80{fill:#f3d593;}.cls-81{fill:#d89036;}.cls-82{fill:#ebb863;}.cls-83{fill:#ecb972;}.cls-84{fill:#df7a2c;}.cls-85{fill:#da7f31;}.cls-86{fill:#d9973c;}.cls-87{fill:#f0ba70;}.cls-88{fill:#dd782b;}.cls-89{fill:#da8531;}.cls-90{fill:#da8a33;}.cls-91{fill:#efc77f;}.cls-92{fill:#de9037;}.cls-93{fill:#dc9238;}.cls-94{fill:#d57a2f;}.cls-95{fill:#fadbaf;}.cls-96{fill:#e08331;}.cls-97{fill:#df8f35;}.cls-98{fill:#e08632;}.cls-99{fill:#db742f;}.cls-100{fill:#e18a34;}.cls-101{fill:#dd8331;}.cls-102{fill:#df6e2d;}.cls-103{fill:#db7d30;}.cls-104{fill:#de9338;}.cls-105{fill:#dc9639;}.cls-106{fill:#db8d3a;}.cls-107{fill:#efc67f;}.cls-108{fill:#f7cd8b;}.cls-109{fill:#f0c679;}.cls-110{fill:#db9638;}.cls-111{fill:#efc377;}.cls-112{fill:#fad8aa;}.cls-113{fill:#e7b264;}.cls-114{fill:#e9b96c;}.cls-115{fill:#fadbaa;}.cls-116{fill:#d88631;}.cls-117{fill:#e46f2d;}.cls-118{fill:#da8e3c;}.cls-119{fill:#ebb566;}.cls-120{fill:#da7b32;}.cls-121{fill:#db7d34;}.cls-122{fill:#f2c27e;}.cls-123{fill:#eabe67;}.cls-124{fill:#dd742b;}.cls-125{fill:#d88636;}.cls-126{fill:#d87d32;}.cls-127{fill:#dc9538;}.cls-128{fill:#fee6c2;}.cls-129{fill:#f6d29c;}.cls-130{fill:#f3ba73;}.cls-131{fill:#db8c31;}.cls-132{fill:#ecc779;}.cls-133{fill:#db7c2f;}.cls-134{fill:#d59238;}.cls-135{fill:#dc8037;}.cls-136{fill:#d98e3a;}.cls-137{fill:#f9dcac;}.cls-138{fill:#db9235;}.cls-139{fill:#d78335;}.cls-140{fill:#de9137;}.cls-141{fill:#d78831;}.cls-142{fill:#dc9537;}.cls-143{fill:#f7c787;}.cls-144{fill:#f8d07f;}.cls-145{fill:#da8a36;}.cls-146{fill:#f6cc8b;}.cls-147{fill:#ebb46c;}.cls-148{fill:#f9e4b7;}.cls-149{fill:#e9b061;}.cls-150{fill:#d98c3a;}.cls-151{fill:#f7c788;}.cls-152{fill:#dd9339;}.cls-153{fill:#e3722e;}.cls-154{fill:#d77931;}.cls-155{fill:#e8c16a;}.cls-156{fill:#f2c36e;}.cls-157{fill:#f8e1ae;}.cls-158{fill:#da903b;}.cls-159{fill:#da7c30;}.cls-160{fill:#f1c386;}.cls-161{fill:#f5c585;}.cls-162{fill:#d78a31;}.cls-163{fill:#fabf85;}.cls-164{fill:#df8f36;}.cls-165{fill:#edb56a;}.cls-166{fill:#dc8736;}.cls-167{fill:#db752f;}.cls-168{fill:#d78d39;}.cls-169{fill:#d9903a;}.cls-170{fill:#dd8131;}.cls-171{fill:#d18438;}.cls-172{fill:#ca7c30;}.cls-173{fill:#edc881;}.cls-174{fill:#f3cc8a;}.cls-175{fill:#e17929;}.cls-176{fill:#dc7330;}.cls-177{fill:#db9435;}.cls-178{fill:#f3c97a;}.cls-179{fill:#efbf7a;}.cls-180{fill:#f9d094;}.cls-181{fill:#fae0b5;}.cls-182{fill:#f6cd8f;}.cls-183{fill:#d68339;}.cls-184{fill:#edc981;}.cls-185{fill:#efc582;}.cls-186{fill:#f9cf97;}.cls-187{fill:#f9d29a;}.cls-188{fill:#e07d2e;}.cls-189{fill:#f3c37c;}.cls-190{fill:#dc7b35;}.cls-191{fill:#efc78b;}.cls-192{fill:#fee5c0;}.cls-193{fill:#d88933;}.cls-194{fill:#f0c57a;}.cls-195{fill:#e09137;}.cls-196{fill:#f2c47a;}.cls-197{fill:#d88e36;}.cls-198{fill:#eec274;}.cls-199{fill:#da8738;}.cls-200{fill:#d88132;}.cls-201{fill:#f2c276;}.cls-202{fill:#fdd9ab;}.cls-203{fill:#e07f31;}.cls-204{fill:#fee5bc;}.cls-205{fill:#faddac;}.cls-206{fill:#f1c18a;}.cls-207{fill:#cf792e;}.cls-208{fill:#d79439;}.cls-209{fill:#d78537;}.cls-210{fill:#dc9138;}.cls-211{fill:#d48733;}.cls-212{fill:#d98b36;}.cls-213{fill:#e57831;}.cls-214{fill:#fbddac;}.cls-215{fill:#f9ce91;}.cls-216{fill:#f6cb8b;}.cls-217{fill:#e1792d;}.cls-218{fill:#f7cd8f;}.cls-219{fill:#d68633;}.cls-220{fill:#f0c580;}.cls-221{fill:#cf8336;}.cls-222{fill:#f9ddab;}.cls-223{fill:#d68635;}.cls-224{fill:#d7802c;}.cls-225{fill:#f7ca8c;}.cls-226{fill:#db7933;}.cls-227{fill:#eeb965;}.cls-228{fill:#d98637;}.cls-229{fill:#dd9036;}.cls-230{fill:#db9438;}.cls-231{fill:#eec073;}.cls-232{fill:#ecc57b;}.cls-233{fill:#da8b38;}.cls-234{fill:#db9239;}.cls-235{fill:#eeca84;}.cls-236{fill:#da9335;}.cls-237{fill:#f8c68a;}.cls-238{fill:#fadaa9;}.cls-239{fill:#d98c38;}.cls-240{fill:#de9035;}.cls-241{fill:#f7dab3;}.cls-242{fill:#d97f2d;}.cls-243{fill:#f1bf72;}.cls-244{fill:#f5c482;}.cls-245{fill:#fbddaf;}.cls-246{fill:#d59036;}.cls-247{fill:#f8e2ae;}.cls-248{fill:#e6ba65;}.cls-249{fill:#dc8731;}.cls-250{fill:#db8833;}.cls-251{fill:#fad69e;}.cls-252{fill:#dc8a36;}.cls-253{fill:#f7c987;}</style></defs><g id="Capa_4"><path class="cls-187" d="M602.05,573.21c-.1,3.22,1.5,5,4.65,5.21,3.08,.2,5.33-.89,6.51-4.1,1.53-4.18,.74-7.98-2.15-10.91-3.65-3.72-7.89-1.97-11.89-.12-1.96-1.33-3.11,2.54-5.14,.81,2.06-2.21,.35-5.88,3.02-7.86,1.99-.08,1.51-3.34,3.84-2.99,3.2-.17,3.85-2.93,4.57-5.09,2.61-7.8,5.42-15.68,1.66-23.93,5.51,7.72,3.59,15.96,1.3,24.44,2.52,.98,5.46-1.97,7.74,.7-5.5,1.88-10.71,4.17-13.1,9.45,4.4-1.42,8.51-.02,11.65,4.15,1.6,2.13,2.97,1.65,4.33-.16,2.3-3.08,2.12-6.09-.13-9.16-1.01-1.38-3.2-2.04-2.82-4.33,4.15-.06,5.87,2.99,6.77,6.15,1.13,4,.46,8.13-3.14,10.74-2.77,2.01-4.55,3.83-4.67,7.68-.14,4.38-4.37,5.71-7.79,7.3-.42,.51-.81,.49-1.18-.05-1.92-1.99-5.58-2.35-5.64-6.06,.49-.66,.05-2.13,1.62-1.85Z"/><path class="cls-186" d="M26.41,304.52c2.7,1.77,.7,5.2,2.56,7.27-1.61,1.24-3.03-.77-4.6-.28-4-1.88-8.05-2.84-12.34-.8,3.17-4.14,7.05-3,11.33-1.79-3.75-2.61-4.54-7.71-8.67-9.91-3.64-1.93-7.32-2.11-10.47,1.15-2.9,3.01-4.01,6.4-1.99,10.39,.35,.69,.6,1.44,.55,2.23-3.34-3.35-3.3-7.26-1.3-11.23,2.23-4.42,6.15-5.6,13.46-4.15-1.92-8.6-4.42-17.18,1.4-25.16-3.67,9.37-.98,18.02,2.86,26.52,1.17,2.59,1.32,2.52,4.01,3.97,1.94-.94,1.78,1.84,3.21,1.8Z"/><path class="cls-180" d="M622.14,814.09c0-1.65,.17-3.33-.05-4.95-.54-3.97-2.8-6.91-6.64-7.76-3.68-.82-7.35,.05-9.54,3.56-1.68,2.69-3.83,4.95-6.25,7.71,4.02-.95,7.73-3.08,11.04,.4-4.1,0-8.23-.22-11.96,2-2.2-.43-3.15,3.22-5.68,1.74,1.22-4.1,6.11-5.55,7.09-9.82l-.05,.05c6.94-6.14,9.34-15.59,6.39-25.12,1.7-.23,1.48,1.52,2.17,2.52,1.04-2.6-1.55-4.52-.63-6.9,3.51,4.66,3.65,11.88,.35,23.07,5.1-.95,10.1-1.28,13.21,3.7,1.92,3.07,2.57,6.41,.56,9.8Z"/><path class="cls-251" d="M23.71,688.19c-1.74-4.49-4.84-8.23-8.32-11.18-5.27-4.48-13.19-.68-14.03,6.24-.16,1.3-.05,2.64-.06,3.96-3.43-8.55,2.09-13.81,13.72-12.85-2.52-8.22-4.34-16.4,.69-24.8,1.5,2.44-.93,3.88-.24,5.83,1.42,.17,1.38-2.58,3.12-1.76-4.52,8.2-3.42,18.68,2.78,25.97,.4,.47,.8,1.69,1.84,.65,1.6-.27,1.63,.47,1.04,1.61,.29,3.92,4.79,4.97,5.74,8.43-2.69,1.38-3.67-1.99-5.82-2.1l-.24,.18-.24-.19Z"/><path class="cls-60" d="M33.69,500.53c-3.75-3.19-7.86-2.46-12.03-1.11-3.01-.37-4.01,4.14-7.33,3.02,.96-3.09,5.09-4.14,5.06-7.87,.28-1.01-.02-2.49,1.83-2.17,1.85,1.04,2.02-.88,2.65-1.66,2.55-3.12,4.67-6.67,5-10.66,.52-6.39,2.34-12.89-.75-19.36,5.25,3.85,5.8,13.27,1.58,25.4,3.41-.32,6.83-1.78,10.25,.84-9.83-3.38-13,4.02-17.46,10.38,5.13-1.58,9.47-1.32,12.62,3.08-.44,.53-.91,.56-1.42,.11Z"/><path class="cls-225" d="M24.26,59.89c-7.28-3.11-9.37-2.78-13.9,2.17-.48-.52-.53-1.09-.15-1.68,3.32-5.42,8.08-4.35,12.94-2.9-10.52-13.5-12.76-14.3-20.81-7.44l-.14-.12c2.52-4.92,4.54-5.64,12.87-4.33-2.1-7.65-3.84-15.22-.17-22.71,.55,5.68-.34,11.44,1.31,17.01,1.65,5.56,3.6,10.94,9.1,14,.28-.41,.39-1,1.05-1.03,2.76,2.06,.65,6.26,3.61,8.23-2.33,1.61-3.5-2.28-5.71-1.2Z"/><path class="cls-182" d="M616.2,297.67c-8.88-1.38-11.43,6.38-16.74,11.84,7.51-3.2,12.62-1.42,15.81,5.3,.42,.88,1.4,.72,2.22,.76-3.49,1.45-1.19,5.35-3.55,8.6,0-2.94,.25-4.79-.04-6.55-1.19-7.27-6.13-9.82-12.94-6.84-.73,.32-1.49,.58-2.24,.87-1.61-.06-2.87,2.04-4.68,.76,.94-3.71,5.42-4.96,6.11-8.84l-.06,.06c5.71-4.36,7.3-10.73,8.01-17.32,.42-3.95,1.93-7.99-.45-11.98,3.79,4.68,3.89,11.95,.75,22.66,2.55,.85,5.47-1.89,7.79,.68Z"/><path class="cls-196" d="M51.21,831.01c.45-1.06,.9-2.13,1.34-3.19,3.38-8.11-.52-13.78-9.37-13.63-.77,.01-1.6,.63-2.65-.48,4.21-1.86,8.02-1.57,11.31,1.3,3.97,3.47,4.41,7.93,2.76,13.01,2.85-4.29,9.07-5.29,10.05-11.55,.5,1.87,.44,3.66,3.24,2.31,5-2.4,10.41-3.17,15.96-1.97,1.56,.34,3.23,.43,4.26,2.08-11.63-.97-22.39,.18-29.92,10.5,.57,.41,.97,.93,1.03,1.66-4.17,.58-6.99,3.44-10.03,5.92-1.2-1.43,.03-2.25,.78-3.24,.61-.8,1.97-1.3,1.25-2.72Z"/><path class="cls-218" d="M18.93,172.84c1.47,1.65,2.11,4.05,4.42,4.94l-.06-.06c.83,4.09,5.42,5.43,6.69,9.2-2.32,1.54-3.46-2.17-5.64-1.28-10.66-4.34-14.76-1.19-14.95,11.5-2.42-4.08-2.19-7.84,.76-11.54,3.74-4.68,8.39-4.41,13.46-2.3-3.71-2.86-4.78-7.94-8.78-10.16-4.35-2.42-8.61-1.88-12.26,2.69,2.09-4.91,4.73-5.79,12.39-4.36-2.08-8.42-4.32-16.8,1.34-24.66-.4,2.2-.79,4.4-1.19,6.6,.26,4.43-1.18,8.93,.74,13.31,.92,2.1,1.38,4.4,3.06,6.11Z"/><path class="cls-57" d="M600.08,15.14c7.59,2.55,11.44,9.19,10.65,18.46-.34,3.94-1.02,7.83-2.47,11.77,2.55,.78,4.96-1.51,8.3,.87-9.86-1.74-11.63,6.54-17.35,11.49,5.86-1.7,10.78-2.81,14.05,2.66,.39,.65,.32,1.25-.23,1.78-4.56-5.13-6.3-5.41-13.9-2.28-1.98-1.24-3.06,2.43-5.08,.93,2.15-2.22,.19-6,3.03-7.95,.65,.04,.76,.64,1.06,1.04,3.33,.09,3.52-3.12,4.93-4.91,4.82-6.17,5.71-13.74,5.69-21.08-.02-5.8-4-9.84-9.72-11.69-.01-.71,.66-.76,1.04-1.08Z"/><path class="cls-146" d="M10.11,437.93c3.52-4.87,5.82-5.38,14.62-2.39-5.22-4.05-6.65-9.59-11.58-12.07,2.61-.08,1.72-1.41,1.28-2.98-1.46-5.11-2.29-10.32-1.33-15.65,.85-4.72,2.6-8.9,7.31-11.1,.42,.15,.72,.43,.9,.84-4.02,2.94-6.46,6.78-6.92,12,1.68-.52,.96-3.07,2.92-3.02l-.08-.07c-3.91,8.87-1.16,16.67,3.95,24.04,.42,.6,.74,2.13,2.11,.99,1.53-.2,1.61,.49,.98,1.61,.38,3.86,4.74,5.03,5.73,8.47-2.31,1.44-3.45-2.13-5.62-1.31-7.53-3.11-9.71-2.75-14.03,2.34-.51-.51-.59-1.08-.23-1.71Z"/><path class="cls-143" d="M564.29,829c-2.57-5.43-9.09-9.01-18.23-10.01-9.94-1.09-12.61,.38-16.57,9.13-.65-.03-.71-.67-1.04-1.02,2.96-9.23,11.58-12.96,23.2-9.9,2.22,.58,4.29,1.7,6.44,2.57,.75-.35,1.46-.31,2.09,.26,2.27,3.13,6.09,4.48,8.69,8.6-.07-3.69-1.85-6.22-.02-8.69,.38-.44,.83-.52,1.33-.23,1.23,2.53,1.12,5.27,1.29,7.97-.39,1.68-.24,3.15,1.09,4.53,1,1.03,1.98,2.35,.6,3.88-1.68-3.17-5.7-2.29-7.9-4.55-.21-.89-1.62-1.32-.96-2.54Z"/><path class="cls-201" d="M601.91,751.13c-3.79-1.09-7.59-2.09-11.51-.23,2.72-3.44,6.19-3.09,9.96-1.79-4.33-9.16-6.07-10.52-14.24-11.57,2.37-.61,4.72-.45,7.66,.74-1.47-4.82-2.78-9.14-2.75-13.76,.02-4.58,.64-8.81,3.59-12.62,1.49,1.71-.16,2.64-.58,3.66-3.19,7.75,.89,23.9,7.48,29.03,.09,.07,.33,.02,.44-.05,.12-.09,.18-.27,.27-.41,2.18,.38,2.61,2.35,3.51,3.88,.77,1.72,1.54,3.44,2.31,5.15-2.66,1.17-3.79-2.25-6.13-2.03Z"/><path class="cls-237" d="M600.15,245.77c-2.85-8.32-6.42-10.97-14.94-11.07l.06,.07c2.52-2.18,5.17-.73,8.26-.19-1.27-4.68-2.7-9.14-2.55-13.93,.15-4.63,.7-8.95,4.49-12.91-2.97,11.41-2.64,21.76,3.97,31.23,.6,.86,.95,2.53,2.72,1.76,1.51-.23,1.69,.41,1.04,1.59-.17,3.01,3.45,3.79,3.81,6.49-.74,.91-2.03,.06-2.8,.87-1.37-.81-2.75-1.61-4.12-2.42-.44-.52-.42-1.02,.06-1.5Z"/><path class="cls-216" d="M24.3,563.25c-7.3-3.15-9.44-2.82-13.95,2.19-.47-.53-.51-1.1-.13-1.69,3.66-4.63,5.84-5.11,12.95-2.87-9.77-13.37-12.46-14.34-20.88-7.54h0c2.4-4.93,4.37-5.64,12.76-4.38-2.05-7.66-3.88-15.25-.35-23.16,1.57,1.86-.02,3.47,.45,4.98,1.47,2.6-1.03,4.93-.46,7.58,.59,2.75,.98,5.52,2.45,7.98,1.43,3.43,2.8,6.89,6.13,9.02,1.76,.18,2.11,1.77,2.9,2.9,.08,3.1,3.77,3.99,4.21,6.87-2.73,1.67-3.46-3.15-6.07-1.88Z"/><path class="cls-161" d="M43.2,742.12c-9.78-8.86-15.7-2.21-19.94,7.07,.53,.41,.56,.86,.09,1.34-.43,.63-1.01,.8-1.72,.57-2.38-.15-3.64,3.4-6.41,1.95,.88-2.56,4.45-3.44,4.17-6.72,.33-.99-.03-2.57,1.88-2.21,3.94-1.91,6.84-7.93,8.19-14.38,1.31-6.25,2.07-12.19-1.82-17.93,5.76,4.95,6.35,13.84,2.1,25.96,5.18-.59,10.77-2.4,13.48,4.32h-.02Z"/><path class="cls-108" d="M610.08,172.46c-5.33,1.65-5.82,7.9-10.23,10.55,3.79-.44,7.54-2.78,10.87,.8-3.94,.18-8.02-.5-11.61,1.88-1.95-1.25-3.08,2.75-5.14,.81,.98-3.69,5.6-4.81,6.2-8.77l-.06,.06c7.37-6.37,9.69-16.75,5.8-25.93,.36-.37,.72-.37,1.08,0,.52,1,1.03,2,1.76,3.4,.79-3.16-1.8-5.32-1.48-9.03,3.47,4.49,3.66,8.9,3.41,13.26-.18,3.24-.37,6.58-1.79,9.63-.7,1.49-.71,2.54,1.27,2.73l-.08,.62Z"/><path class="cls-41" d="M15.21,375.5c1.12-2.85,4.9-3.9,5.02-7.42-.59-1.16-.47-1.81,1.04-1.46,1.67,.41,2.19-.98,2.82-1.96,5.37-8.27,10.35-21.89,2.08-32,6.62,2.72,8.22,13.97,3.74,27.44,1.81-.18,3.48-.43,5.16-.51,1.64-.07,3.37-.28,5.28,2.03-10.84-4.26-13.33,4.87-18.28,9.97-.1,.11-.12,.3-.17,.46l.97,.2c.68-.14,.9,.11,.68,.77-1.45,.82-2.89,1.64-4.34,2.46-1.34-.81-2.66,1.73-4,.02Z"/><path class="cls-151" d="M601.12,497.27c-1.31-1.7-2.89-3.27-3.89-5.14-3.02-5.64-7.68-6.64-13.71-5.01,3.19-2.05,4.77-2.18,10.11-.89-1.37-4.52-2.73-8.82-2.65-13.43,.08-4.62,.63-8.95,3.94-12.48-.4,3.7-2.91,6.91-2.3,11.38,.42-1.11,.65-1.74,.89-2.36-.23,9.27,1.19,17.91,9.09,24.1,.92,0,1.4,.48,1.52,1.36,.1,3.55,4.06,4.62,4.92,7.67-2.67,1.38-3.64-2.33-5.97-1.98-.32-.21-.65-.41-.97-.62-.17-.93-1.65-1.37-.98-2.61Z"/><path class="cls-215" d="M109.28,816.9c4.43,1.58,6.23,6.73,10.85,8.05l-.05-.05c5.24,6.36,12.49,7.08,19.97,7.13l-.06-.08c2.26,2.34,4.55-.82,6.99-.16-3.45,4.22-12.28,3.59-21.08,.63-.87,1.16,.9,2.49-.42,3.88-1.24-6.18-7.33-7.46-11.14-12.19,1.47,6.64,2.24,12.32-4.34,15.7-.44-.29-1.1-.32-1.16-1.04,5.74-3.05,5.85-7.89,4.24-13.29-.47-2.03-1.05-3.94-2.79-5.38-.89-.74-2.12-1.69-1.01-3.21Z"/><path class="cls-169" d="M573.14,836.1c-.17-3.03-4.75-4.53-2.86-8.28,2.04-.1,2.71,1.63,3.68,2.87,1.22,1.56,2.39,3.17,3.93,4.42,2.17,1.76,4.75,4.43,7.23,3.44,2.35-.93,.37-4.41,.68-6.75,.26-1.94-.06-3.95,.24-5.92,.25-1.78,1.53-2.49,3.04-2.96,.74-2.42,2.44-4.21,3.95-6.13,1.92-.5,3.07-3.5,5.68-1.74-5.71,4.46-9.81,10.01-10.33,17.42-.5,7.06,1.77,8.85,8.05,7.16-4.74,5.61-13.52,4.29-23.3-3.52Z"/><path class="cls-244" d="M603.18,620.2c.62,1.38,1.24,2.76,1.86,4.14-.56,1.06-1.55,1.44-2.65,1.63-1.11-.54-2.22-1.09-3.32-1.63,.23-.45,.58-.74,1.06-.89,.95-2.01-1.11-2.6-1.87-3.73-1.76-2.61-5.88-5.91-5.81-6.98,.49-7.33-3.62-14.57-.45-21.87,1.25-2.87,2.19-5.9,5.34-7.36,.39,.09,.64,.33,.75,.71-7.74,8.98-5.6,26.87,4.2,35.05,.82-.19,1.15,.08,.88,.93Z"/><path class="cls-58" d="M497.34,833.09c-5.52,.56-10.92,2.93-16.6,1.09-1.65-.53-3.3-1.03-4.86-2.08,6.08,1.21,11.98,.37,17.66-1.23,3.36-.95,7.66-1.33,8.77-5.95-.29-2.32,2.85-1.99,3.03-3.94,1.64-2.65,4.78-.6,6.77-2.16,1.54,1.33-1.38,2.73,.06,4.06-3.02,2.16-6.03,4.31-9.05,6.47-1.46,1.05-3.09,1.91-3.95,3.61-.57,.61-1.18,.65-1.84,.14Z"/><path class="cls-59" d="M610.21,675.17c-4.72,2.66-6.56,7.92-10.32,11.45,.13,.09,.26,.19,.4,.26,.15,.07,.31,.11,.46,.16,.62-.37,1.17-.29,1.65,.25-1.14,.85-2.22,1.83-3.75,1.91-2.68-.18-3.51,3.91-6.57,2.86,1.55-4.49,6.72-6.3,8.06-10.94l-.05,.05c8.93-8.85,9.64-19.64,7.42-31.18,4.41,6.71,3.54,13.84,1.9,21.13-.27,1.21-2.89,3.44,.8,4.05Z"/><path class="cls-253" d="M598.15,80.88c-7.75,8.58-5.69,26.5,4.02,34.98,.59,.11,.95,.45,1.05,1.06-.02,2.81,3.59,3.37,3.75,6.06-1.88,1.2-3.01-.9-4.59-1.04-2.82-4.19-5.58-8.42-9.27-11.95-1.46-1.39,.27-3.11-.48-4.99-2.24-5.62-2.36-11.61-.6-17.48,.91-3.02,2.34-5.81,5.32-7.42,.41,.11,.68,.37,.81,.77Z"/><path class="cls-77" d="M51.21,831.01c1.37,.04,1.68,.58,.82,1.71-1.03,1.36-2.67,2.32-2.84,4.26-8.04,6.66-15.6,7.82-21.92,3.35,1.91-1.7,4.44,2.55,6.04-.52,1.46-2.81,2.25-5.92,1.62-9.11-1.15-5.9-4.32-10.63-8.86-14.48-.55-1.55-.4-2.7,1.61-1.96,1.2,.44,1.74,1.83,2.72,2.65,5.57,6.25,7.55,13.44,5.2,21.54-1.04,3.58,1.37,2.75,2.85,2.29,5.4-1.66,9.44-5.26,12.77-9.72Z"/><path class="cls-189" d="M21.21,115.84c5.24-4.44,8.06-10.03,8.06-16.96-1.38-1.64-.15-3.04,.46-4.46,.49-1.15,1.58-2.17,.51-3.53,.44-2.94-1.62-5.21-2.03-7.98,3,2.25,3.84,5.56,4.08,8.99,.31,4.47-.74,8.87-1.13,13.28-.54,6.18-5.38,9.1-8.19,13.52-.62,.97-1.8,1.68,.3,2.14-.66,1.92-2.59,2.12-4.04,2.98-1.91-.98-2.69,2.67-4.73,1.14,1.28-3.74,5.86-5.06,6.7-9.13Z"/><path class="cls-115" d="M609.01,420.38c-.89,2.04-.9,2.6,1.89,2.26,8.22-.98,13.01,3.67,12.32,11.27-.19,2.08-.97,3.93-2.38,5.32-2.87,2.81-6.91,4.74-6.35,10.07-.39-3.96-.76-7.53-2.26-10.88,.26-.71,.66-1.25,1.52-1.23,3.6,1.67,5.41,.97,6.58-2.55,1.62-4.9-2.66-10.05-8-9.67-1.77,.13-3.39,1.38-5.26,.69-.73-.36,.03-3.15-2.07-1.27,.76-2.85,1.38-5.75,2.31-8.54,1.82-5.44,.37-10.03-3.31-14.13,.15-.16,.3-.33,.45-.49,3.02,.98,3.18,4.07,4.57,6.25,1.91,4.3-.41,8.6-.01,12.91Z"/><path class="cls-202" d="M27.15,781.11c-4.23-4.03-7.74-3.32-10.35,1.92-2.46,4.93-1.19,9.65,.47,14.4,.65,1.87,1.34,3.72,2.01,5.58-.62,.32-1.33,.29-1.66-.26-1.36-2.25-.67,.76-1.24,.47-1.51,.67-2.93,0-4.35-.35-3.55-.9-6.18,.44-8.08,3.34-1.85,2.83-1.5,5.64,.42,8.33,.86,1.2,2.01,2.23,2.19,3.82-.07,.22-.13,.45-.2,.67-4.89-1.81-7.3-6.53-6-11.74,1.25-5.01,5.81-7.99,11.31-7.23,1.83,.25,4.3,1.78,2.74-2.14,.37-3.45-1.11-6.77-.72-10.25,.11-.97-.23-1.99,.7-2.73,.71-1.43,1.3-2.95,2.16-4.27,3.06-4.68,7.51-4.84,11.61-.51-.19,.47-.54,.78-1.01,.95Z"/><path class="cls-243" d="M31.98,225.64c-.65,2.62-1.2,5.27-2,7.84-.44,1.42,.63,1.13,1.23,1.43l-.1,.52c-4.41,2.31-5.71,7.37-9.21,10.48-.05,.04,.04,.37,.1,.38,.32,.05,.64,.05,.97,.07,.51-.05,.7,.18,.58,.67-1.44,.88-2.88,1.76-4.32,2.64-1.34-.9-2.66,1.68-4,.01,.98-2.81,4.75-3.6,5-6.94,.1-.61,.47-.96,1.07-1.08,4.95-4.01,7.22-9.46,8.14-15.55,.29-1.95,.24-3.92,1.71-5.47,1.28,1.5,.08,3.41,.85,5Z"/><path class="cls-45" d="M601.69,373.57c-.84,.24-1.47-.08-1.98-.73,.19-.73,.99-.79,1.4-1.27-2.92-3.26-5.72-6.89-7.89-10.41-1.15-1.87-1.59-6.31-1.82-9.66,.73-.96-.26-2.45,1-3.25,1.99,.88,1.42,2.74,1.65,4.29,.85,5.69,3.28,10.57,7.45,14.54,.06,.06,.32,0,.42-.09,.12-.1,.16-.28,.24-.43,1.41-.25,1.69,.27,1.01,1.46,.05,4.16,4.91,5.06,5.83,8.63-3.18,.73-4.49-2.97-7.31-3.09Z"/><path class="cls-122" d="M38.3,612.56c-7.65-1.67-10.8,2.07-15.05,10.88,.51,.41,.56,.87,.15,1.39l-4.18,2.36c-.72-.6-1.72-.93-2-1.98,.71-2.43,4-3.13,4.04-6.01l-.07,.07c4.99-3.88,7.24-9.26,8.17-15.29,.28-1.79,0-3.69,1.68-4.99,2.1,2.73-.66,5.49,.06,8.23l-1.17,4.77c2.92-.02,5.85-2.14,8.36,.58Z"/><path class="cls-252" d="M152.15,827.74c2.33-6.04,2.41-11.56-2.71-16.04-4.53-3.96-9.49-4.2-14.95-.47,3.66-5.72,9-6.82,14.49-3.46,6.5,3.98,7.99,12.68,3.17,19.97Z"/><path class="cls-130" d="M16.22,803.08c.89-5.4,2.08,1.66,3.06-.07,1.57,1.37,2.19,3.77,4.61,4.2,1.64,.51,1.97,1.74,1.79,3.26,1.11,2.49,3.91,3.73,4.72,6.43-1.63,.96-2.23-4.64-4.33-.69-8.02-4.78-10.9-4.63-15.75,.84-.38-.31-.62-.71-.76-1.17,1.79-5.24,5.56-6.8,11.57-4.88-2.2-2.2-4.62-4.39-4.91-7.92Z"/><path class="cls-15" d="M605,424.4c.62-.37,1.23-.73,1.85-1.1l.32,2.19c-.3,3.81-2.86,6.06-4.93,7.94,5.37-1.93,8.83-.83,10.99,3.95-.33,.35-.66,.7-.99,1.05-4.71-4.28-7.27-4.25-14.95,.16-1.56-.57-2.59,2.14-4.29,.71,1.04-3.75,5.88-4.95,6.17-9.2-.52-1.08-.51-1.81,1.01-1.6,3.01,.29,2.97-3.02,4.83-4.1Z"/><path class="cls-168" d="M36,35.42c4.86-11.29-2.7-21.66-15.06-18.68,5.54-3.54,12.82-2.2,16.7,3.07,3.92,5.32,3.26,11.56-1.64,15.61Z"/><path class="cls-183" d="M488.53,810.88c-11.04-5.86-18.02-.27-18.49,14.82-3.48-7.53-.78-15.8,6.13-18.78,5.31-2.29,10.29-.7,12.37,3.96Z"/><path class="cls-212" d="M587.05,538.2c-4.75-4.55-4.99-10.53-.93-15.5,4.22-5.17,11.74-6.03,17.99-1.57-5.52-2.48-10.59-2.47-14.81,2.19-4.01,4.42-4.28,9.43-2.25,14.88Z"/><path class="cls-135" d="M20.61,268.59c6.72-3.64,13.75-2.13,17.26,3.16,3.64,5.49,3.05,10.78-2.56,16.29,3.01-5.98,3.09-11.04-.45-15.57-3.64-4.66-8.47-5.94-14.24-3.88Z"/><path class="cls-211" d="M598.1,584.22l-.75-.71c2.55-2.09,5.54-2.59,8.72-2.39,.4,.02,.79,.03,1.18,.05,5.72,.48,9.13,4.05,10.6,9.09,1.31,4.48,.5,8.9-4.92,12.88,4.45-7.28,3.75-13.08-1.53-17.9-4.02-3.67-8.63-3.79-13.31-1.02Z"/><path class="cls-199" d="M36.08,538.88c4.84-12.59-3.79-21.81-15.15-18.7,3.58-4.01,13.39-1.67,16.35,2.43,4.04,5.58,3.84,11.54-1.2,16.27Z"/><path class="cls-226" d="M597.41,332.27c6.41-4.49,13.95-3.69,18.09,1.6,4.21,5.38,3.75,11.74-2.02,16.86,3.57-6.54,3.1-11.87-1.46-16.62-4.34-4.52-9.29-4.01-14.61-1.84Z"/><path class="cls-62" d="M598.15,80.88l-.81-.77c4.89-3.15,10.01-3.49,14.99-.56,4.37,2.57,6.24,6.7,5.9,11.81-.2,2.97-1.36,5.39-4.9,8.15,4.04-7.44,3.16-13.28-2.23-17.92-3.94-3.39-8.47-3.44-12.94-.71Z"/><path class="cls-193" d="M587.51,161.24c-4.91-4.39-5.5-9.78-2.11-15.03,3.71-5.74,10.52-7.26,17.67-3.46-5.65-1.91-10.53-.98-14.3,3.59-3.63,4.4-3.55,9.34-1.26,14.9Z"/><path class="cls-126" d="M26.04,206.6c-5.64-2.74-10.94-2.79-15.22,2.21-3.95,4.61-4.6,9.74-.92,15.59-5.62-4.12-6.27-10.76-2.13-16.17,4.29-5.61,12.62-6.48,18.28-1.63Z"/><path class="cls-67" d="M26.3,584.86c-4.59-3.01-9.15-3.6-13.79-.03-4.71,3.62-5.65,7.88-3.59,16.86-4.72-4.69-5.13-10.73-1.09-15.88,4.32-5.51,11.17-6.34,18.27-2.21,.3,.24,.43,.51,.39,.8-.04,.31-.11,.46-.19,.46Z"/><path class="cls-29" d="M36.41,160.74c3.98-11.34-3.32-21.38-15.51-18.14,5.17-3.54,12.36-2.44,16.31,2.51,4.26,5.33,3.94,11.55-.8,15.64Z"/><path class="cls-223" d="M36.43,789.93c3.76-10.32-2.13-21.2-15.8-18.23,6.08-4.05,14.3-1,16.99,3.03,3.69,5.53,3.38,11.21-1.19,15.2Z"/><path class="cls-94" d="M20.33,329.49c1.74-.1,3.1,.79,4.6,1.9-5.69-1.58-10.66-1.11-14.53,3.8-3.71,4.7-3.75,9.6-1.15,14.84-4.21-3.17-4.96-7.35-3.51-11.88,1.72-5.38,5.42-8.58,11.32-8.72,1.1-.56,2.19-.42,3.27,.06Z"/><path class="cls-8" d="M587.43,286.98c-4.89-4.22-5.45-9.4-2.07-14.78,3.66-5.81,10.4-7.4,17.55-3.69-5.47-1.39-10.39-1.07-14.14,3.67-3.52,4.46-3.6,9.26-1.34,14.79Z"/><path class="cls-116" d="M587.08,664.02c-4.67-4.61-4.99-10.12-1.24-15.13,3.77-5.06,10.35-6.34,17.05-2.97-5.34-1.2-10.28-1.06-13.99,3.61-3.53,4.44-3.99,9.24-1.82,14.49Z"/><path class="cls-135" d="M95.27,833.18c-.45,5.33-3.26,8.95-8.16,10.85-4.08,1.58-7.73,.7-10.84-2.78,5.14,1.44,9.91,1.47,13.96-2.52,4.15-4.1,4.63-8.89,2.45-14.89q2.38,3.02,2.66,6.88c.48,.84,.46,1.66-.07,2.47Z"/><path class="cls-190" d="M21.3,394.59c-.3-.28-.6-.56-.9-.84,1.53-.59,2.95-1.56,4.71-1.36,1.42-.33,2.85-1.1,4.27,.02,10.39,2.19,14.08,12.24,6.28,21.29,2.92-7.22,2.52-12.78-2.38-17.22-3.5-3.17-7.6-3.69-11.98-1.9Z"/><path class="cls-12" d="M20.36,455.29c2.25,.03,4.13,.87,5.75,2.79-5.51-2.41-10.74-2.7-15,2.04-4,4.45-5.05,9.49-1.41,15.51-4.29-3.11-5.59-6.36-4.3-10.82,1.54-5.3,4.76-9,10.66-9.57,1.44-.53,2.87-.38,4.29,.05Z"/><path class="cls-29" d="M600.08,15.14c-.35,.36-.69,.72-1.04,1.08-10.73,.23-15.41,7.89-11.63,19.04-3.76-2.78-4.95-6.29-3.68-10.89,1.44-5.22,5.5-9.01,10.38-9.42,1.97-.17,3.98,.12,5.97,.19Z"/><path class="cls-110" d="M602.38,121.94c1.93-1.43,2.97,1.11,4.59,1.04,6.01,6.16,9.45,13.18,7.29,22.04-.41,1.69-.59,3.51-3.34,4.61,5.75-12.26-.72-20.21-8.54-27.7Z"/><path class="cls-22" d="M614.06,476.28c4.91-11.32-2.15-22.79-15.31-19.07,5.37-3.56,12.5-2.65,16.55,2.11,4.14,4.87,3.96,11.2-1.23,16.96Z"/><path class="cls-17" d="M36.52,664.19c3.57-11.29-2.57-21.15-15.84-18.43,6.18-3.81,13.81-1.21,16.81,2.91,3.83,5.26,3.56,10.99-.97,15.52Z"/><path class="cls-219" d="M602.67,771.74c-9.85-3.14-19.8,4.33-15.82,18.28-4.42-4.24-4.84-9.71-1.15-15.02,3.7-5.33,10.76-6.74,16.98-3.26Z"/><path class="cls-209" d="M8.56,726.21c-4.5-4.3-4.47-10.29-.42-15.04,4.39-5.15,11.67-5.87,17.94-1.39-5.3-2.18-10.41-2.7-14.68,1.75-3.99,4.15-5.17,9.04-2.83,14.68Z"/><path class="cls-200" d="M600.03,393.69c-11.26-.18-16.17,6.8-13.02,18.49-3.17-2.4-4.48-6.17-3.5-10.04,1.33-5.24,5.28-9.1,10.12-9.69,2.46-.3,4.96-.38,7.4,.35,.19,.88,0,1.34-.99,.89Z"/><path class="cls-43" d="M528.44,827.1c.35,.34,.7,.68,1.04,1.02,.03,10.86,6.26,15.49,18.06,12.99-2.99,3.48-6.34,4.24-10.29,3.1-5.55-1.61-8.42-5.4-9.08-11.03-.53-.79-.53-1.58,0-2.37,.09-1.24,.17-2.47,.26-3.71Z"/><path class="cls-85" d="M615.13,223.39c2.77-12.68-4.27-20.77-16.4-17.96,5.41-3.31,12.3-2.43,16.33,2.08,4.1,4.59,4.33,10.37,.06,15.88Z"/><path class="cls-118" d="M602.4,625.97c.78-.71,1.43-1.63,2.65-1.63,4.69,4.87,9.16,9.88,9.75,17.08,.33,4.04-.04,7.93-3.1,11.21,4.35-11.62-.44-19.86-9.29-26.67Z"/><path class="cls-24" d="M607.41,706.98c9.94,1.93,14.18,11.94,7.16,20.33,1.94-6.29,1.82-11.21-2.05-15.28-3.84-4.05-8.43-4.94-14.54-2.21q2.96-2.51,6.03-2.92c1.14-.26,2.28-.54,3.4,.08Z"/><path class="cls-138" d="M24.26,59.89c2.73-3.52,3.59,1.84,5.71,1.2l3.19,3.86c4.63,10.41,4.69,16.88-.65,22.3,4.7-10.19,2.04-17.87-5.05-24.43-1.03-.29-2.03-.61-2.18-1.9l-1.02-1.03Z"/><path class="cls-86" d="M601.91,751.13c2.84-1.72,3.95,1.76,6.13,2.03,7.74,9.11,9.15,19.16,3.23,25.53,3.97-9.14,1.64-16.89-4.93-23.64-1.37-1.41-2.95-2.62-4.43-3.93Z"/><path class="cls-229" d="M109.28,816.9c1.42,2.79,5.29,4.5,3.8,8.58-2.53-4.18-5.88-7.49-10.09-10-5.4-3.22-10.88-3.01-17.27,.34,5.38-6.37,15.05-5.5,23.55,1.08Z"/><path class="cls-158" d="M17.22,625.21c1.22,.11,2.11,.54,2,1.98-7.68,7.01-11.64,15.09-6.59,26.3-7.38-7.01-3.8-20.7,4.59-28.28Z"/><path class="cls-152" d="M24.3,563.25c3.23-3.25,3.79,2.07,6.07,1.89,7.13,8.84,8.36,18.55,2,26.01,5.58-12.78,.69-21.01-8.07-27.89Z"/><path class="cls-118" d="M593.97,186.49c1.83,.48,2.85-4.2,5.14-.81-8.77,6.76-13.39,14.97-8.45,26.97-6.25-6.33-4.46-17.75,3.31-26.16Z"/><path class="cls-42" d="M24.19,688.19c2.81-1.72,3.62,2.12,5.82,2.1,7.58,9.87,8.85,19.41,2.93,25.54,5.75-12.12-1-20.04-8.75-27.64Z"/><path class="cls-26" d="M24.35,185.64c2.76-3.46,3.49,2.01,5.64,1.28,7.46,9.67,8.76,18.44,3.28,25.48,4.58-11.58-.12-19.89-8.91-26.76Z"/><path class="cls-233" d="M24.37,311.51c1.65-1.82,3.07,.09,4.6,.28,8.22,9.13,10,19.06,4.3,26.46,4.58-11.56-.15-19.86-8.9-26.75Z"/><path class="cls-25" d="M15.21,753.05c2.21-.42,3.93-2.44,6.41-1.95-9.61,6.19-12.82,15.19-9.71,27.23-6.65-5.53-2.75-19.09,3.29-25.27Z"/><path class="cls-106" d="M594.07,60.81c1.85,.53,2.67-4.53,5.08-.93-8.84,6.83-13.54,15.1-8.21,27.82-6.49-7.94-4.71-18.79,3.13-26.89Z"/><path class="cls-56" d="M594.03,564.09c1.81,.36,2.83-4.37,5.14-.81-9.65,7.39-11.35,12.22-9.3,26.44-5.43-6.47-3.7-17.15,4.16-25.63Z"/><path class="cls-18" d="M601.69,373.57c3.2-.78,4.72,2.42,7.31,3.09,6.87,9.45,7.84,17.96,2.37,24.52,5.02-12.24-.58-20.57-9.68-27.61Z"/><path class="cls-36" d="M592.08,692.06c2.39-.5,3.15-4.72,6.57-2.86-8.06,6.99-13.26,14.89-8.01,26.29-5.69-4.05-4.92-14.04,1.45-23.43Z"/><path class="cls-63" d="M594.04,312.42c1.5-.6,2.92-1.71,4.67-.76-9.36,8.01-10.93,12.73-8.81,26.29-5.51-6.49-3.86-16.63,4.14-25.54Z"/><path class="cls-71" d="M604.21,249.69c.12-2.9,1.85-.62,2.8-.87,8.6,8.99,10.48,19.73,3.59,27.64,5.17-11.64,1.46-19.8-6.39-26.77Z"/><path class="cls-20" d="M14.33,502.44c2.57-.7,4.11-3.89,7.32-3.02-9.97,6.65-13.08,15.38-9.65,27.11-5.52-4.72-4.55-14.75,2.33-24.09Z"/><path class="cls-134" d="M15.22,249.68c1.34,1.55,2.66-3.73,4-.01-7.8,6.93-11.6,15.01-6.67,26.02-6.29-6.07-5.09-15.37,2.67-26Z"/><path class="cls-197" d="M24.38,437.3c2.75-3.33,3.49,1.95,5.62,1.31,7.42,9.23,8.74,18.29,3.34,25.3,4.35-11.45-.14-19.79-8.95-26.61Z"/><path class="cls-136" d="M15.21,375.5q3.44-1.1,4-.02c-7.54,7.01-11.82,14.95-6.56,25.9-6.08-4.06-5.29-17.43,2.56-25.88Z"/><path class="cls-150" d="M603.08,500.5c2.97-2.3,3.73,2.06,5.97,1.98,6.24,6.47,8.08,19.98,1.53,25.22,3.46-7.21,3.17-13.28-.21-19.29-1.84-3.28-4.75-5.38-7.29-7.9Z"/><path class="cls-81" d="M512.17,822.86c-2.74-1.31,.08-2.71-.06-4.06,8.83-8.15,18.37-9.74,25.26-3.75-10.84-4.82-18.62-.35-25.19,7.81Z"/><path class="cls-239" d="M14.51,124.97c1.38-.16,2.11-1.28,3.08-2.05,1.27-1.01,1.56-.22,1.64,.91-7.65,6.98-11.7,14.99-6.61,26.14-6.22-5.95-5.14-15.95,1.88-25Z"/><path class="cls-208" d="M592.99,439.3q3.58-1.96,4.29-.71c-7.45,6.87-11.46,14.75-6.4,26.02-6.13-6.56-4.86-16.63,2.11-25.32Z"/><path class="cls-174" d="M20.36,455.29c-1.43-.02-2.86-.04-4.29-.05-5.08-2-8.77-5.03-8.04-11.17,.18-1.54-1.37-1.64-1.8-2.62,2.66,.33,2.25-2.72,3.88-3.52,.08,.57,.16,1.14,.23,1.71-.5,3.19-1.79,6.32,.18,9.56,1.59,2.61,3.69,3.58,6.64,3.25,3.08-.34,4.24-2.19,4.25-5.06,1.57-.28,1.08,1.2,1.57,1.84-.33,1.95-1.59,3.21-3.16,4.24-.92,.6-.8,.99,.53,1.82Z"/><path class="cls-195" d="M526.25,829.15c-4.37-3.69-5.55-3.35-7.18,1.99-.42,1.36-.6,3.32-2.72,2.75-1.74-.47-1.8-2.22-1.67-3.73,.23-2.6,1.65-4.36,4.23-4.87,3.37-.67,6.28-.13,7.54,3.68l-.2,.18Z"/><path class="cls-68" d="M613.04,62.16c.08-.59,.15-1.19,.23-1.78,2.2,5.88,5.21,1.49,7.94,.62l-.06-.05c-2.85,3.27-5.87,5.96-6.87,10.92-1.19,5.92-7.4,6.7-12.36,2.46,.81-.89,1.43-.02,2.14,.2,6.56,2.03,11.21-2.3,9.77-9.07-.24-1.11-.52-2.2-.79-3.3Z"/><path class="cls-75" d="M601.67,325.23c-2.68-5.01-1.19-9.64,3.31-10.27,1.79-.25,3.58,.14,3.94,2.02,.37,1.94-1.52,2.16-2.95,2.52-4.11,1.05-4.31,1.34-4.3,5.72Z"/><path class="cls-48" d="M21.3,324.67c1.29-3.5-.41-4.77-3.65-5.15-1.58-.19-3.74-.54-3.06-2.83,.53-1.79,2.48-1.94,4.2-1.65,4.06,.67,5.42,5.09,3.23,10.42-.85,.3-1.09,.05-.73-.78Z"/><path class="cls-188" d="M21.3,576.37c1.47-3.64-.55-4.72-3.67-5.14-1.66-.22-3.72-.67-2.98-2.91,.57-1.73,2.52-1.89,4.26-1.54,4.52,.93,5.53,6.03,2.23,11.29-.3-.6-.25-1.17,.15-1.71Z"/><path class="cls-221" d="M37.58,825.95c4.24,2.18,5.88,1.54,6.63-3.09,.28-1.73,.44-3.68,2.62-3.33,1.77,.29,1.54,2.29,1.56,3.77,.03,1.97-.63,3.81-2.52,4.44-3.02,1.02-6.06,1.06-8.29-1.8Z"/><path class="cls-13" d="M600.77,448.98c-.58-5.8,1.32-8.7,5.03-8.37,1.35,.12,2.75,.51,3.11,1.98,.44,1.8-1.17,2.47-2.36,2.48-2.84,.02-4.57,1.39-5.79,3.9Z"/><path class="cls-100" d="M22.56,700.79c-1.12-2.85-2.98-4.03-5.84-3.98-1.15,.02-2.39-.79-2.33-2.16,.07-1.6,1.45-2.12,2.83-2.31,3.95-.54,6.14,2.67,5.34,8.45Z"/><path class="cls-5" d="M604.38,589.83c3.52,3.24,4.1,7.02,1.5,9.64-1.98,2-5.23,1.57-6.09-.89-.66-1.9-.11-3.45,2.15-3.32,4.73,.28,4.72,.38,2.56-4.6-.1-.23-.08-.52-.12-.83Z"/><path class="cls-96" d="M22.67,198.13c-1.31-3.07-2.89-4.94-6.03-4.72-1.13,.08-2.31-.88-2.18-2.25,.16-1.62,1.59-1.99,2.95-2.13,4-.39,6.06,2.84,5.25,9.1Z"/><path class="cls-175" d="M22.99,449.24c-.52-.61-1.05-1.23-1.57-1.84-.84-1.7-2.33-2.07-4.07-2.27-1.39-.16-3.35-.45-2.82-2.54,.49-1.94,2.48-2.29,4.07-1.88,4.51,1.16,5,4.61,4.38,8.54Z"/><path class="cls-104" d="M604.25,86.52c3.7,3.14,4.23,7.33,1.34,9.88-1.27,1.11-2.63,1.31-4.13,.64-1.15-.51-1.89-1.45-1.92-2.69-.04-1.52,.72-2.59,2.38-2.46,4.83,.37,4.83,.4,2.6-4.55-.11-.25-.18-.52-.28-.82Z"/><path class="cls-84" d="M602.05,573.21c-.54,.62-1.08,1.23-1.62,1.85-.31-5.92,1.64-8.83,5.67-8.32,1.27,.16,2.88,.36,2.94,2.07,.04,1.34-1.22,1.91-2.35,2.21-1.69,.45-3.75,.05-4.63,2.19Z"/><path class="cls-16" d="M23.2,135.86c-2.06-5.39-.79-8.96,3.44-9.57,1.72-.25,3.6-.16,3.94,1.89,.3,1.84-1.39,2.52-2.91,2.54-3.48,.05-4.64,1.88-4.35,5.07l-.13,.08Z"/><path class="cls-101" d="M22.68,512.41c-.73-3.55-1.2-7.13,3.21-8.66,1.83-.64,3.98-.57,4.61,1.57,.7,2.38-1.55,2.66-3.12,2.7-2.97,.07-3.84,2.02-4.7,4.39Z"/><path class="cls-167" d="M600.68,513.04c-.41-3.31-1.88-5.26-5.4-5.12-1.31,.05-2.71-.67-2.38-2.44,.3-1.6,1.69-1.89,3.06-1.96,4.02-.18,5.7,2.99,4.72,9.52Z"/><path class="cls-97" d="M603.88,714.81c4.28,3.71,4.36,6.84,2.2,10.17-.89,1.38-2.35,1.74-3.95,1.39-1.44-.31-2.52-1.26-2.61-2.64-.11-1.56,.52-3.05,2.57-2.75,4.28,.62,4.41,.48,2.91-3.78-.15-.42-.38-.82-1.12-2.39Z"/><path class="cls-203" d="M600.49,701.25c-.57-4.63,.05-7.94,4.67-8.9,1.57-.33,3.23,.3,3.72,1.78,.64,1.92-1.32,2.87-2.56,2.74-3.12-.33-4.12,2.07-5.82,4.38Z"/><path class="cls-213" d="M22.85,827.06c-1.58-2.56-3.05-4.68-6.2-4.45-1.03,.07-2.38-.74-2.24-2.17,.16-1.59,1.62-2.01,2.92-2.22,3.79-.62,6.04,2.76,5.52,8.84Z"/><path class="cls-217" d="M603.58,462.92c4.42,3.54,4.89,6.7,2.45,10.3-.97,1.43-2.41,1.6-3.96,1.34-1.3-.22-1.86-1.22-2.38-2.29-.45-.91,0-1.6,.46-2.27,.54-.78,1.35-.67,2.2-.68,1.16-.02,.95,3.24,2.77,1.13,1.11-1.29,.83-2.77,.16-4.19-.34-.73-.73-1.43-1.7-3.32Z"/><path class="cls-228" d="M19.3,463.58c-.72,2.29-2.36,3.85-1.46,5.92,.36,.84,.86,2.68,2.13,1.01,1.09-1.43,2.07-1.57,3.21-.59,.7,.6,1.12,1.53,.5,2.66-.81,1.46-1.93,2.4-3.56,2.1-3.82-.7-4.31-3.56-4.06-6.77,.14-1.81,1.31-2.95,3.24-4.32Z"/><path class="cls-105" d="M19.15,212.31c-.48,1.75-2.03,3.18-1.35,5.03,.3,.82,.62,2.87,2.07,1.49,1.38-1.32,2.32-1.79,3.57-.28,1.05,1.27,.5,2.52-.51,3.53-1.36,1.37-2.98,1.34-4.55,.42-3.36-1.98-3-7.16,.77-10.2Z"/><path class="cls-92" d="M604.14,212.56c3.87,2.09,4.2,5.28,2.21,8.67-1.51,2.57-5.28,2.43-6.57,.03-.56-1.04-.26-1.91,.25-2.79,.48-.82,1.29-.76,2.14-.85,1.3-.14,1.11,3.17,2.86,1.28,1.45-1.56,.74-3.41-.06-5.1-.21-.44-.54-.83-.82-1.24Z"/><path class="cls-103" d="M23.23,262.2c-2.04-5.52-.97-9.24,2.95-10.15,1.72-.4,3.64-.26,4.26,1.46,.82,2.28-1.24,2.79-2.88,2.88-2.8,.16-4.28,1.38-4.26,4.25,.4,.53,.39,1.05-.06,1.56Z"/><path class="cls-88" d="M600.25,387.54c-.01-2.96-.76-5.19-4.4-5.2-1.75,0-3.56-.74-2.82-2.95,.62-1.85,2.46-1.92,4.2-1.46,3.9,1.02,4.96,4.45,2.94,9.55l.07,.05Z"/><path class="cls-204" d="M497.34,833.09c.61-.05,1.23-.09,1.84-.14-2.66,11.05,1.94,15.94,12.52,13.33-3.31,3.07-5.25,3.23-9.29,1.35-4.64-2.16-5.63-6.17-5.74-10.65-.03-1.29,.44-2.59,.67-3.89Z"/><path class="cls-31" d="M600.62,261.16c-.41-3.17-1.94-4.78-5.16-4.78-1.32,0-2.72-.74-2.5-2.42,.25-1.9,1.93-2.08,3.41-2.04,3.8,.09,5.26,3.06,4.25,9.24Z"/><path class="cls-153" d="M600.34,825.88c-.48-3.93,.61-6.92,4.96-7.6,1.48-.23,3.21,.25,3.59,1.9,.45,1.99-1.33,2.45-2.79,2.6-1.71,.18-3.29,.33-4.06,2.16-.39,.63-.59,1.6-1.69,.94Z"/><path class="cls-33" d="M595.99,528.48c.1,1.61,.05,3.05,.31,4.44,.19,1.04,.82,1.97,1.9,.59,.95-1.21,2.03-1.79,3.26-.52,1.1,1.14,.85,2.42-.09,3.57-1.06,1.29-2.41,1.58-3.97,1.02-3.41-1.24-4.08-5.13-1.41-9.1Z"/><path class="cls-240" d="M19.82,337.63c-1.17,2.13-2.57,3.66-2.01,5.62,.24,.83,.35,3.4,2.29,1.16,.98-1.12,1.97-1.2,2.95-.39,.75,.62,1.11,1.59,.67,2.66-.46,1.14-1.19,1.89-2.45,2.15-3.07,.64-5.53-2.17-5.26-6.01,.16-2.3,1.22-3.89,3.8-5.19Z"/><path class="cls-164" d="M603.59,337.51c4.26,3.73,4.84,7.23,2.53,9.95-1.11,1.31-2.43,1.56-3.99,1.31-1.54-.24-2.41-1.34-2.57-2.67-.23-1.77,.72-2.67,2.67-2.6,1.17,.04,1.12,3.21,2.89,1.09,1.26-1.5,.65-3.13-.05-4.67-.24-.52-.6-.99-1.47-2.42Z"/><path class="cls-170" d="M145.99,819.95c-1.27-.28-2.58-.92-3.78-.76-1.34,.17-4.66,.02-1.41,2.84,1.32,1.15,.81,2.44-.41,3.31-1.38,.98-2.52,.12-3.4-.92-1.19-1.41-1.37-3.01-.25-4.54,1.46-2.01,3.45-3.08,5.96-2.57,1.47,.3,2.77,1.06,3.26,2.67l.04-.03Z"/><path class="cls-102" d="M22.65,639.25c-.9-6.85,.56-9.64,4.6-9.73,1.59-.04,3.23,.35,3.42,2.14,.16,1.52-1.31,2.48-2.63,2.37-3.37-.28-4.61,1.76-5.39,5.23Z"/><path class="cls-251" d="M6.24,693.15c2.65-.03,2.6-2.61,3.73-4.04,3.2-4.03,7.65-4.95,10.26-1.95-8.73,.03-10.73,2.49-10.83,13.72-2.51-2.22-.09-6.17-3.16-7.73Z"/><path class="cls-98" d="M600.72,197.39c-.73-4.3-.11-7.7,4.66-8.35,1.47-.2,3.2,.24,3.54,1.97,.32,1.6-1.23,2.51-2.46,2.48-2.92-.07-4.46,1.54-5.75,3.91Z"/><path class="cls-11" d="M19.52,589.79c-1.06,1.84-2.56,3.49-1.54,5.74,.34,.76,.7,2.35,1.87,.94,1.25-1.5,2.29-1.79,3.6-.33,.95,1.06,.55,2.21-.17,3.17-1.15,1.54-2.83,1.87-4.42,1.02-3.23-1.72-3.34-4.74-2.48-7.75,.36-1.27,1.34-2.59,3.13-2.8Z"/><path class="cls-245" d="M17.12,546.34c-4.44-4.71-2.66-10.21-1.98-15.57,5.17-6.62,8.43-7.19,12.99-2.29-.5,.39-.96,.35-1.39-.11-2.24-1.57-4.51-2.7-7.08-.6-3.49,2.86-4.52,6.74-4.2,10.96,.2,2.56,1.08,5.08,1.66,7.61Z"/><path class="cls-166" d="M595.95,654.28c.14,1.53,.12,3.02,.45,4.43,.2,.87,.81,2.04,1.85,.42,.95-1.48,2.16-1.37,3.29-.26,.97,.96,.85,2.1,.1,3.15-.96,1.35-2.26,1.83-3.89,1.42-3.63-.91-4.51-5.2-1.79-9.16Z"/><path class="cls-49" d="M600.68,764.65c-.52-3.3-2.21-5.01-5.56-5.04-1.36-.01-2.68-.97-2.12-2.67,.47-1.42,1.87-1.77,3.27-1.73,3.88,.11,5.4,3.15,4.4,9.43Z"/><path class="cls-78" d="M95.27,833.18c.02-.82,.05-1.64,.07-2.47,1.8-2.42,2.79-5.83,6.79-5.58,.54,.57,.53,1.13,0,1.7-4.19,.25-5.18,3.04-4.84,6.51,.37,3.7,4.24,6.54,8.24,6.23,1.11-.08,2.2-.53,3.3-.81,.39,.34,.77,.69,1.16,1.04-6.88,2.8-11.46,.74-14.72-6.62Z"/><path class="cls-28" d="M22.71,764.64c-.67-3.66-1.35-7.2,2.89-9,2.06-.87,4.29-.69,4.89,1.57,.57,2.12-1.62,2.54-3.28,2.57-3.13,.06-3.93,2.29-4.5,4.86Z"/><path class="cls-35" d="M22.37,386.47c-.55-3.65-.6-7.12,3.78-8.54,1.96-.64,3.93-.14,4.41,1.93,.44,1.9-1.52,2.46-2.97,2.45-3-.03-4.14,1.58-4.41,4.24-.31,.39-.58,.39-.81-.07Z"/><path class="cls-236" d="M18.59,715.13c-.48,2.78-.99,4.18-.85,5.52,.08,.76,.66,3.01,2.02,1.7,1.57-1.51,2.5-2.08,3.82-.12,.97,1.43,.13,2.65-.91,3.46-1.65,1.27-3.55,1.19-4.93-.4-2.52-2.9-2.38-5.93,.86-10.16Z"/><path class="cls-200" d="M597.05,30.87c1.54,.09,2.46-3.75,4.57-1.02,1.17,1.52,.47,2.93-.75,3.86-2.1,1.62-4.09,.9-5.46-1.09-1.71-2.49-2.04-5.08,.48-7.63,.67,2.03-.66,4.17,1.16,5.87Z"/><path class="cls-65" d="M27.15,781.11c.34-.32,.67-.63,1.01-.95,1.62,2.7,1.7,5.37-.4,7.83-1.81,2.13-5.26,1.76-6.23-.59-.4-.96-.38-1.97,.38-2.79,.62-.67,1.41-.76,2.27-.54q3.04,.79,2.97-2.97Z"/><path class="cls-14" d="M26.34,149.9c3.5,4.2,3.34,8.02,.51,9.75-1.59,.97-3.19,.74-4.56-.44-1.09-.95-1.57-2.26-.58-3.5,1.25-1.57,2.42-1.13,3.56,.37,1.1,1.44,1.55,.15,1.94-.69,.65-1.42-.05-2.77-.87-5.48Z"/><path class="cls-141" d="M27.49,653.58c2.69,4.14,2.08,6.98-.58,9.29-1.33,1.16-3.18,.99-4.56-.29-1.02-.96-1.66-2.27-.63-3.54,1.25-1.53,2.39-1.15,3.6,.36,1.18,1.46,1.67-.12,1.83-.86,.28-1.26,.2-2.59,.34-4.96Z"/><path class="cls-176" d="M28.08,276.79c1.74,2.65,1.69,5.28-.22,7.78-.94,1.23-2.29,1.87-3.9,1.44-1.17-.31-2.17-.99-2.48-2.19-.53-2,.21-3.38,2.42-3.13,3.75,.41,3.73,.51,2.89-4.05,.48-.38,.91-.33,1.29,.15Z"/><path class="cls-124" d="M600.24,134.83c-.33-2.69-1.65-4.17-4.55-4.2-1.55-.02-3.17-.67-2.68-2.69,.45-1.85,2.25-1.93,3.68-1.67,5.01,.91,4.9,4.62,4.35,8.48-.22,.47-.49,.5-.8,.08Z"/><path class="cls-120" d="M596.3,151.86c-.14,3.9-.14,3.92,2.92,3.07,1.35-.37,2.45,.06,2.78,1.33,.49,1.9-.52,3.33-2.33,3.76-3.11,.74-4.57-1.26-5.35-3.85-.56-1.84-.08-3.61,.96-5.22,.92-.34,1.3-.09,1.02,.91Z"/><path class="cls-227" d="M600.03,393.69l.99-.89c6.08,2.13,8.65,6.86,9.25,12.86,.5,4.96,.17,9.91-1.27,14.73-1.52-4.3,1.31-8.6,.01-12.91,.02-6.57-3.08-11.1-8.99-13.79Z"/><path class="cls-55" d="M600.26,638.18c-.29-2.68-1.69-4.08-4.46-4.21-1.5-.07-3.22-.53-2.84-2.52,.39-2.04,2.27-2.27,3.91-1.88,4.72,1.14,4.79,4.71,4.18,8.54-.23,.48-.49,.53-.8,.07Z"/><path class="cls-66" d="M26.74,528.37c.46,.04,.93,.07,1.39,.11,1.61,2.68,1.65,5.33-.31,7.85-1,1.28-2.37,1.66-3.98,1.28-1.25-.3-2.17-1.08-2.46-2.2-.42-1.68,.25-3.11,2.19-3.02,4.08,.2,4.08,.3,3.16-4.01Z"/><path class="cls-89" d="M600.75,71.46c-.37-6.08,1.4-8.44,5.43-7.96,1.13,.13,2.51,.2,2.77,1.6,.31,1.68-1.11,2.62-2.34,2.61-2.84-.03-4.58,1.3-5.86,3.75Z"/><path class="cls-99" d="M596.26,781.1c0,3.36,0,3.37,3.42,2.89,.94-.13,1.67,.23,2.1,.98,.63,1.11,.48,2.19-.41,3.19-1.01,1.12-2.29,1.37-3.63,1.12-1.85-.34-2.71-1.83-3.27-3.43-.71-2.01-.32-3.92,.83-5.68,.9-.29,1.35-.11,.97,.94Z"/><path class="cls-117" d="M102.13,826.83c0-.57,0-1.13,0-1.7,3.49,.22,6.52,1.08,6.72,5.36,.07,1.51-.21,3.2-2.02,3.45-1.73,.24-2.07-1.4-2.27-2.66-.29-1.81-.35-3.66-2.43-4.46Z"/><path class="cls-40" d="M28.13,402.62c1.77,2.7,1.59,5.36-.38,7.82-1.69,2.1-5.28,1.72-6.19-.62-.26-.68-.2-1.66,.1-2.33,.32-.72,1.11-1.16,2.06-1.05q3.77,.43,3.31-3.87c.39-.43,.75-.39,1.1,.05Z"/><path class="cls-145" d="M477.62,819.2c3.18-2.75,6.3-2.82,8.99,.57,1.77,2.22,.55,5.61-1.96,5.88-1.53,.17-2.61-.6-2.55-2.24,.17-4.82,.21-4.82-4.68-3.38-.27-.26-.32-.47-.18-.63,.12-.13,.25-.2,.38-.2Z"/><path class="cls-159" d="M596.87,402.39c-.95,1.3-.93,2.8-.7,4.27,.14,.88,.64,2.4,1.74,1.24,1.39-1.46,2.49-2.39,3.85-.39,1.01,1.5,.22,2.93-1.2,3.76-1.78,1.04-3.54,.81-4.85-.88-1.91-2.46-2.2-5.08-.4-7.76,.47-.45,.99-.53,1.56-.24Z"/><path class="cls-224" d="M27.26,24.29c2.86,3.95,2.32,6.65,.14,9.07-1.38,1.53-3.21,1.58-4.86,.27-1.1-.87-1.87-2.09-.98-3.44,1.3-2,2.48-1.31,3.88,.2,1.16,1.25,1.67-.16,1.79-1.05,.17-1.28,.04-2.59,.04-5.04Z"/><path class="cls-242" d="M596.27,277.71c-.11,3.67-.11,3.69,3.24,2.96,1.16-.25,1.9,.21,2.38,1.18,.59,1.19,.22,2.22-.66,3.12-2.24,2.28-5.66,1-6.78-2.54-.64-2.02-.25-3.88,.89-5.62,.89-.31,1.32-.13,.94,.89Z"/><path class="cls-125" d="M86.08,831.02c-3.66,3.2-7.55,2.95-9.33-.5-.93-1.81-.28-3.2,.86-4.47,.86-.96,2.02-1.19,3.1-.34,1.59,1.25,1.05,2.33-.16,3.66-1.38,1.52,.33,2.11,1.29,2.19,1.41,.12,2.86-.3,4.3-.48l-.06-.05Z"/><path class="cls-107" d="M33.69,500.53c.47-.04,.95-.07,1.42-.11,2.69,3.4,2.96,7.12,1.46,11.07-1.96,5.15-5.54,6.61-11.97,4.08,4.59-.29,8.67,.32,10.52-4.22,1.62-3.99,.19-7.37-1.43-10.82Z"/><path class="cls-250" d="M25.68,810.46c-.6-1.09-1.19-2.17-1.79-3.26-1.18-1.97-2.32-3.96-2.6-6.29-.15-1.26,.27-2.39,1.7-2.49,1.37-.09,1.44,1.14,1.48,2.08,.11,3.02,1.02,5.76,2.59,8.33,1.08,1.77,.03,1.89-1.38,1.63Z"/><path class="cls-133" d="M540.41,831.75c.51-1.13,5.17,.06,1.79-3.3-1.04-1.04-.3-2.11,.76-2.85,1.22-.86,2.22-.22,3.06,.59,1.95,1.89,1.21,5.28-1.44,6.57-1.69,.82-3.49,.8-5.28,.23-.24-.96,.1-1.4,1.11-1.23Z"/><path class="cls-198" d="M598.93,515.35c-4.44,2.62-7.71,2.06-10.45-.95-3.35-3.69-3.18-9.23,.59-14.46-.37,4.24-2.57,7.7-.77,11.54,2.1,4.49,5.96,3.95,10.63,3.87Z"/><path class="cls-232" d="M599.1,767.27c-5.39,2.43-8.85,1.61-11.38-2.28-2.69-4.13-2.15-9.02,1.24-12.79-2.41,12.35-1,14.7,10.14,15.06Z"/><path class="cls-73" d="M21.29,241.67c-.36,.36-.71,.72-1.07,1.08-.8,.54-1.61,1.08-3.03,2.04,1.85-3.83,3.41-7.11,3.49-10.85,.02-.86,.49-2.22,1.75-1.91,1.24,.3,1.79,1.51,1.38,2.76-.76,2.32-1.68,4.6-2.53,6.89Z"/><path class="cls-27" d="M18.93,172.84c-5.06-4.59-4.96-10.54-4.32-16.61,.1-.95,.34-1.88,.52-2.82,1.32-.9,1.28-3.16,4.13-3.47-6.54,7.84-3.26,15.36-.33,22.9Z"/><path class="cls-127" d="M21.22,492.4c-.61,.73-1.22,1.45-1.83,2.18-.45,.46-.91,.93-1.36,1.39-.16-.36-.55-.9-.43-1.04,2.24-2.86,2.67-6.27,3.11-9.71,.09-.73,.45-1.7,1.51-1.65,1.25,.06,1.68,1.11,1.65,2.07-.09,2.53-1.13,4.75-2.65,6.76Z"/><path class="cls-140" d="M605.73,748.01c-1.17-1.3-2.34-2.59-3.51-3.88-1.44-1.83-2.35-3.94-2.73-6.21-.2-1.14,.27-2.42,1.68-2.54,1.27-.11,1.7,1.21,1.65,2.03-.26,3.91,2.28,6.98,2.92,10.6Z"/><path class="cls-53" d="M604.12,494.81c-.15-.86-.78-1.17-1.52-1.36-.97-2.23-2.04-4.43-2.89-6.71-.49-1.33-.2-2.85,1.39-3.08,1.49-.21,1.67,1.34,1.75,2.43,.23,3.16,.96,6.11,2.84,8.72,.15,.21,.83,1.28-.47,.92-.42-.12-.74-.6-1.11-.91Z"/><path class="cls-76" d="M10.21,60.37c.05,.56,.1,1.12,.15,1.68,0,.81,.2,1.68,0,2.43-1.87,6.63-1.35,7.5,7.47,12.07-5.72,.6-9.14-1.98-9.65-7.55-.18-1.95-.07-3.86-1.95-5.09,2.86,.54,2.38-2.68,4-3.54Z"/><path class="cls-73" d="M603.18,620.2c-.29-.31-.59-.62-.88-.93-.89-2.13-1.84-4.23-2.65-6.39-.55-1.44-.06-2.92,1.37-3.23,1.52-.32,1.6,1.37,1.86,2.42,.44,1.75,.07,3.65,1.05,5.33,.82,1.4,1.47,2.89,2.65,5.26-1.69-1.23-2.54-1.85-3.4-2.47Z"/><path class="cls-93" d="M21.27,366.63c-.35,.49-.7,.97-1.04,1.46-.8,.76-1.6,1.51-2.4,2.27,1.11-3.44,2.79-6.58,2.76-10.28,0-.97,.38-2.58,2.01-2.12,1.3,.37,1.47,1.66,1.23,2.87-.42,2.12-1.29,4.06-2.55,5.81Z"/><path class="cls-37" d="M603.22,116.92c-.35-.35-.7-.71-1.05-1.06-.85-2.1-1.73-4.2-2.53-6.32-.54-1.44-.02-2.87,1.32-3.24,1.48-.4,1.83,1.24,1.91,2.27,.2,2.82,.77,5.46,2.26,7.91,.44,.72,.23,.84-1.91,.43Z"/><path class="cls-44" d="M37.25,126.86c7.43-4.03,8.63-8.46,4.05-15.19-.57-.84-1.3-1.51-.82-2.62,7.49,7.22,6.11,15.61-3.1,18.92-.33-.21-.45-.45-.38-.7,.07-.27,.16-.4,.25-.4Z"/><path class="cls-132" d="M589.02,640.83c-2.87-4.89-3.84-10.92-8.75-14.58l-.08,.05c.27,.16,.6,.27,.81,.49,2.6,2.75,5.14,5.27,7.36-.39,.26-.66,1.15-1.07,1.75-1.6,.48,.44,.52,.91,.1,1.42-2.89,4.13-3.79,8.4-.98,12.96,.39,.61,.32,1.16-.21,1.65Z"/><path class="cls-230" d="M21.26,619.2c-.89,.66-1.78,1.32-3.37,2.49,1.28-3.76,2.68-6.69,2.76-9.97,.02-.91,.45-2.2,1.68-2.06,1.47,.17,1.75,1.68,1.46,2.7-.67,2.36-1.71,4.61-2.59,6.9l.07-.07Z"/><path class="cls-19" d="M17.82,117.92c1.19-3.01,2.81-5.87,2.73-9.28-.03-1.12,.48-2.55,1.91-2.33,1.31,.2,1.67,1.69,1.35,2.77-.68,2.32-1.66,4.55-2.52,6.82-1.4,.25-1.73,2.34-3.47,2.02Z"/><path class="cls-119" d="M26.3,584.86c-.07-.42-.13-.84-.2-1.27,7.99,6.54,6.83,15.01,5,23.63-1.7-2.73,1.3-5.49-.06-8.23,.4-5.38-1.46-10-4.75-14.13Z"/><path class="cls-83" d="M570.02,819.96c-.39,0-.79-.02-1.18-.02,3.04-8.42,11.85-10,17.79-3.2-.22,.45-.59,.69-1.08,.73-5.84-3.3-10.93-1.92-15.53,2.5Z"/><path class="cls-210" d="M21.26,744.13c-.63,.74-1.26,1.47-1.88,2.21-.59,.55-1.46,.47-1.08-.32,1.31-2.7,1.98-5.51,2.37-8.46,.12-.93,.24-2.68,1.97-2.11,1.21,.4,1.54,1.64,1.22,2.89-.54,2.07-1.27,4.08-2.59,5.8Z"/><path class="cls-142" d="M603.2,242.33c.05-.79-.31-1.31-1.04-1.59-1.33-1.91-2.42-3.95-2.64-6.29-.09-.98,.28-2.11,1.37-2.39,1.32-.34,1.72,.88,1.86,1.78,.44,2.93,.71,5.87,2.37,8.46,.38,.6,.14,1.33-.82,1-.43-.15-.74-.63-1.11-.96Z"/><path class="cls-4" d="M600.14,681.11c-1.6,.53-1.84,2.75-4.13,3.06,1.48-3.33,3.1-6.42,3.06-9.97-.01-.84,.34-1.75,1.39-1.67,1.15,.09,1.9,.99,1.64,2.06-.53,2.22-1.32,4.38-2.01,6.57l.05-.05Z"/><path class="cls-233" d="M26.16,558.27c-1.73-.2-2.12-1.75-2.9-2.9-.65-2.03-1.39-4.03-1.91-6.1-.24-.98,.05-2.1,1.24-2.39,1.31-.32,1.66,.68,1.85,1.71,.58,3.23,1.15,6.45,1.73,9.68Z"/><path class="cls-79" d="M600.14,806.96c-1.56,.6-1.88,2.72-4.14,3.14,1.54-3.34,3-6.48,3.02-10.01,0-.87,.42-1.76,1.42-1.69,1.12,.07,1.7,.92,1.73,2.05,.06,2.43-1.6,4.31-2.09,6.56l.05-.05Z"/><path class="cls-74" d="M600.17,177.72c-.86,.7-1.72,1.4-3.11,2.54,.43-3.6,2.13-6.32,2-9.39-.04-.83,.29-1.77,1.35-1.7,1.15,.07,1.64,.92,1.71,2.04,.16,2.45-1.65,4.28-2.03,6.56l.06-.06Z"/><path class="cls-249" d="M600.15,303.57c-1.17,1.08-2.34,2.16-3.52,3.23,.92-3.42,2.38-6.55,2.4-10.07,0-.85,.41-1.77,1.41-1.72,1.13,.06,1.68,.9,1.7,2.04,.06,2.42-1.59,4.31-2.05,6.56l.05-.06Z"/><path class="cls-162" d="M600.17,428.5c-.66,.32-1.09,.8-1.01,1.6-.78,.83-1.55,1.65-3.18,3.37,1.28-4.32,3.09-7.27,3.05-10.69-.01-.99,.23-2.21,1.55-2,1.36,.21,1.86,1.45,1.51,2.67-.49,1.73-1.27,3.37-1.93,5.05Z"/><path class="cls-32" d="M24.27,681.85c.04-.79-.39-1.28-1.04-1.61-.64-1.68-1.42-3.33-1.88-5.06-.3-1.16,.1-2.49,1.51-2.67,1.27-.16,1.52,1,1.57,2.02,.15,3.32,1.13,6.39,3.23,9.56-2.13-.09-2.43-1.61-3.39-2.24Z"/><path class="cls-174" d="M6.39,423.47c-7.18,7.55-7.19,10.31-.08,18.03-4.73-1.19-5.91-4.88-5.95-9.03-.05-4.24,1.34-7.8,6.03-9Z"/><path class="cls-132" d="M580.2,122.91c.15,.07,.33,.1,.45,.21q4.72,4.2,8.42-.63c.54,.43,.6,.93,.19,1.48-2.25,4.23-2.36,8.41,.29,12.52,.09,.52-.14,.77-.67,.73-2.55-4.98-4.06-10.6-8.62-14.37l-.08,.05Z"/><path class="cls-234" d="M603.18,368.03c.05-.76-.39-1.17-1.01-1.46-1.37-1.69-2.11-3.68-2.62-5.75-.3-1.21,.14-2.49,1.28-2.89,1.7-.61,1.84,1.14,1.99,2.07,.44,2.74,.55,5.52,2.17,7.94,.28,.42,.71,1.33-.36,1.3-.49-.01-.96-.79-1.44-1.22Z"/><path class="cls-139" d="M23.35,177.78c-.46-2.25-2.13-4.14-2.02-6.56,.05-1.08,.52-2.03,1.68-2.06,.98-.03,1.37,.87,1.35,1.74-.07,3.02,1.23,5.72,2.15,8.56-1.98,.65-1.91-1.71-3.23-1.74l.06,.06Z"/><path class="cls-165" d="M14.38,784.95c-1.34,4.33,1.68,8.65,.02,12.97-1.65-7.38-2.98-14.74,1.67-22.85,.09,4.18-2.36,6.78-1.69,9.88Z"/><path class="cls-121" d="M24.26,430.14c.09-.79-.36-1.25-.98-1.61-.66-1.68-1.44-3.33-1.93-5.06-.34-1.21,.13-2.49,1.52-2.68,1.34-.18,1.49,1.06,1.53,2.05,.12,3.35,1.2,6.41,3.36,9.63-2.14-.24-2.61-1.57-3.5-2.33Z"/><path class="cls-173" d="M589.19,248.88c-2.32,6.11-3.18,11.67,4.48,15.75-4.51,.17-5.73-2.29-6.77-4.87-1.81-4.49-1.33-7.01,2.29-10.88Z"/><path class="cls-90" d="M26.41,304.52c-2.08,1.2-1.93-1.58-3.21-1.81-.07-.15-.15-.29-.2-.45-.67-2.3-3.61-5.74-.51-6.69,3.48-1.07,1.13,3.63,2.51,5.34,.77,.95,.96,2.38,1.4,3.6Z"/><path class="cls-129" d="M34.76,626.17q3.09,4.59,8.47,.04c-.1,.48-.04,1.11-.33,1.41-2.61,2.73-6.77,4.25-6.66,9.34,.01-4.17-.78-7.64-3.08-10.69,.51-.42,1.04-.46,1.59-.1Z"/><path class="cls-177" d="M600.9,553.24c-1.68,.49-.99,4.02-3.84,2.99,1.13-2.05,1.52-4.29,1.85-6.58,.17-1.16-.19-3.15,1.78-2.79,1.88,.34,1.7,2.14,1.27,3.63-.27,.94-.7,1.83-1.06,2.75Z"/><path class="cls-207" d="M26.36,52.86c-.35,.34-.7,.68-1.05,1.03-1.8-2-3.06-4.32-3.8-6.89-.37-1.27-.66-2.95,1.03-3.36,2.05-.5,1.78,1.36,1.89,2.59,.21,2.34,.8,4.56,1.92,6.63Z"/><path class="cls-51" d="M120.13,824.95c-1.06-1.18-2.11-2.35-3.64-4.06,3.42,.6,5.94,2.32,8.89,2.03,1.16-.11,2.52,.18,2.25,1.81-.26,1.5-1.66,1.49-2.79,1.3-1.61-.26-3.18-.75-4.76-1.14l.05,.05Z"/><path class="cls-6" d="M21.3,324.67c.24,.26,.49,.52,.73,.78-.62,.71-1.12,1.75-1.9,2.06-2.67,1.06,.02,1.36,.2,1.99-1.09-.02-2.18-.04-3.27-.06-2.93-1.44-7.1-1.27-7.63-5.84h.6c3.42,3.92,7.18,4.26,11.27,1.08Z"/><path class="cls-172" d="M505.34,820.97q-.14,1.36-3.03,3.94c-.49,.08-1.1,0-1.44,.26-1.47,1.16-2.97,1.32-4.51,.28-.3-.2-.52-.93-.4-1.28,.72-1.93,2.48-1.15,3.83-1.3,2.01-.23,3.8-.98,5.54-1.91Z"/><path class="cls-246" d="M598.15,53.9l-1.06-1.04c1.08-2.09,1.64-4.3,1.85-6.65,.1-1.16-.22-3.1,1.95-2.53,1.73,.45,1.45,2.08,1.05,3.33-.79,2.54-2,4.89-3.8,6.89Z"/><path class="cls-144" d="M22.37,386.47c.27,.02,.54,.04,.81,.07,3.02,3.64,6.77,3.73,11,1.58-.61,3.26-3.82,2.35-4.81,4.29-1.42,0-2.85-.02-4.27-.02,.03-.6,2.47-.74,.28-1.8-1.68-.8-2.85-2.13-3.02-4.12Z"/><path class="cls-38" d="M589.1,822.92c.14,1.43-2.3,1.24-1.82,2.89-3.01,4.57-4.39,5.02-8.26,2.69,.32-1.48,1.72-1.71,2.72-2.41,4.11-1.58,2.34-5.98,4.15-8.66,.25-.23,.49-.46,.74-.69,1.96,1.6,.84,4.44,2.47,6.18Z"/><path class="cls-163" d="M607.41,706.98c-1.13-.03-2.27-.05-3.4-.08,2.33-2.59-2.52-1.4-1.44-3.62,3.91,1.39,7.86,1.49,11.03-2.04l.11-.06c.08,4.3-4.18,3.88-6.3,5.79Z"/><path class="cls-154" d="M59.22,831.05c-.34-.55-.69-1.11-1.03-1.66,2.4-1.01,4.2-3.24,6.99-3.44,1.21-.09,2.57,0,2.66,1.47,.05,.97-.96,1.66-2.07,1.67-2.38,.02-4.5,.86-6.54,1.97Z"/><path class="cls-120" d="M564.29,829c.32,.85,.64,1.69,.96,2.54-2.54-1.21-5.01-2.55-7.96-2.54-.9,0-1.72-.72-1.69-1.53,.04-1.12,.97-1.61,2.12-1.6,2.68,.03,4.59,1.65,6.57,3.13Z"/><path class="cls-155" d="M590.64,373.86c-3.56,4.56-4.25,9.33-1.1,14.4,.12,.47-.04,.67-.53,.57-4.52-6.04-4.29-9.93,.94-15.77,.46,.06,.7,.32,.68,.8Z"/><path class="cls-7" d="M33.14,766.05c3.89-4.25,3.05-8.89,.48-14.17,5.26,4.43,5.36,8.3,.97,14.32-.53,.38-1.02,.32-1.45-.16Z"/><path class="cls-47" d="M617.13,693.19c5.5-4.5,6.2-9.91,3.01-16.04,5.23,5.74,3.81,13.35-3.01,16.04Z"/><path class="cls-111" d="M33.8,262.38c2.64-4.11,2.66-8.31,.38-12.57-.41-.56-.35-1.06,.18-1.5,4.32,5.55,4.34,9.15,.08,14.77-.49,.03-.71-.2-.65-.69Z"/><path class="cls-186" d="M28.08,276.79c-.43-.05-.86-.1-1.29-.15-5.27-3.01-6.95-2.34-11,4.42,.27-3.68,1.96-6.18,5.09-7.05,3.01-.84,5.54-.06,7.2,2.78Z"/><path class="cls-91" d="M33.87,374.61c2.97,.1,1.63,4.78,5.14,3.33,.44-.18,1.06,.48,.29,.72-3.33,1.07-1.01,4.52-3.21,6.9,0-4.08-.91-7.39-2.22-10.95Z"/><path class="cls-70" d="M540.41,831.75c-.37,.41-.74,.82-1.11,1.23-5.59-4.08-5.53-8.65,1.11-13.48-1.58,2.88-3.69,4.3-4.03,6.69-.46,3.23,2.17,4.08,4.02,5.56Z"/><path class="cls-194" d="M589.02,640.83c.07-.55,.14-1.1,.21-1.65,4.77,3.25,7.23,3.03,11.03-1.01,.27,0,.53-.03,.8-.07-2.75,5.92-6.25,6.71-12.03,2.72Z"/><path class="cls-237" d="M585.21,234.7c-4.42,3.34-7.65,7.17-5.07,13.33-3.55-5.78-1.11-11.74,5.12-13.26l-.06-.07Z"/><path class="cls-3" d="M21.3,576.37c-.05,.57-.1,1.14-.15,1.71-4.81,3.61-8.2,3.14-11.46-2.41,4.26,3.15,7.97,3.86,11.62,.71Z"/><path class="cls-61" d="M600.34,825.88c.56-.31,1.13-.63,1.69-.94,0,6.46,4.79,4.94,8.68,5.02-4.14,3.73-8.8,1.81-10.37-4.08Z"/><path class="cls-47" d="M613.71,701.19l-.12,.05c1.43-4-1.57-7.91-.21-11.91,1.49,1.05,1.18,3.9,3.81,3.81-3.4,1.71-.14,6.31-3.48,8.04Z"/><path class="cls-95" d="M140.05,832.02c7.24-4.92,7.69-5.82,5.94-12.07l-.04,.03c3.26,1.63,2.43,4.44,1.53,6.79-1.24,3.25-3.53,5.59-7.49,5.18l.06,.08Z"/><path class="cls-1" d="M613.44,185.99c1.42,1.13,1.2,3.97,3.91,3.76-3.35,1.53-.76,5.63-3.44,7.6,1.37-3.91-2.08-7.49-.47-11.36Z"/><path class="cls-149" d="M31.98,225.64c-1.24-1.5-.4-3.36-.85-5,.32-4.15-1.32-7.84-3.67-12.6,4.73,4.84,5.39,7.95,4.52,17.6Z"/><path class="cls-123" d="M592.4,348.24c-.33,1.08,0,2.37-1,3.25-.55-5.97-.88-11.9,3.68-16.84-1.63,4.4-3.29,8.8-2.68,13.6Z"/><path class="cls-72" d="M600.24,134.83c.27-.04,.53-.06,.8-.08-2.77,5.98-6.58,6.76-12.15,2.48,.21-.25,.43-.5,.67-.73,4.03,2.45,7.66,2.32,10.68-1.67Z"/><path class="cls-9" d="M601.12,497.27c.33,.87,.65,1.74,.98,2.61-3.78-2-7.67-2.29-12.86,.22,4.13-5.07,8.14-3.17,11.88-2.83Z"/><path class="cls-69" d="M23.23,262.2c.02-.52,.04-1.04,.06-1.56,2.92,4.13,6.61,3.58,10.51,1.74,.24,.2,.46,.43,.64,.69-4.75,3.8-7.89,3.55-11.21-.87Z"/><path class="cls-30" d="M610.08,172.46c0-.21,.02-.42,.08-.62,6.08-2.54,10.7-.23,12.01,5.99-2.99-4.12-6.38-7.36-12.08-5.37Z"/><path class="cls-80" d="M513.32,838.08c3.35,1.16,6.7,1.72,10.07,.09,.45,.45,.45,.91,0,1.36-3.38,1.84-6.75,2.82-10.11-.04-.48-.48-.47-.95,.04-1.41Z"/><path class="cls-179" d="M23.33,135.79c3.22,2.58,6.67,3.22,11.17,.23-3.99,5.29-8.62,4.79-11.3-.16l.13-.08Z"/><path class="cls-39" d="M596.3,151.86c-.34-.3-.68-.61-1.02-.91,4.08-4.5,7.77-4.22,11.71,.91-.36,0-.72,0-1.08,0-3.21-2.89-6.41-4.49-9.61,0Z"/><path class="cls-54" d="M600.18,387.48c-2.44,5.06-5.96,5.48-11.17,1.35,.14-.22,.32-.41,.53-.57,3.74,2.24,7.28,1.58,10.71-.72l-.07-.05Z"/><path class="cls-220" d="M34.36,248.3l-.18,1.5c-2.86-3.58-6.62-3.68-10.64-2.77-.2-.21-.39-.44-.58-.67,4.4-2.86,8.12-1.77,11.4,1.94Z"/><path class="cls-185" d="M589.27,123.98c-.06-.49-.13-.99-.19-1.48,2.98-3.86,6.64-4.05,10.74-2.03-3.77,.47-7.93-.36-10.54,3.51Z"/><path class="cls-128" d="M122.08,847.01c-3.7,2.72-7.23,2.34-10.63-.76,3.59,1.19,7.11,1.28,10.53-.41,.54,.35,.57,.74,.1,1.17Z"/><path class="cls-191" d="M23.22,120.88c4.21-3.53,7.74-1.9,11.05,1.45,.37,.53,.34,1.04-.07,1.54-2.95-3.6-7.03-3.06-10.98-2.98Z"/><path class="cls-114" d="M10.09,815.51c.08,.51,.15,1.03,.23,1.54-.82,3.57-1.77,7.14,.98,11.7-4.69-3-1.45-7.72-4.95-9.73l-.07,.06c1.06-1.41,1.79-3.18,3.8-3.58Z"/><path class="cls-231" d="M10.02,323.58l-.3-.02-.3,.03c-1.75-3.61-3.19-7.22,.83-11.19-.14,4.09-1.64,7.67-.23,11.18Z"/><path class="cls-181" d="M31.11,235.44c-.02-.19,.01-.36,.1-.52,5.19-2.54,9.15-1.37,12.19,3.6l-.45,.39c-3.27-3.48-7.03-5.26-11.84-3.47Z"/><path class="cls-178" d="M602.13,200.06c2.97,1.04,5.98,1.27,9.08,.68-3.34,3.51-6.3,1.99-9.08-.68Z"/><path class="cls-21" d="M34.76,626.17c-.53,.03-1.06,.07-1.59,.1-2.93-2.67-6.3-2.42-9.77-1.44-.05-.46-.1-.92-.15-1.39,4.5-1.9,8.42-1.31,11.52,2.73Z"/><path class="cls-192" d="M560.16,820.03c-.7-.09-1.4-.17-2.09-.26-.51-3.95-1.68-7.99,1.83-11.4-1.38,3.95-1.34,7.83,.26,11.66Z"/><path class="cls-206" d="M601.11,371.56c-.47,.42-.93,.85-1.4,1.27-3.12-.56-6.21-.75-9.07,1.02-.23-.27-.46-.53-.68-.8,3.32-3.44,7.27-2.22,11.15-1.49Z"/><path class="cls-34" d="M86.14,831.07c1.67-4.14,.74-7.62-3.16-10.62,5.54,1.69,6.71,6.35,3.09,10.57l.06,.05Z"/><path class="cls-156" d="M23.35,750.53c-.03-.45-.06-.9-.09-1.34,5.4-1.63,6.01-1.54,10.92,2.26-4.27-1.55-7.54-1.96-10.83-.92Z"/><path class="cls-235" d="M600.15,245.77c-.02,.5-.04,1-.06,1.5-3.22-1.08-6.4-.85-9.6,.16,2.71-3.31,6.1-2.92,9.66-1.65Z"/><path class="cls-160" d="M590.21,626.22c-.03-.47-.07-.94-.1-1.42,2.99-3.1,6.44-2.73,10.03-1.36-.36,.3-.71,.59-1.06,.89-3.13-.18-6.29-.51-8.87,1.89Z"/><path class="cls-146" d="M28.13,402.62c-.37-.02-.73-.04-1.1-.06-3.62-3.41-6.74-1.54-9.8,.94l.08,.07c2.71-5.12,6.59-5.46,10.83-.95Z"/><path class="cls-113" d="M513.32,838.08c-.01,.47-.02,.94-.04,1.41-4.93-3.46-5.55-5.05-4.34-11.92,.47,3.94,.25,8.19,4.38,10.51Z"/><path class="cls-109" d="M24.21,641.24c3.91-.06,6.96,.6,9.75-.86-2.58,3.29-5.51,3.66-9.75,.86Z"/><path class="cls-52" d="M2.34,50.03c-1.64,3.82-1.23,7.57,.68,11.27-3.64-3.82-3.81-7.43-.82-11.38l.14,.12Z"/><path class="cls-238" d="M477.62,819.2c.17,.33,.1,.61-.2,.83q-1.33,4.91,1.55,9.46c-4.34-2.25-4.82-5.96-1.35-10.29Z"/><path class="cls-10" d="M12.34,830.19c2.93-.09,5.84,.46,8.57-.89-2.5,3.05-5.39,3.3-8.57,.89Z"/><path class="cls-82" d="M523.39,839.53v-1.36c3.35-2.24,2.89-5.7,2.86-9.02l.2-.18c.58,.61,1.15,1.23,1.73,1.85,0,.79,0,1.58,0,2.38-1.27,2.36-1.72,5.34-4.79,6.34Z"/><path class="cls-52" d="M2.29,553.34c-1.47,3.84-1.31,7.62,.72,11.31-3.68-3.89-3.83-7.44-.73-11.32h0Z"/><path class="cls-248" d="M613.12,815.74c1.88,.43,1.11,3.99,3.92,3.31-2.89,1.36-.97,4.51-2.57,6.95-.49-3.74-.92-7-1.35-10.26Z"/><path class="cls-50" d="M22.86,372.25c3.59-2.32,6.98-1.77,10.24,.81-3.2-.6-6.39-1.04-9.57-.04-.22-.25-.45-.51-.67-.76Z"/><path class="cls-205" d="M580.27,122.86c-3.47-3.64-2.35-7.14,.39-10.58-1.76,3.48-1.34,7.05-.47,10.64l.07-.05Z"/><path class="cls-157" d="M580.27,626.26c-3.41-3.64-2.38-7.14,.37-10.58-1.62,3.48-1.41,7.04-.45,10.63l.08-.05Z"/><path class="cls-147" d="M10.22,563.75c.04,.56,.08,1.13,.13,1.69-.73,2.8-1.3,5.63-1.36,8.56-1.12-3.64-2.14-7.24,1.23-10.25Z"/><path class="cls-184" d="M602.4,687.29c-.55-.08-1.1-.17-1.65-.25,3.35-2.12,6.68-2.82,9.95,.16-2.76,.03-5.53,.06-8.29,.09Z"/><path class="cls-241" d="M596.27,277.71c-.31-.3-.63-.6-.94-.89,2.22-3.48,5.09-3.76,8.45-1.75-3.14-.89-5.61,.05-7.51,2.65Z"/><path class="cls-64" d="M596.26,781.1c-.32-.31-.64-.62-.97-.93,2.22-3.45,5.03-3.98,8.49-1.62-3.22-1.1-5.63,0-7.52,2.55Z"/><path class="cls-23" d="M580.08,742.7c-.57,2.81-1.39,5.62,.84,9.05-3.4-3.21-3.47-4.92-.84-9.05Z"/><path class="cls-222" d="M43.22,742.1c2.9,3.01,2.58,6.16,.27,9.39,1.11-3.18,.19-6.27-.28-9.37h.02Z"/><path class="cls-87" d="M33.14,766.05l1.45,.16c-2.6,3.13-5.7,3.07-10.06,1.2,3.47-.74,6.33,.42,8.61-1.36Z"/><path class="cls-214" d="M579.92,499.85c-2.31-2.91-2.21-5.88-.13-8.9-.34,2.97-.64,5.95,.13,8.9Z"/><path class="cls-1" d="M620.1,188.04c.98-3.37,2.72-6.59,2.03-10.29,2.28,4.01,1.04,7.33-2.03,10.29Z"/><path class="cls-47" d="M620.19,677.21c-3.26-1.14-6.45-2.6-10.05-2,3.89-2.04,7.26-1.46,10.05,2Z"/><path class="cls-137" d="M43.56,499.68c.11-2.79,1.57-5.58-.48-8.33,2.7,3.12,2.74,3.93,.48,8.33Z"/><path class="cls-129" d="M43.18,626.29c1.34-3.49,.72-6.97-.02-10.46,2.44,3.48,3.2,6.96,.02,10.46Z"/><path class="cls-148" d="M43.47,365.23c2.27,2.75,2.36,5.67,.08,8.58,.57-2.82,.88-5.63-.08-8.58Z"/><path class="cls-46" d="M34.2,123.87c.02-.51,.05-1.02,.07-1.54,.99,1.51,1.99,3.02,2.98,4.53,.04,.37,.09,.74,.13,1.11-.09,1.42-.18,2.85-.27,4.27-1.19-2.78-1.48-5.76-2.9-8.37Z"/><path class="cls-182" d="M620.1,313.93c.95-3.39,2.9-6.58,2.02-10.33,2.11,3.99,1.1,7.37-2.02,10.33Z"/><path class="cls-112" d="M596.87,402.39c-.52,.08-1.04,.16-1.56,.24,2.6-3.43,5.56-4.49,9.15-1.39-.15,.16-.3,.32-.45,.49-2.54-1.53-4.92-1.31-7.13,.67Z"/><path class="cls-247" d="M43.4,238.51c2.34,3.11,2.56,6.3-.32,10.86,1.03-4.38,1.09-7.48-.13-10.46,.16-.11,.32-.24,.45-.39Z"/><path class="cls-59" d="M605.85,654.44c-2.04-1.57-4.52-2.03-7.89-2.68,4.05-1.1,6.2,.28,7.89,2.68Z"/><path class="cls-182" d="M622.17,303.68c-1.82-2.22-3.5-4.57-6.06-6.05,3.85,.19,5.75,2.32,6.06,6.05Z"/><path class="cls-215" d="M122.08,847.01c-.03-.39-.07-.78-.1-1.17,1.22-1.68,2.44-3.37,3.95-5.44,.34,3.45-1.78,5.01-3.85,6.61Z"/><path class="cls-68" d="M621.21,61c.2-2.77,1.58-5.37,1.3-8.21,.94,2.95,.85,5.73-1.37,8.16l.06,.05Z"/><path class="cls-251" d="M1.26,687.14c1.68,2.02,3.36,4.04,5.04,6.06-3.28-.68-4.97-2.7-5.04-6.06Z"/><path class="cls-17" d="M9.22,98.25c-5.12-4.9-5.38-11.16-1.05-16.29,4.25-5.05,11.66-5.72,17.96-1.25-5.61-2.52-10.91-2.68-15.16,2.2-3.95,4.54-4.9,9.63-1.74,15.34Z"/><path class="cls-131" d="M22.75,72.05c-1.52-2.67-3.08-4.59-6.14-4.36-1.05,.08-2.28-.81-2.16-2.2,.12-1.32,1.25-1.78,2.43-2.06,4.13-.95,6.55,2.31,5.86,8.62Z"/><path class="cls-2" d="M23.18,92.01l.84,.96c.02,2.25-.76,3.94-3.19,4.33-1.94,.31-3.12-.86-4.02-2.36-1.36-2.26-.94-4.6,1.27-7.43,.59,.87-.08,1.55-.35,2.27-.54,1.44-.09,2.86,.91,3.63,1.45,1.13,1.43-1.42,2.58-1.44,.66-.01,1.31,.02,1.97,.03Z"/><path class="cls-171" d="M579.09,828.17c-2.5-.33-3.76-1.85-3.94-4.26-.13-1.78-.39-4.15,1.91-4.39,2.1-.22,2.19,1.94,2.19,3.64,0,2.01,.74,3.5,2.87,3.97-.75,1.11-2.04,.62-3.03,1.04Z"/><g><path class="cls-182" d="M284.61,8.79c-1.38,8.88,6.38,11.43,11.84,16.74-3.2-7.51-1.42-12.62,5.3-15.81,.88-.42,.72-1.4,.76-2.22,1.45,3.49,5.35,1.19,8.6,3.55-2.94,0-4.79-.25-6.55,.04-7.27,1.19-9.82,6.13-6.84,12.94,.32,.73,.58,1.49,.87,2.24-.06,1.61,2.04,2.87,.76,4.68-3.71-.94-4.96-5.42-8.84-6.11l.06,.06c-4.36-5.71-10.73-7.3-17.32-8.01-3.95-.42-7.99-1.93-11.98,.45,4.68-3.79,11.95-3.89,22.66-.75,.85-2.55-1.89-5.47,.68-7.79Z"/><path class="cls-57" d="M2.08,24.92c2.55-7.59,9.19-11.44,18.46-10.65,3.94,.34,7.83,1.02,11.77,2.47,.78-2.55-1.51-4.96,.87-8.3-1.74,9.86,6.54,11.63,11.49,17.35-1.7-5.86-2.81-10.78,2.66-14.05,.65-.39,1.25-.32,1.78,.23-5.13,4.56-5.41,6.3-2.28,13.9-1.24,1.98,2.43,3.06,.93,5.08-2.22-2.15-6-.19-7.95-3.03,.04-.65,.64-.76,1.04-1.06,.09-3.33-3.12-3.52-4.91-4.93-6.17-4.82-13.74-5.71-21.08-5.69-5.8,.02-9.84,4-11.69,9.72-.71,.01-.76-.66-1.08-1.04Z"/><path class="cls-237" d="M232.71,24.85c-8.32,2.85-10.97,6.42-11.07,14.94l.07-.06c-2.18-2.52-.73-5.17-.19-8.26-4.68,1.27-9.14,2.7-13.93,2.55-4.63-.15-8.95-.7-12.91-4.49,11.41,2.97,21.76,2.64,31.23-3.97,.86-.6,2.53-.95,1.76-2.72-.23-1.51,.41-1.69,1.59-1.04,3.01,.17,3.79-3.45,6.49-3.81,.91,.74,.06,2.03,.87,2.8-.81,1.37-1.61,2.75-2.42,4.12-.52,.44-1.02,.42-1.5-.06Z"/><path class="cls-108" d="M159.4,14.91c1.65,5.33,7.9,5.82,10.55,10.23-.44-3.79-2.78-7.54,.8-10.87,.18,3.94-.5,8.02,1.88,11.61-1.25,1.95,2.75,3.08,.81,5.14-3.69-.98-4.81-5.6-8.77-6.2l.06,.06c-6.37-7.37-16.75-9.69-25.93-5.8-.37-.36-.37-.72,0-1.08,1-.52,2-1.03,3.4-1.76-3.16-.79-5.32,1.8-9.03,1.48,4.49-3.47,8.9-3.66,13.26-3.41,3.24,.18,6.58,.37,9.63,1.79,1.49,.7,2.54,.71,2.73-1.27l.62,.08Z"/><path class="cls-253" d="M67.82,26.84c8.58,7.75,26.5,5.69,34.98-4.02,.11-.59,.45-.95,1.06-1.05,2.81,.02,3.37-3.59,6.06-3.75,1.2,1.88-.9,3.01-1.04,4.59-4.19,2.82-8.42,5.58-11.95,9.27-1.39,1.46-3.11-.27-4.99,.48-5.62,2.24-11.61,2.36-17.48,.6-3.02-.91-5.81-2.34-7.42-5.32,.11-.41,.37-.68,.77-.81Z"/><path class="cls-45" d="M360.51,23.31c.24,.84-.08,1.47-.73,1.98-.73-.19-.79-.99-1.27-1.4-3.26,2.92-6.89,5.72-10.41,7.89-1.87,1.15-6.31,1.59-9.66,1.82-.96-.73-2.45,.26-3.25-1,.88-1.99,2.74-1.42,4.29-1.65,5.69-.85,10.57-3.28,14.54-7.45,.06-.06,0-.32-.09-.42-.1-.12-.28-.16-.43-.24-.25-1.41,.27-1.69,1.46-1.01,4.16-.05,5.06-4.91,8.63-5.83,.73,3.18-2.97,4.49-3.09,7.31Z"/><path class="cls-226" d="M319.21,27.59c-4.49-6.41-3.69-13.95,1.6-18.09,5.38-4.21,11.74-3.75,16.86,2.02-6.54-3.57-11.87-3.1-16.62,1.46-4.52,4.34-4.01,9.29-1.84,14.61Z"/><path class="cls-62" d="M67.82,26.84l-.77,.81c-3.15-4.89-3.49-10.01-.56-14.99,2.57-4.37,6.7-6.24,11.81-5.9,2.97,.2,5.39,1.36,8.15,4.9-7.44-4.04-13.28-3.16-17.92,2.23-3.39,3.94-3.44,8.47-.71,12.94Z"/><path class="cls-193" d="M148.19,37.49c-4.39,4.91-9.78,5.5-15.03,2.11-5.74-3.71-7.26-10.52-3.46-17.67-1.91,5.65-.98,10.53,3.59,14.3,4.4,3.63,9.34,3.55,14.9,1.26Z"/><path class="cls-8" d="M273.92,37.56c-4.22,4.89-9.4,5.45-14.78,2.07-5.81-3.66-7.4-10.4-3.69-17.55-1.39,5.47-1.07,10.39,3.67,14.14,4.46,3.52,9.26,3.6,14.79,1.34Z"/><path class="cls-29" d="M2.08,24.92c.36,.35,.72,.69,1.08,1.04,.23,10.73,7.89,15.41,19.04,11.63-2.78,3.76-6.29,4.95-10.89,3.68-5.22-1.44-9.01-5.5-9.42-10.38-.17-1.97,.12-3.98,.19-5.97Z"/><path class="cls-110" d="M108.88,22.62c-1.43-1.93,1.11-2.97,1.04-4.59,6.16-6.01,13.18-9.45,22.04-7.29,1.69,.41,3.51,.59,4.61,3.34-12.26-5.75-20.21,.72-27.7,8.54Z"/><path class="cls-85" d="M210.33,9.87c-12.68-2.77-20.77,4.27-17.96,16.4-3.31-5.41-2.43-12.3,2.08-16.33,4.59-4.1,10.37-4.33,15.88-.06Z"/><path class="cls-118" d="M173.43,31.02c.48-1.83-4.2-2.85-.81-5.14,6.76,8.77,14.97,13.39,26.97,8.45-6.33,6.25-17.75,4.46-26.16-3.31Z"/><path class="cls-106" d="M47.75,30.93c.53-1.85-4.53-2.67-.93-5.08,6.83,8.84,15.1,13.54,27.82,8.21-7.94,6.49-18.79,4.71-26.89-3.13Z"/><path class="cls-18" d="M360.51,23.31c-.78-3.2,2.42-4.72,3.09-7.31,9.45-6.87,17.96-7.84,24.52-2.37-12.24-5.02-20.57,.58-27.61,9.68Z"/><path class="cls-63" d="M299.36,30.96c-.6-1.5-1.71-2.92-.76-4.67,8.01,9.36,12.73,10.93,26.29,8.81-6.49,5.51-16.63,3.86-25.54-4.14Z"/><path class="cls-71" d="M236.63,20.79c-2.9-.12-.62-1.85-.87-2.8,8.99-8.6,19.73-10.48,27.64-3.59-11.64-5.17-19.8-1.46-26.77,6.39Z"/><path class="cls-68" d="M49.1,11.95c-.59-.08-1.19-.15-1.78-.23,5.88-2.2,1.49-5.21,.62-7.94l-.05,.06c3.27,2.85,5.96,5.87,10.92,6.87,5.92,1.19,6.7,7.4,2.46,12.36-.89-.81-.02-1.43,.2-2.14,2.03-6.56-2.3-11.21-9.07-9.77-1.11,.24-2.2,.52-3.3,.79Z"/><path class="cls-75" d="M312.17,23.33c-5.01,2.68-9.64,1.19-10.27-3.31-.25-1.79,.14-3.58,2.02-3.94,1.94-.37,2.16,1.52,2.52,2.95,1.05,4.11,1.34,4.31,5.72,4.3Z"/><path class="cls-104" d="M73.46,20.75c3.14-3.7,7.33-4.23,9.88-1.34,1.11,1.27,1.31,2.63,.64,4.13-.51,1.15-1.45,1.89-2.69,1.92-1.52,.04-2.59-.72-2.46-2.38,.37-4.83,.4-4.83-4.55-2.6-.25,.11-.52,.18-.82,.28Z"/><path class="cls-92" d="M199.5,20.86c2.09-3.87,5.28-4.2,8.67-2.21,2.57,1.51,2.43,5.28,.03,6.57-1.04,.56-1.91,.26-2.79-.25-.82-.48-.76-1.29-.85-2.14-.14-1.3,3.17-1.11,1.28-2.86-1.56-1.45-3.41-.74-5.1,.06-.44,.21-.83,.54-1.24,.82Z"/><path class="cls-88" d="M374.48,24.75c-2.96,.01-5.19,.76-5.2,4.4,0,1.75-.74,3.56-2.95,2.82-1.85-.62-1.92-2.46-1.46-4.2,1.02-3.9,4.45-4.96,9.55-2.94l.05-.07Z"/><path class="cls-31" d="M248.1,24.38c-3.17,.41-4.78,1.94-4.78,5.16,0,1.32-.74,2.72-2.42,2.5-1.9-.25-2.08-1.93-2.04-3.41,.09-3.8,3.06-5.26,9.24-4.25Z"/><path class="cls-164" d="M324.45,21.41c3.73-4.26,7.23-4.84,9.95-2.53,1.31,1.11,1.56,2.43,1.31,3.99-.24,1.54-1.34,2.41-2.67,2.57-1.77,.23-2.67-.72-2.6-2.67,.04-1.17,3.21-1.12,1.09-2.89-1.5-1.26-3.13-.65-4.67,.05-.52,.24-.99,.6-2.42,1.47Z"/><path class="cls-98" d="M184.34,24.28c-4.3,.73-7.7,.11-8.35-4.66-.2-1.47,.24-3.2,1.97-3.54,1.6-.32,2.51,1.23,2.48,2.46-.07,2.92,1.54,4.46,3.91,5.75Z"/><path class="cls-200" d="M17.81,27.95c.09-1.54-3.75-2.46-1.02-4.57,1.52-1.17,2.93-.47,3.86,.75,1.62,2.1,.9,4.09-1.09,5.46-2.49,1.71-5.08,2.04-7.63-.48,2.03-.67,4.17,.66,5.87-1.16Z"/><path class="cls-124" d="M121.77,24.76c-2.69,.33-4.17,1.65-4.2,4.55-.02,1.55-.67,3.17-2.69,2.68-1.85-.45-1.93-2.25-1.67-3.68,.91-5.01,4.62-4.9,8.48-4.35,.47,.22,.5,.49,.08,.8Z"/><path class="cls-120" d="M138.8,28.69c3.9,.14,3.92,.14,3.07-2.92-.37-1.35,.06-2.45,1.33-2.78,1.9-.49,3.33,.52,3.76,2.33,.74,3.11-1.26,4.57-3.85,5.35-1.84,.56-3.61,.08-5.22-.96-.34-.92-.09-1.3,.91-1.02Z"/><path class="cls-89" d="M58.4,24.25c-6.08,.37-8.44-1.4-7.96-5.43,.13-1.13,.2-2.51,1.6-2.77,1.68-.31,2.62,1.11,2.61,2.34-.03,2.84,1.3,4.58,3.75,5.86Z"/><path class="cls-242" d="M264.65,28.73c3.67,.11,3.69,.11,2.96-3.24-.25-1.16,.21-1.9,1.18-2.38,1.19-.59,2.22-.22,3.12,.66,2.28,2.24,1,5.66-2.54,6.78-2.02,.64-3.88,.25-5.62-.89-.31-.89-.13-1.32,.89-.94Z"/><path class="cls-37" d="M103.86,21.77c-.35,.35-.71,.7-1.06,1.05-2.1,.85-4.2,1.73-6.32,2.53-1.44,.54-2.87,.02-3.24-1.32-.4-1.48,1.24-1.83,2.27-1.91,2.82-.2,5.46-.77,7.91-2.26,.72-.44,.84-.23,.43,1.91Z"/><path class="cls-142" d="M229.27,21.8c-.79-.05-1.31,.31-1.59,1.04-1.91,1.33-3.95,2.42-6.29,2.64-.98,.09-2.11-.28-2.39-1.37-.34-1.32,.88-1.72,1.78-1.86,2.93-.44,5.87-.71,8.46-2.37,.6-.38,1.33-.14,1,.82-.15,.43-.63,.74-.96,1.11Z"/><path class="cls-74" d="M164.66,24.83c.7,.86,1.4,1.72,2.54,3.11-3.6-.43-6.32-2.13-9.39-2-.83,.04-1.77-.29-1.7-1.35,.07-1.15,.92-1.64,2.04-1.71,2.45-.16,4.28,1.65,6.56,2.03l-.06-.06Z"/><path class="cls-249" d="M290.51,24.84c1.08,1.17,2.16,2.34,3.23,3.52-3.42-.92-6.55-2.38-10.07-2.4-.85,0-1.77-.41-1.72-1.41,.06-1.13,.9-1.68,2.04-1.7,2.42-.06,4.31,1.59,6.56,2.05l-.06-.05Z"/><path class="cls-132" d="M109.86,44.8c.07-.15,.1-.33,.21-.45q4.2-4.72-.63-8.42c.43-.54,.93-.6,1.48-.19,4.23,2.25,8.41,2.36,12.52-.29,.52-.09,.77,.14,.73,.67-4.98,2.55-10.6,4.06-14.37,8.62l.05,.08Z"/><path class="cls-234" d="M354.97,21.82c-.76-.05-1.17,.39-1.46,1.01-1.69,1.37-3.68,2.11-5.75,2.62-1.21,.3-2.49-.14-2.89-1.28-.61-1.7,1.14-1.84,2.07-1.99,2.74-.44,5.52-.55,7.94-2.17,.42-.28,1.33-.71,1.3,.36-.01,.49-.79,.96-1.22,1.44Z"/><path class="cls-173" d="M235.82,35.8c6.11,2.32,11.67,3.18,15.75-4.48,.17,4.51-2.29,5.73-4.87,6.77-4.49,1.81-7.01,1.33-10.88-2.29Z"/><path class="cls-246" d="M40.84,26.85l-1.04,1.06c-2.09-1.08-4.3-1.64-6.65-1.85-1.16-.1-3.1,.22-2.53-1.95,.45-1.73,2.08-1.45,3.33-1.05,2.54,.79,4.89,2,6.89,3.8Z"/><path class="cls-155" d="M360.8,34.36c4.56,3.56,9.33,4.25,14.4,1.1,.47-.12,.67,.04,.57,.53-6.04,4.52-9.93,4.29-15.77-.94,.06-.46,.32-.7,.8-.68Z"/><path class="cls-237" d="M221.64,39.79c3.34,4.42,7.17,7.65,13.33,5.07-5.78,3.55-11.74,1.11-13.26-5.12l-.07,.06Z"/><path class="cls-1" d="M172.93,11.56c1.13-1.42,3.97-1.2,3.76-3.91,1.53,3.35,5.63,.76,7.6,3.44-3.91-1.37-7.49,2.08-11.36,.47Z"/><path class="cls-123" d="M335.19,32.6c1.08,.33,2.37,0,3.25,1-5.97,.55-11.9,.88-16.84-3.68,4.4,1.63,8.8,3.29,13.6,2.68Z"/><path class="cls-72" d="M121.77,24.76c-.04-.27-.06-.53-.08-.8,5.98,2.77,6.76,6.58,2.48,12.15-.25-.21-.5-.43-.73-.67,2.45-4.03,2.32-7.66-1.67-10.68Z"/><path class="cls-30" d="M159.4,14.91c-.21,0-.42-.02-.62-.08-2.54-6.08-.23-10.7,5.99-12.01-4.12,2.99-7.36,6.38-5.37,12.08Z"/><path class="cls-39" d="M138.8,28.69c-.3,.34-.61,.68-.91,1.02-4.5-4.08-4.22-7.77,.91-11.71,0,.36,0,.72,0,1.08-2.89,3.21-4.49,6.41,0,9.61Z"/><path class="cls-54" d="M374.42,24.82c5.06,2.44,5.48,5.96,1.35,11.17-.22-.14-.41-.32-.57-.53,2.24-3.74,1.58-7.28-.72-10.71l-.05,.07Z"/><path class="cls-185" d="M110.92,35.73c-.49,.06-.99,.13-1.48,.19-3.86-2.98-4.05-6.64-2.03-10.74,.47,3.77-.36,7.93,3.51,10.54Z"/><path class="cls-178" d="M187,22.87c1.04-2.97,1.27-5.98,.68-9.08,3.51,3.34,1.99,6.3-.68,9.08Z"/><path class="cls-206" d="M358.51,23.89c.42,.47,.85,.93,1.27,1.4-.56,3.12-.75,6.21,1.02,9.07-.27,.23-.53,.46-.8,.68-3.44-3.32-2.22-7.27-1.49-11.15Z"/><path class="cls-235" d="M232.71,24.85c.5,.02,1,.04,1.5,.06-1.08,3.22-.85,6.4,.16,9.6-3.31-2.71-2.92-6.1-1.65-9.66Z"/><path class="cls-205" d="M109.8,44.72c-3.64,3.47-7.14,2.35-10.58-.39,3.48,1.76,7.05,1.34,10.64,.47l-.05-.07Z"/><path class="cls-241" d="M264.65,28.73c-.3,.31-.6,.63-.89,.94-3.48-2.22-3.76-5.09-1.75-8.45-.89,3.14,.05,5.61,2.65,7.51Z"/><path class="cls-1" d="M174.99,4.89c-3.37-.98-6.59-2.72-10.29-2.03,4.01-2.28,7.33-1.04,10.29,2.03Z"/><path class="cls-182" d="M300.87,4.9c-3.39-.95-6.58-2.9-10.33-2.02,3.99-2.11,7.37-1.1,10.33,2.02Z"/><path class="cls-182" d="M290.62,2.82c-2.22,1.82-4.57,3.5-6.05,6.06,.19-3.85,2.32-5.75,6.05-6.06Z"/><path class="cls-68" d="M47.94,3.78c-2.77-.2-5.37-1.58-8.21-1.3,2.95-.94,5.73-.85,8.16,1.37l.05-.06Z"/></g><path class="cls-57" d="M357.93,23.22c2.55-7.59,9.19-11.44,18.46-10.65,3.94,.34,7.83,1.02,11.77,2.47,.78-2.55-1.51-4.96,.87-8.3-1.74,9.86,6.54,11.63,11.49,17.35-1.7-5.86-2.81-10.78,2.66-14.05,.65-.39,1.25-.32,1.78,.23-5.13,4.56-5.41,6.3-2.28,13.9-1.24,1.98,2.43,3.06,.93,5.08-2.22-2.15-6-.19-7.95-3.03,.04-.65,.64-.76,1.04-1.06,.09-3.33-3.12-3.52-4.91-4.93-6.17-4.82-13.74-5.71-21.08-5.69-5.8,.02-9.84,4-11.69,9.72-.71,.01-.76-.66-1.08-1.04Z"/><path class="cls-237" d="M588.57,23.15c-8.32,2.85-10.97,6.42-11.07,14.94l.07-.06c-2.18-2.52-.73-5.17-.19-8.26-4.68,1.27-9.14,2.7-13.93,2.55-4.63-.15-8.95-.7-12.91-4.49,11.41,2.97,21.76,2.64,31.23-3.97,.86-.6,2.53-.95,1.76-2.72-.23-1.51,.41-1.69,1.59-1.04,3.01,.17,3.79-3.45,6.49-3.81,.91,.74,.06,2.03,.87,2.8-.81,1.37-1.61,2.75-2.42,4.12-.52,.44-1.02,.42-1.5-.06Z"/><path class="cls-108" d="M515.25,13.22c1.65,5.33,7.9,5.82,10.55,10.23-.44-3.79-2.78-7.54,.8-10.87,.18,3.94-.5,8.02,1.88,11.61-1.25,1.95,2.75,3.08,.81,5.14-3.69-.98-4.81-5.6-8.77-6.2l.06,.06c-6.37-7.37-16.75-9.69-25.93-5.8-.37-.36-.37-.72,0-1.08,1-.52,2-1.03,3.4-1.76-3.16-.79-5.32,1.8-9.03,1.48,4.49-3.47,8.9-3.66,13.26-3.41,3.24,.18,6.58,.37,9.63,1.79,1.49,.7,2.54,.71,2.73-1.27l.62,.08Z"/><path class="cls-253" d="M423.67,25.15c8.58,7.75,26.5,5.69,34.98-4.02,.11-.59,.45-.95,1.06-1.05,2.81,.02,3.37-3.59,6.06-3.75,1.2,1.88-.9,3.01-1.04,4.59-4.19,2.82-8.42,5.58-11.95,9.27-1.39,1.46-3.11-.27-4.99,.48-5.62,2.24-11.61,2.36-17.48,.6-3.02-.91-5.81-2.34-7.42-5.32,.11-.41,.37-.68,.77-.81Z"/><path class="cls-62" d="M423.67,25.15l-.77,.81c-3.15-4.89-3.49-10.01-.56-14.99,2.57-4.37,6.7-6.24,11.81-5.9,2.97,.2,5.39,1.36,8.15,4.9-7.44-4.04-13.28-3.16-17.92,2.23-3.39,3.94-3.44,8.47-.71,12.94Z"/><path class="cls-193" d="M504.04,35.79c-4.39,4.91-9.78,5.5-15.03,2.11-5.74-3.71-7.26-10.52-3.46-17.67-1.91,5.65-.98,10.53,3.59,14.3,4.4,3.63,9.34,3.55,14.9,1.26Z"/><path class="cls-29" d="M357.93,23.22c.36,.35,.72,.69,1.08,1.04,.23,10.73,7.89,15.41,19.04,11.63-2.78,3.76-6.29,4.95-10.89,3.68-5.22-1.44-9.01-5.5-9.42-10.38-.17-1.97,.12-3.98,.19-5.97Z"/><path class="cls-110" d="M464.73,20.92c-1.43-1.93,1.11-2.97,1.04-4.59,6.16-6.01,13.18-9.45,22.04-7.29,1.69,.41,3.51,.59,4.61,3.34-12.26-5.75-20.21,.72-27.7,8.54Z"/><path class="cls-85" d="M566.18,8.17c-12.68-2.77-20.77,4.27-17.96,16.4-3.31-5.41-2.43-12.3,2.08-16.33,4.59-4.1,10.37-4.33,15.88-.06Z"/><path class="cls-118" d="M529.29,29.33c.48-1.83-4.2-2.85-.81-5.14,6.76,8.77,14.97,13.39,26.97,8.45-6.33,6.25-17.75,4.46-26.16-3.31Z"/><path class="cls-106" d="M403.61,29.24c.53-1.85-4.53-2.67-.93-5.08,6.83,8.84,15.1,13.54,27.82,8.21-7.94,6.49-18.79,4.71-26.89-3.13Z"/><path class="cls-71" d="M592.48,19.09c-2.9-.12-.62-1.85-.87-2.8,8.99-8.6,19.73-10.48,27.64-3.59-11.64-5.17-19.8-1.46-26.77,6.39Z"/><path class="cls-68" d="M404.95,10.26c-.59-.08-1.19-.15-1.78-.23,5.88-2.2,1.49-5.21,.62-7.94l-.05,.06c3.27,2.85,5.96,5.87,10.92,6.87,5.92,1.19,6.7,7.4,2.46,12.36-.89-.81-.02-1.43,.2-2.14,2.03-6.56-2.3-11.21-9.07-9.77-1.11,.24-2.2,.52-3.3,.79Z"/><path class="cls-104" d="M429.32,19.05c3.14-3.7,7.33-4.23,9.88-1.34,1.11,1.27,1.31,2.63,.64,4.13-.51,1.15-1.45,1.89-2.69,1.92-1.52,.04-2.59-.72-2.46-2.38,.37-4.83,.4-4.83-4.55-2.6-.25,.11-.52,.18-.82,.28Z"/><path class="cls-92" d="M555.35,19.17c2.09-3.87,5.28-4.2,8.67-2.21,2.57,1.51,2.43,5.28,.03,6.57-1.04,.56-1.91,.26-2.79-.25-.82-.48-.76-1.29-.85-2.14-.14-1.3,3.17-1.11,1.28-2.86-1.56-1.45-3.41-.74-5.1,.06-.44,.21-.83,.54-1.24,.82Z"/><path class="cls-31" d="M603.95,22.68c-3.17,.41-4.78,1.94-4.78,5.16,0,1.32-.74,2.72-2.42,2.5-1.9-.25-2.08-1.93-2.04-3.41,.09-3.8,3.06-5.26,9.24-4.25Z"/><path class="cls-98" d="M540.19,22.58c-4.3,.73-7.7,.11-8.35-4.66-.2-1.47,.24-3.2,1.97-3.54,1.6-.32,2.51,1.23,2.48,2.46-.07,2.92,1.54,4.46,3.91,5.75Z"/><path class="cls-200" d="M373.66,26.25c.09-1.54-3.75-2.46-1.02-4.57,1.52-1.17,2.93-.47,3.86,.75,1.62,2.1,.9,4.09-1.09,5.46-2.49,1.71-5.08,2.04-7.63-.48,2.03-.67,4.17,.66,5.87-1.16Z"/><path class="cls-124" d="M477.62,23.06c-2.69,.33-4.17,1.65-4.2,4.55-.02,1.55-.67,3.17-2.69,2.68-1.85-.45-1.93-2.25-1.67-3.68,.91-5.01,4.62-4.9,8.48-4.35,.47,.22,.5,.49,.08,.8Z"/><path class="cls-120" d="M494.65,27c3.9,.14,3.92,.14,3.07-2.92-.37-1.35,.06-2.45,1.33-2.78,1.9-.49,3.33,.52,3.76,2.33,.74,3.11-1.26,4.57-3.85,5.35-1.84,.56-3.61,.08-5.22-.96-.34-.92-.09-1.3,.91-1.02Z"/><path class="cls-89" d="M414.26,22.56c-6.08,.37-8.44-1.4-7.96-5.43,.13-1.13,.2-2.51,1.6-2.77,1.68-.31,2.62,1.11,2.61,2.34-.03,2.84,1.3,4.58,3.75,5.86Z"/><path class="cls-242" d="M612.53,20.41c3.67,.11,3.69,.11,2.96-3.24-.25-1.16,.21-1.9,1.18-2.38,1.19-.59,2.22-.22,3.12,.66,2.28,2.24,1,5.66-2.54,6.78-2.02,.64-3.88,.25-5.62-.89-.31-.89-.13-1.32,.89-.94Z"/><path class="cls-37" d="M459.71,20.08c-.35,.35-.71,.7-1.06,1.05-2.1,.85-4.2,1.73-6.32,2.53-1.44,.54-2.87,.02-3.24-1.32-.4-1.48,1.24-1.83,2.27-1.91,2.82-.2,5.46-.77,7.91-2.26,.72-.44,.84-.23,.43,1.91Z"/><path class="cls-142" d="M585.12,20.1c-.79-.05-1.31,.31-1.59,1.04-1.91,1.33-3.95,2.42-6.29,2.64-.98,.09-2.11-.28-2.39-1.37-.34-1.32,.88-1.72,1.78-1.86,2.93-.44,5.87-.71,8.46-2.37,.6-.38,1.33-.14,1,.82-.15,.43-.63,.74-.96,1.11Z"/><path class="cls-74" d="M520.52,23.13c.7,.86,1.4,1.72,2.54,3.11-3.6-.43-6.32-2.13-9.39-2-.83,.04-1.77-.29-1.7-1.35,.07-1.15,.92-1.64,2.04-1.71,2.45-.16,4.28,1.65,6.56,2.03l-.06-.06Z"/><path class="cls-132" d="M465.71,43.1c.07-.15,.1-.33,.21-.45q4.2-4.72-.63-8.42c.43-.54,.93-.6,1.48-.19,4.23,2.25,8.41,2.36,12.52-.29,.52-.09,.77,.14,.73,.67-4.98,2.55-10.6,4.06-14.37,8.62l.05,.08Z"/><path class="cls-173" d="M591.68,34.11c6.11,2.32,11.67,3.18,15.75-4.48,.17,4.51-2.29,5.73-4.87,6.77-4.49,1.81-7.01,1.33-10.88-2.29Z"/><path class="cls-246" d="M396.69,25.15l-1.04,1.06c-2.09-1.08-4.3-1.64-6.65-1.85-1.16-.1-3.1,.22-2.53-1.95,.45-1.73,2.08-1.45,3.33-1.05,2.54,.79,4.89,2,6.89,3.8Z"/><path class="cls-237" d="M577.5,38.09c3.34,4.42,7.17,7.65,13.33,5.07-5.78,3.55-11.74,1.11-13.26-5.12l-.07,.06Z"/><path class="cls-1" d="M528.79,9.86c1.13-1.42,3.97-1.2,3.76-3.91,1.53,3.35,5.63,.76,7.6,3.44-3.91-1.37-7.49,2.08-11.36,.47Z"/><path class="cls-72" d="M477.62,23.06c-.04-.27-.06-.53-.08-.8,5.98,2.77,6.76,6.58,2.48,12.15-.25-.21-.5-.43-.73-.67,2.45-4.03,2.32-7.66-1.67-10.68Z"/><path class="cls-30" d="M515.25,13.22c-.21,0-.42-.02-.62-.08-2.54-6.08-.23-10.7,5.99-12.01-4.12,2.99-7.36,6.38-5.37,12.08Z"/><path class="cls-39" d="M494.65,27c-.3,.34-.61,.68-.91,1.02-4.5-4.08-4.22-7.77,.91-11.71,0,.36,0,.72,0,1.08-2.89,3.21-4.49,6.41,0,9.61Z"/><path class="cls-185" d="M466.77,34.03c-.49,.06-.99,.13-1.48,.19-3.86-2.98-4.05-6.64-2.03-10.74,.47,3.77-.36,7.93,3.51,10.54Z"/><path class="cls-178" d="M542.86,21.17c1.04-2.97,1.27-5.98,.68-9.08,3.51,3.34,1.99,6.3-.68,9.08Z"/><path class="cls-235" d="M588.57,23.15c.5,.02,1,.04,1.5,.06-1.08,3.22-.85,6.4,.16,9.6-3.31-2.71-2.92-6.1-1.65-9.66Z"/><path class="cls-205" d="M465.66,43.03c-3.64,3.47-7.14,2.35-10.58-.39,3.48,1.76,7.05,1.34,10.64,.47l-.05-.07Z"/><path class="cls-241" d="M612.53,20.41c-.3,.31-.6,.63-.89,.94-3.48-2.22-3.76-5.09-1.75-8.45-.89,3.14,.05,5.61,2.65,7.51Z"/><path class="cls-1" d="M530.84,3.2c-3.37-.98-6.59-2.72-10.29-2.03,4.01-2.28,7.33-1.04,10.29,2.03Z"/><path class="cls-68" d="M403.79,2.09c-2.77-.2-5.37-1.58-8.21-1.3,2.95-.94,5.73-.85,8.16,1.37l.05-.06Z"/></g></svg>