<svg width="40" height="40" viewBox="0 0 40 40" fill="none" xmlns="http://www.w3.org/2000/svg">
<path d="M35.7143 0H4.28571C1.91964 0 0 1.91964 0 4.28571V35.7143C0 38.0804 1.91964 40 4.28571 40H20H35.7143C38.0804 40 40 38.0804 40 35.7143V4.28571C40 1.91964 38.0804 0 35.7143 0Z" fill="#123B40"/>
<path d="M33.5351 18.439C34.1111 17.7 34.43 16.7947 34.43 15.8527C34.43 14.3582 33.5694 12.9436 32.1842 12.1548C31.8276 11.9517 31.4215 11.8449 31.0081 11.8452H22.786L22.9917 7.75455C23.0397 6.76599 22.6797 5.82736 21.9802 5.11174C21.6369 4.75901 21.2228 4.47837 20.7634 4.28716C20.304 4.09594 19.8091 3.99822 19.3092 4.00002C17.5263 4.00002 15.949 5.16499 15.4759 6.83256L12.5306 17.1841H12.5203V31.43H28.7143C29.0297 31.43 29.3383 31.3701 29.6229 31.2503C31.255 30.5746 32.3076 29.0268 32.3076 27.3093C32.3076 26.89 32.2459 26.4772 32.1225 26.0778C32.6985 25.3389 33.0174 24.4335 33.0174 23.4916C33.0174 23.0722 32.9556 22.6595 32.8322 22.26C33.4082 21.5211 33.7271 20.6158 33.7271 19.6738C33.7202 19.2544 33.6585 18.8384 33.5351 18.439V18.439ZM7 18.2492V30.3649C7 30.954 7.49031 31.43 8.0972 31.43H10.3259V17.1841H8.0972C7.49031 17.1841 7 17.6601 7 18.2492Z" fill="#F2F1DC"/>
</svg>
