<svg width="40" height="40" viewBox="0 0 40 40" fill="none" xmlns="http://www.w3.org/2000/svg">
<path d="M34.2857 0H5.71429C2.55804 0 0 2.55804 0 5.71429V34.2857C0 37.442 2.55804 40 5.71429 40H34.2857C37.442 40 40 37.442 40 34.2857V5.71429C40 2.55804 37.4375 0 34.2857 0ZM31.3929 25.8482L30.3554 30.3473C30.2096 30.9835 29.65 31.4286 28.9946 31.4286C17.7357 31.4286 8.575 22.2679 8.575 11C8.575 10.3457 9.02 9.78661 9.65625 9.64107L14.1545 8.60268C14.8102 8.45063 15.483 8.79098 15.7554 9.41179L17.833 14.2582C18.0758 14.8288 17.9119 15.493 17.432 15.885L15.0268 17.8571C16.5438 20.9473 19.0571 23.4598 22.1491 24.9777L24.1152 22.575C24.503 22.0937 25.1732 21.9277 25.7437 22.1746L30.5866 24.2505C31.2054 24.5179 31.5446 25.1964 31.3929 25.8482Z" fill="#123B40"/>
</svg>
