<svg width="90" height="90" viewBox="0 0 90 90" fill="none" xmlns="http://www.w3.org/2000/svg">
<g clip-path="url(#clip0_249_1056)">
<path d="M45.0778 89.0662C69.4387 89.0662 89.1872 69.2923 89.1872 44.9C89.1872 20.5077 69.4387 0.733887 45.0778 0.733887C20.7168 0.733887 0.968384 20.5077 0.968384 44.9C0.968384 69.2923 20.7168 89.0662 45.0778 89.0662Z" fill="url(#paint0_linear_249_1056)" stroke="#B47D1C" stroke-width="0.25" stroke-miterlimit="10"/>
<path d="M45.0778 88.3302C69.0328 88.3302 88.4522 68.8858 88.4522 44.9C88.4522 20.9141 69.0328 1.46973 45.0778 1.46973C21.1228 1.46973 1.70337 20.9141 1.70337 44.9C1.70337 68.8858 21.1228 88.3302 45.0778 88.3302Z" fill="url(#paint1_linear_249_1056)"/>
<path d="M45.4 82.6424C66.1068 82.6424 82.8929 65.8346 82.8929 45.1012C82.8929 24.3678 66.1068 7.56006 45.4 7.56006C24.6933 7.56006 7.9071 24.3678 7.9071 45.1012C7.9071 65.8346 24.6933 82.6424 45.4 82.6424Z" fill="url(#paint2_linear_249_1056)"/>
<path d="M45.4 81.9063C65.7009 81.9063 82.1579 65.4281 82.1579 45.1011C82.1579 24.7742 65.7009 8.2959 45.4 8.2959C25.0992 8.2959 8.64209 24.7742 8.64209 45.1011C8.64209 65.4281 25.0992 81.9063 45.4 81.9063Z" fill="#12151A"/>
<path d="M70.1786 24.2826C81.662 37.9855 79.8771 58.4146 66.1919 69.9123C52.5066 81.41 32.1037 79.6234 20.6208 65.9205C9.13787 52.2176 10.9222 31.7884 24.6075 20.2907C38.2927 8.79306 58.6951 10.5802 70.1786 24.2826Z" fill="url(#paint3_linear_249_1056)"/>
<path d="M68.2724 22.199C71.5951 25.5203 73.4759 28.8473 74.4308 30.7887C75.3412 32.6382 77.2676 37.0029 77.6727 42.9013C77.7583 44.1478 77.9476 47.9584 77.03 51.9112C76.5928 53.796 75.8889 55.7763 75.6337 56.4936C75.2592 57.5474 74.9371 58.3378 74.5548 59.147C74.1834 59.9328 73.8644 60.5062 73.6466 60.8952C72.6341 62.7047 71.5749 64.1339 71.5749 64.1339C71.0277 64.8652 70.5256 65.4858 70.1028 65.987C69.2812 66.9608 68.637 67.6313 68.4804 67.7934C67.8175 68.4795 67.6287 68.6503 67.5389 68.7236C67.2785 68.9365 66.6981 69.4039 65.8428 69.7389C65.5497 69.8537 64.5357 70.223 63.1933 70.116C61.6911 69.9965 60.6185 69.3478 60.1273 69.0035C59.5469 68.5262 58.8596 67.8495 58.2434 66.9255C56.8107 64.7764 56.6282 62.5831 56.6147 61.5221C56.6769 58.3462 56.7023 57.1532 56.7122 56.7933C56.7127 56.7772 56.7298 56.1259 56.7298 56.1259C56.7298 56.1259 57.0234 46.5374 52.1855 37.5659C52.1855 37.5659 46.9436 27.845 34.9503 23.326C32.0119 22.2187 28.4962 21.7897 26.7305 21.8619C25.3523 21.9185 24.456 22.1221 24.456 22.1221C23.0281 22.4467 21.9346 23.0159 21.8657 22.8804C21.8558 22.8606 21.8651 22.8212 22.5062 22.2192C22.8304 21.9149 22.9617 21.7965 22.9617 21.7965C23.5162 21.2968 23.816 21.0055 24.0644 20.7775C24.6298 20.2586 25.5199 19.5268 26.4727 18.833C26.8348 18.5691 27.7814 17.8919 29.0859 17.1274C29.8951 16.6532 30.8204 16.1582 31.8594 15.6778C36.8394 13.3745 42.3687 12.853 42.3687 12.853C48.5344 12.2713 53.3899 13.6191 55.6146 14.3607C61.7689 16.4117 65.9408 19.8686 68.2724 22.199Z" fill="url(#paint4_linear_249_1056)"/>
<path d="M63.8173 31.9394C62.4625 32.5969 61.0075 33.041 59.4779 33.242C61.0563 32.2074 62.2373 30.5797 62.8001 28.6617C61.3172 29.6267 59.6942 30.3055 58.0017 30.6696C56.8637 29.3384 55.3558 28.4566 53.7131 28.16C52.0704 27.8635 50.3841 28.1694 48.9157 29.0299C47.4478 29.8905 46.2807 31.258 45.595 32.92C44.9093 34.5819 44.7438 36.4449 45.124 38.2201C42.1192 38.0549 39.1792 37.1995 36.496 35.7095C33.8123 34.2194 31.4449 32.1279 29.547 29.5711C28.8981 30.7968 28.5252 32.2183 28.5252 33.7323C28.5247 35.0951 28.8307 36.4366 29.4174 37.6389C30.0035 38.8407 30.8521 39.8654 31.8869 40.6227C30.6866 40.5806 29.5133 40.2259 28.464 39.587V39.6935C28.464 41.6048 29.0678 43.4573 30.1726 44.9365C31.2774 46.4156 32.8159 47.431 34.5265 47.8096C33.4134 48.1394 32.2463 48.1882 31.1135 47.9519C31.5959 49.5962 32.5363 51.0343 33.8024 52.0648C35.0686 53.0952 36.5966 53.666 38.174 53.6976C35.497 55.9989 32.1908 57.2475 28.7877 57.2423C28.1849 57.2423 27.5822 57.2039 26.9836 57.127C30.4382 59.5597 34.4596 60.8503 38.5666 60.8456C52.4698 60.8456 60.0697 48.235 60.0697 37.2977C60.0697 36.9424 60.0614 36.5836 60.0469 36.2283C61.5252 35.0577 62.8012 33.6076 63.8152 31.9467L63.8173 31.9394Z" fill="url(#paint5_linear_249_1056)"/>
</g>
<defs>
<linearGradient id="paint0_linear_249_1056" x1="7.73417" y1="23.3966" x2="82.5046" y2="66.3407" gradientUnits="userSpaceOnUse">
<stop offset="0.0213" stop-color="#FAEBAB"/>
<stop offset="0.0236" stop-color="#F9EAA9"/>
<stop offset="0.1046" stop-color="#DCBB6D"/>
<stop offset="0.1736" stop-color="#C69941"/>
<stop offset="0.2269" stop-color="#B98526"/>
<stop offset="0.2582" stop-color="#B47D1C"/>
<stop offset="0.3301" stop-color="#C79B43"/>
<stop offset="0.4901" stop-color="#F6E5A4"/>
<stop offset="0.5018" stop-color="#FAEBAB"/>
<stop offset="0.5844" stop-color="#E0C377"/>
<stop offset="0.7338" stop-color="#B47D1C"/>
<stop offset="0.7697" stop-color="#BB882A"/>
<stop offset="0.8377" stop-color="#CDA44F"/>
<stop offset="0.9297" stop-color="#EAD28A"/>
<stop offset="0.9768" stop-color="#FAEBAB"/>
</linearGradient>
<linearGradient id="paint1_linear_249_1056" x1="7.51461" y1="23.1838" x2="82.6874" y2="66.5303" gradientUnits="userSpaceOnUse">
<stop offset="0.0221" stop-color="#B47D1C"/>
<stop offset="0.0597" stop-color="#B98627"/>
<stop offset="0.1261" stop-color="#C89C45"/>
<stop offset="0.2128" stop-color="#DFC175"/>
<stop offset="0.2993" stop-color="#FAEBAB"/>
<stop offset="0.3148" stop-color="#F1DD99"/>
<stop offset="0.3572" stop-color="#DBBB6C"/>
<stop offset="0.3981" stop-color="#CAA049"/>
<stop offset="0.4365" stop-color="#BE8D30"/>
<stop offset="0.4714" stop-color="#B78121"/>
<stop offset="0.4997" stop-color="#B47D1C"/>
<stop offset="0.5326" stop-color="#B98526"/>
<stop offset="0.5891" stop-color="#C79A42"/>
<stop offset="0.6624" stop-color="#DDBD6F"/>
<stop offset="0.7469" stop-color="#FAEBAB"/>
<stop offset="0.8084" stop-color="#E3C87D"/>
<stop offset="0.8863" stop-color="#CA9F49"/>
<stop offset="0.945" stop-color="#BA8628"/>
<stop offset="0.9773" stop-color="#B47D1C"/>
</linearGradient>
<linearGradient id="paint2_linear_249_1056" x1="13.0985" y1="26.3617" x2="78.0227" y2="63.9262" gradientUnits="userSpaceOnUse">
<stop offset="0.0331" stop-color="#FAEBAB"/>
<stop offset="0.2483" stop-color="#B47D1C"/>
<stop offset="0.2646" stop-color="#B98627"/>
<stop offset="0.3743" stop-color="#DCBC6E"/>
<stop offset="0.4533" stop-color="#F2DE9A"/>
<stop offset="0.4932" stop-color="#FAEBAB"/>
<stop offset="0.5146" stop-color="#F3E09C"/>
<stop offset="0.6533" stop-color="#C69940"/>
<stop offset="0.7159" stop-color="#B47D1C"/>
<stop offset="0.7467" stop-color="#B88425"/>
<stop offset="0.7973" stop-color="#C5973E"/>
<stop offset="0.8615" stop-color="#D8B666"/>
<stop offset="0.936" stop-color="#F3E19E"/>
<stop offset="0.9525" stop-color="#FAEBAB"/>
</linearGradient>
<linearGradient id="paint3_linear_249_1056" x1="20.6184" y1="65.9186" x2="70.227" y2="24.3461" gradientUnits="userSpaceOnUse">
<stop offset="0.0854" stop-color="#181D21"/>
<stop offset="0.4201" stop-color="#181D21"/>
</linearGradient>
<linearGradient id="paint4_linear_249_1056" x1="34.8147" y1="52.9705" x2="79.5031" y2="19.3705" gradientUnits="userSpaceOnUse">
<stop offset="0.146" stop-color="#4D565F"/>
<stop offset="0.3652" stop-color="#333A41" stop-opacity="0.9619"/>
<stop offset="0.5844" stop-color="#1F252A" stop-opacity="0.9238"/>
<stop offset="0.721" stop-color="#181D21" stop-opacity="0.9"/>
</linearGradient>
<linearGradient id="paint5_linear_249_1056" x1="26.1724" y1="55.0035" x2="62.4961" y2="24.4861" gradientUnits="userSpaceOnUse">
<stop offset="0.1252" stop-color="#FAEBAB"/>
<stop offset="0.2464" stop-color="#DEC073"/>
<stop offset="0.3618" stop-color="#C79C44"/>
<stop offset="0.4501" stop-color="#B98527"/>
<stop offset="0.5006" stop-color="#B47D1C"/>
<stop offset="0.5455" stop-color="#B78222"/>
<stop offset="0.607" stop-color="#C08F34"/>
<stop offset="0.6779" stop-color="#CEA551"/>
<stop offset="0.7559" stop-color="#E1C479"/>
<stop offset="0.8381" stop-color="#FAEBAB"/>
</linearGradient>
<clipPath id="clip0_249_1056">
<rect width="90" height="90" fill="white"/>
</clipPath>
</defs>
</svg>
