<svg width="40" height="40" viewBox="0 0 40 40" fill="none" xmlns="http://www.w3.org/2000/svg">
<path d="M35.7143 0H4.28571C1.91964 0 0 1.91964 0 4.28571V35.7143C0 38.0804 1.91964 40 4.28571 40H20H35.7143C38.0804 40 40 38.0804 40 35.7143V4.28571C40 1.91964 38.0804 0 35.7143 0Z" fill="#123B40"/>
<path d="M25.3567 20.0001C25.3567 21.2389 25.2898 22.4331 25.1726 23.5715H14.8266C14.7094 22.4331 14.5922 21.2389 14.5922 20.0001C14.5922 18.7612 14.7094 17.567 14.8266 16.4286H25.1726C25.2898 17.567 25.3567 18.7612 25.3567 20.0001ZM33.8333 16.4286C34.129 17.5726 34.2853 18.7668 34.2853 20.0001C34.2853 21.2333 34.129 22.4275 33.8333 23.5715H26.9639C27.0811 22.4219 27.1424 21.1775 27.1424 20.0001C27.1424 18.7724 27.0811 17.5782 26.9639 16.4286H33.8333ZM33.2473 14.6429H26.7351C26.177 11.0793 25.0721 8.0927 23.6491 6.18545C28.0241 7.33768 31.5732 10.5101 33.2473 14.6429ZM24.927 14.6429H15.0721C15.4125 12.6117 15.9371 10.8137 16.5788 9.36112C17.1648 8.0436 17.8177 7.08768 18.4482 6.485C19.0732 5.8917 19.5922 5.71436 19.9996 5.71436C20.4069 5.71436 20.9259 5.8917 21.5509 6.485C22.1815 7.08768 22.8344 8.0436 23.4203 9.36112C24.0621 10.8137 24.5866 12.6117 24.927 14.6429ZM6.75237 14.6429C8.42536 10.5101 11.975 7.33768 16.35 6.18545C14.927 8.0927 13.8221 11.0793 13.2641 14.6429H6.75237ZM13.0353 16.4286C12.9181 17.5782 12.8065 18.7724 12.8065 20.0001C12.8065 21.1775 12.9181 22.4219 13.0353 23.5715H6.16392C5.87012 22.4275 5.71387 21.2333 5.71387 20.0001C5.71387 18.7668 5.87012 17.5726 6.16392 16.4286H13.0353ZM16.5788 30.6362C15.9371 29.1853 15.4125 27.3885 15.0721 25.3572H24.927C24.5866 27.3885 24.0621 29.1853 23.4203 30.6362C22.8344 31.9588 22.1815 32.913 21.5509 33.5157C20.9259 34.1072 20.4069 34.2858 19.9494 34.2858C19.5922 34.2858 19.0732 34.1072 18.4482 33.5157C17.8177 32.913 17.1648 31.9588 16.5788 30.6362ZM16.35 33.817C11.975 32.6619 8.42536 29.4923 6.75237 25.3572H13.2641C13.8221 28.9231 14.927 31.9086 16.35 33.817ZM23.6491 33.817C25.0721 31.9086 26.177 28.9231 26.7351 25.3572H33.2473C31.5732 29.4923 28.0241 32.6619 23.6491 33.817Z" fill="white"/>
</svg>
