<svg width="90" height="90" viewBox="0 0 90 90" fill="none" xmlns="http://www.w3.org/2000/svg">
<g clip-path="url(#clip0_249_1040)">
<path d="M45.0778 89.0662C69.4387 89.0662 89.1872 69.2923 89.1872 44.9C89.1872 20.5077 69.4387 0.733887 45.0778 0.733887C20.7168 0.733887 0.968384 20.5077 0.968384 44.9C0.968384 69.2923 20.7168 89.0662 45.0778 89.0662Z" fill="url(#paint0_linear_249_1040)" stroke="#B47D1C" stroke-width="0.25" stroke-miterlimit="10"/>
<path d="M45.0778 88.3302C69.0328 88.3302 88.4522 68.8858 88.4522 44.9C88.4522 20.9141 69.0328 1.46973 45.0778 1.46973C21.1228 1.46973 1.70337 20.9141 1.70337 44.9C1.70337 68.8858 21.1228 88.3302 45.0778 88.3302Z" fill="url(#paint1_linear_249_1040)"/>
<path d="M44.4 82.6424C65.1068 82.6424 81.8929 65.8346 81.8929 45.1012C81.8929 24.3678 65.1068 7.56006 44.4 7.56006C23.6933 7.56006 6.9071 24.3678 6.9071 45.1012C6.9071 65.8346 23.6933 82.6424 44.4 82.6424Z" fill="url(#paint2_linear_249_1040)"/>
<path d="M44.4 81.9063C64.7009 81.9063 81.1579 65.4281 81.1579 45.1011C81.1579 24.7742 64.7009 8.2959 44.4 8.2959C24.0992 8.2959 7.64209 24.7742 7.64209 45.1011C7.64209 65.4281 24.0992 81.9063 44.4 81.9063Z" fill="#12151A"/>
<path d="M69.1786 24.2826C80.662 37.9855 78.8771 58.4146 65.1919 69.9123C51.5066 81.41 31.1037 79.6234 19.6208 65.9205C8.13787 52.2176 9.92218 31.7884 23.6075 20.2907C37.2927 8.79306 57.6951 10.5802 69.1786 24.2826Z" fill="url(#paint3_linear_249_1040)"/>
<path d="M67.2724 22.199C70.5951 25.5203 72.4759 28.8473 73.4308 30.7887C74.3412 32.6382 76.2676 37.0029 76.6727 42.9013C76.7583 44.1478 76.9476 47.9584 76.03 51.9112C75.5928 53.796 74.8889 55.7763 74.6337 56.4936C74.2592 57.5474 73.9371 58.3378 73.5548 59.147C73.1834 59.9328 72.8644 60.5062 72.6466 60.8952C71.6341 62.7047 70.5749 64.1339 70.5749 64.1339C70.0277 64.8652 69.5256 65.4858 69.1028 65.987C68.2812 66.9608 67.637 67.6313 67.4804 67.7934C66.8175 68.4795 66.6287 68.6503 66.5389 68.7236C66.2785 68.9365 65.6981 69.4039 64.8428 69.7389C64.5497 69.8537 63.5357 70.223 62.1933 70.116C60.6911 69.9965 59.6185 69.3478 59.1273 69.0035C58.5469 68.5262 57.8596 67.8495 57.2434 66.9255C55.8107 64.7764 55.6282 62.5831 55.6147 61.5221C55.6769 58.3462 55.7023 57.1532 55.7122 56.7933C55.7127 56.7772 55.7298 56.1259 55.7298 56.1259C55.7298 56.1259 56.0234 46.5374 51.1855 37.5659C51.1855 37.5659 45.9436 27.845 33.9503 23.326C31.0119 22.2187 27.4962 21.7897 25.7305 21.8619C24.3523 21.9185 23.456 22.1221 23.456 22.1221C22.0281 22.4467 20.9346 23.0159 20.8657 22.8804C20.8558 22.8606 20.8651 22.8212 21.5062 22.2192C21.8304 21.9149 21.9617 21.7965 21.9617 21.7965C22.5162 21.2968 22.816 21.0055 23.0644 20.7775C23.6298 20.2586 24.5199 19.5268 25.4727 18.833C25.8348 18.5691 26.7814 17.8919 28.0859 17.1274C28.8951 16.6532 29.8204 16.1582 30.8594 15.6778C35.8394 13.3745 41.3687 12.853 41.3687 12.853C47.5344 12.2713 52.3899 13.6191 54.6146 14.3607C60.769 16.4117 64.9408 19.8686 67.2724 22.199Z" fill="url(#paint4_linear_249_1040)"/>
<path fill-rule="evenodd" clip-rule="evenodd" d="M51.9849 47.2031C51.5777 46.9912 49.5828 45.9712 49.2114 45.8294C48.84 45.6887 48.5698 45.6191 48.298 46.0423C48.0277 46.463 47.2507 47.415 47.0142 47.696C46.7766 47.9785 46.5401 48.0128 46.135 47.8025C45.7294 47.5895 44.4213 47.1444 42.8714 45.7068C41.6654 44.5871 40.8505 43.2045 40.614 42.7813C40.378 42.3595 40.5881 42.1305 40.7914 41.9202C40.9745 41.7311 41.197 41.4273 41.4004 41.1811C41.6037 40.9339 41.6706 40.7578 41.806 40.4748C41.9424 40.1933 41.8745 39.9476 41.7718 39.7357C41.6706 39.5238 40.8594 37.4453 40.5207 36.5998C40.1913 35.7771 39.8572 35.8893 39.6083 35.8753C39.3707 35.8639 39.1005 35.8613 38.8297 35.8613C38.5595 35.8613 38.1196 35.9662 37.7482 36.39C37.3753 36.8122 36.328 37.8333 36.328 39.9123C36.328 41.9897 37.7809 43.9971 37.9842 44.2801C38.1876 44.5616 40.8454 48.8266 44.9161 50.6553C45.8855 51.09 46.6408 51.3502 47.2295 51.5434C48.2015 51.866 49.0864 51.8203 49.7856 51.7112C50.5642 51.5902 52.1861 50.6896 52.5248 49.7033C52.862 48.7171 52.862 47.8721 52.7608 47.6955C52.6597 47.5194 52.3895 47.414 51.9823 47.2026H51.9849V47.2031ZM44.316 57.1017H44.3108C42.0036 57.1022 39.7385 56.4566 37.7534 55.233L37.2845 54.9432L32.4082 56.2743L33.7102 51.3279L33.4041 50.821C32.1141 48.6843 31.4315 46.2122 31.4352 43.6891C31.4378 36.2996 37.216 30.2874 44.3222 30.2874C47.7627 30.2874 50.9968 31.684 53.4289 34.2169C54.6282 35.4598 55.5789 36.9379 56.2257 38.5651C56.8726 40.1927 57.203 41.9373 57.1973 43.6985C57.1936 51.088 51.4153 57.1017 44.316 57.1017ZM55.8709 31.5999C54.3662 30.0241 52.5762 28.7745 50.6041 27.9238C48.632 27.0731 46.5173 26.6379 44.3823 26.6441C35.4322 26.6441 28.1456 34.2242 28.143 43.5406C28.1389 46.5056 28.8863 49.4192 30.3101 51.9875L28.0066 60.744L36.6149 58.3938C38.9962 59.7442 41.6649 60.4516 44.3766 60.4516H44.3834C53.3335 60.4516 60.6201 52.8715 60.6227 43.5536C60.6295 41.3333 60.2124 39.1332 59.397 37.0818C58.5822 35.0298 57.3835 33.1668 55.8709 31.5999Z" fill="url(#paint5_linear_249_1040)"/>
</g>
<defs>
<linearGradient id="paint0_linear_249_1040" x1="7.73417" y1="23.3966" x2="82.5046" y2="66.3407" gradientUnits="userSpaceOnUse">
<stop offset="0.0213" stop-color="#FAEBAB"/>
<stop offset="0.0236" stop-color="#F9EAA9"/>
<stop offset="0.1046" stop-color="#DCBB6D"/>
<stop offset="0.1736" stop-color="#C69941"/>
<stop offset="0.2269" stop-color="#B98526"/>
<stop offset="0.2582" stop-color="#B47D1C"/>
<stop offset="0.3301" stop-color="#C79B43"/>
<stop offset="0.4901" stop-color="#F6E5A4"/>
<stop offset="0.5018" stop-color="#FAEBAB"/>
<stop offset="0.5844" stop-color="#E0C377"/>
<stop offset="0.7338" stop-color="#B47D1C"/>
<stop offset="0.7697" stop-color="#BB882A"/>
<stop offset="0.8377" stop-color="#CDA44F"/>
<stop offset="0.9297" stop-color="#EAD28A"/>
<stop offset="0.9768" stop-color="#FAEBAB"/>
</linearGradient>
<linearGradient id="paint1_linear_249_1040" x1="7.51461" y1="23.1838" x2="82.6874" y2="66.5303" gradientUnits="userSpaceOnUse">
<stop offset="0.0221" stop-color="#B47D1C"/>
<stop offset="0.0597" stop-color="#B98627"/>
<stop offset="0.1261" stop-color="#C89C45"/>
<stop offset="0.2128" stop-color="#DFC175"/>
<stop offset="0.2993" stop-color="#FAEBAB"/>
<stop offset="0.3148" stop-color="#F1DD99"/>
<stop offset="0.3572" stop-color="#DBBB6C"/>
<stop offset="0.3981" stop-color="#CAA049"/>
<stop offset="0.4365" stop-color="#BE8D30"/>
<stop offset="0.4714" stop-color="#B78121"/>
<stop offset="0.4997" stop-color="#B47D1C"/>
<stop offset="0.5326" stop-color="#B98526"/>
<stop offset="0.5891" stop-color="#C79A42"/>
<stop offset="0.6624" stop-color="#DDBD6F"/>
<stop offset="0.7469" stop-color="#FAEBAB"/>
<stop offset="0.8084" stop-color="#E3C87D"/>
<stop offset="0.8863" stop-color="#CA9F49"/>
<stop offset="0.945" stop-color="#BA8628"/>
<stop offset="0.9773" stop-color="#B47D1C"/>
</linearGradient>
<linearGradient id="paint2_linear_249_1040" x1="12.0985" y1="26.3617" x2="77.0227" y2="63.9262" gradientUnits="userSpaceOnUse">
<stop offset="0.0331" stop-color="#FAEBAB"/>
<stop offset="0.2483" stop-color="#B47D1C"/>
<stop offset="0.2646" stop-color="#B98627"/>
<stop offset="0.3743" stop-color="#DCBC6E"/>
<stop offset="0.4533" stop-color="#F2DE9A"/>
<stop offset="0.4932" stop-color="#FAEBAB"/>
<stop offset="0.5146" stop-color="#F3E09C"/>
<stop offset="0.6533" stop-color="#C69940"/>
<stop offset="0.7159" stop-color="#B47D1C"/>
<stop offset="0.7467" stop-color="#B88425"/>
<stop offset="0.7973" stop-color="#C5973E"/>
<stop offset="0.8615" stop-color="#D8B666"/>
<stop offset="0.936" stop-color="#F3E19E"/>
<stop offset="0.9525" stop-color="#FAEBAB"/>
</linearGradient>
<linearGradient id="paint3_linear_249_1040" x1="19.6184" y1="65.9186" x2="69.227" y2="24.3461" gradientUnits="userSpaceOnUse">
<stop offset="0.0854" stop-color="#181D21"/>
<stop offset="0.4201" stop-color="#181D21"/>
</linearGradient>
<linearGradient id="paint4_linear_249_1040" x1="33.8147" y1="52.9705" x2="78.5031" y2="19.3705" gradientUnits="userSpaceOnUse">
<stop offset="0.146" stop-color="#4D565F"/>
<stop offset="0.3652" stop-color="#333A41" stop-opacity="0.9619"/>
<stop offset="0.5844" stop-color="#1F252A" stop-opacity="0.9238"/>
<stop offset="0.721" stop-color="#181D21" stop-opacity="0.9"/>
</linearGradient>
<linearGradient id="paint5_linear_249_1040" x1="27.0641" y1="60.9109" x2="57.9874" y2="29.9887" gradientUnits="userSpaceOnUse">
<stop offset="0.2254" stop-color="#FAEBAB"/>
<stop offset="0.268" stop-color="#F5E3A1"/>
<stop offset="0.3402" stop-color="#E8CF86"/>
<stop offset="0.4331" stop-color="#D3AD5B"/>
<stop offset="0.5422" stop-color="#B6801F"/>
<stop offset="0.5482" stop-color="#B47D1C"/>
<stop offset="0.5778" stop-color="#BD8B2E"/>
<stop offset="0.6595" stop-color="#D3AD5A"/>
<stop offset="0.7383" stop-color="#E4C87D"/>
<stop offset="0.8122" stop-color="#F0DB97"/>
<stop offset="0.8794" stop-color="#F7E7A6"/>
<stop offset="0.9338" stop-color="#FAEBAB"/>
</linearGradient>
<clipPath id="clip0_249_1040">
<rect width="90" height="90" fill="white"/>
</clipPath>
</defs>
</svg>
